<?xml version="1.0" encoding="UTF-8"?>
<svg width="94px" height="170px" viewBox="0 0 94 170" version="1.1" xmlns="http://www.w3.org/2000/svg" xmlns:xlink="http://www.w3.org/1999/xlink">
  <!-- Generator: Sketch 46 (44423) - http://www.bohemiancoding.com/sketch -->
  <script xlink:href="../../js/animation.js"/>
  <title>cbs-hero</title>
  <desc>Created with Sketch.</desc>
  <defs>
    <polygon id="path-1" points="0.352 62 28.935 62 28.935 31.11415 28.935 0.2283 0.352 0.2283"></polygon>
    <polygon id="path-3" points="2.0469737e-16 26.5139 2.0469737e-16 0.844 23.7926 0.844 23.7926 26.5139"></polygon>
    <polygon id="path-5" points="0 75.6247 0 0.1077 47.8578 0.1077 47.8578 75.6247"></polygon>
    <polygon id="path-7" points="0.82 0.844 43.415 0.844 43.415 53.7318 0.82 53.7318 0.82 0.844"></polygon>
    <polygon id="path-9" points="0.6602 0.844 26.7702 0.844 26.7702 80.2236 0.6602 80.2236"></polygon>
  </defs>
  <g id="Page-1" stroke="none" stroke-width="1" fill="none" fill-rule="evenodd">
    <g id="cbs-hero">
      <path
        class="fade-in-left"
        duration-fade="15"
        delay="0"
        d="M17.4089,119.3289 C17.4089,118.3059 17.1099,117.5929 16.5119,117.1979 C15.9129,116.7989 15.0449,116.5999 13.9109,116.5999 C12.8289,116.5999 11.9759,116.7989 11.3519,117.1979 C10.7239,117.5929 10.4099,118.3059 10.4099,119.3289 L10.4099,157.2079 C10.4099,158.2349 10.7239,158.9439 11.3519,159.3429 C11.9759,159.7419 12.8289,159.9409 13.9109,159.9409 C15.0449,159.9409 15.9129,159.7419 16.5119,159.3429 C17.1099,158.9439 17.4089,158.2349 17.4089,157.2079 L17.4089,144.3289 L27.9019,144.3289 L27.9019,159.0879 C27.9019,160.6799 27.7019,162.1019 27.3039,163.3539 C26.9039,164.6059 26.1949,165.6549 25.1719,166.5079 C24.1489,167.3609 22.7239,168.0189 20.9069,168.4729 C19.0859,168.9269 16.7519,169.1559 13.9109,169.1559 C11.0639,169.1559 8.7479,168.9269 6.9569,168.4729 C5.1649,168.0189 3.7579,167.3609 2.7309,166.5079 C1.7079,165.6549 0.9989,164.6059 0.6009,163.3539 C0.2019,162.1019 0.0019,160.6799 0.0019,159.0879 L0.0019,117.4529 C0.0019,115.8609 0.2019,114.4389 0.6009,113.1869 C0.9989,111.9349 1.7079,110.8819 2.7309,110.0289 C3.7579,109.1799 5.1649,108.5259 6.9569,108.0679 C8.7479,107.6139 11.0639,107.3849 13.9109,107.3849 C16.7519,107.3849 19.0859,107.6139 20.9069,108.0679 C22.7239,108.5259 24.1489,109.1799 25.1719,110.0289 C26.1949,110.8819 26.9039,111.9349 27.3039,113.1869 C27.7019,114.4389 27.9019,115.8609 27.9019,117.4529 L27.9019,131.6169 L17.4089,131.6169 L17.4089,119.3289 Z"
        id="Fill-1"
        fill="#FFFFFF"></path>
      <path
        d="M48.1191,158.9144 C48.7441,158.9144 49.3011,158.7594 49.7851,158.4454 C50.2651,158.1354 50.5091,157.5814 50.5091,156.7834 L50.5091,143.4724 C50.5091,142.8524 50.2801,142.4094 49.8251,142.1504 C49.3711,141.8954 48.9171,141.7664 48.4621,141.7664 L43.3431,141.7664 L43.3431,158.9144 L48.1191,158.9144 Z M48.4621,132.5554 C48.9171,132.5554 49.3271,132.3854 49.7001,132.0414 C50.0691,131.7014 50.2541,131.1334 50.2541,130.3354 L50.2541,119.7574 C50.2541,118.9634 50.0101,118.4054 49.5261,118.0914 C49.0431,117.7814 48.5471,117.6264 48.0341,117.6264 L43.3431,117.6264 L43.3431,132.5554 L48.4621,132.5554 Z M32.8471,108.4074 L50.4241,108.4074 C51.9601,108.4074 53.3671,108.5664 54.6451,108.8804 C55.9271,109.1944 57.0051,109.7044 57.8881,110.4174 C58.7711,111.1264 59.4651,112.0944 59.9791,113.3164 C60.4921,114.5384 60.7471,116.0904 60.7471,117.9664 L60.7471,131.1034 C60.7471,132.7544 60.3181,133.9914 59.4651,134.8154 C58.6121,135.6384 57.8181,136.2224 57.0791,136.5664 L57.0791,137.1604 C57.8731,137.4484 58.7261,137.9694 59.6391,138.7414 C60.5471,139.5054 61.0021,140.6624 61.0021,142.1944 L61.0021,158.4894 C61.0021,160.3104 60.7471,161.8464 60.2331,163.0994 C59.7241,164.3474 59.0111,165.3444 58.1021,166.0834 C57.1901,166.8224 56.0821,167.3504 54.7751,167.6604 C53.4671,167.9744 52.0161,168.1294 50.4241,168.1294 L32.8471,168.1294 L32.8471,108.4074 Z"
        id="Fill-3"
        fill="#FFFFFF"></path>
      <g id="Group-7" transform="translate(65.000000, 107.156000)">
        <mask id="mask-2" fill="white">
          <use xlink:href="#path-1"></use>
        </mask>
        <g id="Clip-6"></g>
        <path
          d="M18.269,11.4933 C18.269,10.1273 17.102,9.4443 14.771,9.4443 C12.326,9.4443 11.104,10.1273 11.104,11.4933 L11.104,17.3773 C11.104,18.3483 11.203,19.0873 11.403,19.5963 C11.602,20.1103 11.872,20.5353 12.212,20.8743 L25.179,32.7343 C26.317,33.7013 27.229,34.8133 27.912,36.0613 C28.592,37.3133 28.935,39.0753 28.935,41.3543 L28.935,51.5033 C28.935,55.2593 27.812,57.9483 25.563,59.5703 C23.318,61.1873 19.721,62.0003 14.771,62.0003 C12.212,62.0003 10.007,61.8263 8.16,61.4873 C6.31,61.1473 4.818,60.5633 3.68,59.7403 C2.543,58.9123 1.704,57.8343 1.165,56.4973 C0.622,55.1603 0.352,53.4943 0.352,51.5033 L0.352,37.7713 L10.76,37.7713 L10.76,50.3103 C10.76,51.2193 11.118,51.8623 11.827,52.2313 C12.54,52.6003 13.519,52.7853 14.771,52.7853 C15.853,52.7853 16.732,52.6003 17.416,52.2313 C18.099,51.8623 18.439,51.2193 18.439,50.3103 L18.439,42.3733 C18.439,41.5793 18.354,40.9403 18.184,40.4573 C18.014,39.9733 17.7,39.5333 17.246,39.1343 L5.131,28.6383 C3.71,27.3893 2.598,26.0233 1.804,24.5453 C1.006,23.0643 0.611,20.9893 0.611,18.3153 L0.611,10.7213 C0.611,6.9133 1.719,4.2133 3.935,2.6183 C6.154,1.0263 9.767,0.2283 14.771,0.2283 C20.005,0.2283 23.646,1.0413 25.693,2.6623 C27.739,4.2803 28.766,6.8583 28.766,10.3813 L28.766,21.8163 L18.269,21.8163 L18.269,11.4933 Z"
          id="Fill-5"
          fill="#FFFFFF"
          mask="url(#mask-2)"></path>
      </g>
      <g id="Group-10" transform="translate(0.000000, -0.844000)">
        <mask id="mask-4" fill="white">
          <use xlink:href="#path-3"></use>
        </mask>
        <g id="Clip-9"></g>
        <path
          d="M11.2346,18.4879 C15.3256,21.2509 19.4966,23.9359 23.7926,26.5139 L23.7606,25.9829 L16.9216,10.0249 C15.6226,7.0839 14.3756,3.9499 13.0776,0.8439 L-0.0004,0.8439 L-0.0004,12.9169 C0.6146,12.4329 1.3426,12.1169 2.1406,12.0029 C6.8826,11.5019 7.4936,17.0019 11.2346,18.4879"
          id="Fill-8"
          fill="#FFFFFF"
          mask="url(#mask-4)"></path>
      </g>
      <g id="Group-13" transform="translate(0.000000, 18.156000)">
        <mask id="mask-6" fill="white">
          <use xlink:href="#path-5"></use>
        </mask>
        <g id="Clip-12"></g>
        <path
          d="M40.3468,52.4167 L35.1268,37.4857 L28.4508,20.4957 L27.0048,16.9707 L23.6168,14.8197 L8.3288,6.0177 C6.0808,4.3027 2.7368,3.8577 1.0158,1.6837 C0.7138,1.1687 0.3528,0.6427 -0.0002,0.1077 L-0.0002,75.6247 L47.8578,75.6247 L47.6708,74.9997 L40.3468,52.4167"
          id="Fill-11"
          fill="#FFFFFF"
          mask="url(#mask-6)"></path>
      </g>
      <g id="Group-16" transform="translate(19.000000, -0.844000)">
        <mask id="mask-8" fill="white">
          <use xlink:href="#path-7"></use>
        </mask>
        <g id="Clip-15"></g>
        <path
          d="M10.068,28.5228 C10.841,31.7988 14.295,32.5328 16.476,34.4708 C25.22,40.5008 34.17,46.9398 42.708,53.4158 C42.708,53.4158 42.892,53.5408 43.168,53.7318 L43.15,53.5588 C43.15,53.5588 43.15,46.0768 43.415,41.0818 C43.073,31.3078 42.307,17.9048 40.582,9.4968 C39.589,7.1008 38.441,4.8368 38.813,2.4568 C38.871,1.9378 38.783,1.3938 38.647,0.8438 L0.82,0.8438 C1.229,2.0668 1.637,3.2958 2.056,4.5058 C4.709,12.4508 7.217,20.5958 10.068,28.5228"
          id="Fill-14"
          fill="#FFFFFF"
          mask="url(#mask-8)"></path>
      </g>
      <path
        d="M66.3322,3.36 C67.5202,6.262 66.6372,9.17 66.8622,12.133 C67.2482,20.52 67.5832,28.926 66.2802,37.322 C65.8132,42.945 65.3542,48.629 65.2582,54.268 C65.2582,54.268 65.2842,54.604 65.3212,55.2 C65.6842,55.496 65.9602,55.746 66.0632,55.884 L66.3102,55.699 L70.6582,42.375 L76.0432,24.399 C77.6692,17.657 80.2372,10.824 80.5282,3.967 C79.9322,2.779 79.3432,1.352 79.3542,0 L66.4572,0 C66.5342,1.123 66.5342,2.249 66.3322,3.36"
        id="Fill-17"
        fill="#FFFFFF"></path>
      <path
        d="M62.6831,65.6453 L62.5941,57.9813 C62.2491,57.7383 61.9171,57.4643 61.6751,57.1733 C53.8651,51.3543 45.3201,46.1673 37.0431,41.0023 C36.4361,41.1073 36.5581,41.8813 36.4471,42.3083 C38.8791,57.7693 44.6251,73.1113 49.3261,88.5443 C49.9371,90.2933 50.3561,92.0413 50.8641,93.7813 L53.5081,93.7813 C56.1721,85.8113 58.7541,78.0603 61.3551,69.9863 C61.8071,68.5843 62.2381,67.1503 62.6831,65.6453"
        id="Fill-19"
        fill="#FFFFFF"></path>
      <g id="Group-23" transform="translate(67.000000, -0.844000)">
        <mask id="mask-10" fill="white">
          <use xlink:href="#path-9"></use>
        </mask>
        <g id="Clip-22"></g>
        <path
          d="M21.9772,0.8436 C21.9372,0.9966 21.9112,1.1526 21.8562,1.3126 C20.2122,7.6946 18.3502,13.9526 15.5212,20.2236 C13.6272,24.4926 12.2142,29.1626 10.8022,33.5666 C8.3372,37.2926 6.8182,41.6756 5.1372,45.9046 L0.6602,57.9776 C1.6642,58.9666 3.0182,59.7056 3.9672,60.8096 C11.3392,66.4896 18.6452,72.3896 25.4432,78.6946 C25.8662,79.2206 26.2702,79.7916 26.7702,80.2236 L26.7702,0.8436 L21.9772,0.8436"
          id="Fill-21"
          fill="#FFFFFF"
          mask="url(#mask-10)"></path>
      </g>
      <path d="M62.764,73.4367 L60.74,78.5827 C59.015,83.6837 57.386,88.7157 55.848,93.7807 L62.043,93.7807 L62.771,73.6537 L62.764,73.4367" id="Fill-24" fill="#FFFFFF"></path>
      <path
        d="M71.7432,64.2882 C69.5582,62.7652 69.5582,62.7702 69.0942,62.4122 C69.0142,62.3492 69.0582,62.3572 68.9582,62.2962 C68.7522,62.1742 68.5502,62.0842 68.3632,61.9592 C68.3182,61.9342 68.2742,62.0182 68.2342,61.9962 C68.0612,61.8822 67.8332,61.6872 67.5792,61.5342 C67.4802,61.6722 67.4692,62.1742 67.3652,62.3572 C67.0382,63.1662 66.5452,63.8212 66.5452,63.8212 C66.2252,64.7032 65.9712,65.3312 65.7362,65.9032 C65.7472,66.8042 65.7512,67.7142 65.7512,68.6432 C65.7292,74.3692 65.0192,84.1192 65.1992,84.8622 C65.1992,84.8622 65.0112,90.4462 64.8682,93.7812 L93.7702,93.7812 L93.7702,79.6312 L92.9942,79.6462 C85.8762,74.5292 78.9012,69.3702 71.7432,64.2882"
        id="Fill-26"
        fill="#FFFFFF"></path>
    </g>
  </g>
</svg>
