<svg width="116" height="70" xmlns="http://www.w3.org/2000/svg"><g fill="none"><path d="M6.616 45.351c0-.389-.114-.66-.34-.81-.228-.15-.558-.227-.989-.227-.412 0-.736.076-.973.227-.239.15-.358.421-.358.81v14.396c0 .391.12.66.358.812.237.151.561.227.973.227.431 0 .761-.076.988-.227.227-.152.341-.42.341-.812v-4.895h3.988v5.61a5.32 5.32 0 0 1-.228 1.621 2.53 2.53 0 0 1-.81 1.2c-.388.323-.93.573-1.62.746-.693.172-1.58.26-2.659.26-1.082 0-1.963-.088-2.643-.26-.68-.173-1.216-.423-1.606-.747a2.53 2.53 0 0 1-.81-1.199 5.322 5.322 0 0 1-.227-1.62V44.637c0-.605.075-1.145.227-1.62.151-.477.421-.877.81-1.2.39-.324.925-.572 1.606-.747.68-.172 1.561-.26 2.643-.26 1.08 0 1.966.088 2.658.26.691.175 1.233.423 1.621.746.39.324.66.724.81 1.2a5.32 5.32 0 0 1 .228 1.621v5.383H6.616v-4.67zm11.672 15.045c.237 0 .449-.059.633-.178.183-.118.275-.329.275-.632v-5.059c0-.235-.087-.404-.26-.503a1.058 1.058 0 0 0-.518-.146h-1.945v6.518h1.815zm.13-10.018a.68.68 0 0 0 .47-.195c.14-.129.21-.346.21-.649v-4.02c0-.302-.091-.514-.275-.633a1.035 1.035 0 0 0-.567-.177h-1.783v5.674h1.945zm-5.934-9.177h6.68c.584 0 1.119.06 1.604.18.487.12.897.312 1.233.583.335.27.599.638.794 1.102.195.465.292 1.054.292 1.767v4.993c0 .628-.163 1.098-.487 1.411-.324.313-.626.534-.907.665v.226c.302.11.626.308.973.601.345.291.518.73.518 1.313v6.192c0 .692-.097 1.276-.292 1.752-.194.475-.465.853-.81 1.134a3.118 3.118 0 0 1-1.265.6 7.1 7.1 0 0 1-1.653.178h-6.68V41.201zm19.163 3.892c0-.52-.444-.78-1.33-.78-.93 0-1.393.26-1.393.78v2.236c0 .369.038.65.113.844.076.195.179.357.308.485l4.928 4.508c.433.367.779.79 1.039 1.264.258.476.389 1.146.389 2.012v3.857c0 1.428-.427 2.45-1.282 3.066-.853.615-2.22.923-4.101.923-.973 0-1.811-.066-2.513-.195-.703-.13-1.27-.351-1.703-.664a2.771 2.771 0 0 1-.955-1.232c-.207-.508-.31-1.141-.31-1.898v-5.22h3.956v4.767c0 .345.136.589.406.73.27.14.643.21 1.119.21.41 0 .745-.07 1.005-.21.259-.141.389-.385.389-.73v-3.017c0-.301-.033-.544-.097-.728a1.207 1.207 0 0 0-.357-.503l-4.604-3.99a5.632 5.632 0 0 1-1.265-1.554c-.303-.563-.453-1.352-.453-2.368V44.8c0-1.447.42-2.474 1.263-3.08.844-.605 2.217-.908 4.119-.908 1.989 0 3.373.309 4.15.925.778.615 1.168 1.595 1.168 2.934v4.345h-3.99v-3.923zM4.27 6.706a105.92 105.92 0 0 0 4.773 3.05l-.013-.201-2.6-6.065C5.939 2.372 5.465 1.18 4.97 0H0v4.589c.234-.184.51-.304.814-.348 1.802-.19 2.034 1.9 3.456 2.465m11.064 20.116l-1.984-5.675-2.537-6.456-.55-1.341-1.287-.817-5.811-3.345C2.31 8.536 1.04 8.366.385 7.54.272 7.345.135 7.144 0 6.941v28.7h18.189l-.072-.236-2.783-8.584M11.047 10.52c.294 1.245 1.606 1.524 2.435 2.26a275.127 275.127 0 0 1 9.97 7.2l.175.12-.007-.065s0-2.844.1-4.742c-.13-3.715-.42-8.81-1.076-12.004-.378-.911-.814-1.771-.673-2.676A1.76 1.76 0 0 0 21.91 0H7.532c.156.465.311.932.47 1.392 1.008 3.02 1.962 6.115 3.045 9.128M25.21 1.277c.45 1.103.116 2.208.2 3.334.148 3.188.275 6.382-.22 9.574-.177 2.136-.352 4.297-.388 6.44 0 0 .01.128.024.354.138.112.243.208.282.26l.094-.07 1.652-5.064L28.9 9.273c.618-2.562 1.594-5.16 1.704-7.766-.226-.451-.45-.993-.446-1.507h-4.902c.03.427.03.855-.047 1.277m-1.386 23.672a69.477 69.477 0 0 1-.505 1.65 840.548 840.548 0 0 1-2.982 9.043H19.33c-.193-.661-.352-1.325-.584-1.99-1.787-5.866-3.971-11.696-4.895-17.572.042-.163-.004-.457.226-.497 3.146 1.963 6.394 3.934 9.362 6.146.092.11.218.215.349.307l.034 2.913zM33.816 0h1.822v30.168c-.19-.164-.344-.38-.505-.58-2.583-2.397-5.36-4.639-8.162-6.798-.361-.419-.875-.7-1.257-1.076l1.702-4.589c.639-1.607 1.216-3.272 2.153-4.689.537-1.673 1.073-3.448 1.794-5.07 1.075-2.384 1.782-4.762 2.407-7.188.021-.06.031-.12.046-.178zm-9.962 27.91l-.77 1.956a191.028 191.028 0 0 0-1.858 5.776h2.354l.277-7.65-.003-.082m3.412-3.477c-.83-.58-.83-.577-1.007-.713-.03-.024-.014-.021-.05-.044-.08-.046-.156-.08-.228-.128-.016-.01-.033.023-.049.014-.065-.043-.152-.117-.248-.175-.038.052-.042.243-.082.312-.124.308-.31.557-.31.557-.123.335-.219.573-.309.79.004.344.006.689.006 1.042-.009 2.177-.279 5.882-.21 6.164 0 0-.07 2.123-.126 3.39h10.985v-5.377l-.295.005c-2.706-1.945-5.356-3.905-8.077-5.837" fill="#4C62A7"/><path d="M48.761 64.042V.06h63.981v63.98H48.761zm4-4h55.98V4.062h-55.98v55.98z" fill="#4B62A7"/><path fill="#FFF" d="M70.846 69.534h44.835V35.569H70.846z"/><path d="M83.105 45.45c0-.393-.115-.666-.344-.82-.23-.152-.563-.23-1-.23-.415 0-.743.078-.983.23-.241.154-.361.427-.361.82v14.29c0 .394.12.667.36.82.24.153.569.229.984.229.437 0 .77-.076 1-.23.229-.152.344-.425.344-.818v-4.82h4.03v5.54c0 .613-.075 1.159-.228 1.639a2.563 2.563 0 0 1-.82 1.213c-.393.328-.94.579-1.638.754-.7.175-1.596.262-2.688.262-1.093 0-1.983-.087-2.671-.262-.688-.175-1.23-.426-1.623-.754a2.563 2.563 0 0 1-.82-1.213 5.425 5.425 0 0 1-.228-1.64V44.73a5.4 5.4 0 0 1 .229-1.64c.153-.48.426-.884.819-1.212.394-.327.935-.578 1.623-.753.688-.175 1.578-.262 2.67-.262 1.093 0 1.989.087 2.689.262.699.175 1.245.426 1.639.753.393.328.666.733.819 1.213a5.4 5.4 0 0 1 .229 1.639v5.31h-4.031v-4.59zm13.405-.262c0-.524-.448-.787-1.344-.787-.94 0-1.41.263-1.41.787v2.13c0 .372.039.656.116.853.076.197.18.36.31.49l4.983 4.557a4.5 4.5 0 0 1 1.049 1.279c.262.48.393 1.158.393 2.03v3.77c0 1.443-.432 2.475-1.295 3.098-.863.623-2.245.934-4.146.934-.983 0-1.83-.065-2.54-.196-.71-.132-1.284-.355-1.721-.672a2.796 2.796 0 0 1-.966-1.246c-.21-.513-.312-1.152-.312-1.917v-5.146h3.999v4.687c0 .349.136.596.41.737.273.143.649.214 1.13.214.415 0 .754-.071 1.016-.214.263-.141.394-.388.394-.737v-2.917c0-.306-.033-.552-.1-.737a1.223 1.223 0 0 0-.36-.51l-4.654-4.03a5.704 5.704 0 0 1-1.278-1.573c-.306-.568-.458-1.365-.458-2.393v-2.786c0-1.463.426-2.501 1.278-3.114.852-.611 2.239-.917 4.162-.917 2.01 0 3.409.31 4.196.934.786.622 1.18 1.61 1.18 2.966v4.26H96.51v-3.834zm6.915-4.064h9.308v3.54h-5.277v5.735h5.114v3.54h-5.114v6.588h5.277v3.54h-9.308z" fill="#4B62A7"/></g></svg>