<?xml version="1.0" encoding="UTF-8"?>
<svg width="94px" height="170px" viewBox="0 0 94 170" version="1.1" xmlns="http://www.w3.org/2000/svg" xmlns:xlink="http://www.w3.org/1999/xlink">
  <title>Copenhagen School of Entrepreneurship</title>
  <defs></defs>
  <g id="Page-1" stroke="none" stroke-width="1" fill="none" fill-rule="evenodd">
    <g id="cbs-hero" fill="#FFFFFF">
      <g id="text" transform="translate(0.000000, 107.000000)" fill-rule="nonzero">
        <path
          d="M17.4089,12.3289 C17.4089,11.3059 17.1099,10.5929 16.5119,10.1979 C15.9129,9.7989 15.0449,9.5999 13.9109,9.5999 C12.8289,9.5999 11.9759,9.7989 11.3519,10.1979 C10.7239,10.5929 10.4099,11.3059 10.4099,12.3289 L10.4099,50.2079 C10.4099,51.2349 10.7239,51.9439 11.3519,52.3429 C11.9759,52.7419 12.8289,52.9409 13.9109,52.9409 C15.0449,52.9409 15.9129,52.7419 16.5119,52.3429 C17.1099,51.9439 17.4089,51.2349 17.4089,50.2079 L17.4089,37.3289 L27.9019,37.3289 L27.9019,52.0879 C27.9019,53.6799 27.7019,55.1019 27.3039,56.3539 C26.9039,57.6059 26.1949,58.6549 25.1719,59.5079 C24.1489,60.3609 22.7239,61.0189 20.9069,61.4729 C19.0859,61.9269 16.7519,62.1559 13.9109,62.1559 C11.0639,62.1559 8.7479,61.9269 6.9569,61.4729 C5.1649,61.0189 3.7579,60.3609 2.7309,59.5079 C1.7079,58.6549 0.9989,57.6059 0.6009,56.3539 C0.2019,55.1019 0.0019,53.6799 0.0019,52.0879 L0.0019,10.4529 C0.0019,8.8609 0.2019,7.4389 0.6009,6.1869 C0.9989,4.9349 1.7079,3.8819 2.7309,3.0289 C3.7579,2.1799 5.1649,1.5259 6.9569,1.0679 C8.7479,0.6139 11.0639,0.3849 13.9109,0.3849 C16.7519,0.3849 19.0859,0.6139 20.9069,1.0679 C22.7239,1.5259 24.1489,2.1799 25.1719,3.0289 C26.1949,3.8819 26.9039,4.9349 27.3039,6.1869 C27.7019,7.4389 27.9019,8.8609 27.9019,10.4529 L27.9019,24.6169 L17.4089,24.6169 L17.4089,12.3289 Z"
          id="c"></path>
        <path
          d="M48.1191,51.9144 C48.7441,51.9144 49.3011,51.7594 49.7851,51.4454 C50.2651,51.1354 50.5091,50.5814 50.5091,49.7834 L50.5091,36.4724 C50.5091,35.8524 50.2801,35.4094 49.8251,35.1504 C49.3711,34.8954 48.9171,34.7664 48.4621,34.7664 L43.3431,34.7664 L43.3431,51.9144 L48.1191,51.9144 Z M48.4621,25.5554 C48.9171,25.5554 49.3271,25.3854 49.7001,25.0414 C50.0691,24.7014 50.2541,24.1334 50.2541,23.3354 L50.2541,12.7574 C50.2541,11.9634 50.0101,11.4054 49.5261,11.0914 C49.0431,10.7814 48.5471,10.6264 48.0341,10.6264 L43.3431,10.6264 L43.3431,25.5554 L48.4621,25.5554 Z M32.8471,1.4074 L50.4241,1.4074 C51.9601,1.4074 53.3671,1.5664 54.6451,1.8804 C55.9271,2.1944 57.0051,2.7044 57.8881,3.4174 C58.7711,4.1264 59.4651,5.0944 59.9791,6.3164 C60.4921,7.5384 60.7471,9.0904 60.7471,10.9664 L60.7471,24.1034 C60.7471,25.7544 60.3181,26.9914 59.4651,27.8154 C58.6121,28.6384 57.8181,29.2224 57.0791,29.5664 L57.0791,30.1604 C57.8731,30.4484 58.7261,30.9694 59.6391,31.7414 C60.5471,32.5054 61.0021,33.6624 61.0021,35.1944 L61.0021,51.4894 C61.0021,53.3104 60.7471,54.8464 60.2331,56.0994 C59.7241,57.3474 59.0111,58.3444 58.1021,59.0834 C57.1901,59.8224 56.0821,60.3504 54.7751,60.6604 C53.4671,60.9744 52.0161,61.1294 50.4241,61.1294 L32.8471,61.1294 L32.8471,1.4074 Z"
          id="b"></path>
        <path
          d="M83.269,11.6493 C83.269,10.2833 82.102,9.6003 79.771,9.6003 C77.326,9.6003 76.104,10.2833 76.104,11.6493 L76.104,17.5333 C76.104,18.5043 76.203,19.2433 76.403,19.7523 C76.602,20.2663 76.872,20.6913 77.212,21.0303 L90.179,32.8903 C91.317,33.8573 92.229,34.9693 92.912,36.2173 C93.592,37.4693 93.935,39.2313 93.935,41.5103 L93.935,51.6593 C93.935,55.4153 92.812,58.1043 90.563,59.7263 C88.318,61.3433 84.721,62.1563 79.771,62.1563 C77.212,62.1563 75.007,61.9823 73.16,61.6433 C71.31,61.3033 69.818,60.7193 68.68,59.8963 C67.543,59.0683 66.704,57.9903 66.165,56.6533 C65.622,55.3163 65.352,53.6503 65.352,51.6593 L65.352,37.9273 L75.76,37.9273 L75.76,50.4663 C75.76,51.3753 76.118,52.0183 76.827,52.3873 C77.54,52.7563 78.519,52.9413 79.771,52.9413 C80.853,52.9413 81.732,52.7563 82.416,52.3873 C83.099,52.0183 83.439,51.3753 83.439,50.4663 L83.439,42.5293 C83.439,41.7353 83.354,41.0963 83.184,40.6133 C83.014,40.1293 82.7,39.6893 82.246,39.2903 L70.131,28.7943 C68.71,27.5453 67.598,26.1793 66.804,24.7013 C66.006,23.2203 65.611,21.1453 65.611,18.4713 L65.611,10.8773 C65.611,7.0693 66.719,4.3693 68.935,2.7743 C71.154,1.1823 74.767,0.3843 79.771,0.3843 C85.005,0.3843 88.646,1.1973 90.693,2.8183 C92.739,4.4363 93.766,7.0143 93.766,10.5373 L93.766,21.9723 L83.269,21.9723 L83.269,11.6493 Z"
          id="s"></path>
      </g>
      <rect id="mask" fill-opacity="0" x="0" y="0" width="94" height="94"></rect>
      <g id="parts" fill-rule="nonzero">
        <path
          d="M11.2346,17.6439 C15.3256,20.4069 19.4966,23.0919 23.7926,25.6699 L23.7606,25.1389 L16.9216,9.1809 C15.6226,6.2399 14.3756,3.1059 13.0776,-0.0001 L-0.0004,-0.0001 L-0.0004,12.0729 C0.6146,11.5889 1.3426,11.2729 2.1406,11.1589 C6.8826,10.6579 7.4936,16.1579 11.2346,17.6439"
          id="8"></path>
        <path
          d="M40.3468,70.5727 L35.1268,55.6417 L28.4508,38.6517 L27.0048,35.1267 L23.6168,32.9757 L8.3288,24.1737 C6.0808,22.4587 2.7368,22.0137 1.0158,19.8397 C0.7138,19.3247 0.3528,18.7987 -0.0002,18.2637 L-0.0002,93.7807 L47.8578,93.7807 L47.6708,93.1557 L40.3468,70.5727"
          id="7"></path>
        <path
          d="M29.068,27.6788 C29.841,30.9548 33.295,31.6888 35.476,33.6268 C44.22,39.6568 53.17,46.0958 61.708,52.5718 C61.708,52.5718 61.892,52.6968 62.168,52.8878 L62.15,52.7148 C62.15,52.7148 62.15,45.2328 62.415,40.2378 C62.073,30.4638 61.307,17.0608 59.582,8.6528 C58.589,6.2568 57.441,3.9928 57.813,1.6128 C57.871,1.0938 57.783,0.5498 57.647,-0.0002 L19.82,-0.0002 C20.229,1.2228 20.637,2.4518 21.056,3.6618 C23.709,11.6068 26.217,19.7518 29.068,27.6788"
          id="6"></path>
        <path
          d="M66.8622,12.133 C67.2482,20.52 67.5832,28.926 66.2802,37.322 C65.8132,42.945 65.3542,48.629 65.2582,54.268 C65.2582,54.268 65.2842,54.604 65.3212,55.2 C65.6842,55.496 65.9602,55.746 66.0632,55.884 L66.3102,55.699 L70.6582,42.375 L76.0432,24.399 C77.6692,17.657 80.2372,10.824 80.5282,3.967 C79.9322,2.779 79.3432,1.352 79.3542,0 L66.4572,0 C66.5342,1.123 66.5342,2.249 66.3322,3.36 C67.5202,6.262 66.6372,9.17 66.8622,12.133 Z"
          id="5"></path>
        <path
          d="M62.6831,65.6453 L62.5941,57.9813 C62.2491,57.7383 61.9171,57.4643 61.6751,57.1733 C53.8651,51.3543 45.3201,46.1673 37.0431,41.0023 C36.4361,41.1073 36.5581,41.8813 36.4471,42.3083 C38.8791,57.7693 44.6251,73.1113 49.3261,88.5443 C49.9371,90.2933 50.3561,92.0413 50.8641,93.7813 L53.5081,93.7813 C56.1721,85.8113 58.7541,78.0603 61.3551,69.9863 C61.8071,68.5843 62.2381,67.1503 62.6831,65.6453"
          id="4"></path>
        <path
          d="M88.9772,-0.0004 C88.9372,0.1526 88.9112,0.3086 88.8562,0.4686 C87.2122,6.8506 85.3502,13.1086 82.5212,19.3796 C80.6272,23.6486 79.2142,28.3186 77.8022,32.7226 C75.3372,36.4486 73.8182,40.8316 72.1372,45.0606 L67.6602,57.1336 C68.6642,58.1226 70.0182,58.8616 70.9672,59.9656 C78.3392,65.6456 85.6452,71.5456 92.4432,77.8506 C92.8662,78.3766 93.2702,78.9476 93.7702,79.3796 L93.7702,-0.0004 L88.9772,-0.0004"
          id="3"></path>
        <path d="M60.74,78.5827 C59.015,83.6837 57.386,88.7157 55.848,93.7807 L62.043,93.7807 L62.771,73.6537 L62.764,73.4367 L60.74,78.5827 Z" id="2"></path>
        <path
          d="M71.7432,64.2882 C69.5582,62.7652 69.5582,62.7702 69.0942,62.4122 C69.0142,62.3492 69.0582,62.3572 68.9582,62.2962 C68.7522,62.1742 68.5502,62.0842 68.3632,61.9592 C68.3182,61.9342 68.2742,62.0182 68.2342,61.9962 C68.0612,61.8822 67.8332,61.6872 67.5792,61.5342 C67.4802,61.6722 67.4692,62.1742 67.3652,62.3572 C67.0382,63.1662 66.5452,63.8212 66.5452,63.8212 C66.2252,64.7032 65.9712,65.3312 65.7362,65.9032 C65.7472,66.8042 65.7512,67.7142 65.7512,68.6432 C65.7292,74.3692 65.0192,84.1192 65.1992,84.8622 C65.1992,84.8622 65.0112,90.4462 64.8682,93.7812 L93.7702,93.7812 L93.7702,79.6312 L92.9942,79.6462 C85.8762,74.5292 78.9012,69.3702 71.7432,64.2882"
          id="1"></path>
      </g>
    </g>
  </g>
</svg>
