<svg width="705" height="536" xmlns="http://www.w3.org/2000/svg"><defs><style>@keyframes bubble-light{0%{fill:transparent;transform:&quot;scale(0.5)&quot;}20%{fill:#f26c65;transform:&quot;scale(0.5)&quot;}}@font-face{font-family:&apos;CBS-bold&apos;;src:url(../fonts/CBS-typografier/CBS_NEW_BOLD.woff),url(../fonts/CBS-typografier/CBS_NEW_BOLD.ttf)}.line{stroke-dasharray:1000;stroke-dashoffset:1000}.cloud1{top:80px;z-index:100;-webkit-animation:move 380s linear infinite;-moz-animation:move 380s linear infinite;-o-animation:move 380s linear infinite;animation:move 380s linear infinite}.cloud2{top:240px;z-index:200;-webkit-animation:move 140s linear infinite backwards;-moz-animation:move 140s linear infinite backwards;-o-animation:move 140s linear infinite backwards;animation:move 140s linear infinite backwards}.bubble{opacity:0}</style></defs><g id="Page-1" fill="none" fill-rule="evenodd"><g id="cse-proof-plan"><g id="sky"><path d="M132.063 215.232c0-6.296 6.551-11.399 14.633-11.399h46.01c4.04 0 7.7-1.273 10.347-3.339 2.647-2.063 4.287-4.912 4.287-8.06 0-6.296-6.556-11.397-14.635-11.397h-10.279c-8.085 0-14.634-5.102-14.634-11.4 0-6.297 6.55-11.398 14.634-11.398h145.338c8.083 0 14.633 5.101 14.633 11.398 0 3.148-1.636 5.998-4.286 8.06-2.647 2.064-6.307 3.34-10.347 3.34H272.99c-8.085 0-14.64 5.101-14.64 11.397 0 6.298 6.555 11.4 14.64 11.4h19.044c8.084 0 14.634 5.102 14.634 11.398 0 3.146-1.633 5.997-4.285 8.06-2.648 2.064-6.309 3.338-10.349 3.338H146.696c-8.082 0-14.633-5.102-14.633-11.398" id="6" fill="#8ED2E7" class="cloud1"/><path d="M120.042 116.992c0 5.547-4.498 10.04-10.043 10.04H10.28c-5.546 0-10.042-4.493-10.042-10.04 0-2.773 1.125-5.282 2.942-7.101a10.005 10.005 0 0 1 7.1-2.941H110c5.545 0 10.043 4.496 10.043 10.042" id="5" fill="#8ED2E7" class="cloud2"/><path d="M65.577 76.128c0-4.878 4.38-8.833 9.784-8.833h30.754c2.7 0 5.148-.985 6.919-2.586 1.769-1.6 2.865-3.808 2.865-6.246 0-4.88-4.384-8.834-9.784-8.834h-6.871c-5.403 0-9.782-3.954-9.782-8.833 0-4.88 4.379-8.834 9.782-8.834h97.154c5.405 0 9.783 3.955 9.783 8.834 0 2.439-1.094 4.648-2.865 6.246-1.77 1.6-4.216 2.587-6.918 2.587h-36.614c-5.403 0-9.788 3.954-9.788 8.834 0 4.879 4.385 8.832 9.788 8.832h12.73c5.404 0 9.784 3.955 9.784 8.833 0 2.44-1.094 4.648-2.866 6.248-1.771 1.6-4.216 2.588-6.917 2.588H75.36c-5.404 0-9.784-3.955-9.784-8.836" id="4" fill="#8ED2E7" class="cloud1"/><path d="M584.489 9.761a9.764 9.764 0 0 1-9.765 9.765h-96.96c-5.392 0-9.764-4.372-9.764-9.765a9.726 9.726 0 0 1 2.862-6.902A9.725 9.725 0 0 1 477.764 0h96.96c5.394 0 9.765 4.369 9.765 9.761" id="3" fill="#8ED2E7" class="cloud2"/><path d="M704.217 194.565a8.565 8.565 0 0 1-8.566 8.567h-85.084a8.566 8.566 0 1 1 0-17.132h85.084a8.565 8.565 0 0 1 8.566 8.565" id="2" fill="#8ED2E7" class="cloud2"/><path d="M667.866 112.52c0 5.645-5.068 10.222-11.321 10.222h-35.588c-3.126 0-5.957 1.14-8.007 2.992-2.047 1.85-3.315 4.406-3.315 7.228 0 5.647 5.072 10.222 11.322 10.222h7.95c6.253 0 11.32 4.576 11.32 10.222s-5.067 10.222-11.32 10.222H516.48c-6.254 0-11.32-4.576-11.32-10.222 0-2.823 1.266-5.378 3.314-7.228 2.049-1.85 4.88-2.994 8.006-2.994h42.37c6.253 0 11.327-4.575 11.327-10.222 0-5.646-5.074-10.22-11.327-10.22h-14.732c-6.252 0-11.32-4.577-11.32-10.222 0-2.824 1.265-5.379 3.316-7.229 2.049-1.853 4.879-2.996 8.004-2.996h112.427c6.253 0 11.32 4.578 11.32 10.225" id="1" fill="#8ED2E7" class="cloud1"/><path d="M454.938 190.57c0 64.082-51.944 116.035-116.033 116.035-64.086 0-116.037-51.953-116.037-116.035 0-64.087 51.951-116.038 116.037-116.038 64.09 0 116.033 51.951 116.033 116.038" id="sun" fill="#F26C65"/></g><g id="mountain" transform="translate(86 134)"><path id="Fill-18" fill="#61C090" d="M263.651 189.931l38.816-17.569 47.051 168.12z"/><path id="Fill-20" fill="#9AD4B9" d="M.73 401.634l58.31-119.83 72.92-32.782-74.616 152.612z"/><path id="Fill-22" fill="#418768" d="M57.344 401.634L131.96 249.02l131.692-59.09 85.867 150.55 17.113 61.153z"/><path id="Fill-24" fill="#7C83BF" d="M59.039 281.803l107.62-104.214-34.7 71.432z"/><path id="Fill-26" fill="#7C83BF" d="M302.467 172.362l47.051 168.119 34.876 61.152h63.838l-68.397-142.174z"/><path id="Fill-28" fill="#F7A7A0" d="M166.66 177.59L252.905.827l126.93 258.632-77.367-87.097-38.817 17.57-39.095-68.546z"/><path id="Fill-30" fill="#B0B4D3" d="M379.836 259.459l68.396 142.175h57.897z"/><path id="Fill-32" fill="#595E7C" d="M349.518 340.481l17.113 61.152h17.763z"/><path id="Fill-34" fill="#595E7C" d="M131.96 249.021l34.7-71.432 57.896-56.204 39.095 68.546z"/></g><g class="item" id="gogrow-digital-growth-path" transform="translate(82 189)"><text id="go-grow-digital-growth-path" font-family="CBS-bold" font-size="24" font-weight="bold" fill="#595E7C" class="text"><tspan x="132.088" y="19">GO GROW</tspan> <tspan x="29.968" y="43">DIGITAL GROWTH PATH</tspan></text><path d="M343.921 140.983c-7.959-5.355-14.399-8.315-19.32-8.88-5.88-.677-30.44-.677-73.679 0-26.947-.127-45.73-.303-56.349-.529-11.765.371-14.229-8.399-13.2-13.218.474-2.48 1.916-5.95 4.326-10.412l41.51-84.777" class="line" stroke="#FFF" stroke-width="3" stroke-linecap="square"/><path d="M234.568 21.499a6.552 6.552 0 1 1-13.104 0 6.552 6.552 0 0 1 13.104 0" id="dot" fill="#595E7C" class="bubble"/></g><g class="item" id="cse-match-up" transform="translate(361 200)"><text font-family="CBS-bold" font-size="24" font-weight="bold" fill="#595E7C" class="text"><tspan x="21" y="19">CSE MATCH UP</tspan></text><path d="M65.5 129.5l-58-118" class="line" stroke="#FFF" stroke-width="3" stroke-linecap="square"/><path d="M13.454 10.491a6.553 6.553 0 1 1-13.102 0 6.553 6.553 0 0 1 13.102 0" id="dot" fill="#595E7C" class="bubble"/></g><g class="item" id="proof-of-business" transform="translate(418 318)"><text font-family="CBS-bold" font-size="24" font-weight="bold" fill="#595E7C" class="text"><tspan x="22" y="19">PROOF OF BUSINESS</tspan></text><path d="M56.305 119.49c1.367-3.391.97-7.188-1.189-11.392-15.299-32.74-30.655-64.4-46.068-94.98" class="line" stroke="#FFF" stroke-width="3" stroke-linecap="square"/><path d="M13.532 10.69a6.546 6.546 0 0 1-6.55 6.551 6.55 6.55 0 1 1 0-13.1 6.548 6.548 0 0 1 6.55 6.548" id="dot" fill="#595E7C" class="bubble"/></g><g class="item" id="proof-of-concept" transform="translate(201 427)"><text font-family="CBS-bold" font-size="24" font-weight="bold" fill="#595E7C" class="text"><tspan x="292" y="19">PROOF OF CONCEPT</tspan></text><path d="M0 22c6.338-2.695 11.212-4.042 14.622-4.042 128.05 0 245.173.247 247.012 0 6.148-.827 9.204-1.408 11.46-6.858" class="line" stroke="#FFF" stroke-width="3" stroke-linecap="square"/><path d="M280.431 11.898a6.553 6.553 0 0 1-6.55 6.553 6.554 6.554 0 0 1-6.554-6.553 6.551 6.551 0 0 1 6.553-6.548 6.55 6.55 0 0 1 6.551 6.548" id="dot" fill="#595E7C" class="bubble"/></g><g class="item" id="proof-of-idea" transform="translate(62 440)"><text font-family="CBS-bold" font-size="24" font-weight="bold" fill="#595E7C" class="text"><tspan x="2.597" y="19">PROOF OF IDEA</tspan></text><path d="M102 71.107c14.015-30.333 22.45-47.444 25.304-51.33 2.855-3.888 6.098-7.147 9.73-9.777" class="line" stroke="#FFF" stroke-width="3" stroke-linecap="square"/><path d="M143.402 10.75a6.554 6.554 0 0 1-6.553 6.55 6.552 6.552 0 1 1 6.553-6.55" id="dot" fill="#595E7C" class="bubble"/></g><g class="item" id="ideation" transform="translate(157 502)"><text font-family="CBS-bold" font-size="24" font-weight="bold" fill="#FFF"><tspan x="20.392" y="19">IDEATION</tspan></text><path d="M13.202 9.48a6.553 6.553 0 0 1-13.104 0A6.556 6.556 0 0 1 6.65 2.925 6.555 6.555 0 0 1 13.2 9.48" id="dot" fill="#595E7C"/></g></g></g></svg>