<?xml version="1.0" encoding="UTF-8"?>
<svg width="331px" height="65px" viewBox="0 0 331 65" version="1.1" xmlns="http://www.w3.org/2000/svg" xmlns:xlink="http://www.w3.org/1999/xlink">
    <!-- Generator: Sketch 46 (44423) - http://www.bohemiancoding.com/sketch -->
    <title>cse-hero</title>
    <desc>Created with Sketch.</desc>
    <defs></defs>
    <g id="Page-1" stroke="none" stroke-width="1" fill="none" fill-rule="evenodd">
        <g id="cse-hero" fill="#FFFFFF">
            <path d="M126.0271,3.9112 C126.0271,3.3672 125.8141,2.9652 125.3881,2.7032 C124.9621,2.4432 124.2871,2.3132 123.3641,2.3132 C121.5881,2.3132 120.7001,2.8462 120.7001,3.9112 L120.7001,22.1642 C120.7001,23.2292 121.5881,23.7612 123.3641,23.7612 C124.2871,23.7612 124.9621,23.6322 125.3881,23.3712 C125.8141,23.1112 126.0271,22.7092 126.0271,22.1642 L126.0271,16.9082 L128.3001,16.9082 L128.3001,22.2352 C128.3001,23.3002 127.8911,24.1402 127.0751,24.7562 C126.2571,25.3722 125.0201,25.6792 123.3641,25.6792 C121.7071,25.6792 120.4701,25.3722 119.6541,24.7562 C118.8361,24.1402 118.4271,23.3002 118.4271,22.2352 L118.4271,3.8402 C118.4271,2.7752 118.8361,1.9352 119.6541,1.3192 C120.4701,0.7032 121.7071,0.3952 123.3641,0.3952 C125.0201,0.3952 126.2571,0.7032 127.0751,1.3192 C127.8911,1.9352 128.3001,2.7752 128.3001,3.8402 L128.3001,8.8822 L126.0271,8.8822 L126.0271,3.9112 Z" id="Fill-1"></path>
            <path d="M139.3783,10.0147 C139.3783,9.3307 139.1713,8.8457 138.7563,8.5627 C138.3433,8.2797 137.6853,8.1367 136.7863,8.1367 C135.8853,8.1367 135.2233,8.2797 134.7973,8.5627 C134.3713,8.8457 134.1583,9.3307 134.1583,10.0147 L134.1583,22.0267 C134.1583,22.7107 134.3713,23.1957 134.7973,23.4787 C135.2233,23.7617 135.8853,23.9037 136.7863,23.9037 C137.6853,23.9037 138.3433,23.7617 138.7563,23.4787 C139.1713,23.1957 139.3783,22.7107 139.3783,22.0267 L139.3783,10.0147 Z M132.0273,10.0187 C132.0273,9.3087 132.1453,8.7227 132.3803,8.2617 C132.6173,7.7997 132.9463,7.4327 133.3713,7.1607 C133.7963,6.8887 134.2983,6.6987 134.8763,6.5927 C135.4533,6.4857 136.0833,6.4327 136.7683,6.4327 C137.4523,6.4327 138.0823,6.4857 138.6613,6.5927 C139.2383,6.6987 139.7403,6.8887 140.1643,7.1607 C140.5893,7.4327 140.9193,7.7997 141.1553,8.2617 C141.3913,8.7227 141.5083,9.3087 141.5083,10.0187 L141.5083,22.0577 C141.5083,22.7677 141.3913,23.3537 141.1553,23.8157 C140.9193,24.2767 140.5893,24.6497 140.1643,24.9337 C139.7403,25.2177 139.2383,25.4127 138.6613,25.5197 C138.0823,25.6257 137.4523,25.6797 136.7683,25.6797 C136.0833,25.6797 135.4533,25.6257 134.8763,25.5197 C134.2983,25.4127 133.7963,25.2177 133.3713,24.9337 C132.9463,24.6497 132.6173,24.2767 132.3803,23.8157 C132.1453,23.3537 132.0273,22.7677 132.0273,22.0577 L132.0273,10.0187 Z" id="Fill-3"></path>
            <path d="M152.8372,10.1256 C152.8372,9.5106 152.6772,9.0256 152.3582,8.6696 C152.0382,8.3146 151.5592,8.1366 150.9192,8.1366 C150.2802,8.1366 149.7302,8.2796 149.2682,8.5636 C148.8062,8.8476 148.2432,9.3086 147.5812,9.9486 L147.5812,22.1636 C148.2432,22.8026 148.8062,23.2646 149.2682,23.5486 C149.7302,23.8326 150.2802,23.9756 150.9192,23.9756 C151.5592,23.9756 152.0382,23.7976 152.3582,23.4426 C152.6772,23.0876 152.8372,22.6026 152.8372,21.9866 L152.8372,10.1256 Z M154.9672,22.0576 C154.9672,23.2176 154.6432,24.1116 153.9952,24.7386 C153.3472,25.3656 152.3532,25.6796 151.0092,25.6796 C150.6802,25.6796 150.3852,25.6616 150.1262,25.6266 C149.8672,25.5906 149.6192,25.5316 149.3842,25.4486 C149.1492,25.3656 148.9072,25.2476 148.6602,25.0936 C148.4122,24.9396 148.1232,24.7446 147.7942,24.5076 L147.5812,24.5076 L147.5812,29.1946 L145.4512,29.1946 L145.4512,6.6456 L147.5102,6.6456 L147.5102,7.6046 L147.7942,7.6046 C148.1012,7.3676 148.3832,7.1786 148.6422,7.0366 C148.9012,6.8946 149.1492,6.7756 149.3842,6.6816 C149.6192,6.5876 149.8672,6.5216 150.1262,6.4866 C150.3852,6.4506 150.6802,6.4326 151.0092,6.4326 C152.3532,6.4326 153.3472,6.7466 153.9952,7.3736 C154.6432,8.0016 154.9672,8.8956 154.9672,10.0546 L154.9672,22.0576 Z" id="Fill-5"></path>
            <path d="M166.2603,10.019 C166.2603,9.333 166.0533,8.847 165.6383,8.563 C165.2253,8.279 164.5673,8.137 163.6683,8.137 C162.7673,8.137 162.1053,8.279 161.6793,8.563 C161.2533,8.847 161.0403,9.333 161.0403,10.019 L161.0403,14.671 L166.2603,14.671 L166.2603,10.019 Z M166.2603,19.394 L168.3903,19.394 L168.3903,22.057 C168.3903,22.768 168.2733,23.353 168.0373,23.816 C167.8013,24.277 167.4713,24.65 167.0463,24.934 C166.6223,25.218 166.1203,25.413 165.5433,25.52 C164.9643,25.626 164.3343,25.679 163.6503,25.679 C162.9663,25.679 162.3353,25.626 161.7583,25.52 C161.1803,25.413 160.6783,25.218 160.2533,24.934 C159.8283,24.65 159.4993,24.277 159.2623,23.816 C159.0273,23.353 158.9093,22.768 158.9093,22.057 L158.9093,10.019 C158.9093,9.309 159.0273,8.723 159.2623,8.262 C159.4993,7.8 159.8283,7.433 160.2533,7.16 C160.6783,6.889 161.1803,6.699 161.7583,6.593 C162.3353,6.486 162.9663,6.433 163.6503,6.433 C164.3343,6.433 164.9643,6.486 165.5433,6.593 C166.1203,6.699 166.6223,6.889 167.0463,7.16 C167.4713,7.433 167.8013,7.8 168.0373,8.262 C168.2733,8.723 168.3903,9.309 168.3903,10.019 L168.3903,16.624 L161.0403,16.624 L161.0403,22.031 C161.0403,22.714 161.2533,23.197 161.6793,23.48 C162.1053,23.763 162.7673,23.904 163.6683,23.904 C164.5673,23.904 165.2253,23.763 165.6383,23.481 C166.0533,23.199 166.2603,22.717 166.2603,22.036 L166.2603,19.394 Z" id="Fill-7"></path>
            <path d="M174.4629,25.4664 L172.3329,25.4664 L172.3329,6.6464 L174.3919,6.6464 L174.3919,7.6044 L174.6759,7.6044 C175.0049,7.3684 175.2939,7.1784 175.5419,7.0364 C175.7899,6.8944 176.0249,6.7764 176.2489,6.6814 C176.4719,6.5874 176.7129,6.5214 176.9729,6.4864 C177.2319,6.4504 177.5269,6.4324 177.8569,6.4324 C179.1989,6.4324 180.1889,6.7464 180.8239,7.3734 C181.4609,8.0014 181.7789,8.8954 181.7789,10.0554 L181.7789,25.4664 L179.6469,25.4664 L179.6469,10.1254 C179.6469,9.5104 179.4939,9.0254 179.1869,8.6694 C178.8779,8.3144 178.4049,8.1374 177.7659,8.1374 C177.1269,8.1374 176.5819,8.2794 176.1329,8.5634 C175.6829,8.8474 175.1259,9.3084 174.4629,9.9484 L174.4629,25.4664 Z" id="Fill-9"></path>
            <path d="M187.8501,25.4664 L185.7201,25.4664 L185.7201,0.6084 L187.8501,0.6084 L187.8501,7.6044 L188.0631,7.6044 C188.3921,7.3684 188.6811,7.1784 188.9291,7.0364 C189.1761,6.8944 189.4121,6.7764 189.6361,6.6814 C189.8591,6.5874 190.1001,6.5214 190.3601,6.4864 C190.6191,6.4504 190.9141,6.4324 191.2441,6.4324 C192.5861,6.4324 193.5761,6.7464 194.2111,7.3734 C194.8481,8.0014 195.1661,8.8954 195.1661,10.0554 L195.1661,25.4664 L193.0341,25.4664 L193.0341,10.1254 C193.0341,9.5104 192.8811,9.0254 192.5741,8.6694 C192.2651,8.3144 191.7921,8.1374 191.1531,8.1374 C190.5141,8.1374 189.9691,8.2794 189.5191,8.5634 C189.0701,8.8474 188.5131,9.3084 187.8501,9.9484 L187.8501,25.4664 Z" id="Fill-11"></path>
            <path d="M200.8829,21.9231 C200.8829,22.5361 201.0479,23.0201 201.3799,23.3731 C201.7099,23.7271 202.1959,23.9041 202.8359,23.9041 C203.4749,23.9041 204.0359,23.7621 204.5219,23.4791 C205.0069,23.1961 205.5819,22.7131 206.2449,22.0291 L206.2169,14.8491 L202.5429,16.5821 C202.1899,16.7471 201.9009,16.8951 201.6769,17.0241 C201.4539,17.1541 201.2829,17.3011 201.1649,17.4661 C201.0479,17.6311 200.9709,17.8321 200.9349,18.0681 C200.8989,18.3041 200.8829,18.5981 200.8829,18.9521 L200.8829,21.9231 Z M208.3749,25.4661 L206.3149,25.4661 L206.3149,24.4721 L206.0669,24.4721 C205.2619,25.2771 204.1489,25.6791 202.7299,25.6791 C201.3799,25.6791 200.3789,25.3601 199.7289,24.7211 C199.0769,24.0821 198.7519,23.1821 198.7519,22.0221 L198.7519,18.4351 C198.7519,17.4651 198.9999,16.7371 199.4969,16.2511 C199.9949,15.7661 200.7049,15.3101 201.6289,14.8841 L206.2449,12.7541 L206.2449,9.7351 C206.2449,9.1671 206.0549,8.7591 205.6759,8.5101 C205.2969,8.2621 204.6579,8.1371 203.7589,8.1371 C202.6699,8.1371 201.9529,8.3031 201.6099,8.6341 C201.2669,8.9661 201.0959,9.4041 201.0959,9.9481 L201.0959,11.7241 L198.9649,11.7241 L198.9649,9.5221 C198.9649,8.5281 199.4009,7.7641 200.2739,7.2321 C201.1459,6.6991 202.3259,6.4331 203.8119,6.4331 C205.2969,6.4331 206.4289,6.6761 207.2079,7.1601 C207.9859,7.6461 208.3749,8.4921 208.3749,9.6991 L208.3749,25.4661 Z" id="Fill-13"></path>
            <path d="M214.4472,20.2108 C214.4472,20.8268 214.6082,21.3118 214.9302,21.6668 C215.2522,22.0218 215.7342,22.1988 216.3782,22.1988 C216.9972,22.1988 217.5462,22.0638 218.0232,21.7908 C218.4992,21.5188 219.0702,21.0518 219.7382,20.3888 L219.7382,9.9488 C219.4052,9.6408 219.1012,9.3748 218.8262,9.1488 C218.5532,8.9248 218.2902,8.7358 218.0402,8.5808 C217.7902,8.4278 217.5282,8.3148 217.2542,8.2438 C216.9802,8.1728 216.6872,8.1368 216.3782,8.1368 C215.7342,8.1368 215.2522,8.3148 214.9302,8.6698 C214.6082,9.0248 214.4472,9.5108 214.4472,10.1258 L214.4472,20.2108 Z M221.8692,24.8978 C221.8692,26.4838 221.4192,27.6328 220.5202,28.3428 C219.6202,29.0528 218.4832,29.4078 217.1112,29.4078 C215.5482,29.4078 214.3882,29.0888 213.6312,28.4498 C212.8732,27.8098 212.4942,26.9228 212.4942,25.7858 L212.4942,25.4668 L214.5892,25.4668 L214.5892,25.7808 C214.5892,25.9668 214.6192,26.1648 214.6792,26.3748 C214.7382,26.5838 214.8572,26.7818 215.0372,26.9688 C215.2152,27.1548 215.4652,27.3118 215.7872,27.4408 C216.1092,27.5678 216.5442,27.6328 217.0932,27.6328 C218.8562,27.6328 219.7382,26.7158 219.7382,24.8828 L219.7382,22.7328 L219.5252,22.7328 C219.1932,22.9688 218.9052,23.1638 218.6552,23.3178 C218.4072,23.4728 218.1642,23.5908 217.9272,23.6728 C217.6912,23.7568 217.4422,23.8158 217.1822,23.8508 C216.9202,23.8858 216.6262,23.9038 216.2942,23.9038 C214.9452,23.9038 213.9442,23.5908 213.2932,22.9628 C212.6412,22.3358 212.3172,21.4418 212.3172,20.2818 L212.3172,10.0548 C212.3172,8.8948 212.6412,8.0018 213.2932,7.3738 C213.9442,6.7468 214.9452,6.4328 216.2942,6.4328 C216.9562,6.4328 217.5012,6.5158 217.9272,6.6808 C218.3532,6.8468 218.8862,7.1548 219.5252,7.6048 L219.8102,7.6048 L219.8102,6.6458 L221.8692,6.6458 L221.8692,24.8978 Z" id="Fill-15"></path>
            <path d="M233.1265,10.019 C233.1265,9.333 232.9195,8.847 232.5045,8.563 C232.0915,8.279 231.4335,8.137 230.5345,8.137 C229.6335,8.137 228.9715,8.279 228.5455,8.563 C228.1195,8.847 227.9065,9.333 227.9065,10.019 L227.9065,14.671 L233.1265,14.671 L233.1265,10.019 Z M233.1265,19.394 L235.2565,19.394 L235.2565,22.057 C235.2565,22.768 235.1395,23.353 234.9035,23.816 C234.6675,24.277 234.3375,24.65 233.9125,24.934 C233.4885,25.218 232.9865,25.413 232.4095,25.52 C231.8315,25.626 231.2005,25.679 230.5175,25.679 C229.8325,25.679 229.2015,25.626 228.6245,25.52 C228.0465,25.413 227.5445,25.218 227.1195,24.934 C226.6945,24.65 226.3655,24.277 226.1285,23.816 C225.8935,23.353 225.7755,22.768 225.7755,22.057 L225.7755,10.019 C225.7755,9.309 225.8935,8.723 226.1285,8.262 C226.3655,7.8 226.6945,7.433 227.1195,7.16 C227.5445,6.889 228.0465,6.699 228.6245,6.593 C229.2015,6.486 229.8325,6.433 230.5175,6.433 C231.2005,6.433 231.8315,6.486 232.4095,6.593 C232.9865,6.699 233.4885,6.889 233.9125,7.16 C234.3375,7.433 234.6675,7.8 234.9035,8.262 C235.1395,8.723 235.2565,9.309 235.2565,10.019 L235.2565,16.624 L227.9065,16.624 L227.9065,22.031 C227.9065,22.714 228.1195,23.197 228.5455,23.48 C228.9715,23.763 229.6335,23.904 230.5345,23.904 C231.4335,23.904 232.0915,23.763 232.5045,23.481 C232.9195,23.199 233.1265,22.717 233.1265,22.036 L233.1265,19.394 Z" id="Fill-17"></path>
            <path d="M241.3292,25.4664 L239.1992,25.4664 L239.1992,6.6464 L241.2582,6.6464 L241.2582,7.6044 L241.5422,7.6044 C241.8712,7.3684 242.1602,7.1784 242.4082,7.0364 C242.6552,6.8944 242.8912,6.7764 243.1152,6.6814 C243.3382,6.5874 243.5792,6.5214 243.8392,6.4864 C244.0982,6.4504 244.3932,6.4324 244.7232,6.4324 C246.0652,6.4324 247.0552,6.7464 247.6902,7.3734 C248.3272,8.0014 248.6452,8.8954 248.6452,10.0554 L248.6452,25.4664 L246.5132,25.4664 L246.5132,10.1254 C246.5132,9.5104 246.3602,9.0254 246.0532,8.6694 C245.7442,8.3144 245.2712,8.1374 244.6322,8.1374 C243.9932,8.1374 243.4482,8.2794 242.9982,8.5634 C242.5492,8.8474 241.9922,9.3084 241.3292,9.9484 L241.3292,25.4664 Z" id="Fill-19"></path>
            <path d="M266.9318,4.0178 C266.9318,3.5448 266.7358,3.1418 266.3458,2.8108 C265.9558,2.4798 265.2628,2.3138 264.2688,2.3138 C263.2508,2.3138 262.5468,2.4798 262.1558,2.8108 C261.7648,3.1418 261.5708,3.5448 261.5708,4.0178 L261.5708,6.8938 C261.5708,7.5808 261.6238,8.0658 261.7298,8.3498 C261.8368,8.6348 262.0308,8.9188 262.3158,9.2018 L267.9268,14.7068 C268.3038,15.0858 268.6238,15.4878 268.8848,15.9138 C269.1448,16.3408 269.2748,16.9678 269.2748,17.7958 L269.2748,22.0218 C269.2748,23.2288 268.8488,24.1408 267.9968,24.7558 C267.1448,25.3718 265.9028,25.6798 264.2688,25.6798 C262.5398,25.6798 261.2558,25.3898 260.4158,24.8098 C259.5748,24.2298 259.1548,23.2998 259.1548,22.0218 L259.1548,17.1928 L261.4278,17.1928 L261.4278,21.8798 C261.4278,22.4718 261.6518,22.9338 262.1028,23.2648 C262.5528,23.5958 263.2748,23.7618 264.2688,23.7618 C265.1918,23.7618 265.8778,23.5958 266.3288,23.2648 C266.7778,22.9338 267.0028,22.4718 267.0028,21.8798 L267.0028,18.0448 C267.0028,17.4528 266.9378,17.0028 266.8078,16.6948 C266.6768,16.3878 266.4578,16.0918 266.1508,15.8068 L260.9298,10.9428 C260.4338,10.4688 260.0368,9.9658 259.7408,9.4328 C259.4448,8.9008 259.2978,8.1258 259.2978,7.1068 L259.2978,4.0538 C259.2978,1.6158 260.9538,0.3958 264.2688,0.3958 C266.0438,0.3958 267.3108,0.6928 268.0688,1.2838 C268.8258,1.8758 269.2048,2.7398 269.2048,3.8758 L269.2048,8.4568 L266.9318,8.4568 L266.9318,4.0178 Z" id="Fill-21"></path>
            <path d="M279.3604,9.6994 C279.3604,9.1084 279.2004,8.7004 278.8814,8.4744 C278.5614,8.2494 277.9864,8.1374 277.1584,8.1374 C276.4254,8.1374 275.8444,8.2614 275.4184,8.5094 C274.9924,8.7574 274.7794,9.1534 274.7794,9.6964 L274.7794,22.5224 C274.7794,23.4434 275.5374,23.9044 277.0514,23.9044 C277.8094,23.9044 278.3834,23.7804 278.7744,23.5334 C279.1644,23.2874 279.3604,22.9524 279.3604,22.5294 L279.3604,19.3944 L281.4904,19.3944 L281.4904,22.5184 C281.4904,23.5374 281.1244,24.3184 280.3894,24.8624 C279.6564,25.4074 278.5444,25.6794 277.0514,25.6794 C275.7034,25.6794 274.6314,25.4544 273.8374,25.0054 C273.0454,24.5554 272.6484,23.8324 272.6484,22.8384 L272.6484,10.0194 C272.6484,8.5994 273.0454,7.6464 273.8374,7.1604 C274.6314,6.6754 275.7374,6.4324 277.1584,6.4324 C278.5794,6.4324 279.6564,6.6814 280.3894,7.1784 C281.1244,7.6754 281.4904,8.4334 281.4904,9.4514 L281.4904,12.7534 L279.3604,12.7534 L279.3604,9.6994 Z" id="Fill-23"></path>
            <path d="M287.5271,25.4664 L285.3971,25.4664 L285.3971,0.6084 L287.5271,0.6084 L287.5271,7.6044 L287.7401,7.6044 C288.0691,7.3684 288.3581,7.1784 288.6061,7.0364 C288.8531,6.8944 289.0891,6.7764 289.3131,6.6814 C289.5361,6.5874 289.7771,6.5214 290.0371,6.4864 C290.2961,6.4504 290.5911,6.4324 290.9211,6.4324 C292.2631,6.4324 293.2531,6.7464 293.8881,7.3734 C294.5251,8.0014 294.8431,8.8954 294.8431,10.0554 L294.8431,25.4664 L292.7111,25.4664 L292.7111,10.1254 C292.7111,9.5104 292.5581,9.0254 292.2511,8.6694 C291.9421,8.3144 291.4691,8.1374 290.8301,8.1374 C290.1911,8.1374 289.6461,8.2794 289.1971,8.5634 C288.7471,8.8474 288.1901,9.3084 287.5271,9.9484 L287.5271,25.4664 Z" id="Fill-25"></path>
            <path d="M306.1346,10.0147 C306.1346,9.3307 305.9276,8.8457 305.5126,8.5627 C305.0996,8.2797 304.4416,8.1367 303.5426,8.1367 C302.6416,8.1367 301.9796,8.2797 301.5536,8.5627 C301.1276,8.8457 300.9146,9.3307 300.9146,10.0147 L300.9146,22.0267 C300.9146,22.7107 301.1276,23.1957 301.5536,23.4787 C301.9796,23.7617 302.6416,23.9037 303.5426,23.9037 C304.4416,23.9037 305.0996,23.7617 305.5126,23.4787 C305.9276,23.1957 306.1346,22.7107 306.1346,22.0267 L306.1346,10.0147 Z M298.7836,10.0187 C298.7836,9.3087 298.9016,8.7227 299.1366,8.2617 C299.3736,7.7997 299.7026,7.4327 300.1276,7.1607 C300.5526,6.8887 301.0546,6.6987 301.6326,6.5927 C302.2096,6.4857 302.8406,6.4327 303.5256,6.4327 C304.2086,6.4327 304.8396,6.4857 305.4176,6.5927 C305.9946,6.6987 306.4966,6.8887 306.9206,7.1607 C307.3456,7.4327 307.6756,7.7997 307.9116,8.2617 C308.1476,8.7227 308.2646,9.3087 308.2646,10.0187 L308.2646,22.0577 C308.2646,22.7677 308.1476,23.3537 307.9116,23.8157 C307.6756,24.2767 307.3456,24.6497 306.9206,24.9337 C306.4966,25.2177 305.9946,25.4127 305.4176,25.5197 C304.8396,25.6257 304.2086,25.6797 303.5256,25.6797 C302.8406,25.6797 302.2096,25.6257 301.6326,25.5197 C301.0546,25.4127 300.5526,25.2177 300.1276,24.9337 C299.7026,24.6497 299.3736,24.2767 299.1366,23.8157 C298.9016,23.3537 298.7836,22.7677 298.7836,22.0577 L298.7836,10.0187 Z" id="Fill-27"></path>
            <path d="M319.5576,10.0147 C319.5576,9.3307 319.3506,8.8457 318.9356,8.5627 C318.5226,8.2797 317.8646,8.1367 316.9656,8.1367 C316.0646,8.1367 315.4026,8.2797 314.9766,8.5627 C314.5506,8.8457 314.3376,9.3307 314.3376,10.0147 L314.3376,22.0267 C314.3376,22.7107 314.5506,23.1957 314.9766,23.4787 C315.4026,23.7617 316.0646,23.9037 316.9656,23.9037 C317.8646,23.9037 318.5226,23.7617 318.9356,23.4787 C319.3506,23.1957 319.5576,22.7107 319.5576,22.0267 L319.5576,10.0147 Z M312.2066,10.0187 C312.2066,9.3087 312.3246,8.7227 312.5596,8.2617 C312.7966,7.7997 313.1256,7.4327 313.5506,7.1607 C313.9756,6.8887 314.4776,6.6987 315.0556,6.5927 C315.6326,6.4857 316.2636,6.4327 316.9476,6.4327 C317.6316,6.4327 318.2616,6.4857 318.8406,6.5927 C319.4176,6.6987 319.9196,6.8887 320.3436,7.1607 C320.7686,7.4327 321.0986,7.7997 321.3346,8.2617 C321.5706,8.7227 321.6876,9.3087 321.6876,10.0187 L321.6876,22.0577 C321.6876,22.7677 321.5706,23.3537 321.3346,23.8157 C321.0986,24.2767 320.7686,24.6497 320.3436,24.9337 C319.9196,25.2177 319.4176,25.4127 318.8406,25.5197 C318.2616,25.6257 317.6316,25.6797 316.9476,25.6797 C316.2636,25.6797 315.6326,25.6257 315.0556,25.5197 C314.4776,25.4127 313.9756,25.2177 313.5506,24.9337 C313.1256,24.6497 312.7966,24.2767 312.5596,23.8157 C312.3246,23.3537 312.2066,22.7677 312.2066,22.0577 L312.2066,10.0187 Z" id="Fill-29"></path>
            <polygon id="Fill-31" points="325.63 12.8249 325.63 0.6089 327.76 0.6089 327.76 14.7419 327.76 25.4659 325.63 25.4659"></polygon>
            <path d="M125.601,45.5254 C125.601,44.8414 125.394,44.3574 124.979,44.0734 C124.566,43.7904 123.908,43.6474 123.009,43.6474 C122.108,43.6474 121.446,43.7904 121.02,44.0734 C120.594,44.3574 120.381,44.8414 120.381,45.5254 L120.381,57.5374 C120.381,58.2214 120.594,58.7064 121.02,58.9904 C121.446,59.2734 122.108,59.4144 123.009,59.4144 C123.908,59.4144 124.566,59.2734 124.979,58.9904 C125.394,58.7064 125.601,58.2214 125.601,57.5374 L125.601,45.5254 Z M118.25,45.5294 C118.25,44.8194 118.368,44.2334 118.603,43.7724 C118.84,43.3104 119.169,42.9434 119.594,42.6714 C120.019,42.3994 120.521,42.2104 121.099,42.1034 C121.676,41.9974 122.307,41.9434 122.992,41.9434 C123.675,41.9434 124.306,41.9974 124.884,42.1034 C125.461,42.2104 125.963,42.3994 126.387,42.6714 C126.812,42.9434 127.142,43.3104 127.378,43.7724 C127.614,44.2334 127.731,44.8194 127.731,45.5294 L127.731,57.5684 C127.731,58.2784 127.614,58.8644 127.378,59.3264 C127.142,59.7874 126.812,60.1604 126.387,60.4444 C125.963,60.7284 125.461,60.9244 124.884,61.0304 C124.306,61.1374 123.675,61.1904 122.992,61.1904 C122.307,61.1904 121.676,61.1374 121.099,61.0304 C120.521,60.9244 120.019,60.7284 119.594,60.4444 C119.169,60.1604 118.84,59.7874 118.603,59.3264 C118.368,58.8644 118.25,58.2784 118.25,57.5684 L118.25,45.5294 Z" id="Fill-33"></path>
            <path d="M130.6083,42.1567 L132.9153,42.1567 L132.9153,39.7417 C132.9153,38.5827 133.2363,37.6877 133.8753,37.0607 C134.5143,36.4337 135.5093,36.1197 136.8583,36.1197 L137.3903,36.1197 L137.3903,38.0377 L136.9583,38.0377 C135.6833,38.0377 135.0473,38.6297 135.0473,39.8127 L135.0473,42.1567 L137.3903,42.1567 L137.3903,44.1097 L135.0473,44.1097 L135.0473,60.9767 L132.9153,60.9767 L132.9153,44.1097 L130.6083,44.1097 L130.6083,42.1567 Z" id="Fill-35"></path>
            <polygon id="Fill-37" points="147.5104 36.1195 156.0334 36.1195 156.0334 38.0375 149.7834 38.0375 149.7834 47.0925 155.8554 47.0925 155.8554 49.0105 149.7834 49.0105 149.7834 59.0595 156.0334 59.0595 156.0334 60.9775 147.5104 60.9775"></polygon>
            <path d="M161.5365,60.9771 L159.4065,60.9771 L159.4065,42.1571 L161.4655,42.1571 L161.4655,43.1151 L161.7495,43.1151 C162.0785,42.8791 162.3675,42.6891 162.6155,42.5471 C162.8635,42.4051 163.0985,42.2871 163.3225,42.1921 C163.5455,42.0981 163.7865,42.0321 164.0465,41.9971 C164.3055,41.9611 164.6005,41.9431 164.9305,41.9431 C166.2725,41.9431 167.2625,42.2571 167.8975,42.8841 C168.5345,43.5121 168.8525,44.4061 168.8525,45.5661 L168.8525,60.9771 L166.7205,60.9771 L166.7205,45.6361 C166.7205,45.0211 166.5675,44.5361 166.2605,44.1801 C165.9515,43.8251 165.4785,43.6481 164.8395,43.6481 C164.2005,43.6481 163.6555,43.7901 163.2065,44.0741 C162.7565,44.3581 162.1995,44.8191 161.5365,45.4591 L161.5365,60.9771 Z" id="Fill-39"></path>
            <path d="M171.7283,42.1567 L174.0353,42.1567 L174.0353,36.1197 L176.1673,36.1197 L176.1673,42.1567 L178.5103,42.1567 L178.5103,44.1097 L176.1673,44.1097 L176.1673,57.2837 C176.1673,58.4677 176.7943,59.0597 178.0483,59.0597 L178.8663,59.0597 L178.8663,60.9767 L177.9423,60.9767 C176.5953,60.9767 175.6073,60.6637 174.9793,60.0357 C174.3503,59.4087 174.0353,58.5147 174.0353,57.3547 L174.0353,44.1097 L171.7283,44.1097 L171.7283,42.1567 Z" id="Fill-41"></path>
            <path d="M186.749,44.1272 C186.488,44.1632 186.234,44.2332 185.986,44.3402 C185.737,44.4462 185.471,44.6062 185.186,44.8192 C184.902,45.0332 184.583,45.3172 184.227,45.6722 L184.227,60.9772 L182.097,60.9772 L182.097,42.1572 L184.157,42.1572 L184.157,43.3282 L184.44,43.3282 C184.725,43.1152 184.973,42.9322 185.186,42.7782 C185.399,42.6242 185.618,42.5062 185.844,42.4232 C186.068,42.3402 186.317,42.2752 186.589,42.2272 C186.86,42.1802 187.199,42.1572 187.601,42.1572 L188.347,42.1572 L188.347,44.0742 L187.601,44.0742 C187.293,44.0742 187.009,44.0922 186.749,44.1272" id="Fill-43"></path>
            <path d="M198.3601,45.5298 C198.3601,44.8438 198.1531,44.3578 197.7381,44.0738 C197.3251,43.7898 196.6671,43.6478 195.7681,43.6478 C194.8671,43.6478 194.2051,43.7898 193.7791,44.0738 C193.3531,44.3578 193.1401,44.8438 193.1401,45.5298 L193.1401,50.1818 L198.3601,50.1818 L198.3601,45.5298 Z M198.3601,54.9048 L200.4901,54.9048 L200.4901,57.5678 C200.4901,58.2788 200.3731,58.8638 200.1371,59.3268 C199.9011,59.7878 199.5711,60.1608 199.1461,60.4448 C198.7221,60.7288 198.2201,60.9238 197.6431,61.0308 C197.0641,61.1368 196.4341,61.1898 195.7511,61.1898 C195.0661,61.1898 194.4351,61.1368 193.8581,61.0308 C193.2801,60.9238 192.7781,60.7288 192.3531,60.4448 C191.9281,60.1608 191.5991,59.7878 191.3621,59.3268 C191.1271,58.8638 191.0091,58.2788 191.0091,57.5678 L191.0091,45.5298 C191.0091,44.8198 191.1271,44.2338 191.3621,43.7728 C191.5991,43.3108 191.9281,42.9438 192.3531,42.6708 C192.7781,42.3998 193.2801,42.2098 193.8581,42.1038 C194.4351,41.9968 195.0661,41.9438 195.7511,41.9438 C196.4341,41.9438 197.0641,41.9968 197.6431,42.1038 C198.2201,42.2098 198.7221,42.3998 199.1461,42.6708 C199.5711,42.9438 199.9011,43.3108 200.1371,43.7728 C200.3731,44.2338 200.4901,44.8198 200.4901,45.5298 L200.4901,52.1348 L193.1401,52.1348 L193.1401,57.5418 C193.1401,58.2248 193.3531,58.7078 193.7791,58.9908 C194.2051,59.2738 194.8671,59.4148 195.7681,59.4148 C196.6671,59.4148 197.3251,59.2738 197.7381,58.9918 C198.1531,58.7098 198.3601,58.2278 198.3601,57.5468 L198.3601,54.9048 Z" id="Fill-45"></path>
            <path d="M211.8191,45.6363 C211.8191,45.0213 211.6591,44.5363 211.3401,44.1803 C211.0201,43.8253 210.5411,43.6473 209.9011,43.6473 C209.2611,43.6473 208.7121,43.7903 208.2501,44.0743 C207.7881,44.3583 207.2251,44.8193 206.5631,45.4593 L206.5631,57.6743 C207.2251,58.3133 207.7881,58.7753 208.2501,59.0593 C208.7121,59.3433 209.2611,59.4863 209.9011,59.4863 C210.5411,59.4863 211.0201,59.3083 211.3401,58.9533 C211.6591,58.5983 211.8191,58.1133 211.8191,57.4973 L211.8191,45.6363 Z M213.9491,57.5683 C213.9491,58.7283 213.6251,59.6223 212.9771,60.2493 C212.3291,60.8763 211.3351,61.1903 209.9911,61.1903 C209.6621,61.1903 209.3671,61.1723 209.1081,61.1373 C208.8491,61.1013 208.6011,61.0423 208.3661,60.9593 C208.1311,60.8763 207.8891,60.7583 207.6421,60.6043 C207.3941,60.4503 207.1051,60.2553 206.7761,60.0183 L206.5631,60.0183 L206.5631,64.7053 L204.4321,64.7053 L204.4321,42.1563 L206.4921,42.1563 L206.4921,43.1153 L206.7761,43.1153 C207.0831,42.8783 207.3651,42.6893 207.6241,42.5473 C207.8831,42.4053 208.1311,42.2863 208.3661,42.1923 C208.6011,42.0983 208.8491,42.0323 209.1081,41.9973 C209.3671,41.9613 209.6621,41.9433 209.9911,41.9433 C211.3351,41.9433 212.3291,42.2573 212.9771,42.8843 C213.6251,43.5123 213.9491,44.4063 213.9491,45.5653 L213.9491,57.5683 Z" id="Fill-47"></path>
            <path d="M222.5434,44.1272 C222.2824,44.1632 222.0284,44.2332 221.7804,44.3402 C221.5314,44.4462 221.2654,44.6062 220.9804,44.8192 C220.6964,45.0332 220.3774,45.3172 220.0214,45.6722 L220.0214,60.9772 L217.8914,60.9772 L217.8914,42.1572 L219.9514,42.1572 L219.9514,43.3282 L220.2344,43.3282 C220.5194,43.1152 220.7674,42.9322 220.9804,42.7782 C221.1934,42.6242 221.4124,42.5062 221.6384,42.4232 C221.8624,42.3402 222.1114,42.2752 222.3834,42.2272 C222.6544,42.1802 222.9934,42.1572 223.3954,42.1572 L224.1414,42.1572 L224.1414,44.0742 L223.3954,44.0742 C223.0874,44.0742 222.8034,44.0922 222.5434,44.1272" id="Fill-49"></path>
            <path d="M234.1544,45.5298 C234.1544,44.8438 233.9474,44.3578 233.5324,44.0738 C233.1194,43.7898 232.4614,43.6478 231.5624,43.6478 C230.6614,43.6478 229.9994,43.7898 229.5734,44.0738 C229.1474,44.3578 228.9344,44.8438 228.9344,45.5298 L228.9344,50.1818 L234.1544,50.1818 L234.1544,45.5298 Z M234.1544,54.9048 L236.2844,54.9048 L236.2844,57.5678 C236.2844,58.2788 236.1674,58.8638 235.9314,59.3268 C235.6954,59.7878 235.3654,60.1608 234.9404,60.4448 C234.5164,60.7288 234.0144,60.9238 233.4374,61.0308 C232.8594,61.1368 232.2284,61.1898 231.5454,61.1898 C230.8604,61.1898 230.2294,61.1368 229.6524,61.0308 C229.0744,60.9238 228.5724,60.7288 228.1474,60.4448 C227.7224,60.1608 227.3934,59.7878 227.1564,59.3268 C226.9214,58.8638 226.8034,58.2788 226.8034,57.5678 L226.8034,45.5298 C226.8034,44.8198 226.9214,44.2338 227.1564,43.7728 C227.3934,43.3108 227.7224,42.9438 228.1474,42.6708 C228.5724,42.3998 229.0744,42.2098 229.6524,42.1038 C230.2294,41.9968 230.8604,41.9438 231.5454,41.9438 C232.2284,41.9438 232.8594,41.9968 233.4374,42.1038 C234.0144,42.2098 234.5164,42.3998 234.9404,42.6708 C235.3654,42.9438 235.6954,43.3108 235.9314,43.7728 C236.1674,44.2338 236.2844,44.8198 236.2844,45.5298 L236.2844,52.1348 L228.9344,52.1348 L228.9344,57.5418 C228.9344,58.2248 229.1474,58.7078 229.5734,58.9908 C229.9994,59.2738 230.6614,59.4148 231.5624,59.4148 C232.4614,59.4148 233.1194,59.2738 233.5324,58.9918 C233.9474,58.7098 234.1544,58.2278 234.1544,57.5468 L234.1544,54.9048 Z" id="Fill-51"></path>
            <path d="M242.3572,60.9771 L240.2272,60.9771 L240.2272,42.1571 L242.2862,42.1571 L242.2862,43.1151 L242.5702,43.1151 C242.8992,42.8791 243.1882,42.6891 243.4362,42.5471 C243.6832,42.4051 243.9192,42.2871 244.1432,42.1921 C244.3662,42.0981 244.6072,42.0321 244.8672,41.9971 C245.1262,41.9611 245.4212,41.9431 245.7512,41.9431 C247.0932,41.9431 248.0832,42.2571 248.7182,42.8841 C249.3552,43.5121 249.6732,44.4061 249.6732,45.5661 L249.6732,60.9771 L247.5412,60.9771 L247.5412,45.6361 C247.5412,45.0211 247.3882,44.5361 247.0812,44.1801 C246.7722,43.8251 246.2992,43.6481 245.6602,43.6481 C245.0212,43.6481 244.4762,43.7901 244.0272,44.0741 C243.5772,44.3581 243.0202,44.8191 242.3572,45.4591 L242.3572,60.9771 Z" id="Fill-53"></path>
            <path d="M260.9646,45.5298 C260.9646,44.8438 260.7576,44.3578 260.3426,44.0738 C259.9296,43.7898 259.2716,43.6478 258.3726,43.6478 C257.4716,43.6478 256.8096,43.7898 256.3836,44.0738 C255.9576,44.3578 255.7446,44.8438 255.7446,45.5298 L255.7446,50.1818 L260.9646,50.1818 L260.9646,45.5298 Z M260.9646,54.9048 L263.0946,54.9048 L263.0946,57.5678 C263.0946,58.2788 262.9776,58.8638 262.7416,59.3268 C262.5056,59.7878 262.1756,60.1608 261.7506,60.4448 C261.3266,60.7288 260.8246,60.9238 260.2476,61.0308 C259.6696,61.1368 259.0386,61.1898 258.3556,61.1898 C257.6706,61.1898 257.0396,61.1368 256.4626,61.0308 C255.8846,60.9238 255.3826,60.7288 254.9576,60.4448 C254.5326,60.1608 254.2036,59.7878 253.9666,59.3268 C253.7316,58.8638 253.6136,58.2788 253.6136,57.5678 L253.6136,45.5298 C253.6136,44.8198 253.7316,44.2338 253.9666,43.7728 C254.2036,43.3108 254.5326,42.9438 254.9576,42.6708 C255.3826,42.3998 255.8846,42.2098 256.4626,42.1038 C257.0396,41.9968 257.6706,41.9438 258.3556,41.9438 C259.0386,41.9438 259.6696,41.9968 260.2476,42.1038 C260.8246,42.2098 261.3266,42.3998 261.7506,42.6708 C262.1756,42.9438 262.5056,43.3108 262.7416,43.7728 C262.9776,44.2338 263.0946,44.8198 263.0946,45.5298 L263.0946,52.1348 L255.7446,52.1348 L255.7446,57.5418 C255.7446,58.2248 255.9576,58.7078 256.3836,58.9908 C256.8096,59.2738 257.4716,59.4148 258.3726,59.4148 C259.2716,59.4148 259.9296,59.2738 260.3426,58.9918 C260.7576,58.7098 260.9646,58.2278 260.9646,57.5468 L260.9646,54.9048 Z" id="Fill-55"></path>
            <path d="M274.3877,42.1567 L276.5177,42.1567 L276.5177,60.9767 L274.4587,60.9767 L274.4587,60.0187 L274.1747,60.0187 C273.8427,60.2547 273.5527,60.4507 273.3047,60.6047 C273.0567,60.7587 272.8197,60.8767 272.5947,60.9587 C272.3687,61.0417 272.1327,61.1017 271.8847,61.1367 C271.6357,61.1727 271.3337,61.1897 270.9797,61.1897 C269.6297,61.1897 268.6347,60.8767 267.9957,60.2487 C267.3567,59.6217 267.0367,58.7287 267.0367,57.5677 L267.0367,42.1567 L269.1677,42.1567 L269.1677,57.4967 C269.1677,58.1127 269.3217,58.5977 269.6317,58.9527 C269.9417,59.3077 270.4197,59.4857 271.0627,59.4857 C271.6827,59.4857 272.2237,59.3497 272.6897,59.0777 C273.1537,58.8057 273.7197,58.3377 274.3877,57.6747 L274.3877,42.1567 Z" id="Fill-57"></path>
            <path d="M285.0761,44.1272 C284.8151,44.1632 284.5611,44.2332 284.3131,44.3402 C284.0641,44.4462 283.7981,44.6062 283.5131,44.8192 C283.2291,45.0332 282.9101,45.3172 282.5541,45.6722 L282.5541,60.9772 L280.4241,60.9772 L280.4241,42.1572 L282.4841,42.1572 L282.4841,43.3282 L282.7671,43.3282 C283.0521,43.1152 283.3001,42.9322 283.5131,42.7782 C283.7261,42.6242 283.9451,42.5062 284.1711,42.4232 C284.3951,42.3402 284.6441,42.2752 284.9161,42.2272 C285.1871,42.1802 285.5261,42.1572 285.9281,42.1572 L286.6741,42.1572 L286.6741,44.0742 L285.9281,44.0742 C285.6201,44.0742 285.3361,44.0922 285.0761,44.1272" id="Fill-59"></path>
            <path d="M295.6927,44.9266 C295.6927,44.4996 295.5157,44.1806 295.1597,43.9676 C294.8047,43.7546 294.2127,43.6476 293.3857,43.6476 C292.4847,43.6476 291.8697,43.7786 291.5387,44.0386 C291.2067,44.2996 291.0407,44.6186 291.0407,44.9976 L291.0407,47.1636 C291.0407,47.4476 291.0707,47.7496 291.1297,48.0686 C291.1897,48.3886 291.3867,48.6786 291.7197,48.9386 L296.1457,52.0646 C296.5497,52.3716 296.9187,52.7446 297.2537,53.1826 C297.5847,53.6206 297.7527,54.1716 297.7527,54.8336 L297.7527,58.0296 C297.7527,59.0486 297.3787,59.8286 296.6287,60.3736 C295.8807,60.9186 294.7577,61.1906 293.2607,61.1906 C291.9057,61.1906 290.8237,60.9656 290.0157,60.5156 C289.2077,60.0666 288.8037,59.3086 288.8037,58.2436 L288.8037,54.9046 L290.9347,54.9046 L290.9347,57.8646 C290.9347,58.2866 291.0937,58.6516 291.4137,58.9576 C291.7327,59.2616 292.3547,59.4146 293.2787,59.4146 C294.1777,59.4146 294.7877,59.2556 295.1067,58.9366 C295.4267,58.6176 295.5857,58.2456 295.5857,57.8206 L295.5857,55.4806 C295.5857,54.9616 295.5387,54.5596 295.4447,54.2766 C295.3497,53.9926 295.1367,53.7336 294.8047,53.4966 L290.6147,50.5906 C290.2127,50.3076 289.8267,49.9526 289.4607,49.5276 C289.0937,49.1026 288.9107,48.4526 288.9107,47.5776 L288.9107,45.1676 C288.9107,44.1046 289.3147,43.3026 290.1227,42.7586 C290.9307,42.2156 292.0597,41.9436 293.5097,41.9436 C294.3177,41.9436 294.9897,42.0266 295.5247,42.1916 C296.0597,42.3576 296.4867,42.5776 296.8077,42.8486 C297.1277,43.1216 297.3597,43.4116 297.5037,43.7186 C297.6457,44.0266 297.7177,44.3226 297.7177,44.6066 L297.7177,47.7676 L295.6927,47.7676 L295.6927,44.9266 Z" id="Fill-61"></path>
            <path d="M303.2204,60.9771 L301.0904,60.9771 L301.0904,36.1191 L303.2204,36.1191 L303.2204,43.1151 L303.4334,43.1151 C303.7624,42.8791 304.0514,42.6891 304.2994,42.5471 C304.5464,42.4051 304.7824,42.2871 305.0064,42.1921 C305.2294,42.0981 305.4704,42.0321 305.7304,41.9971 C305.9894,41.9611 306.2844,41.9431 306.6144,41.9431 C307.9564,41.9431 308.9464,42.2571 309.5814,42.8841 C310.2184,43.5121 310.5364,44.4061 310.5364,45.5661 L310.5364,60.9771 L308.4044,60.9771 L308.4044,45.6361 C308.4044,45.0211 308.2514,44.5361 307.9444,44.1801 C307.6354,43.8251 307.1624,43.6481 306.5234,43.6481 C305.8844,43.6481 305.3394,43.7901 304.8904,44.0741 C304.4404,44.3581 303.8834,44.8191 303.2204,45.4591 L303.2204,60.9771 Z" id="Fill-63"></path>
            <path d="M314.5479,51.0344 L314.5479,42.1564 L316.6789,42.1564 L316.6789,51.2474 L316.6789,60.9774 L314.5479,60.9774 L314.5479,51.0344 Z M314.4769,40.0254 L316.7499,40.0254 L316.7499,38.0724 L314.4769,38.0724 L314.4769,40.0254 Z" id="Fill-65"></path>
            <path d="M328.0774,45.6363 C328.0774,45.0213 327.9174,44.5363 327.5984,44.1803 C327.2784,43.8253 326.7994,43.6473 326.1594,43.6473 C325.5194,43.6473 324.9694,43.7903 324.5084,44.0743 C324.0464,44.3583 323.4834,44.8193 322.8214,45.4593 L322.8214,57.6743 C323.4834,58.3133 324.0464,58.7753 324.5084,59.0593 C324.9694,59.3433 325.5194,59.4863 326.1594,59.4863 C326.7994,59.4863 327.2784,59.3083 327.5984,58.9533 C327.9174,58.5983 328.0774,58.1133 328.0774,57.4973 L328.0774,45.6363 Z M330.2074,57.5683 C330.2074,58.7283 329.8834,59.6223 329.2354,60.2493 C328.5874,60.8763 327.5934,61.1903 326.2494,61.1903 C325.9194,61.1903 325.6254,61.1723 325.3664,61.1373 C325.1074,61.1013 324.8594,61.0423 324.6244,60.9593 C324.3894,60.8763 324.1474,60.7583 323.8994,60.6043 C323.6524,60.4503 323.3634,60.2553 323.0344,60.0183 L322.8214,60.0183 L322.8214,64.7053 L320.6904,64.7053 L320.6904,42.1563 L322.7504,42.1563 L322.7504,43.1153 L323.0344,43.1153 C323.3414,42.8783 323.6234,42.6893 323.8824,42.5473 C324.1414,42.4053 324.3894,42.2863 324.6244,42.1923 C324.8594,42.0983 325.1074,42.0323 325.3664,41.9973 C325.6254,41.9613 325.9194,41.9433 326.2494,41.9433 C327.5934,41.9433 328.5874,42.2573 329.2354,42.8843 C329.8834,43.5123 330.2074,44.4063 330.2074,45.5653 L330.2074,57.5683 Z" id="Fill-67"></path>
            <path d="M17.5932,12.0737 C17.5932,11.0387 17.2912,10.3207 16.6882,9.9177 C16.0842,9.5167 15.2062,9.3147 14.0572,9.3147 C12.9642,9.3147 12.1022,9.5167 11.4702,9.9177 C10.8362,10.3207 10.5212,11.0387 10.5212,12.0737 L10.5212,49.6747 C10.5212,50.7087 10.8362,51.4287 11.4702,51.8307 C12.1022,52.2337 12.9642,52.4347 14.0572,52.4347 C15.2062,52.4347 16.0842,52.2337 16.6882,51.8307 C17.2912,51.4287 17.5932,50.7087 17.5932,49.6747 L17.5932,36.9967 L28.2002,36.9967 L28.2002,51.5717 C28.2002,53.1817 27.9982,54.6197 27.5962,55.8837 C27.1942,57.1487 26.4762,58.2117 25.4412,59.0747 C24.4062,59.9377 22.9682,60.5987 21.1292,61.0587 C19.2882,61.5177 16.9312,61.7477 14.0572,61.7477 C11.1812,61.7477 8.8402,61.5177 7.0282,61.0587 C5.2172,60.5987 3.7952,59.9377 2.7592,59.0747 C1.7242,58.2117 1.0052,57.1487 0.6042,55.8837 C0.2002,54.6197 0.0002,53.1817 0.0002,51.5717 L0.0002,10.1767 C0.0002,8.5677 0.2002,7.1297 0.6042,5.8647 C1.0052,4.6007 1.7242,3.5357 2.7592,2.6737 C3.7952,1.8117 5.2172,1.1507 7.0282,0.6897 C8.8402,0.2307 11.1812,-0.0003 14.0572,-0.0003 C16.9312,-0.0003 19.2882,0.2307 21.1292,0.6897 C22.9682,1.1507 24.4062,1.8117 25.4412,2.6737 C26.4762,3.5357 27.1942,4.6007 27.5962,5.8647 C27.9982,7.1297 28.2002,8.5677 28.2002,10.1767 L28.2002,24.1477 L17.5932,24.1477 L17.5932,12.0737 Z" id="Fill-69"></path>
            <path d="M52.8642,11.3839 C52.8642,10.0039 51.6852,9.3139 49.3282,9.3139 C46.8552,9.3139 45.6202,10.0039 45.6202,11.3839 L45.6202,16.9889 C45.6202,17.9679 45.7202,18.7139 45.9212,19.2319 C46.1232,19.7489 46.3962,20.1809 46.7412,20.5249 L59.8502,32.5129 C60.9992,33.4909 61.9192,34.6119 62.6092,35.8759 C63.2992,37.1409 63.6442,38.9239 63.6442,41.2229 L63.6442,51.1409 C63.6442,54.9349 62.5082,57.6519 60.2382,59.2899 C57.9652,60.9289 54.3302,61.7479 49.3282,61.7479 C46.7412,61.7479 44.5122,61.5759 42.6442,61.2309 C40.7752,60.8859 39.2662,60.2969 38.1172,59.4629 C36.9662,58.6299 36.1192,57.5369 35.5732,56.1859 C35.0262,54.8349 34.7542,53.1539 34.7542,51.1409 L34.7542,37.6009 L45.2752,37.6009 L45.2752,49.9329 C45.2752,50.8539 45.6342,51.5009 46.3532,51.8739 C47.0722,52.2479 48.0632,52.4349 49.3282,52.4349 C50.4202,52.4349 51.3122,52.2479 52.0022,51.8739 C52.6922,51.5009 53.0372,50.8539 53.0372,49.9329 L53.0372,42.2579 C53.0372,41.4529 52.9502,40.8069 52.7782,40.3179 C52.6052,39.8299 52.2892,39.3839 51.8292,38.9809 L39.5832,28.3729 C38.1452,27.1089 37.0242,25.7299 36.2202,24.2339 C35.4142,22.7389 35.0132,20.6409 35.0132,17.9379 L35.0132,10.6079 C35.0132,6.7569 36.1342,4.0249 38.3762,2.4149 C40.6182,0.8059 44.2682,-0.0001 49.3282,-0.0001 C54.6172,-0.0001 58.2972,0.8189 60.3672,2.4579 C62.4372,4.0969 63.4722,6.6989 63.4722,10.2629 L63.4722,21.4739 L52.8642,21.4739 L52.8642,11.3839 Z" id="Fill-71"></path>
            <polygon id="Fill-73" points="71.0598 0.6899 95.5518 0.6899 95.5518 10.0039 81.6668 10.0039 81.6668 25.0959 95.1208 25.0959 95.1208 34.4099 81.6668 34.4099 81.6668 51.7439 95.5518 51.7439 95.5518 61.0579 71.0598 61.0579"></polygon>
        </g>
    </g>
</svg>