<svg width="273" height="165" xmlns="http://www.w3.org/2000/svg" xmlns:xlink="http://www.w3.org/1999/xlink"><defs><path id="a" d="M.647.231h117.384v117.378H.647z"/></defs><g fill="none" fill-rule="evenodd"><path d="M8.423 155.352c.345 0 .575-.07.69-.216.116-.144.173-.374.173-.69V135.31c0-.316-.057-.54-.173-.67-.115-.129-.345-.194-.69-.194h-3.11v20.906h3.11zM0 129.782h9.33c1.151 0 2.073.137 2.764.41.691.274 1.224.655 1.6 1.144.372.49.617 1.088.733 1.793.114.706.172 1.505.172 2.397v18.746c0 .864-.058 1.65-.172 2.354-.116.706-.36 1.311-.734 1.815-.375.504-.908.892-1.599 1.166-.69.274-1.613.41-2.764.41H0v-30.236zm18.832 18.055v-10.712h5.054v22.892h-5.054v-12.18zm0-13.304h5.054v-3.456h-5.054v3.456zm13.994 17.148c0 .836.547 1.252 1.642 1.252.374 0 .72-.093 1.036-.28.317-.187.59-.425.821-.713v-9.718a6.35 6.35 0 0 0-.799-.67 1.77 1.77 0 0 0-1.058-.324c-1.095 0-1.642.417-1.642 1.252v9.201zm-5.054-9.633c0-1.64.404-2.908 1.21-3.8.806-.893 1.987-1.339 3.542-1.339.921 0 1.677.136 2.267.41.591.273 1.015.511 1.275.712h.345v-.907h4.924v21.554c0 1.987-.56 3.5-1.684 4.536-1.123 1.036-2.823 1.555-5.097 1.555-2.16 0-3.787-.389-4.88-1.167-1.096-.777-1.642-1.872-1.642-3.282v-1.383H33v.648c0 .49.158.835.475 1.037.316.201.706.302 1.166.302.52 0 .93-.1 1.231-.302.303-.202.454-.633.454-1.296v-3.11h-.259c-.202.173-.598.39-1.188.648-.59.26-1.376.39-2.354.39-1.555 0-2.736-.447-3.542-1.34-.806-.892-1.21-2.16-1.21-3.8v-10.066zm17.451 5.789v-10.712h5.054v22.892h-5.054v-12.18zm0-13.304h5.054v-3.456h-5.054v3.456zm7.429 2.592h2.505v-7.343h5.054v7.343h2.505v4.579H60.21v12.742c0 .663.316.993.95.993h1.555v4.579h-1.901c-1.93 0-3.354-.453-4.276-1.361-.922-.907-1.382-2.181-1.382-3.823v-13.13h-2.505v-4.58zM73.6 149.089l-2.203 1.037c-.49.23-.785.425-.885.583-.1.159-.151.483-.151.972v2.98c0 .49.121.82.367.994.245.173.598.259 1.059.259a2.16 2.16 0 0 0 1.014-.26c.33-.172.597-.416.8-.733v-5.832zm5.012 10.928h-4.925v-.907h-.346c-.23.173-.612.404-1.144.69-.534.289-1.29.433-2.269.433-1.554 0-2.713-.446-3.477-1.338-.762-.893-1.143-2.16-1.143-3.802v-3.93c0-.691.085-1.29.258-1.793a3.84 3.84 0 0 1 .757-1.317c.33-.374.74-.705 1.23-.994a18.38 18.38 0 0 1 1.684-.864l4.364-2.03v-1.987a1.56 1.56 0 0 0-.216-.8c-.145-.243-.549-.366-1.21-.366-.778 0-1.239.123-1.382.367a1.55 1.55 0 0 0-.216.799v1.64H65.48v-2.547c0-.72.108-1.367.323-1.943a3.175 3.175 0 0 1 1.103-1.448c.517-.39 1.21-.684 2.072-.885.865-.201 1.945-.302 3.24-.302 1.21 0 2.224.107 3.045.323.82.217 1.483.526 1.986.929.505.404.858.9 1.06 1.49.2.59.303 1.26.303 2.009v18.573zm3.886-30.236h5.011v30.236h-5.011V147.06zm25.311 13.002h7.084v16.673c-.835.231-1.865.425-3.088.583a29.517 29.517 0 0 1-3.78.237c-1.699 0-3.045-.129-4.038-.389-.993-.259-1.764-.647-2.311-1.166a3.566 3.566 0 0 1-1.058-1.921c-.159-.763-.238-1.648-.238-2.657v-19.092c0-.921.101-1.734.302-2.44a3.607 3.607 0 0 1 1.123-1.771c.547-.475 1.289-.828 2.225-1.059.935-.23 2.138-.345 3.607-.345 1.468 0 2.67.115 3.606.345.936.231 1.677.584 2.225 1.059a3.62 3.62 0 0 1 1.123 1.771c.201.706.302 1.519.302 2.44v4.881h-5.313v-4.536c0-.402-.137-.719-.41-.95-.275-.23-.785-.345-1.533-.345-.75 0-1.261.115-1.534.345-.273.231-.41.548-.41.95v18.747c0 .605.2 1.001.604 1.188.404.187.893.281 1.469.281h1.037c.287 0 .547-.015.777-.044v-8.077h-1.771v-4.708zm20.647-5.658v4.319h-1.167c-1.094 0-2.145.332-3.153.994v17.58h-5.01v-22.893h4.923v1.08h.302c.231-.173.62-.395 1.168-.67.545-.273 1.28-.41 2.203-.41h.734zm10.625 5.183c0-.49-.13-.828-.389-1.015-.258-.187-.663-.281-1.209-.281-.576 0-.993.094-1.253.28-.259.188-.389.527-.389 1.016v12.483c0 .49.13.836.389 1.037.26.2.677.302 1.253.302.546 0 .951-.101 1.209-.302.259-.201.389-.547.389-1.037v-12.483zm-8.25-.52c0-1.985.583-3.331 1.75-4.037 1.166-.705 2.799-1.058 4.902-1.058 2.073 0 3.7.353 4.881 1.058 1.18.706 1.771 2.052 1.771 4.038v13.52c0 1.009-.151 1.843-.453 2.506a3.737 3.737 0 0 1-1.318 1.576c-.576.389-1.274.663-2.095.82-.82.159-1.75.239-2.786.239-1.037 0-1.973-.08-2.808-.238-.835-.158-1.533-.432-2.094-.821a3.787 3.787 0 0 1-1.297-1.576c-.302-.663-.453-1.497-.453-2.506v-13.52zm29.458 1.47h-.432l-1.986 16.76h-7.776l-3.585-22.894h5.14l2.333 18.228h.475l2.03-18.228h7.257l1.943 18.228h.475l2.419-18.228h5.098l-3.543 22.893h-7.775zm14.254-6.133h2.505v-7.343h5.054v7.343h2.505v4.579h-2.505v12.742c0 .663.316.993.95.993h1.555v4.579h-1.9c-1.93 0-3.355-.453-4.277-1.361-.922-.907-1.382-2.181-1.382-3.823v-13.13h-2.505v-4.58zm12.655-7.344h5.011v8.38h.216c.201-.2.59-.46 1.166-.777.575-.318 1.353-.476 2.332-.476 1.555 0 2.722.447 3.5 1.34.776.892 1.166 2.16 1.166 3.8v17.97h-5.054V142.48c0-.835-.447-1.252-1.339-1.252-.404 0-.778.107-1.123.324a4.848 4.848 0 0 0-.864.67v17.795h-5.01v-30.236zm34.599 13.002c.604 0 .906-.374.906-1.123v-6.134c0-.402-.108-.684-.323-.842-.216-.158-.483-.238-.8-.238h-2.807v8.337h3.024zm-8.337-13.002h8.898c.777 0 1.51.08 2.203.238.69.158 1.288.418 1.792.777.504.361.908.85 1.21 1.469.302.62.454 1.404.454 2.354v7.43c0 1.641-.44 2.959-1.318 3.952-.88.993-2.225 1.49-4.04 1.49h-3.886v12.526h-5.313v-30.236zm25.786 19.308l-2.203 1.037c-.49.23-.785.425-.885.583-.101.159-.151.483-.151.972v2.98c0 .49.121.82.367.994.245.173.597.259 1.059.259.345 0 .684-.086 1.014-.26.33-.172.597-.416.8-.733v-5.832zm5.01 10.928h-4.923v-.907h-.345c-.232.173-.613.404-1.145.69-.533.289-1.29.433-2.268.433-1.555 0-2.714-.446-3.477-1.338-.765-.893-1.145-2.16-1.145-3.802v-3.93c0-.691.087-1.29.26-1.793.172-.503.424-.943.756-1.317.33-.374.74-.705 1.23-.994a18.38 18.38 0 0 1 1.684-.864l4.363-2.03v-1.987a1.56 1.56 0 0 0-.216-.8c-.143-.243-.548-.366-1.209-.366-.778 0-1.238.123-1.382.367a1.55 1.55 0 0 0-.216.799v1.64h-5.098v-2.547c0-.72.108-1.367.325-1.943a3.182 3.182 0 0 1 1.102-1.448c.518-.39 1.21-.684 2.073-.885.863-.201 1.944-.302 3.238-.302 1.21 0 2.226.107 3.046.323.822.217 1.484.526 1.988.929.502.404.856.9 1.058 1.49.2.59.301 1.26.301 2.009v18.573zm15.032-30.236h5.01v8.38h.216c.202-.2.59-.46 1.166-.777.575-.318 1.354-.476 2.334-.476 1.554 0 2.72.447 3.498 1.34.777.892 1.166 2.16 1.166 3.8v17.97h-5.053V142.48c0-.835-.447-1.252-1.34-1.252-.403 0-.776.107-1.123.324a4.848 4.848 0 0 0-.863.67v17.795h-5.011v-30.236zm-12.656 7.344h2.505v-7.343h5.054v7.343h2.505v4.579h-2.505v12.742c0 .663.316.993.95.993h1.555v4.579h-1.9c-1.93 0-3.355-.453-4.276-1.361-.923-.907-1.383-2.181-1.383-3.823v-13.13h-2.505v-4.58z" fill="#504D8B"/><g transform="translate(77 -.231)"><mask id="b" fill="#fff"><use xlink:href="#a"/></mask><path d="M118.031 58.92c0 32.364-26.33 58.689-58.689 58.689-32.364 0-58.695-26.325-58.695-58.69C.647 26.557 26.978.232 59.342.232a58.297 58.297 0 0 1 23.71 5.006 57.323 57.323 0 0 1 7.208 3.819l-1.023-5.292 4.92-.951 2.713 14.035-14.03 2.715-.955-4.92 6.02-1.163a53.33 53.33 0 0 0-28.562-8.248c-29.61 0-53.694 24.084-53.694 53.688 0 29.604 24.084 53.688 53.693 53.688 29.603 0 53.688-24.084 53.688-53.688a53.383 53.383 0 0 0-10.14-31.364l4.056-2.923c6.97 9.653 11.085 21.497 11.085 34.287" fill="#504D8B" mask="url(#b)"/></g><path d="M161.532 66.409c0 1.651-.47 2.731-1.398 3.24-.933.508-2.013.757-3.24.757h-8.081V48.407h7.598c.64 0 1.265.04 1.88.123a4.134 4.134 0 0 1 1.642.556c.48.294.867.695 1.159 1.203.294.506.44 1.157.44 1.959v14.16zm-36.707 14.805c0 1.657-.333 2.802-.997 3.442-.67.64-1.857.962-3.562.962h-9.118v-47.36h9.118c1.705 0 2.893.317 3.562.959.664.64.997 1.758.997 3.361v38.636zm41.026-33.408a6.254 6.254 0 0 0-2.12-2.237c-.88-.564-1.891-.949-3.04-1.165a19.789 19.789 0 0 0-3.556-.317h-13.443v.006h-5.531v4.32h5.76V69.13a1.677 1.677 0 0 1-.23.132c-.444.2-1.221.361-2.331.468a41.038 41.038 0 0 1-4.08.2c-.957 0-1.876-.082-2.756-.243-.884-.157-1.656-.436-2.321-.835-.67-.402-1.202-.974-1.602-1.72-.401-.748-.602-1.682-.602-2.8V26.81c0-1.545.523-2.8 1.565-3.758 1.04-.963 2.838-1.442 5.399-1.442 2.56 0 4.358.479 5.399 1.442 1.04.957 1.56 2.213 1.56 3.758v7.203h5.12V26.09c0-2.879-1.041-5.068-3.117-6.562-2.082-1.49-5.073-2.238-8.962-2.238-3.895 0-6.88.748-8.962 2.238-2.076 1.494-3.117 3.683-3.117 6.561v8.274c-1.007-.288-2.224-.425-3.655-.425h-15.202v56h15.202c1.759 0 3.195-.216 4.319-.641 1.119-.431 1.999-1.043 2.639-1.844.639-.795 1.095-1.743 1.358-2.837.269-1.096.4-2.332.4-3.72V73c1.946.835 4.55 1.25 7.815 1.25 2.194 0 4.172-.12 5.932-.37v26.208h5.12V74.726h8.962c2.717 0 4.877-.758 6.479-2.278 1.598-1.52 2.4-3.561 2.4-6.122v-15.04c0-1.385-.27-2.547-.802-3.48z" fill="#504D8B"/></g></svg>