<?xml version="1.0" encoding="UTF-8"?>
<svg width="221px" height="134px" viewBox="0 0 221 134" version="1.1" xmlns="http://www.w3.org/2000/svg" xmlns:xlink="http://www.w3.org/1999/xlink">
    <!-- Generator: Sketch 46 (44423) - http://www.bohemiancoding.com/sketch -->
    <title>digital-growth-path-logo</title>
    <desc>Created with Sketch.</desc>
    <defs>
        <polygon id="path-1" points="0 0.7138 0 25.1578 11.8038 25.1578 11.8038 0.7138 1.35525272e-20 0.7138"></polygon>
        <polygon id="path-3" points="11.453 25.1584 11.453 0.7134 0.6273 0.7134 0.6273 25.1584 11.453 25.1584"></polygon>
    </defs>
    <g id="Page-1" stroke="none" stroke-width="1" fill="none" fill-rule="evenodd">
        <g id="digital-growth-path-logo">
            <g id="Group-3" transform="translate(0.000000, 104.212000)">
                <mask id="mask-2" fill="white">
                    <use xlink:href="#path-1"></use>
                </mask>
                <g id="Clip-2"></g>
                <path d="M6.8098,21.3868 C7.0888,21.3868 7.2748,21.3298 7.3678,21.2128 C7.4608,21.0958 7.5078,20.9098 7.5078,20.6538 L7.5078,5.1838 C7.5078,4.9278 7.4608,4.7468 7.3678,4.6418 C7.2748,4.5368 7.0888,4.4848 6.8098,4.4848 L4.2958,4.4848 L4.2958,21.3868 L6.8098,21.3868 Z M-0.0002,0.7138 L7.5428,0.7138 C8.4738,0.7138 9.2188,0.8248 9.7778,1.0448 C10.3368,1.2668 10.7668,1.5748 11.0698,1.9708 C11.3718,2.3668 11.5708,2.8498 11.6638,3.4198 C11.7568,3.9908 11.8038,4.6368 11.8038,5.3578 L11.8038,20.5138 C11.8038,21.2128 11.7568,21.8468 11.6638,22.4168 C11.5708,22.9878 11.3718,23.4768 11.0698,23.8838 C10.7668,24.2918 10.3368,24.6058 9.7778,24.8268 C9.2188,25.0488 8.4738,25.1578 7.5428,25.1578 L-0.0002,25.1578 L-0.0002,0.7138 Z" id="Fill-1" fill="#8586C0" mask="url(#mask-2)"></path>
            </g>
            <path d="M15.2252,119.5228 L15.2252,110.8618 L19.3112,110.8618 L19.3112,119.9068 L19.3112,129.3698 L15.2252,129.3698 L15.2252,119.5228 Z M15.2252,108.7668 L19.3112,108.7668 L19.3112,105.9728 L15.2252,105.9728 L15.2252,108.7668 Z" id="Fill-4" fill="#8586C0"></path>
            <path d="M26.5392,122.6307 C26.5392,123.3067 26.9812,123.6427 27.8662,123.6427 C28.1682,123.6427 28.4482,123.5677 28.7042,123.4157 C28.9602,123.2657 29.1812,123.0727 29.3682,122.8407 L29.3682,114.9837 C29.1812,114.7967 28.9662,114.6167 28.7212,114.4417 C28.4772,114.2667 28.1922,114.1797 27.8662,114.1797 C26.9812,114.1797 26.5392,114.5167 26.5392,115.1917 L26.5392,122.6307 Z M22.4532,114.8427 C22.4532,113.5167 22.7792,112.4917 23.4312,111.7707 C24.0822,111.0487 25.0372,110.6877 26.2942,110.6877 C27.0392,110.6877 27.6502,110.7977 28.1282,111.0197 C28.6052,111.2407 28.9482,111.4327 29.1582,111.5947 L29.4372,111.5947 L29.4372,110.8617 L33.4182,110.8617 L33.4182,128.2877 C33.4182,129.8947 32.9652,131.1167 32.0562,131.9547 C31.1482,132.7927 29.7752,133.2117 27.9362,133.2117 C26.1902,133.2117 24.8742,132.8977 23.9902,132.2687 C23.1052,131.6407 22.6632,130.7557 22.6632,129.6147 L22.6632,128.4967 L26.6792,128.4967 L26.6792,129.0217 C26.6792,129.4167 26.8062,129.6957 27.0632,129.8597 C27.3192,130.0217 27.6332,130.1037 28.0062,130.1037 C28.4252,130.1037 28.7562,130.0217 29.0012,129.8597 C29.2452,129.6957 29.3682,129.3477 29.3682,128.8117 L29.3682,126.2977 L29.1582,126.2977 C28.9952,126.4367 28.6742,126.6117 28.1982,126.8217 C27.7202,127.0307 27.0862,127.1357 26.2942,127.1357 C25.0372,127.1357 24.0822,126.7747 23.4312,126.0527 C22.7792,125.3317 22.4532,124.3067 22.4532,122.9797 L22.4532,114.8427 Z" id="Fill-6" fill="#8586C0"></path>
            <path d="M36.5614,119.5228 L36.5614,110.8618 L40.6474,110.8618 L40.6474,119.9068 L40.6474,129.3698 L36.5614,129.3698 L36.5614,119.5228 Z M36.5614,108.7668 L40.6474,108.7668 L40.6474,105.9728 L36.5614,105.9728 L36.5614,108.7668 Z" id="Fill-8" fill="#8586C0"></path>
            <path d="M42.5674,110.8622 L44.5924,110.8622 L44.5924,104.9252 L48.6784,104.9252 L48.6784,110.8622 L50.7044,110.8622 L50.7044,114.5642 L48.6784,114.5642 L48.6784,124.8662 C48.6784,125.4012 48.9344,125.6682 49.4464,125.6682 L50.7044,125.6682 L50.7044,129.3702 L49.1674,129.3702 C47.6074,129.3702 46.4554,129.0042 45.7104,128.2702 C44.9644,127.5372 44.5924,126.5072 44.5924,125.1792 L44.5924,114.5642 L42.5674,114.5642 L42.5674,110.8622 Z" id="Fill-10" fill="#8586C0"></path>
            <path d="M59.5039,120.535 L57.7229,121.374 C57.3269,121.56 57.0879,121.717 57.0069,121.845 C56.9259,121.973 56.8849,122.235 56.8849,122.631 L56.8849,125.04 C56.8849,125.437 56.9839,125.704 57.1819,125.844 C57.3789,125.983 57.6649,126.053 58.0369,126.053 C58.3169,126.053 58.5899,125.983 58.8579,125.844 C59.1249,125.704 59.3409,125.506 59.5039,125.25 L59.5039,120.535 Z M63.5549,129.37 L59.5739,129.37 L59.5739,128.637 L59.2939,128.637 C59.1079,128.776 58.7999,128.963 58.3689,129.196 C57.9379,129.428 57.3269,129.545 56.5359,129.545 C55.2789,129.545 54.3409,129.184 53.7239,128.463 C53.1069,127.741 52.7989,126.717 52.7989,125.389 L52.7989,122.212 C52.7989,121.653 52.8689,121.17 53.0089,120.762 C53.1479,120.356 53.3519,120 53.6199,119.697 C53.8869,119.395 54.2189,119.127 54.6149,118.894 C55.0109,118.661 55.4649,118.429 55.9769,118.195 L59.5039,116.554 L59.5039,114.948 C59.5039,114.715 59.4459,114.5 59.3299,114.302 C59.2119,114.104 58.8869,114.005 58.3519,114.005 C57.7229,114.005 57.3509,114.104 57.2339,114.302 C57.1179,114.5 57.0599,114.715 57.0599,114.948 L57.0599,116.275 L52.9389,116.275 L52.9389,114.214 C52.9389,113.633 53.0259,113.109 53.2009,112.643 C53.3749,112.177 53.6719,111.787 54.0909,111.473 C54.5099,111.159 55.0689,110.92 55.7669,110.757 C56.4659,110.595 57.3389,110.513 58.3869,110.513 C59.3639,110.513 60.1849,110.6 60.8479,110.775 C61.5119,110.95 62.0469,111.2 62.4549,111.525 C62.8619,111.852 63.1469,112.254 63.3109,112.73 C63.4729,113.208 63.5549,113.749 63.5549,114.354 L63.5549,129.37 Z" id="Fill-12" fill="#8586C0"></path>
            <polygon id="Fill-14" fill="#8586C0" points="66.6974 104.9254 70.7484 104.9254 70.7484 118.5454 70.7484 129.3704 66.6974 129.3704 66.6974 118.8944"></polygon>
            <path d="M87.1609,115.4369 L92.8879,115.4369 L92.8879,128.9159 C92.2129,129.1029 91.3799,129.2599 90.3909,129.3879 C89.4009,129.5149 88.3829,129.5799 87.3359,129.5799 C85.9619,129.5799 84.8739,129.4749 84.0709,129.2659 C83.2679,129.0559 82.6439,128.7419 82.2019,128.3229 C81.7599,127.9039 81.4739,127.3859 81.3469,126.7689 C81.2179,126.1529 81.1549,125.4369 81.1549,124.6209 L81.1549,109.1859 C81.1549,108.4409 81.2359,107.7839 81.3989,107.2129 C81.5619,106.6429 81.8649,106.1659 82.3069,105.7809 C82.7489,105.3969 83.3489,105.1119 84.1049,104.9259 C84.8619,104.7389 85.8339,104.6459 87.0209,104.6459 C88.2089,104.6459 89.1809,104.7389 89.9369,104.9259 C90.6939,105.1119 91.2929,105.3969 91.7359,105.7809 C92.1779,106.1659 92.4809,106.6429 92.6439,107.2129 C92.8059,107.7839 92.8879,108.4409 92.8879,109.1859 L92.8879,113.1319 L88.5929,113.1319 L88.5929,109.4649 C88.5929,109.1399 88.4819,108.8839 88.2609,108.6969 C88.0389,108.5109 87.6269,108.4179 87.0209,108.4179 C86.4159,108.4179 86.0029,108.5109 85.7819,108.6969 C85.5599,108.8839 85.4499,109.1399 85.4499,109.4649 L85.4499,124.6209 C85.4499,125.1099 85.6119,125.4299 85.9389,125.5819 C86.2649,125.7329 86.6599,125.8089 87.1259,125.8089 L87.9639,125.8089 C88.1969,125.8089 88.4059,125.7969 88.5929,125.7729 L88.5929,119.2439 L87.1609,119.2439 L87.1609,115.4369 Z" id="Fill-16" fill="#8586C0"></path>
            <path d="M103.8529,110.8622 L103.8529,114.3542 L102.9099,114.3542 C102.0249,114.3542 101.1749,114.6222 100.3609,115.1572 L100.3609,129.3702 L96.3099,129.3702 L96.3099,110.8622 L100.2909,110.8622 L100.2909,111.7352 L100.5349,111.7352 C100.7219,111.5952 101.0359,111.4152 101.4779,111.1942 C101.9199,110.9732 102.5139,110.8622 103.2589,110.8622 L103.8529,110.8622 Z" id="Fill-18" fill="#8586C0"></path>
            <path d="M112.4432,115.0529 C112.4432,114.6569 112.3382,114.3839 112.1292,114.2319 C111.9202,114.0809 111.5932,114.0049 111.1512,114.0049 C110.6852,114.0049 110.3482,114.0809 110.1382,114.2319 C109.9292,114.3839 109.8242,114.6569 109.8242,115.0529 L109.8242,125.1449 C109.8242,125.5419 109.9292,125.8209 110.1382,125.9829 C110.3482,126.1459 110.6852,126.2279 111.1512,126.2279 C111.5932,126.2279 111.9202,126.1459 112.1292,125.9829 C112.3382,125.8209 112.4432,125.5419 112.4432,125.1449 L112.4432,115.0529 Z M105.7732,114.6339 C105.7732,113.0279 106.2452,111.9389 107.1882,111.3679 C108.1302,110.7979 109.4512,110.5129 111.1512,110.5129 C112.8272,110.5129 114.1422,110.7979 115.0972,111.3679 C116.0512,111.9389 116.5292,113.0279 116.5292,114.6339 L116.5292,125.5639 C116.5292,126.3789 116.4072,127.0539 116.1622,127.5899 C115.9182,128.1259 115.5632,128.5499 115.0972,128.8639 C114.6312,129.1789 114.0672,129.3999 113.4042,129.5279 C112.7402,129.6549 111.9892,129.7199 111.1512,129.7199 C110.3132,129.7199 109.5562,129.6549 108.8812,129.5279 C108.2062,129.3999 107.6412,129.1789 107.1882,128.8639 C106.7342,128.5499 106.3842,128.1259 106.1402,127.5899 C105.8952,127.0539 105.7732,126.3789 105.7732,125.5639 L105.7732,114.6339 Z" id="Fill-20" fill="#8586C0"></path>
            <polygon id="Fill-22" fill="#8586C0" points="129.5894 115.8209 129.2404 115.8209 127.6344 129.3699 121.3484 129.3699 118.4494 110.8619 122.6054 110.8619 124.4914 125.5989 124.8754 125.5989 126.5164 110.8619 132.3834 110.8619 133.9544 125.5989 134.3384 125.5989 136.2944 110.8619 140.4154 110.8619 137.5514 129.3699 131.2654 129.3699"></polygon>
            <path d="M141.1132,110.8622 L143.1382,110.8622 L143.1382,104.9252 L147.2242,104.9252 L147.2242,110.8622 L149.2502,110.8622 L149.2502,114.5642 L147.2242,114.5642 L147.2242,124.8662 C147.2242,125.4012 147.4802,125.6682 147.9932,125.6682 L149.2502,125.6682 L149.2502,129.3702 L147.7132,129.3702 C146.1532,129.3702 145.0012,129.0042 144.2562,128.2702 C143.5102,127.5372 143.1382,126.5072 143.1382,125.1792 L143.1382,114.5642 L141.1132,114.5642 L141.1132,110.8622 Z" id="Fill-24" fill="#8586C0"></path>
            <path d="M151.3447,104.9254 L155.3957,104.9254 L155.3957,111.7004 L155.5707,111.7004 C155.7327,111.5374 156.0477,111.3284 156.5137,111.0714 C156.9787,110.8154 157.6077,110.6874 158.3987,110.6874 C159.6557,110.6874 160.5987,111.0484 161.2277,111.7704 C161.8567,112.4914 162.1707,113.5164 162.1707,114.8434 L162.1707,129.3704 L158.0847,129.3704 L158.0847,115.1924 C158.0847,114.5174 157.7237,114.1794 157.0017,114.1794 C156.6757,114.1794 156.3737,114.2664 156.0937,114.4414 C155.8147,114.6164 155.5817,114.7964 155.3957,114.9834 L155.3957,129.3704 L151.3447,129.3704 L151.3447,104.9254 Z" id="Fill-26" fill="#8586C0"></path>
            <path d="M179.3168,115.4369 C179.8058,115.4369 180.0498,115.1349 180.0498,114.5289 L180.0498,109.5699 C180.0498,109.2449 179.9618,109.0169 179.7878,108.8889 C179.6138,108.7609 179.3978,108.6969 179.1418,108.6969 L176.8718,108.6969 L176.8718,115.4369 L179.3168,115.4369 Z M172.5768,104.9259 L179.7708,104.9259 C180.3988,104.9259 180.9928,104.9899 181.5518,105.1179 C182.1108,105.2459 182.5928,105.4549 183.0008,105.7459 C183.4078,106.0379 183.7338,106.4329 183.9788,106.9339 C184.2228,107.4349 184.3448,108.0689 184.3448,108.8369 L184.3448,114.8429 C184.3448,116.1699 183.9898,117.2359 183.2798,118.0389 C182.5698,118.8419 181.4818,119.2439 180.0148,119.2439 L176.8718,119.2439 L176.8718,129.3699 L172.5768,129.3699 L172.5768,104.9259 Z" id="Fill-28" fill="#8586C0"></path>
            <path d="M193.4246,120.535 L191.6436,121.374 C191.2466,121.56 191.0086,121.717 190.9276,121.845 C190.8456,121.973 190.8056,122.235 190.8056,122.631 L190.8056,125.04 C190.8056,125.437 190.9036,125.704 191.1016,125.844 C191.2996,125.983 191.5856,126.053 191.9576,126.053 C192.2376,126.053 192.5106,125.983 192.7786,125.844 C193.0456,125.704 193.2616,125.506 193.4246,125.25 L193.4246,120.535 Z M197.4756,129.37 L193.4946,129.37 L193.4946,128.637 L193.2146,128.637 C193.0286,128.776 192.7206,128.963 192.2896,129.196 C191.8586,129.428 191.2466,129.545 190.4556,129.545 C189.1986,129.545 188.2616,129.184 187.6446,128.463 C187.0276,127.741 186.7196,126.717 186.7196,125.389 L186.7196,122.212 C186.7196,121.653 186.7896,121.17 186.9296,120.762 C187.0686,120.356 187.2726,120 187.5406,119.697 C187.8076,119.395 188.1386,119.127 188.5356,118.894 C188.9306,118.661 189.3856,118.429 189.8976,118.195 L193.4246,116.554 L193.4246,114.948 C193.4246,114.715 193.3656,114.5 193.2496,114.302 C193.1326,114.104 192.8066,114.005 192.2726,114.005 C191.6436,114.005 191.2706,114.104 191.1546,114.302 C191.0386,114.5 190.9796,114.715 190.9796,114.948 L190.9796,116.275 L186.8586,116.275 L186.8586,114.214 C186.8586,113.633 186.9466,113.109 187.1206,112.643 C187.2956,112.177 187.5926,111.787 188.0116,111.473 C188.4306,111.159 188.9896,110.92 189.6876,110.757 C190.3866,110.595 191.2596,110.513 192.3066,110.513 C193.2846,110.513 194.1056,110.6 194.7686,110.775 C195.4326,110.95 195.9676,111.2 196.3756,111.525 C196.7826,111.852 197.0676,112.254 197.2316,112.73 C197.3936,113.208 197.4756,113.749 197.4756,114.354 L197.4756,129.37 Z" id="Fill-30" fill="#8586C0"></path>
            <path d="M199.3958,110.8622 L201.4208,110.8622 L201.4208,104.9252 L205.5068,104.9252 L205.5068,110.8622 L207.5318,110.8622 L207.5318,114.5642 L205.5068,114.5642 L205.5068,124.8662 C205.5068,125.4012 205.7628,125.6682 206.2748,125.6682 L207.5318,125.6682 L207.5318,129.3702 L205.9958,129.3702 C204.4358,129.3702 203.2838,129.0042 202.5388,128.2702 C201.7928,127.5372 201.4208,126.5072 201.4208,125.1792 L201.4208,114.5642 L199.3958,114.5642 L199.3958,110.8622 Z" id="Fill-32" fill="#8586C0"></path>
            <g id="Group-36" transform="translate(209.000000, 104.212000)">
                <mask id="mask-4" fill="white">
                    <use xlink:href="#path-3"></use>
                </mask>
                <g id="Clip-35"></g>
                <path d="M0.6273,0.7134 L4.6783,0.7134 L4.6783,7.4884 L4.8533,7.4884 C5.0153,7.3254 5.3303,7.1164 5.7953,6.8594 C6.2613,6.6034 6.8903,6.4754 7.6823,6.4754 C8.9393,6.4754 9.8813,6.8364 10.5103,7.5584 C11.1383,8.2794 11.4533,9.3044 11.4533,10.6314 L11.4533,25.1584 L7.3673,25.1584 L7.3673,10.9804 C7.3673,10.3054 7.0063,9.9674 6.2843,9.9674 C5.9583,9.9674 5.6563,10.0544 5.3763,10.2294 C5.0973,10.4044 4.8643,10.5844 4.6783,10.7714 L4.6783,25.1584 L0.6273,25.1584 L0.6273,0.7134 Z" id="Fill-34" fill="#8586C0" mask="url(#mask-4)"></path>
            </g>
            <path d="M157.6775,47.4491 C157.6775,73.6141 136.3905,94.8981 110.2285,94.8981 C84.0635,94.8981 62.7765,73.6141 62.7765,47.4491 C62.7765,21.2841 84.0635,0.0001 110.2285,0.0001 C117.0475,0.0001 123.5355,1.4451 129.3985,4.0471 C131.4205,4.9401 133.3645,5.9731 135.2245,7.1351 L134.3975,2.8561 L138.3755,2.0881 L140.5695,13.4351 L129.2255,15.6301 L128.4535,11.6521 L133.3205,10.7121 C131.4975,9.5611 129.5865,8.5431 127.5935,7.6711 C122.2745,5.3371 116.4005,4.0441 110.2285,4.0441 C86.2915,4.0441 66.8195,23.5141 66.8195,47.4491 C66.8195,71.3831 86.2915,90.8541 110.2285,90.8541 C134.1625,90.8541 153.6335,71.3831 153.6335,47.4491 C153.6335,37.9911 150.5935,29.2311 145.4365,22.0921 L148.7155,19.7291 C154.3505,27.5331 157.6775,37.1081 157.6775,47.4491" id="Fill-37" fill="#8586C0"></path>
            <path d="M130.5941,53.6901 C130.5941,55.0251 130.2151,55.8981 129.4641,56.3091 C128.7091,56.7211 127.8361,56.9221 126.8451,56.9221 L120.3111,56.9221 L120.3111,39.1371 L126.4541,39.1371 C126.9711,39.1371 127.4771,39.1681 127.9751,39.2351 C128.4691,39.2991 128.9101,39.4491 129.3021,39.6861 C129.6891,39.9231 130.0021,40.2461 130.2381,40.6581 C130.4761,41.0681 130.5941,41.5931 130.5941,42.2421 L130.5941,53.6901 Z M100.9171,65.6601 C100.9171,67.0001 100.6491,67.9251 100.1121,68.4421 C99.5701,68.9601 98.6101,69.2211 97.2311,69.2211 L89.8601,69.2211 L89.8601,30.9311 L97.2311,30.9311 C98.6101,30.9311 99.5701,31.1881 100.1121,31.7061 C100.6491,32.2231 100.9171,33.1281 100.9171,34.4241 L100.9171,65.6601 Z M134.0861,38.6501 C133.6551,37.8961 133.0871,37.2911 132.3721,36.8411 C131.6601,36.3871 130.8431,36.0751 129.9141,35.9011 C128.9861,35.7311 128.0301,35.6441 127.0391,35.6441 L116.1701,35.6441 L116.1701,35.6491 L111.6991,35.6491 L111.6991,39.1411 L116.3561,39.1411 L116.3561,55.8911 C116.3051,55.9271 116.2461,55.9621 116.1701,55.9981 C115.8111,56.1601 115.1831,56.2901 114.2861,56.3761 C113.2071,56.4831 112.1101,56.5381 110.9871,56.5381 C110.2131,56.5381 109.4701,56.4711 108.7591,56.3411 C108.0441,56.2141 107.4201,55.9901 106.8831,55.6661 C106.3411,55.3411 105.9111,54.8801 105.5871,54.2751 C105.2631,53.6711 105.1011,52.9151 105.1011,52.0121 L105.1011,21.6751 C105.1011,20.4271 105.5231,19.4111 106.3651,18.6381 C107.2071,17.8581 108.6601,17.4711 110.7301,17.4711 C112.8011,17.4711 114.2541,17.8581 115.0961,18.6381 C115.9371,19.4111 116.3561,20.4271 116.3561,21.6751 L116.3561,27.4981 L120.4961,27.4981 L120.4961,21.0941 C120.4961,18.7671 119.6551,16.9981 117.9761,15.7891 C116.2931,14.5851 113.8751,13.9791 110.7301,13.9791 C107.5821,13.9791 105.1681,14.5851 103.4851,15.7891 C101.8061,16.9981 100.9651,18.7671 100.9651,21.0941 L100.9651,27.7831 C100.1511,27.5501 99.1671,27.4391 98.0101,27.4391 L85.7201,27.4391 L85.7201,72.7131 L98.0101,72.7131 C99.4321,72.7131 100.5931,72.5381 101.5021,72.1951 C102.4071,71.8471 103.1181,71.3531 103.6351,70.7061 C104.1531,70.0621 104.5211,69.2951 104.7331,68.4111 C104.9511,67.5261 105.0581,66.5261 105.0581,65.4041 L105.0581,59.0191 C106.6301,59.6951 108.7361,60.0301 111.3741,60.0301 C113.1491,60.0301 114.7481,59.9321 116.1701,59.7301 L116.1701,80.9191 L120.3111,80.9191 L120.3111,60.4141 L127.5561,60.4141 C129.7531,60.4141 131.4991,59.8011 132.7941,58.5731 C134.0861,57.3451 134.7341,55.6931 134.7341,53.6231 L134.7341,41.4631 C134.7341,40.3451 134.5171,39.4051 134.0861,38.6501 L134.0861,38.6501 Z" id="Fill-39" fill="#8586C0"></path>
        </g>
    </g>
</svg>