<svg width="221" height="134" xmlns="http://www.w3.org/2000/svg" xmlns:xlink="http://www.w3.org/1999/xlink"><defs><path id="a" d="M0 .714v24.444h11.804V.714H0z"/><path id="c" d="M11.453 25.158V.713H.627v24.445h10.826z"/></defs><g fill="none" fill-rule="evenodd"><g transform="translate(0 104.212)"><mask id="b" fill="#fff"><use xlink:href="#a"/></mask><path d="M6.81 21.387c.279 0 .465-.057.558-.174.093-.117.14-.303.14-.56V5.184c0-.255-.047-.436-.14-.541-.093-.105-.28-.157-.558-.157H4.296v16.902H6.81zM0 .714h7.543c.93 0 1.676.11 2.235.33.559.223.989.53 1.292.927.302.396.5.879.594 1.449.093.57.14 1.217.14 1.938v15.156c0 .699-.047 1.333-.14 1.903-.093.57-.292 1.06-.594 1.467-.303.408-.733.722-1.292.943-.56.222-1.304.33-2.235.33H0V.715z" fill="#8586C0" mask="url(#b)"/></g><path d="M15.225 119.523v-8.661h4.086v18.508h-4.086v-9.847zm0-10.756h4.086v-2.794h-4.086v2.794zM26.54 122.63c0 .677.441 1.013 1.326 1.013.302 0 .582-.075.838-.227a2.42 2.42 0 0 0 .664-.575v-7.857a5.116 5.116 0 0 0-.647-.542 1.428 1.428 0 0 0-.855-.262c-.885 0-1.327.337-1.327 1.012v7.439zm-4.087-7.787c0-1.326.326-2.351.978-3.072.651-.722 1.606-1.083 2.863-1.083.745 0 1.356.11 1.834.332.477.22.82.413 1.03.575h.28v-.733h3.98v17.426c0 1.607-.453 2.829-1.362 3.667-.908.838-2.28 1.257-4.12 1.257-1.746 0-3.062-.314-3.946-.943-.885-.628-1.327-1.513-1.327-2.654v-1.118h4.016v.525c0 .395.127.674.384.838.256.162.57.244.943.244.42 0 .75-.082.995-.244.244-.164.367-.512.367-1.048v-2.514h-.21c-.163.139-.484.314-.96.524-.478.209-1.112.314-1.904.314-1.257 0-2.212-.361-2.863-1.083-.652-.721-.978-1.746-.978-3.073v-8.137zm14.108 4.68v-8.661h4.086v18.508h-4.086v-9.847zm0-10.756h4.086v-2.794h-4.086v2.794zm6.006 2.095h2.025v-5.937h4.086v5.937h2.026v3.702h-2.026v10.302c0 .535.256.802.768.802h1.258v3.702h-1.537c-1.56 0-2.712-.366-3.457-1.1-.746-.733-1.118-1.763-1.118-3.09v-10.616h-2.025v-3.702zm16.937 9.673l-1.781.839c-.396.186-.635.343-.716.471-.081.128-.122.39-.122.786v2.409c0 .397.099.664.297.804.197.139.483.209.855.209.28 0 .553-.07.82-.209.268-.14.484-.338.647-.594v-4.715zm4.05 8.835h-3.98v-.733h-.28a8.155 8.155 0 0 1-.925.559c-.431.232-1.042.349-1.833.349-1.257 0-2.195-.361-2.812-1.082-.617-.722-.925-1.746-.925-3.074v-3.177c0-.559.07-1.042.21-1.45a3.11 3.11 0 0 1 .61-1.065c.268-.302.6-.57.996-.803.396-.233.85-.465 1.362-.699l3.527-1.641v-1.606c0-.233-.058-.448-.174-.646-.118-.198-.443-.297-.978-.297-.63 0-1.001.099-1.118.297a1.255 1.255 0 0 0-.174.646v1.327h-4.121v-2.061c0-.581.087-1.105.262-1.571.174-.466.47-.856.89-1.17.419-.314.978-.553 1.676-.716.699-.162 1.572-.244 2.62-.244.977 0 1.798.087 2.46.262.665.175 1.2.425 1.608.75.407.327.692.729.856 1.205.162.478.244 1.019.244 1.624v15.016zm3.143-24.445h4.051v24.445h-4.05v-10.476zm20.463 10.512h5.728v13.479c-.675.187-1.508.344-2.497.472-.99.127-2.008.192-3.055.192-1.374 0-2.462-.105-3.265-.314-.803-.21-1.427-.524-1.87-.943a2.893 2.893 0 0 1-.854-1.554c-.13-.616-.192-1.332-.192-2.148v-15.435c0-.745.08-1.402.244-1.973.163-.57.466-1.047.908-1.432.442-.384 1.042-.67 1.798-.855.757-.187 1.729-.28 2.916-.28 1.188 0 2.16.093 2.916.28.757.186 1.356.47 1.799.855.442.385.745.862.908 1.432.162.57.244 1.228.244 1.973v3.946h-4.295v-3.667c0-.325-.111-.581-.332-.768-.222-.186-.634-.28-1.24-.28-.605 0-1.018.094-1.24.28-.221.187-.331.443-.331.768v15.156c0 .489.162.809.489.96.326.152.72.228 1.187.228h.838c.233 0 .442-.012.629-.036v-6.53H87.16v-3.806zm16.693-4.575v3.492h-.943c-.885 0-1.735.268-2.55.803v14.213h-4.05v-18.508h3.98v.873h.245c.187-.14.5-.32.943-.54.442-.222 1.036-.333 1.78-.333h.595zm8.59 4.191c0-.396-.105-.67-.314-.821-.209-.151-.536-.227-.978-.227-.466 0-.803.076-1.013.227-.209.152-.314.425-.314.82v10.093c0 .397.105.676.314.838.21.163.547.245 1.013.245.442 0 .77-.082.978-.245.21-.162.314-.441.314-.838v-10.092zm-6.67-.42c0-1.605.472-2.694 1.415-3.265.942-.57 2.263-.855 3.963-.855 1.676 0 2.991.285 3.946.855.954.57 1.432 1.66 1.432 3.266v10.93c0 .815-.122 1.49-.367 2.026-.244.536-.599.96-1.065 1.274-.466.315-1.03.536-1.693.664-.664.127-1.415.192-2.253.192-.838 0-1.595-.065-2.27-.192-.675-.128-1.24-.35-1.693-.664a3.048 3.048 0 0 1-1.048-1.274c-.245-.536-.367-1.211-.367-2.026v-10.93zm23.817 1.187h-.35l-1.606 13.55h-6.286l-2.899-18.508h4.156l1.886 14.737h.384l1.641-14.737h5.867l1.571 14.737h.384l1.956-14.737h4.121l-2.864 18.508h-6.286zm11.523-4.958h2.025v-5.937h4.086v5.937h2.026v3.702h-2.026v10.302c0 .535.256.802.77.802h1.256v3.702h-1.537c-1.56 0-2.712-.366-3.457-1.1-.746-.733-1.118-1.763-1.118-3.09v-10.616h-2.025v-3.702zm10.232-5.937h4.05v6.775h.176c.162-.163.477-.372.943-.629.465-.256 1.094-.384 1.885-.384 1.257 0 2.2.361 2.829 1.083.629.721.943 1.746.943 3.073v14.527h-4.086v-14.178c0-.675-.361-1.013-1.083-1.013a1.68 1.68 0 0 0-.908.262 3.914 3.914 0 0 0-.698.542v14.387h-4.051v-24.445zm27.972 10.512c.489 0 .733-.302.733-.908v-4.96c0-.324-.088-.552-.262-.68a1.062 1.062 0 0 0-.646-.192h-2.27v6.74h2.445zm-6.74-10.511h7.194c.628 0 1.222.064 1.78.192a4 4 0 0 1 1.45.628c.407.292.733.687.978 1.188.244.5.366 1.135.366 1.903v6.006c0 1.327-.355 2.393-1.065 3.196-.71.803-1.798 1.205-3.265 1.205h-3.143v10.126h-4.295v-24.444zm20.848 15.609l-1.781.839c-.397.186-.635.343-.716.471-.082.128-.122.39-.122.786v2.409c0 .397.098.664.296.804.198.139.484.209.856.209.28 0 .553-.07.82-.209.268-.14.484-.338.647-.594v-4.715zm4.05 8.835h-3.98v-.733h-.28a8.155 8.155 0 0 1-.925.559c-.431.232-1.043.349-1.834.349-1.257 0-2.194-.361-2.811-1.082-.617-.722-.925-1.746-.925-3.074v-3.177c0-.559.07-1.042.21-1.45a3.11 3.11 0 0 1 .61-1.065c.268-.302.599-.57.996-.803.395-.233.85-.465 1.362-.699l3.527-1.641v-1.606c0-.233-.06-.448-.175-.646-.117-.198-.443-.297-.977-.297-.63 0-1.002.099-1.118.297a1.256 1.256 0 0 0-.175.646v1.327h-4.121v-2.061c0-.581.088-1.105.262-1.571.175-.466.472-.856.89-1.17.42-.314.979-.553 1.677-.716.699-.162 1.572-.244 2.619-.244.978 0 1.799.087 2.462.262.664.175 1.199.425 1.607.75.407.327.692.729.856 1.205.162.478.244 1.019.244 1.624v15.016zm1.921-18.508h2.025v-5.937h4.086v5.937h2.025v3.702h-2.025v10.302c0 .535.256.802.768.802h1.257v3.702h-1.536c-1.56 0-2.712-.366-3.457-1.1-.746-.733-1.118-1.763-1.118-3.09v-10.616h-2.025v-3.702z" fill="#8586C0"/><g transform="translate(209 104.212)"><mask id="d" fill="#fff"><use xlink:href="#c"/></mask><path d="M.627.713h4.051v6.775h.175c.162-.163.477-.372.942-.629.466-.256 1.095-.384 1.887-.384 1.257 0 2.2.361 2.828 1.083.628.721.943 1.746.943 3.073v14.527H7.367V10.98c0-.675-.36-1.013-1.083-1.013a1.68 1.68 0 0 0-.908.262 3.914 3.914 0 0 0-.698.542v14.387H.628V.713z" fill="#8586C0" mask="url(#d)"/></g><path d="M157.678 47.45c0 26.164-21.287 47.448-47.45 47.448-26.164 0-47.451-21.284-47.451-47.449S84.064 0 110.227 0a47.146 47.146 0 0 1 24.997 7.135l-.827-4.279 3.977-.768 2.195 11.347-11.344 2.195-.773-3.978 4.868-.94a43.11 43.11 0 0 0-23.092-6.668c-23.938 0-43.41 19.47-43.41 43.405 0 23.934 19.472 43.405 43.41 43.405 23.933 0 43.404-19.47 43.404-43.405a43.16 43.16 0 0 0-8.197-25.357l3.28-2.363a47.198 47.198 0 0 1 8.962 27.72" fill="#8586C0"/><path d="M130.594 53.69c0 1.335-.379 2.208-1.13 2.62-.755.411-1.628.612-2.619.612h-6.534V39.137h6.143c.517 0 1.023.031 1.521.098.494.064.935.214 1.327.451.387.237.7.56.936.972.238.41.356.935.356 1.584V53.69zm-29.677 11.97c0 1.34-.268 2.265-.805 2.782-.542.518-1.502.78-2.88.78H89.86v-38.29h7.371c1.38 0 2.34.256 2.881.774.537.517.805 1.422.805 2.718V65.66zm33.17-27.01a5.063 5.063 0 0 0-1.715-1.809c-.712-.454-1.529-.766-2.458-.94a15.906 15.906 0 0 0-2.875-.257H116.17v.005h-4.47v3.492h4.656v16.75c-.05.036-.11.071-.186.107-.359.162-.987.292-1.884.378a33.372 33.372 0 0 1-3.299.162 12.37 12.37 0 0 1-2.228-.197c-.715-.127-1.339-.35-1.876-.675-.542-.325-.972-.786-1.296-1.39-.324-.605-.486-1.36-.486-2.264V21.675c0-1.248.422-2.264 1.264-3.037.842-.78 2.295-1.167 4.365-1.167 2.071 0 3.524.387 4.366 1.167.841.773 1.26 1.79 1.26 3.037v5.823h4.14v-6.404c0-2.327-.84-4.096-2.52-5.305-1.683-1.204-4.1-1.81-7.246-1.81-3.148 0-5.562.606-7.245 1.81-1.679 1.21-2.52 2.978-2.52 5.305v6.69c-.814-.234-1.798-.345-2.955-.345H85.72v45.274h12.29c1.422 0 2.583-.175 3.492-.518.905-.348 1.616-.842 2.133-1.489.518-.644.886-1.41 1.098-2.295.218-.885.325-1.885.325-3.007V59.02c1.572.676 3.678 1.011 6.316 1.011 1.775 0 3.374-.098 4.796-.3v21.19h4.141V60.413h7.245c2.197 0 3.943-.613 5.238-1.84 1.292-1.229 1.94-2.88 1.94-4.95v-12.16c0-1.119-.217-2.059-.648-2.814z" fill="#8586C0"/></g></svg>