<svg width="408" height="122" xmlns="http://www.w3.org/2000/svg"><g fill="none" fill-rule="evenodd"><path d="M135.092 6.853c0-.587-.171-.995-.514-1.224-.342-.228-.84-.343-1.493-.343-.62 0-1.11.115-1.47.343-.358.23-.537.637-.537 1.224v21.343c0 .587.179.996.538 1.224.359.23.849.342 1.469.342.653 0 1.15-.113 1.493-.342.343-.228.514-.637.514-1.224V21h6.02v8.273c0 .914-.114 1.73-.341 2.448a3.828 3.828 0 0 1-1.224 1.811c-.588.49-1.403.865-2.448 1.126-1.045.26-2.383.391-4.014.391-1.633 0-2.962-.13-3.99-.39-1.027-.262-1.835-.638-2.423-1.127a3.828 3.828 0 0 1-1.224-1.81c-.228-.719-.342-1.535-.342-2.449V5.776c0-.913.114-1.729.342-2.447a3.836 3.836 0 0 1 1.224-1.812c.588-.489 1.396-.864 2.424-1.126 1.027-.26 2.356-.392 3.989-.392 1.63 0 2.969.132 4.014.392 1.045.262 1.86.637 2.448 1.126.587.49.995 1.094 1.224 1.812.227.718.342 1.534.342 2.447v7.931h-6.021V6.853zm18.504 22.518c.358 0 .676-.09.954-.27.277-.178.416-.497.416-.953V20.51c0-.358-.131-.612-.391-.758a1.59 1.59 0 0 0-.784-.22h-2.937v9.84h2.742zm.195-15.126c.26 0 .497-.098.71-.294.212-.195.319-.522.319-.979v-6.07c0-.457-.14-.775-.416-.955a1.576 1.576 0 0 0-.857-.269h-2.693v8.567h2.937zM144.833.391h10.084c.88 0 1.689.091 2.423.27.735.18 1.354.473 1.86.881.506.408.906.963 1.2 1.664.294.702.44 1.591.44 2.668v7.54c0 .945-.245 1.655-.734 2.128-.49.474-.947.808-1.371 1.004v.342c.458.164.947.465 1.469.906.522.441.784 1.101.784 1.982v9.35c0 1.045-.148 1.926-.442 2.644-.293.717-.702 1.29-1.223 1.713-.522.424-1.16.727-1.91.906-.751.18-1.583.27-2.496.27h-10.084V.39zm29.664 6.071c0-.783-.669-1.175-2.007-1.175-1.403 0-2.105.392-2.105 1.175v3.182c0 .555.057.979.172 1.273a2.1 2.1 0 0 0 .464.734l7.441 6.804a6.712 6.712 0 0 1 1.566 1.909c.393.719.588 1.73.588 3.035v5.63c0 2.154-.644 3.696-1.933 4.626-1.29.93-3.354 1.395-6.193 1.395-1.469 0-2.733-.098-3.794-.294-1.06-.196-1.918-.53-2.57-1.003a4.185 4.185 0 0 1-1.444-1.861c-.311-.766-.465-1.721-.465-2.863v-7.686h5.972v7c0 .523.204.89.613 1.102.407.213.969.318 1.688.318.619 0 1.126-.105 1.517-.318.392-.212.588-.58.588-1.101v-4.357c0-.456-.049-.824-.147-1.102a1.804 1.804 0 0 0-.539-.758l-6.95-6.021c-.816-.718-1.453-1.501-1.909-2.35-.458-.848-.686-2.04-.686-3.574v-4.16c0-2.187.637-3.737 1.909-4.651C167.546.458 169.618 0 172.49 0c3.002 0 5.091.465 6.266 1.395 1.175.93 1.762 2.407 1.762 4.43v6.365h-6.021V6.462zm-49.392 37.366h13.902v5.286h-7.88v8.568h7.636v5.286h-7.637v9.838h7.881v5.288h-13.902zm27.071 0l4.944 27.022h.538V43.828h5.58v34.266h-9.447l-5.286-27.951h-.685v27.951h-5.582V43.828zm18.062 5.286h-4.992v-5.287h16.055v5.287h-5.042v28.98h-6.02zm22.518 9.449c.686 0 1.028-.424 1.028-1.273v-6.951c0-.457-.097-.775-.294-.955-.196-.178-.522-.27-.978-.27h-3.182v9.449h3.426zm-9.447-14.735h10.084c.88 0 1.713.09 2.497.27.782.179 1.46.473 2.03.88.57.409 1.028.964 1.37 1.665.344.702.516 1.59.516 2.668v8.419c0 .784-.115 1.478-.343 2.08a6.432 6.432 0 0 1-.833 1.567c-.325.44-.677.8-1.052 1.077-.375.278-.694.466-.955.563l3.672 15.078h-6.021l-3.182-14.246h-1.762v14.246h-6.021V43.828zm20.706 0h13.902v5.286h-7.881v8.568h7.636v5.286h-7.636v9.838h7.88v5.288h-13.901zm26.58 14.735c.686 0 1.028-.424 1.028-1.273v-6.951c0-.457-.122-.775-.367-.955-.245-.178-.547-.27-.905-.27h-3.183v9.449h3.427zm-9.447-14.735h10.084c.88 0 1.713.09 2.496.27.783.179 1.46.473 2.032.88.57.409 1.027.964 1.37 1.665.343.702.514 1.59.514 2.668v8.419c0 1.86-.497 3.354-1.493 4.479-.995 1.126-2.52 1.689-4.577 1.689h-4.406v14.197h-6.02V43.828zm28.685 14.735c.686 0 1.028-.424 1.028-1.273v-6.951c0-.457-.097-.775-.294-.955-.195-.178-.522-.27-.98-.27h-3.181v9.449h3.427zm-9.447-14.735h10.084c.88 0 1.713.09 2.496.27.783.179 1.46.473 2.03.88.572.409 1.029.964 1.372 1.665.343.702.514 1.59.514 2.668v8.419c0 .784-.114 1.478-.343 2.08a6.464 6.464 0 0 1-.831 1.567 5.12 5.12 0 0 1-1.053 1.077c-.376.278-.694.466-.955.563l3.672 15.078h-6.021l-3.183-14.246h-1.762v14.246h-6.02V43.828zm20.706 0h13.902v5.286h-7.881v8.568h7.636v5.286h-7.636v9.838h7.88v5.288h-13.901zm27.07 0l4.944 27.022h.538V43.828h5.581v34.266h-9.448l-5.287-27.951h-.684v27.951h-5.581V43.828zm15.271 0h13.903v5.286h-7.882v8.568h7.637v5.286h-7.637v9.838h7.882v5.288h-13.903zm17.133 0h6.021v27.364c0 .752.156 1.273.466 1.567.31.293.921.44 1.835.44.881 0 1.468-.147 1.762-.44.295-.294.442-.816.442-1.567V43.828h6.07v27.901c0 1.078-.116 2.032-.343 2.865a4.542 4.542 0 0 1-1.273 2.13c-.62.587-1.469 1.027-2.546 1.322-1.077.293-2.447.44-4.112.44-1.697 0-3.083-.147-4.16-.44-1.078-.295-1.926-.735-2.546-1.323a4.534 4.534 0 0 1-1.273-2.129c-.228-.832-.343-1.787-.343-2.864V43.827zm30.252 14.735c.686 0 1.03-.424 1.03-1.273v-6.951c0-.457-.099-.775-.295-.955-.196-.178-.522-.27-.979-.27h-3.182v9.449h3.426zm-9.447-14.735h10.084c.881 0 1.713.09 2.497.27.784.179 1.46.473 2.031.88.57.409 1.028.964 1.37 1.665.344.702.515 1.59.515 2.668v8.419c0 .784-.114 1.478-.342 2.08a6.5 6.5 0 0 1-.832 1.567c-.327.44-.679.8-1.054 1.077-.375.278-.693.466-.954.563l3.672 15.078h-6.022l-3.182-14.246h-1.762v14.246h-6.02V43.828zm20.707 15.909v-15.91h6.021v34.267h-6.021zm19.187-9.987h-.978l-1.762 13.952h4.357l-1.617-13.951zm2.35 19.239h-5.776l-1.224 9.106h-6.02l4.697-34.267h10.82l4.799 34.267h-6.071l-1.224-9.106zm-25.095 47.255c.392 0 .652-.082.783-.245.13-.163.196-.424.196-.783V93.53c0-.359-.067-.612-.196-.759-.13-.147-.39-.22-.783-.22h-3.524v23.693h3.524zm-9.547-28.98h10.573c1.306 0 2.35.156 3.134.465.784.31 1.387.743 1.812 1.297.424.556.701 1.232.832 2.032s.195 1.705.195 2.716v21.246c0 .98-.064 1.87-.195 2.667-.13.8-.408 1.486-.832 2.057-.425.571-1.028 1.011-1.812 1.322-.784.31-1.828.464-3.134.464h-10.573V87.264zm29.713 5.924h-.979l-1.76 13.95h4.355l-1.616-13.95zm2.35 19.238h-5.776l-1.223 9.105h-6.02l4.697-34.266h10.82l4.797 34.266h-6.07l-1.225-9.105zm12.369-68.598h6.022v28.978h8.125v5.288h-14.147zm1.827 64.632l-6.364-21.196h6.12l2.888 12.63h.586l2.937-12.63h6.12l-6.266 21.295v12.972h-6.02z" fill="#5C5D7D"/><path fill="#F5ACA8" d="M48.44 49.135v18.748H21.355v10.824L0 87.61V49.135l21.355-30.382v30.382z"/><path fill="#EC6561" d="M34.525 0l-13.17 18.753L0 49.135V0z"/><path fill="#A7D4BB" d="M49.31 0v18.753H21.355L34.526 0z"/><path fill="#5C5D7D" d="M49.31 102.779v18.753H0V87.611l21.355-8.904v24.072z"/><path d="M103.941 13.457c-.462-2.835-1.45-5.236-2.95-7.207-1.504-1.966-3.645-3.498-6.425-4.6C91.791.552 88.087 0 83.456 0h-28.13v18.748h24.487c1.386 0 2.315.265 2.775.782.458.521.696 1.417.696 2.693V52.78l21.35-8.903V23.092c0-3.585-.228-6.8-.694-9.635" fill="#A7D4BB"/><path d="M104.636 43.876v54.567c0 3.471-.23 6.627-.694 9.462-.462 2.835-1.451 5.268-2.951 7.29-1.503 2.03-3.644 3.59-6.424 4.686-2.776 1.102-6.48 1.651-11.112 1.651H55.327V102.78h24.488c1.385 0 2.314-.284 2.775-.865.458-.58.695-1.504.695-2.776V52.78l21.35-8.903z" fill="#5C5D7D"/></g></svg>