<svg width="96" height="130" xmlns="http://www.w3.org/2000/svg" xmlns:xlink="http://www.w3.org/1999/xlink"><defs><path d="M1 .012C.345 3.15 0 6.4 0 9.73s.345 6.58 1 9.716V.012z" id="a"/><path d="M47.452.28C21.287.28 0 21.563 0 47.729c0 26.165 21.287 47.449 47.452 47.449 26.162 0 47.449-21.284 47.449-47.449a47.188 47.188 0 0 0-8.962-27.72l-3.278 2.364a43.156 43.156 0 0 1 8.197 25.356c0 23.934-19.472 43.405-43.406 43.405-23.937 0-43.408-19.471-43.408-43.405S23.515 4.324 47.452 4.324a43.09 43.09 0 0 1 17.365 3.628 43.042 43.042 0 0 1 5.728 3.039l-4.867.942.771 3.978 11.344-2.196-2.194-11.347-3.978.768.827 4.279a46.274 46.274 0 0 0-5.826-3.087A47.13 47.13 0 0 0 47.452.28z" id="c"/></defs><g fill="none" fill-rule="evenodd"><path d="M35.846 45.959h9.643V71.13c-2.411 1.042-5.744 1.56-9.998 1.56-4.113 0-7.044-.743-8.792-2.233-1.75-1.488-2.624-3.651-2.624-6.487V30.006c0-2.554.922-4.493 2.766-5.815 1.843-1.323 4.49-1.985 7.94-1.985s6.099.662 7.942 1.985c1.844 1.322 2.766 3.261 2.766 5.814v7.02H40.95v-6.382c0-1.37-.461-2.481-1.383-3.331-.922-.851-2.517-1.277-4.786-1.277-2.27 0-3.864.425-4.787 1.276-.921.85-1.382 1.962-1.382 3.332V63.9c0 .991.178 1.82.532 2.481.354.663.826 1.17 1.418 1.526.59.352 1.276.602 2.056.742.78.143 1.596.212 2.446.212 1.229 0 2.434-.057 3.617-.176 1.18-.118 1.938-.295 2.269-.53V49.787h-5.105v-3.83z" fill="#69BB89"/><path d="M59.056 48.938h-9.643V23.765c2.411-1.04 5.743-1.558 9.997-1.558 4.113 0 7.045.744 8.793 2.23 1.75 1.49 2.623 3.652 2.623 6.488V64.89c0 2.553-.92 4.49-2.765 5.815-1.844 1.322-4.49 1.984-7.942 1.984-3.449 0-6.097-.661-7.94-1.984-1.845-1.325-2.766-3.263-2.766-5.816v-7.018h4.537v6.382c0 1.37.462 2.482 1.383 3.33.922.854 2.518 1.278 4.786 1.278 2.27 0 3.864-.424 4.787-1.277.921-.85 1.382-1.961 1.382-3.331V30.998c0-.993-.177-1.82-.532-2.482-.354-.662-.826-1.17-1.417-1.524-.59-.354-1.277-.602-2.056-.745a13.656 13.656 0 0 0-2.447-.212 36.08 36.08 0 0 0-3.616.177c-1.182.117-1.938.296-2.27.532v18.364h5.106v3.829z" fill="#40778E"/><g transform="translate(0 -.28)"><g transform="translate(0 38)"><mask id="b" fill="#fff"><use xlink:href="#a"/></mask><path d="M0-37.72v94.898-94.898z" fill="#69BB89" mask="url(#b)"/></g><mask id="d" fill="#fff"><use xlink:href="#c"/></mask><path fill="#69BB89" mask="url(#d)" d="M0 95.178h.949V.28H0z"/><path fill="#68BB8A" mask="url(#d)" d="M.949 95.178h.949V.28H.949z"/><path fill="#68BA8A" mask="url(#d)" d="M1.898 95.178h.949V.28h-.949z"/><path fill="#67B98A" mask="url(#d)" d="M2.847 95.178h.949V.28h-.949z"/><path fill="#67B88A" mask="url(#d)" d="M3.796 95.178h.949V.28h-.949z"/><path fill="#66B88B" mask="url(#d)" d="M4.745 95.178h.949V.28h-.949z"/><path fill="#65B78B" mask="url(#d)" d="M5.694 95.178h.949V.28h-.949z"/><path fill="#65B68B" mask="url(#d)" d="M6.643 95.178h.949V.28h-.949z"/><path fill="#64B68B" mask="url(#d)" d="M7.592 95.178h.949V.28h-.949z"/><path fill="#64B58C" mask="url(#d)" d="M8.541 95.178h.949V.28h-.949z"/><path fill="#63B48C" mask="url(#d)" d="M9.49 95.178h.949V.28H9.49zm.949 0h.949V.28h-.949z"/><path fill="#62B38C" mask="url(#d)" d="M11.388 95.178h.949V.28h-.949z"/><path fill="#62B28D" mask="url(#d)" d="M12.337 95.178h.949V.28h-.949z"/><path fill="#61B18D" mask="url(#d)" d="M13.286 95.178h.949V.28h-.949z"/><path fill="#61B08D" mask="url(#d)" d="M14.235 95.178h.949V.28h-.949z"/><path fill="#60B08D" mask="url(#d)" d="M15.184 95.178h.949V.28h-.949z"/><path fill="#60AF8D" mask="url(#d)" d="M16.133 95.178h.949V.28h-.949z"/><path fill="#5FAE8D" mask="url(#d)" d="M17.082 95.178h.949V.28h-.949z"/><path fill="#5FAE8E" mask="url(#d)" d="M18.031 95.178h.949V.28h-.949z"/><path fill="#5EAD8E" mask="url(#d)" d="M18.98 95.178h.949V.28h-.949z"/><path fill="#5EAC8E" mask="url(#d)" d="M19.929 95.178h.949V.28h-.949z"/><path fill="#5DAC8E" mask="url(#d)" d="M20.878 95.178h.949V.28h-.949z"/><path fill="#5DAB8E" mask="url(#d)" d="M21.827 95.178h.949V.28h-.949z"/><path fill="#5DAA8E" mask="url(#d)" d="M22.776 95.178h.949V.28h-.949z"/><path fill="#5CA98E" mask="url(#d)" d="M23.725 95.178h.949V.28h-.949z"/><path fill="#5CA98F" mask="url(#d)" d="M24.674 95.178h.949V.28h-.949z"/><path fill="#5BA88F" mask="url(#d)" d="M25.623 95.178h.949V.28h-.949z"/><path fill="#5BA78F" mask="url(#d)" d="M26.572 95.178h.949V.28h-.949z"/><path fill="#5AA78F" mask="url(#d)" d="M27.521 95.178h.949V.28h-.949z"/><path fill="#5AA68F" mask="url(#d)" d="M28.47 95.178h.949V.28h-.949z"/><path fill="#59A58F" mask="url(#d)" d="M29.419 95.178h.949V.28h-.949z"/><path fill="#59A48F" mask="url(#d)" d="M30.368 95.178h.949V.28h-.949z"/><path fill="#58A48F" mask="url(#d)" d="M31.317 95.178h.949V.28h-.949z"/><path fill="#58A38F" mask="url(#d)" d="M32.266 95.178h.949V.28h-.949z"/><path fill="#57A28F" mask="url(#d)" d="M33.215 95.178h.949V.28h-.949z"/><path fill="#57A290" mask="url(#d)" d="M34.164 95.178h.949V.28h-.949z"/><path fill="#56A190" mask="url(#d)" d="M35.113 95.178h.949V.28h-.949z"/><path fill="#56A090" mask="url(#d)" d="M36.062 95.178h.949V.28h-.949z"/><path fill="#55A090" mask="url(#d)" d="M37.011 95.178h.949V.28h-.949z"/><path fill="#559F90" mask="url(#d)" d="M37.96 95.178h.949V.28h-.949z"/><path fill="#549E90" mask="url(#d)" d="M38.909 95.178h.949V.28h-.949zm.949 0h.949V.28h-.949z"/><path fill="#539D90" mask="url(#d)" d="M40.807 95.178h.949V.28h-.949z"/><path fill="#539C90" mask="url(#d)" d="M41.756 95.178h.949V.28h-.949zm.949 0h.949V.28h-.949z"/><path fill="#529B90" mask="url(#d)" d="M43.655 95.178h.949V.28h-.949z"/><path fill="#529A90" mask="url(#d)" d="M44.603 95.178h.949V.28h-.949z"/><path fill="#519A90" mask="url(#d)" d="M45.552 95.178h.949V.28h-.949z"/><path fill="#519990" mask="url(#d)" d="M46.501 95.178h.949V.28h-.949z"/><path fill="#509890" mask="url(#d)" d="M47.451 95.178h.949V.28h-.949z"/><path fill="#509790" mask="url(#d)" d="M48.399 95.178h.949V.28h-.949z"/><path fill="#4F9790" mask="url(#d)" d="M49.348 95.178h.949V.28h-.949z"/><path fill="#4F9690" mask="url(#d)" d="M50.297 95.178h.949V.28h-.949z"/><path fill="#4F9590" mask="url(#d)" d="M51.247 95.178h.949V.28h-.949z"/><path fill="#4E9590" mask="url(#d)" d="M52.196 95.178h.949V.28h-.949z"/><path fill="#4E9491" mask="url(#d)" d="M53.144 95.178h.949V.28h-.949z"/><path fill="#4D9391" mask="url(#d)" d="M54.094 95.178h.949V.28h-.949zm.949 0h.949V.28h-.949z"/><path fill="#4D9291" mask="url(#d)" d="M55.992 95.178h.949V.28h-.949z"/><path fill="#4C9191" mask="url(#d)" d="M56.941 95.178h.949V.28h-.949zm.949 0h.949V.28h-.949z"/><path fill="#4B9091" mask="url(#d)" d="M58.839 95.178h.949V.28h-.949z"/><path fill="#4B8F91" mask="url(#d)" d="M59.788 95.178h.949V.28h-.949z"/><path fill="#4A8F91" mask="url(#d)" d="M60.737 95.178h.949V.28h-.949z"/><path fill="#4A8E90" mask="url(#d)" d="M61.686 95.178h.949V.28h-.949z"/><path fill="#4A8D90" mask="url(#d)" d="M62.635 95.178h.949V.28h-.949z"/><path fill="#498D90" mask="url(#d)" d="M63.584 95.178h.949V.28h-.949z"/><path fill="#498C90" mask="url(#d)" d="M64.533 95.178h.949V.28h-.949z"/><path fill="#498B90" mask="url(#d)" d="M65.482 95.178h.949V.28h-.949z"/><path fill="#488A90" mask="url(#d)" d="M66.431 95.178h.949V.28h-.949zm.949 0h.949V.28h-.949z"/><path fill="#488990" mask="url(#d)" d="M68.329 95.178h.949V.28h-.949z"/><path fill="#478890" mask="url(#d)" d="M69.278 95.178h.949V.28h-.949zm.949 0h.949V.28h-.949z"/><path fill="#478790" mask="url(#d)" d="M71.176 95.178h.949V.28h-.949z"/><path fill="#468690" mask="url(#d)" d="M72.125 95.178h.949V.28h-.949zm.949 0h.949V.28h-.949z"/><path fill="#468590" mask="url(#d)" d="M74.023 95.178h.949V.28h-.949z"/><path fill="#458490" mask="url(#d)" d="M74.972 95.178h.949V.28h-.949zm.949 0h.949V.28h-.949z"/><path fill="#458390" mask="url(#d)" d="M76.87 95.178h.949V.28h-.949z"/><path fill="#448290" mask="url(#d)" d="M77.819 95.178h.949V.28h-.949z"/><path fill="#44828F" mask="url(#d)" d="M78.768 95.178h.949V.28h-.949z"/><path fill="#44818F" mask="url(#d)" d="M79.717 95.178h.949V.28h-.949z"/><path fill="#43808F" mask="url(#d)" d="M80.666 95.178h.949V.28h-.949zm.949 0h.949V.28h-.949z"/><path fill="#437F8F" mask="url(#d)" d="M82.564 95.178h.949V.28h-.949z"/><path fill="#437E8F" mask="url(#d)" d="M83.513 95.178h.949V.28h-.949z"/><path fill="#427D8F" mask="url(#d)" d="M84.462 95.178h.949V.28h-.949zm.949 0h.949V.28h-.949z"/><path fill="#427C8F" mask="url(#d)" d="M86.36 95.178h.949V.28h-.949z"/><path fill="#427B8F" mask="url(#d)" d="M87.309 95.178h.949V.28h-.949z"/><path fill="#417B8E" mask="url(#d)" d="M88.258 95.178h.949V.28h-.949z"/><path fill="#417A8E" mask="url(#d)" d="M89.207 95.178h.949V.28h-.949z"/><path fill="#41798E" mask="url(#d)" d="M90.156 95.178h.949V.28h-.949zm.949 0h.949V.28h-.949z"/><path fill="#40788E" mask="url(#d)" d="M92.054 95.178h.949V.28h-.949z"/><path fill="#40778E" mask="url(#d)" d="M93.003 95.178h.949V.28h-.949zm.949 0h.949V.28h-.949zm.949 0V.28v94.898z"/></g><path d="M6.42 115.437h5.726v13.479c-.676.187-1.508.344-2.497.472-.99.127-2.008.192-3.055.192-1.375 0-2.462-.105-3.266-.315-.803-.209-1.426-.523-1.868-.942a2.9 2.9 0 0 1-.856-1.554c-.128-.617-.19-1.332-.19-2.148v-15.435c0-.745.08-1.402.243-1.973.163-.57.465-1.048.908-1.432.442-.384 1.042-.669 1.798-.855.756-.187 1.73-.28 2.916-.28 1.187 0 2.16.093 2.916.28.756.186 1.356.471 1.8.855.44.384.743.862.906 1.432.163.571.245 1.228.245 1.973v3.946H7.851v-3.667c0-.325-.11-.581-.332-.768-.222-.186-.635-.28-1.24-.28s-1.019.094-1.24.28c-.22.187-.33.443-.33.768v15.156c0 .489.161.809.487.961.326.151.722.227 1.188.227h.838c.232 0 .442-.012.63-.036v-6.529H6.418v-3.807zm15.818-.384c0-.396-.105-.669-.314-.821-.21-.151-.536-.227-.978-.227-.466 0-.803.076-1.013.227-.21.152-.314.425-.314.821v10.092c0 .397.105.676.314.838.21.163.547.245 1.013.245.442 0 .769-.082.978-.245.209-.162.314-.441.314-.838v-10.092zm-6.67-.419c0-1.606.472-2.695 1.415-3.266.942-.57 2.263-.855 3.963-.855 1.676 0 2.99.285 3.946.855.954.571 1.432 1.66 1.432 3.266v10.93c0 .815-.122 1.49-.367 2.026-.244.536-.6.96-1.065 1.274-.466.315-1.03.536-1.693.664-.664.127-1.415.192-2.253.192-.838 0-1.595-.065-2.27-.192-.675-.128-1.24-.349-1.693-.664a3.048 3.048 0 0 1-1.048-1.274c-.245-.536-.367-1.211-.367-2.026v-10.93z" fill="#69BB89"/><path d="M42.736 115.437h5.727v13.479c-.675.187-1.508.344-2.496.472a23.99 23.99 0 0 1-3.056.192c-1.374 0-2.462-.105-3.265-.315-.803-.209-1.427-.523-1.87-.942a2.9 2.9 0 0 1-.854-1.554c-.13-.617-.192-1.332-.192-2.148v-15.435c0-.745.08-1.402.244-1.973.163-.57.466-1.048.908-1.432.442-.384 1.042-.669 1.798-.855.757-.187 1.729-.28 2.917-.28 1.187 0 2.159.093 2.915.28.757.186 1.357.471 1.799.855.442.384.745.862.908 1.432.162.571.244 1.228.244 1.973v3.946h-4.295v-3.667c0-.325-.111-.581-.331-.768-.222-.186-.635-.28-1.24-.28-.606 0-1.02.094-1.24.28-.221.187-.332.443-.332.768v15.156c0 .489.162.809.489.961.326.151.722.227 1.188.227h.837c.233 0 .443-.012.629-.036v-6.529h-1.432v-3.807zm16.692-4.575v3.492h-.943c-.885 0-1.735.268-2.549.803v14.213h-4.05v-18.508h3.98v.873h.244c.186-.14.501-.32.943-.54.442-.222 1.036-.333 1.781-.333h.594zm8.591 4.191c0-.396-.105-.669-.314-.821-.21-.151-.536-.227-.978-.227-.466 0-.803.076-1.013.227-.21.152-.314.425-.314.821v10.092c0 .397.105.676.314.838.21.163.547.245 1.013.245.442 0 .768-.082.978-.245.209-.162.314-.441.314-.838v-10.092zm-6.67-.419c0-1.606.47-2.695 1.415-3.266.942-.57 2.263-.855 3.963-.855 1.676 0 2.99.285 3.946.855.954.571 1.432 1.66 1.432 3.266v10.93c0 .815-.122 1.49-.367 2.026-.244.536-.6.96-1.065 1.274-.466.315-1.03.536-1.693.664-.664.127-1.415.192-2.253.192-.838 0-1.595-.065-2.27-.192-.675-.128-1.24-.349-1.693-.664a3.05 3.05 0 0 1-1.05-1.274c-.243-.536-.365-1.211-.365-2.026v-10.93zm23.816 1.187h-.35l-1.606 13.55h-6.285l-2.9-18.509h4.157l1.885 14.737h.385l1.64-14.737h5.868l1.57 14.737h.385l1.956-14.737h4.12l-2.863 18.508H86.84z" fill="#40778E"/></g></svg>