<svg width="119" height="161" xmlns="http://www.w3.org/2000/svg" xmlns:xlink="http://www.w3.org/1999/xlink"><defs><path d="M1 .418C.343 3.926 0 7.544 0 11.24c0 3.696.343 7.313 1 10.822V.418z" id="a"/><path d="M58.693.55C26.33.55 0 26.875 0 59.24c0 32.363 26.33 58.689 58.693 58.689 32.36 0 58.69-26.326 58.69-58.689 0-12.791-4.114-24.636-11.085-34.288l-4.055 2.924a53.379 53.379 0 0 1 10.138 31.364c0 29.602-24.084 53.687-53.688 53.687-29.608 0-53.692-24.085-53.692-53.687 0-29.605 24.084-53.689 53.692-53.689 7.635 0 14.9 1.6 21.479 4.487a53.332 53.332 0 0 1 7.085 3.761l-6.02 1.163.954 4.921 14.032-2.716-2.715-14.034-4.919.949 1.022 5.293a57.29 57.29 0 0 0-7.206-3.819A58.303 58.303 0 0 0 58.693.55z" id="c"/><path id="e" d="M.256 24H13.56V.243H.256V24z"/><path id="g" d="M.882 24h13.304V.243H.882V24z"/><path id="i" d="M27.73 23.567V.674H.561v22.893H27.73z"/></defs><g fill="none" fill-rule="evenodd"><path d="M44.337 56.846h11.927V87.98c-2.982 1.288-7.104 1.93-12.364 1.93-5.088 0-8.714-.92-10.876-2.762-2.164-1.841-3.245-4.516-3.245-8.025V37.115c0-3.158 1.14-5.556 3.42-7.191 2.281-1.637 5.554-2.456 9.823-2.456 4.268 0 7.542.819 9.822 2.456 2.281 1.635 3.421 4.033 3.421 7.19v8.683h-5.613v-7.894c0-1.694-.569-3.07-1.71-4.121-1.14-1.051-3.113-1.58-5.92-1.58s-4.779.529-5.92 1.58c-1.14 1.052-1.71 2.427-1.71 4.12v41.134c0 1.227.22 2.25.657 3.069.44.819 1.022 1.447 1.755 1.887.73.437 1.578.746 2.543.919.965.176 1.973.263 3.025.263 1.52 0 3.011-.071 4.474-.218 1.461-.146 2.397-.365 2.806-.657V61.584h-6.314v-4.738z" fill="#69BB89"/><path d="M73.047 60.53H61.119V29.396c2.983-1.287 7.104-1.929 12.365-1.929 5.088 0 8.714.921 10.876 2.761 2.165 1.842 3.246 4.516 3.246 8.025v42.01c0 3.157-1.14 5.554-3.42 7.191-2.282 1.637-5.555 2.456-9.824 2.456-4.267 0-7.542-.819-9.822-2.456-2.281-1.637-3.421-4.034-3.421-7.19V71.58h5.612v7.893c0 1.695.57 3.07 1.712 4.121 1.14 1.055 3.113 1.58 5.919 1.58 2.806 0 4.779-.525 5.92-1.58 1.14-1.05 1.71-2.426 1.71-4.12V38.341c0-1.229-.218-2.252-.658-3.07-.438-.82-1.022-1.447-1.753-1.886-.731-.438-1.58-.745-2.543-.92a16.942 16.942 0 0 0-3.027-.263c-1.52 0-3.01.071-4.472.22-1.462.144-2.398.365-2.808.657v22.714h6.316v4.736z" fill="#40778E"/><g transform="translate(0 -.55)"><g transform="translate(0 48)"><mask id="b" fill="#fff"><use xlink:href="#a"/></mask><path d="M0-47.45V69.929v-117.38z" fill="#69BB89" mask="url(#b)"/></g><mask id="d" fill="#fff"><use xlink:href="#c"/></mask><path fill="#69BB89" mask="url(#d)" d="M0 117.929h1.174V.55H0z"/><path fill="#68BB8A" mask="url(#d)" d="M1.174 117.929h1.174V.55H1.174z"/><path fill="#68BA8A" mask="url(#d)" d="M2.348 117.929h1.174V.55H2.348z"/><path fill="#67B98A" mask="url(#d)" d="M3.521 117.929h1.174V.55H3.521z"/><path fill="#67B88A" mask="url(#d)" d="M4.695 117.929h1.174V.55H4.695z"/><path fill="#66B88B" mask="url(#d)" d="M5.869 117.929h1.174V.55H5.869z"/><path fill="#65B78B" mask="url(#d)" d="M7.043 117.929h1.174V.55H7.043z"/><path fill="#65B68B" mask="url(#d)" d="M8.217 117.929h1.174V.55H8.217z"/><path fill="#64B68B" mask="url(#d)" d="M9.39 117.929h1.174V.55H9.39z"/><path fill="#64B58C" mask="url(#d)" d="M10.564 117.929h1.174V.55h-1.174z"/><path fill="#63B48C" mask="url(#d)" d="M11.738 117.929h1.174V.55h-1.174zm1.174 0h1.174V.55h-1.174z"/><path fill="#62B38C" mask="url(#d)" d="M14.086 117.929h1.174V.55h-1.174z"/><path fill="#62B28D" mask="url(#d)" d="M15.26 117.929h1.174V.55H15.26z"/><path fill="#61B18D" mask="url(#d)" d="M16.433 117.929h1.174V.55h-1.174z"/><path fill="#61B08D" mask="url(#d)" d="M17.607 117.929h1.174V.55h-1.174z"/><path fill="#60B08D" mask="url(#d)" d="M18.781 117.929h1.174V.55h-1.174z"/><path fill="#60AF8D" mask="url(#d)" d="M19.955 117.929h1.174V.55h-1.174z"/><path fill="#5FAE8D" mask="url(#d)" d="M21.129 117.929h1.174V.55h-1.174z"/><path fill="#5FAE8E" mask="url(#d)" d="M22.303 117.929h1.174V.55h-1.174z"/><path fill="#5EAD8E" mask="url(#d)" d="M23.476 117.929h1.174V.55h-1.174z"/><path fill="#5EAC8E" mask="url(#d)" d="M24.65 117.929h1.174V.55H24.65z"/><path fill="#5DAC8E" mask="url(#d)" d="M25.824 117.929h1.174V.55h-1.174z"/><path fill="#5DAB8E" mask="url(#d)" d="M26.998 117.929h1.174V.55h-1.174z"/><path fill="#5DAA8E" mask="url(#d)" d="M28.172 117.929h1.174V.55h-1.174z"/><path fill="#5CA98E" mask="url(#d)" d="M29.346 117.929h1.174V.55h-1.174z"/><path fill="#5CA98F" mask="url(#d)" d="M30.519 117.929h1.174V.55h-1.174z"/><path fill="#5BA88F" mask="url(#d)" d="M31.693 117.929h1.174V.55h-1.174z"/><path fill="#5BA78F" mask="url(#d)" d="M32.867 117.929h1.174V.55h-1.174z"/><path fill="#5AA78F" mask="url(#d)" d="M34.041 117.929h1.174V.55h-1.174z"/><path fill="#5AA68F" mask="url(#d)" d="M35.215 117.929h1.174V.55h-1.174z"/><path fill="#59A58F" mask="url(#d)" d="M36.389 117.929h1.174V.55h-1.174z"/><path fill="#59A48F" mask="url(#d)" d="M37.562 117.929h1.174V.55h-1.174z"/><path fill="#58A48F" mask="url(#d)" d="M38.736 117.929h1.174V.55h-1.174z"/><path fill="#58A38F" mask="url(#d)" d="M39.91 117.929h1.174V.55H39.91z"/><path fill="#57A28F" mask="url(#d)" d="M41.084 117.929h1.174V.55h-1.174z"/><path fill="#57A290" mask="url(#d)" d="M42.258 117.929h1.174V.55h-1.174z"/><path fill="#56A190" mask="url(#d)" d="M43.432 117.929h1.174V.55h-1.174z"/><path fill="#56A090" mask="url(#d)" d="M44.605 117.929h1.174V.55h-1.174z"/><path fill="#55A090" mask="url(#d)" d="M45.779 117.929h1.174V.55h-1.174z"/><path fill="#559F90" mask="url(#d)" d="M46.953 117.929h1.174V.55h-1.174z"/><path fill="#549E90" mask="url(#d)" d="M48.127 117.929h1.174V.55h-1.174zm1.174 0h1.174V.55h-1.174z"/><path fill="#539D90" mask="url(#d)" d="M50.474 117.929h1.174V.55h-1.174z"/><path fill="#539C90" mask="url(#d)" d="M51.648 117.929h1.174V.55h-1.174zm1.174 0h1.174V.55h-1.174z"/><path fill="#529B90" mask="url(#d)" d="M53.996 117.929h1.174V.55h-1.174z"/><path fill="#529A90" mask="url(#d)" d="M55.17 117.929h1.174V.55H55.17z"/><path fill="#519A90" mask="url(#d)" d="M56.344 117.929h1.174V.55h-1.174z"/><path fill="#519990" mask="url(#d)" d="M57.517 117.929h1.174V.55h-1.174z"/><path fill="#509890" mask="url(#d)" d="M58.691 117.929h1.174V.55h-1.174z"/><path fill="#509790" mask="url(#d)" d="M59.865 117.929h1.174V.55h-1.174z"/><path fill="#4F9790" mask="url(#d)" d="M61.039 117.929h1.174V.55h-1.174z"/><path fill="#4F9690" mask="url(#d)" d="M62.213 117.929h1.174V.55h-1.174z"/><path fill="#4F9590" mask="url(#d)" d="M63.387 117.929h1.174V.55h-1.174z"/><path fill="#4E9590" mask="url(#d)" d="M64.56 117.929h1.174V.55H64.56z"/><path fill="#4E9491" mask="url(#d)" d="M65.734 117.929h1.174V.55h-1.174z"/><path fill="#4D9391" mask="url(#d)" d="M66.908 117.929h1.174V.55h-1.174z"/><path fill="#4D9391" mask="url(#d)" d="M68.082 117.929h1.174V.55h-1.174z"/><path fill="#4D9291" mask="url(#d)" d="M69.256 117.929h1.174V.55h-1.174z"/><path fill="#4C9191" mask="url(#d)" d="M70.43 117.929h1.174V.55H70.43z"/><path fill="#4C9191" mask="url(#d)" d="M71.603 117.929h1.174V.55h-1.174z"/><path fill="#4B9091" mask="url(#d)" d="M72.777 117.929h1.174V.55h-1.174z"/><path fill="#4B8F91" mask="url(#d)" d="M73.951 117.929h1.174V.55h-1.174z"/><path fill="#4A8F91" mask="url(#d)" d="M75.125 117.929h1.174V.55h-1.174z"/><path fill="#4A8E90" mask="url(#d)" d="M76.299 117.929h1.174V.55h-1.174z"/><path fill="#4A8D90" mask="url(#d)" d="M77.473 117.929h1.174V.55h-1.174z"/><path fill="#498D90" mask="url(#d)" d="M78.646 117.929h1.174V.55h-1.174z"/><path fill="#498C90" mask="url(#d)" d="M79.82 117.929h1.174V.55H79.82z"/><path fill="#498B90" mask="url(#d)" d="M80.994 117.929h1.174V.55h-1.174z"/><path fill="#488A90" mask="url(#d)" d="M82.168 117.929h1.174V.55h-1.174z"/><path fill="#488A90" mask="url(#d)" d="M83.342 117.929h1.174V.55h-1.174z"/><path fill="#488990" mask="url(#d)" d="M84.515 117.929h1.174V.55h-1.174z"/><path fill="#478890" mask="url(#d)" d="M85.689 117.929h1.174V.55h-1.174zm1.174 0h1.174V.55h-1.174z"/><path fill="#478790" mask="url(#d)" d="M88.037 117.929h1.174V.55h-1.174z"/><path fill="#468690" mask="url(#d)" d="M89.211 117.929h1.174V.55h-1.174zm1.174 0h1.174V.55h-1.174z"/><path fill="#468590" mask="url(#d)" d="M91.558 117.929h1.174V.55h-1.174z"/><path fill="#458490" mask="url(#d)" d="M92.732 117.929h1.174V.55h-1.174zm1.174 0h1.174V.55h-1.174z"/><path fill="#458390" mask="url(#d)" d="M95.08 117.929h1.174V.55H95.08z"/><path fill="#448290" mask="url(#d)" d="M96.254 117.929h1.174V.55h-1.174z"/><path fill="#44828F" mask="url(#d)" d="M97.428 117.929h1.174V.55h-1.174z"/><path fill="#44818F" mask="url(#d)" d="M98.601 117.929h1.174V.55h-1.174z"/><path fill="#43808F" mask="url(#d)" d="M99.775 117.929h1.174V.55h-1.174z"/><path fill="#43808F" mask="url(#d)" d="M100.949 117.929h1.174V.55h-1.174z"/><path fill="#437F8F" mask="url(#d)" d="M102.123 117.929h1.174V.55h-1.174z"/><path fill="#437E8F" mask="url(#d)" d="M103.297 117.929h1.174V.55h-1.174z"/><path fill="#427D8F" mask="url(#d)" d="M104.471 117.929h1.174V.55h-1.174z"/><path fill="#427D8F" mask="url(#d)" d="M105.644 117.929h1.174V.55h-1.174z"/><path fill="#427C8F" mask="url(#d)" d="M106.818 117.929h1.174V.55h-1.174z"/><path fill="#427B8F" mask="url(#d)" d="M107.992 117.929h1.174V.55h-1.174z"/><path fill="#417B8E" mask="url(#d)" d="M109.166 117.929h1.174V.55h-1.174z"/><path fill="#417A8E" mask="url(#d)" d="M110.34 117.929h1.174V.55h-1.174z"/><path fill="#41798E" mask="url(#d)" d="M111.514 117.929h1.174V.55h-1.174z"/><path fill="#41798E" mask="url(#d)" d="M112.687 117.929h1.174V.55h-1.174z"/><path fill="#40788E" mask="url(#d)" d="M113.861 117.929h1.174V.55h-1.174z"/><path fill="#40778E" mask="url(#d)" d="M115.035 117.929h1.174V.55h-1.174zm1.174 0h1.174V.55h-1.174zm1.174-.001V.55v117.38z"/></g><path d="M7.94 142.783h7.083v16.673c-.835.231-1.864.425-3.088.583a29.502 29.502 0 0 1-3.779.237c-1.7 0-3.046-.129-4.039-.389-.993-.259-1.764-.647-2.311-1.166a3.58 3.58 0 0 1-1.058-1.92c-.159-.764-.237-1.649-.237-2.658v-19.092c0-.92.1-1.734.302-2.44a3.6 3.6 0 0 1 1.123-1.77c.546-.476 1.289-.829 2.224-1.06.936-.23 2.138-.345 3.607-.345 1.468 0 2.671.115 3.607.345.935.231 1.676.584 2.224 1.06a3.614 3.614 0 0 1 1.123 1.77c.201.706.302 1.52.302 2.44v4.881H9.711v-4.535c0-.403-.137-.72-.411-.95-.274-.23-.785-.346-1.533-.346-.749 0-1.26.115-1.534.345-.273.231-.41.548-.41.951v18.746c0 .605.201 1.001.605 1.188.403.187.892.281 1.469.281h1.036c.287 0 .547-.015.778-.044v-8.077H7.94v-4.708z" fill="#69BB89"/><g transform="translate(19 136.45)"><mask id="f" fill="#fff"><use xlink:href="#e"/></mask><path d="M8.506 5.858c0-.489-.13-.828-.39-1.015-.257-.187-.662-.28-1.21-.28-.575 0-.991.093-1.251.28-.26.187-.39.526-.39 1.015v12.483c0 .49.13.836.39 1.037.26.201.676.302 1.252.302.547 0 .952-.1 1.21-.302.259-.2.389-.547.389-1.037V5.858zM.256 5.34c0-1.986.583-3.332 1.75-4.038C3.172.596 4.805.243 6.906.243c2.075 0 3.702.353 4.883 1.058 1.18.706 1.77 2.052 1.77 4.038v13.52c0 1.01-.15 1.843-.453 2.506a3.728 3.728 0 0 1-1.317 1.576c-.576.39-1.274.663-2.095.821-.82.158-1.75.238-2.787.238-1.036 0-1.972-.08-2.807-.238-.835-.158-1.533-.432-2.094-.82A3.778 3.778 0 0 1 .71 21.364c-.303-.663-.454-1.497-.454-2.506V5.34z" fill="#69BB89" mask="url(#f)"/></g><path d="M52.86 142.783h7.084v16.673c-.835.231-1.865.425-3.088.583a29.502 29.502 0 0 1-3.78.237c-1.7 0-3.045-.129-4.038-.389-.994-.259-1.764-.647-2.311-1.166a3.573 3.573 0 0 1-1.058-1.92c-.16-.764-.238-1.649-.238-2.658v-19.092c0-.92.1-1.734.303-2.44a3.59 3.59 0 0 1 1.122-1.77c.547-.476 1.289-.829 2.225-1.06.936-.23 2.138-.345 3.607-.345 1.469 0 2.67.115 3.606.345.936.231 1.678.584 2.225 1.06a3.607 3.607 0 0 1 1.123 1.77c.2.706.302 1.52.302 2.44v4.881h-5.312v-4.535c0-.403-.138-.72-.411-.95-.274-.23-.784-.346-1.533-.346-.75 0-1.26.115-1.534.345-.273.231-.41.548-.41.951v18.746c0 .605.2 1.001.605 1.188.403.187.892.281 1.469.281h1.036c.288 0 .547-.015.778-.044v-8.077H52.86v-4.708zm20.647-5.658v4.319H72.34c-1.094 0-2.146.332-3.152.994v17.58h-5.012v-22.893H69.1v1.08h.303c.23-.173.619-.395 1.166-.67.547-.273 1.282-.41 2.204-.41h.734z" fill="#40778E"/><g transform="translate(75 136.45)"><mask id="h" fill="#fff"><use xlink:href="#g"/></mask><path d="M9.132 5.858c0-.489-.13-.828-.389-1.015-.259-.187-.663-.28-1.21-.28-.576 0-.992.093-1.252.28-.259.187-.389.526-.389 1.015v12.483c0 .49.13.836.39 1.037.26.201.675.302 1.251.302.547 0 .951-.1 1.21-.302.26-.2.39-.547.39-1.037V5.858zM.882 5.34c0-1.986.583-3.332 1.75-4.038C3.798.596 5.432.243 7.533.243c2.074 0 3.701.353 4.882 1.058 1.18.706 1.771 2.052 1.771 4.038v13.52c0 1.01-.15 1.843-.454 2.506a3.728 3.728 0 0 1-1.317 1.576c-.576.39-1.275.663-2.095.821-.82.158-1.75.238-2.787.238-1.036 0-1.972-.08-2.807-.238-.835-.158-1.533-.432-2.094-.82a3.78 3.78 0 0 1-1.297-1.577c-.302-.663-.453-1.497-.453-2.506V5.34z" fill="#40778E" mask="url(#h)"/></g><g transform="translate(91 136.45)"><mask id="j" fill="#fff"><use xlink:href="#i"/></mask><path fill="#40778E" mask="url(#j)" d="M14.34 6.808h-.432l-1.987 16.76H4.146L.561.673h5.14l2.332 18.228h.476L10.54.674h7.256l1.944 18.228h.475L22.634.674h5.096l-3.542 22.893h-7.775z"/></g></g></svg>