<svg width="108" height="43" xmlns="http://www.w3.org/2000/svg" xmlns:xlink="http://www.w3.org/1999/xlink"><defs><path id="a" d="M53.555 42.844h53.555V0H0v42.844z"/></defs><g fill="none" fill-rule="evenodd"><mask id="b" fill="#fff"><use xlink:href="#a"/></mask><path d="M92.09 42.844h15.021v-2.93H92.09v2.93zm-9.92-2.93l1.046 2.922.18.004 1.062-2.927H82.17zm-22.665 2.93h14.857v-2.93H59.505v2.93zm-35.702-2.93v2.926h22.656c4.02 0 7.054-2.927 7.054-2.927h-29.71zm-23.64 2.93h20.849v-2.93H.163v2.93zm91.927-5.7h15.021v-2.937H92.09v2.936zm-11.983-2.936l1.088 2.935h4.23l1.021-2.935h-6.339zm-20.602 2.935h14.857v-2.936H59.505v2.936zm-35.702-2.935v2.935h32.095c.676-.672 1.063-2.935 1.063-2.935H23.803zM.163 37.143h20.849v-2.936H.163v2.936zM92.09 31.44h9.029v-2.93H92.09v2.93zm-14.037-2.932l1.058 2.932h8.314l1.067-2.932H78.053zm-12.72 2.932h9.029v-2.93h-9.029v2.93zm-17.727-2.932v2.932h9.602c0-1.384-.573-2.932-.573-2.932h-9.029zM29.794 31.44h9.029v-2.93h-9.029v2.93zm-23.803 0h9.029v-2.93H5.991v2.93zm86.099-5.7h9.029v-2.932H92.09v2.931zm-16.088-2.932l1.092 2.931h12.402l1.037-2.93H76.002zm-10.669 2.931h9.029v-2.93h-9.029v2.93zm-35.539-2.93v2.93H55.4c-.614-1.423-2.544-2.93-2.544-2.93H29.794zm-23.803 2.93h9.029v-2.93H5.991v2.93zm59.342-8.632v2.931h9.029v-1.632l.573 1.632h16.54l.615-1.632v1.632h9.029v-2.93H84.17l-.9 2.482-.904-2.483H65.333zm-35.539 0v2.931h23.062s1.93-1.504 2.544-2.93H29.794zm-23.803 2.93h9.029v-2.93H5.991v2.93zm80.112-8.636l-1.071 2.936h16.087v-2.936H86.103zm-20.77 0v2.936h16.008l-1.067-2.936H65.333zm-17.727 0v2.936h9.029s.573-1.55.573-2.936h-9.602zm-17.812 2.936h9.029v-2.935h-9.029v2.935zm-23.803 0h9.029v-2.935H5.991v2.935zm82.078-8.632l-.987 2.927h19.865V5.705H88.069zm-28.727 0v2.927h19.945l-.988-2.927H59.342zm-35.539 0v2.927h33.158s-.387-2.256-1.063-2.927H23.803zM0 8.632h20.849v-2.93H0v2.93zM90.203 0l-1.067 2.931h17.811V.001H90.203zM59.342 0v2.931h17.974L76.249.001H59.342zM23.803 0v2.931h29.71S50.479.001 46.459.001H23.803zM0 2.931h20.849V.001H0v2.93z" fill="#2970B7" mask="url(#b)"/></g></svg>