<?xml version="1.0" encoding="UTF-8"?>
<svg width="209px" height="130px" viewBox="0 0 209 130" version="1.1" xmlns="http://www.w3.org/2000/svg" xmlns:xlink="http://www.w3.org/1999/xlink">
    <!-- Generator: Sketch 46 (44423) - http://www.bohemiancoding.com/sketch -->
    <title>internship-with-ects-logo</title>
    <desc>Created with Sketch.</desc>
    <defs></defs>
    <g id="Page-1" stroke="none" stroke-width="1" fill="none" fill-rule="evenodd">
        <g id="internship-with-ects-logo">
            <path d="M0,86.006 L86.007,86.006 L86.007,-0.001 L0,-0.001 L0,86.006 Z M5.378,80.629 L80.63,80.629 L80.63,5.377 L5.378,5.377 L5.378,80.629 Z" id="Fill-1" fill="#4B62A7"></path>
            <polygon id="Fill-2" fill="#FFFFFF" points="29.688 93.389 89.958 93.389 89.958 47.731 29.688 47.731"></polygon>
            <polygon id="Fill-3" fill="#F39663" points="37.1789 69.5172 37.1789 55.1982 42.5979 55.1982 42.5979 69.4292 42.5979 86.0392 37.1789 86.0392"></polygon>
            <polygon id="Fill-4" fill="#F39663" points="56.2121 55.1981 60.6621 79.5191 61.1461 79.5191 61.1461 55.1981 66.1691 55.1981 66.1691 86.0391 57.6661 86.0391 52.9081 60.8821 52.2911 60.8821 52.2911 86.0391 47.2681 86.0391 47.2681 55.1981"></polygon>
            <polygon id="Fill-5" fill="#F39663" points="73.3505 59.9564 68.8565 59.9564 68.8565 55.1984 83.3085 55.1984 83.3085 59.9564 78.7695 59.9564 78.7695 86.0394 73.3505 86.0394"></polygon>
            <polygon id="Fill-6" fill="#F39663" points="85.9951 55.1981 98.5081 55.1981 98.5081 59.9561 91.4141 59.9561 91.4141 67.6671 98.2881 67.6671 98.2881 72.4251 91.4141 72.4251 91.4141 81.2811 98.5081 81.2811 98.5081 86.0391 85.9951 86.0391"></polygon>
            <g id="Group-35" transform="translate(35.000000, 54.155000)" fill="#F39663">
                <path d="M75.8002,14.3048 C76.4172,14.3048 76.7252,13.9238 76.7252,13.1588 L76.7252,6.9028 C76.7252,6.4918 76.6372,6.2058 76.4612,6.0438 C76.2852,5.8828 75.9912,5.8018 75.5802,5.8018 L72.7162,5.8018 L72.7162,14.3048 L75.8002,14.3048 Z M67.2972,1.0428 L76.3732,1.0428 C77.1662,1.0428 77.9152,1.1248 78.6202,1.2848 C79.3252,1.4478 79.9342,1.7118 80.4482,2.0788 C80.9622,2.4458 81.3732,2.9448 81.6822,3.5768 C81.9902,4.2088 82.1442,5.0088 82.1442,5.9778 L82.1442,13.5558 C82.1442,14.2608 82.0412,14.8848 81.8362,15.4288 C81.6302,15.9718 81.3802,16.4418 81.0872,16.8378 C80.7932,17.2348 80.4772,17.5578 80.1402,17.8078 C79.8022,18.0578 79.5152,18.2258 79.2812,18.3148 L82.5852,31.8848 L77.1662,31.8848 L74.3022,19.0628 L72.7162,19.0628 L72.7162,31.8848 L67.2972,31.8848 L67.2972,1.0428 Z" id="Fill-7"></path>
                <polygon id="Fill-9" points="95.7588 1.0431 100.2088 25.3641 100.6928 25.3641 100.6928 1.0431 105.7158 1.0431 105.7158 31.8841 97.2128 31.8841 92.4538 6.7271 91.8378 6.7271 91.8378 31.8841 86.8148 31.8841 86.8148 1.0431"></polygon>
                <path d="M118.757,6.5065 C118.757,5.8015 118.155,5.4495 116.951,5.4495 C115.687,5.4495 115.056,5.8015 115.056,6.5065 L115.056,9.3705 C115.056,9.8705 115.107,10.2515 115.21,10.5155 C115.313,10.7805 115.453,11.0005 115.629,11.1765 L122.326,17.3005 C122.913,17.8005 123.383,18.3735 123.736,19.0195 C124.088,19.6655 124.264,20.5765 124.264,21.7505 L124.264,26.8175 C124.264,28.7565 123.684,30.1435 122.524,30.9815 C121.363,31.8185 119.506,32.2365 116.951,32.2365 C115.629,32.2365 114.49,32.1485 113.536,31.9725 C112.581,31.7965 111.81,31.4955 111.223,31.0695 C110.635,30.6435 110.202,30.0855 109.923,29.3955 C109.644,28.7055 109.505,27.8465 109.505,26.8175 L109.505,19.9005 L114.88,19.9005 L114.88,26.2005 C114.88,26.6705 115.063,27.0015 115.431,27.1925 C115.798,27.3835 116.304,27.4785 116.951,27.4785 C117.508,27.4785 117.964,27.3835 118.317,27.1925 C118.669,27.0015 118.845,26.6705 118.845,26.2005 L118.845,22.2795 C118.845,21.8685 118.801,21.5385 118.713,21.2885 C118.625,21.0385 118.463,20.8115 118.228,20.6055 L111.972,15.1855 C111.238,14.5405 110.665,13.8355 110.254,13.0715 C109.842,12.3075 109.637,11.2355 109.637,9.8545 L109.637,6.1105 C109.637,4.1425 110.21,2.7465 111.355,1.9245 C112.501,1.1025 114.366,0.6905 116.951,0.6905 C119.653,0.6905 121.533,1.1095 122.59,1.9465 C123.648,2.7835 124.176,4.1125 124.176,5.9335 L124.176,11.6615 L118.757,11.6615 L118.757,6.5065 Z" id="Fill-11"></path>
                <polygon id="Fill-13" points="138.0544 1.0431 143.4734 1.0431 143.4734 31.8841 138.0544 31.8841 138.0544 18.2701 133.4724 18.2701 133.4724 31.8841 128.0534 31.8841 128.0534 1.0431 133.4724 1.0431 133.4724 13.5121 138.0544 13.5121"></polygon>
                <polygon id="Fill-15" points="148.1437 15.3622 148.1437 1.0432 153.5627 1.0432 153.5627 15.2742 153.5627 31.8842 148.1437 31.8842"></polygon>
                <path d="M166.7362,14.3048 C167.3532,14.3048 167.6612,13.9238 167.6612,13.1588 L167.6612,6.9028 C167.6612,6.4918 167.5512,6.2058 167.3312,6.0438 C167.1112,5.8828 166.8382,5.8018 166.5162,5.8018 L163.6522,5.8018 L163.6522,14.3048 L166.7362,14.3048 Z M158.2332,1.0428 L167.3092,1.0428 C168.1022,1.0428 168.8512,1.1248 169.5562,1.2848 C170.2612,1.4478 170.8702,1.7118 171.3842,2.0788 C171.8982,2.4458 172.3092,2.9448 172.6182,3.5768 C172.9262,4.2088 173.0802,5.0088 173.0802,5.9778 L173.0802,13.5558 C173.0802,15.2298 172.6322,16.5738 171.7362,17.5868 C170.8402,18.6008 169.4682,19.1068 167.6172,19.1068 L163.6522,19.1068 L163.6522,31.8848 L158.2332,31.8848 L158.2332,1.0428 Z" id="Fill-17"></path>
                <polygon id="Fill-19" points="6.1 43.8063 8.788 67.6423 9.449 67.6423 11.563 43.8063 19.935 43.8063 22.314 67.6423 22.843 67.6423 25.31 43.8063 30.773 43.8063 26.94 74.6473 18.965 74.6473 16.013 49.8863 15.485 49.8863 12.885 74.6473 4.866 74.6473 0.637 43.8063"></polygon>
                <polygon id="Fill-21" points="33.9008 58.1254 33.9008 43.8064 39.3198 43.8064 39.3198 58.0374 39.3198 74.6474 33.9008 74.6474"></polygon>
                <polygon id="Fill-23" points="46.5011 48.5646 42.0071 48.5646 42.0071 43.8066 56.4591 43.8066 56.4591 48.5646 51.9201 48.5646 51.9201 74.6476 46.5011 74.6476"></polygon>
                <polygon id="Fill-25" points="69.1472 43.8063 74.5662 43.8063 74.5662 74.6473 69.1472 74.6473 69.1472 61.0333 64.5652 61.0333 64.5652 74.6473 59.1462 74.6473 59.1462 43.8063 64.5652 43.8063 64.5652 56.2753 69.1472 56.2753"></polygon>
                <polygon id="Fill-27" points="88.0479 43.8063 100.5609 43.8063 100.5609 48.5643 93.4669 48.5643 93.4669 56.2753 100.3409 56.2753 100.3409 61.0333 93.4669 61.0333 93.4669 69.8893 100.5609 69.8893 100.5609 74.6473 88.0479 74.6473"></polygon>
                <path d="M113.3376,49.622 C113.3376,49.093 113.1836,48.726 112.8746,48.52 C112.5666,48.315 112.1186,48.212 111.5316,48.212 C110.9726,48.212 110.5326,48.315 110.2096,48.52 C109.8856,48.726 109.7246,49.093 109.7246,49.622 L109.7246,68.832 C109.7246,69.361 109.8856,69.728 110.2096,69.933 C110.5326,70.139 110.9726,70.242 111.5316,70.242 C112.1186,70.242 112.5666,70.139 112.8746,69.933 C113.1836,69.728 113.3376,69.361 113.3376,68.832 L113.3376,62.355 L118.7566,62.355 L118.7566,69.801 C118.7566,70.624 118.6536,71.358 118.4486,72.004 C118.2426,72.65 117.8756,73.194 117.3466,73.634 C116.8186,74.075 116.0836,74.413 115.1446,74.648 C114.2036,74.882 112.9996,75 111.5316,75 C110.0616,75 108.8656,74.882 107.9406,74.648 C107.0146,74.413 106.2886,74.075 105.7596,73.634 C105.2306,73.194 104.8626,72.65 104.6576,72.004 C104.4526,71.358 104.3496,70.624 104.3496,69.801 L104.3496,48.653 C104.3496,47.831 104.4526,47.096 104.6576,46.45 C104.8626,45.804 105.2306,45.26 105.7596,44.82 C106.2886,44.379 107.0146,44.042 107.9406,43.806 C108.8656,43.571 110.0616,43.454 111.5316,43.454 C112.9996,43.454 114.2036,43.571 115.1446,43.806 C116.0836,44.042 116.8186,44.379 117.3466,44.82 C117.8756,45.26 118.2426,45.804 118.4486,46.45 C118.6536,47.096 118.7566,47.831 118.7566,48.653 L118.7566,55.79 L113.3376,55.79 L113.3376,49.622 Z" id="Fill-29"></path>
                <polygon id="Fill-31" points="125.4973 48.5646 121.0033 48.5646 121.0033 43.8066 135.4543 43.8066 135.4543 48.5646 130.9163 48.5646 130.9163 74.6476 125.4973 74.6476"></polygon>
                <path d="M146.5132,49.2697 C146.5132,48.5647 145.9112,48.2127 144.7062,48.2127 C143.4432,48.2127 142.8122,48.5647 142.8122,49.2697 L142.8122,52.1337 C142.8122,52.6337 142.8632,53.0147 142.9662,53.2787 C143.0692,53.5437 143.2082,53.7637 143.3852,53.9397 L150.0822,60.0637 C150.6692,60.5637 151.1392,61.1367 151.4922,61.7827 C151.8442,62.4287 152.0202,63.3397 152.0202,64.5137 L152.0202,69.5807 C152.0202,71.5197 151.4402,72.9067 150.2802,73.7447 C149.1192,74.5817 147.2622,74.9997 144.7062,74.9997 C143.3852,74.9997 142.2462,74.9117 141.2922,74.7357 C140.3372,74.5597 139.5662,74.2587 138.9792,73.8327 C138.3912,73.4067 137.9582,72.8487 137.6792,72.1587 C137.4002,71.4687 137.2612,70.6097 137.2612,69.5807 L137.2612,62.6637 L142.6362,62.6637 L142.6362,68.9637 C142.6362,69.4337 142.8192,69.7647 143.1872,69.9557 C143.5542,70.1467 144.0602,70.2417 144.7062,70.2417 C145.2642,70.2417 145.7202,70.1467 146.0732,69.9557 C146.4252,69.7647 146.6012,69.4337 146.6012,68.9637 L146.6012,65.0427 C146.6012,64.6317 146.5572,64.3017 146.4692,64.0517 C146.3812,63.8017 146.2192,63.5747 145.9842,63.3687 L139.7282,57.9487 C138.9932,57.3037 138.4202,56.5987 138.0102,55.8347 C137.5982,55.0707 137.3932,53.9987 137.3932,52.6177 L137.3932,48.8737 C137.3932,46.9057 137.9662,45.5097 139.1112,44.6867 C140.2572,43.8657 142.1212,43.4537 144.7062,43.4537 C147.4092,43.4537 149.2892,43.8727 150.3462,44.7097 C151.4032,45.5467 151.9322,46.8757 151.9322,48.6967 L151.9322,54.4247 L146.5132,54.4247 L146.5132,49.2697 Z" id="Fill-33"></path>
            </g>
        </g>
    </g>
</svg>