<?xml version="1.0" encoding="UTF-8"?>
<svg width="136px" height="130px" viewBox="0 0 136 130" version="1.1" xmlns="http://www.w3.org/2000/svg" xmlns:xlink="http://www.w3.org/1999/xlink">
    <!-- Generator: Sketch 46 (44423) - http://www.bohemiancoding.com/sketch -->
    <title>match-up-logo</title>
    <desc>Created with Sketch.</desc>
    <defs></defs>
    <g id="Page-1" stroke="none" stroke-width="1" fill="none" fill-rule="evenodd">
        <g id="match-up-logo">
            <path d="M0,86.17 L86.171,86.17 L86.171,-0.001 L0,-0.001 L0,86.17 Z M5.388,80.782 L80.783,80.782 L80.783,5.387 L5.388,5.387 L5.388,80.782 Z" id="Fill-1" fill="#4B62A7"></path>
            <polygon id="Fill-2" fill="#FFFFFF" points="29.744 93.567 90.129 93.567 90.129 47.822 29.744 47.822"></polygon>
            <polygon id="Fill-3" fill="#F6B4AF" points="46.3873 55.303 49.6093 79.273 50.3603 79.273 53.0973 55.303 62.6763 55.303 62.6763 86.203 57.6433 86.203 57.6433 60.953 57.0703 60.953 53.4943 86.203 46.5193 86.203 42.8563 60.953 42.2823 60.953 42.2823 86.203 37.2493 86.203 37.2493 55.303"></polygon>
            <path d="M75.433,60.6443 L74.55,60.6443 L72.961,73.2253 L76.89,73.2253 L75.433,60.6443 Z M77.552,77.9923 L72.343,77.9923 L71.239,86.2033 L65.81,86.2033 L70.048,55.3033 L79.803,55.3033 L84.129,86.2033 L78.656,86.2033 L77.552,77.9923 Z" id="Fill-4" fill="#F6B4AF"></path>
            <polygon id="Fill-5" fill="#F6B4AF" points="88.8967 60.0706 84.3937 60.0706 84.3937 55.3026 98.8727 55.3026 98.8727 60.0706 94.3267 60.0706 94.3267 86.2036 88.8967 86.2036"></polygon>
            <g id="Group-14" transform="translate(37.000000, 54.401000)" fill="#F6B4AF">
                <path d="M73.5708,6.7289 C73.5708,6.1989 73.4158,5.8319 73.1068,5.6249 C72.7978,5.4199 72.3488,5.3169 71.7608,5.3169 C71.2018,5.3169 70.7598,5.4199 70.4368,5.6249 C70.1118,5.8319 69.9508,6.1989 69.9508,6.7289 L69.9508,25.9749 C69.9508,26.5049 70.1118,26.8729 70.4368,27.0789 C70.7598,27.2849 71.2018,27.3879 71.7608,27.3879 C72.3488,27.3879 72.7978,27.2849 73.1068,27.0789 C73.4158,26.8729 73.5708,26.5049 73.5708,25.9749 L73.5708,19.4859 L78.9998,19.4859 L78.9998,26.9469 C78.9998,27.7709 78.8968,28.5069 78.6908,29.1539 C78.4848,29.8009 78.1178,30.3449 77.5878,30.7869 C77.0578,31.2289 76.3218,31.5669 75.3808,31.8019 C74.4388,32.0369 73.2318,32.1549 71.7608,32.1549 C70.2888,32.1549 69.0908,32.0369 68.1628,31.8019 C67.2358,31.5669 66.5078,31.2289 65.9778,30.7869 C65.4478,30.3449 65.0798,29.8009 64.8748,29.1539 C64.6678,28.5069 64.5658,27.7709 64.5658,26.9469 L64.5658,5.7579 C64.5658,4.9339 64.6678,4.1979 64.8748,3.5509 C65.0798,2.9039 65.4478,2.3589 65.9778,1.9169 C66.5078,1.4759 67.2358,1.1379 68.1628,0.9019 C69.0908,0.6669 70.2888,0.5489 71.7608,0.5489 C73.2318,0.5489 74.4388,0.6669 75.3808,0.9019 C76.3218,1.1379 77.0578,1.4759 77.5878,1.9169 C78.1178,2.3589 78.4848,2.9039 78.6908,3.5509 C78.8968,4.1979 78.9998,4.9339 78.9998,5.7579 L78.9998,12.9089 L73.5708,12.9089 L73.5708,6.7289 Z" id="Fill-6"></path>
                <polygon id="Fill-8" points="93.2579 0.902 98.6869 0.902 98.6869 31.802 93.2579 31.802 93.2579 18.162 88.6669 18.162 88.6669 31.802 83.2369 31.802 83.2369 0.902 88.6669 0.902 88.6669 13.395 93.2579 13.395"></polygon>
                <path d="M0.2496,43.7467 L5.6786,43.7467 L5.6786,68.4227 C5.6786,69.1007 5.8186,69.5707 6.0986,69.8347 C6.3776,70.1007 6.9296,70.2327 7.7536,70.2327 C8.5486,70.2327 9.0786,70.1007 9.3426,69.8347 C9.6076,69.5707 9.7406,69.1007 9.7406,68.4227 L9.7406,43.7467 L15.2136,43.7467 L15.2136,68.9087 C15.2136,69.8797 15.1106,70.7397 14.9056,71.4907 C14.6986,72.2407 14.3156,72.8807 13.7576,73.4107 C13.1976,73.9407 12.4336,74.3377 11.4616,74.6027 C10.4906,74.8677 9.2546,74.9997 7.7536,74.9997 C6.2236,74.9997 4.9726,74.8677 4.0016,74.6027 C3.0306,74.3377 2.2646,73.9407 1.7066,73.4107 C1.1466,72.8807 0.7646,72.2407 0.5586,71.4907 C0.3526,70.7397 0.2496,69.8797 0.2496,68.9087 L0.2496,43.7467 Z" id="Fill-10"></path>
                <path d="M28.4124,57.0339 C29.0304,57.0339 29.3394,56.6519 29.3394,55.8859 L29.3394,49.6179 C29.3394,49.2059 29.2294,48.9189 29.0084,48.7569 C28.7874,48.5959 28.5154,48.5139 28.1914,48.5139 L25.3224,48.5139 L25.3224,57.0339 L28.4124,57.0339 Z M19.8924,43.7469 L28.9864,43.7469 C29.7804,43.7469 30.5314,43.8279 31.2374,43.9899 C31.9434,44.1519 32.5544,44.4169 33.0694,44.7839 C33.5844,45.1529 33.9964,45.6519 34.3054,46.2849 C34.6144,46.9179 34.7694,47.7199 34.7694,48.6909 L34.7694,56.2839 C34.7694,57.9609 34.3194,59.3069 33.4224,60.3229 C32.5244,61.3379 31.1494,61.8459 29.2954,61.8459 L25.3224,61.8459 L25.3224,74.6469 L19.8924,74.6469 L19.8924,43.7469 Z" id="Fill-12"></path>
            </g>
        </g>
    </g>
</svg>