<svg width="748" height="536" xmlns="http://www.w3.org/2000/svg" xmlns:xlink="http://www.w3.org/1999/xlink"><defs><path id="a" d="M0 20.446V.92h116.49v19.527z"/></defs><g fill="none" fill-rule="evenodd"><path d="M198.063 215.232c0-6.296 6.551-11.399 14.633-11.399h46.01c4.04 0 7.7-1.273 10.347-3.339 2.647-2.063 4.287-4.912 4.287-8.06 0-6.296-6.556-11.397-14.635-11.397h-10.279c-8.085 0-14.634-5.102-14.634-11.4 0-6.297 6.55-11.398 14.634-11.398h145.338c8.083 0 14.633 5.101 14.633 11.398 0 3.148-1.636 5.998-4.286 8.06-2.647 2.064-6.307 3.34-10.347 3.34H338.99c-8.085 0-14.64 5.101-14.64 11.397 0 6.298 6.555 11.4 14.64 11.4h19.044c8.084 0 14.634 5.102 14.634 11.398 0 3.146-1.633 5.997-4.285 8.06-2.648 2.064-6.309 3.338-10.349 3.338H212.696c-8.082 0-14.633-5.102-14.633-11.398m-12.021-98.24c0 5.547-4.498 10.04-10.043 10.04H76.28c-5.546 0-10.042-4.493-10.042-10.04 0-2.773 1.125-5.282 2.942-7.101a10.005 10.005 0 0 1 7.1-2.941H176c5.545 0 10.043 4.496 10.043 10.042" fill="#8ED2E7"/><g transform="translate(0 308.634)"><mask id="b" fill="#fff"><use xlink:href="#a"/></mask><path d="M116.49 10.682c0 5.394-4.372 9.764-9.764 9.764H9.766C4.372 20.446 0 16.076 0 10.682a9.726 9.726 0 0 1 2.862-6.9A9.716 9.716 0 0 1 9.766.918h96.96c5.392 0 9.764 4.371 9.764 9.763" fill="#8ED2E7" mask="url(#b)"/></g><path d="M131.577 76.128c0-4.878 4.38-8.833 9.784-8.833h30.754c2.7 0 5.148-.985 6.919-2.586 1.769-1.6 2.865-3.808 2.865-6.246 0-4.88-4.384-8.834-9.784-8.834h-6.871c-5.403 0-9.782-3.954-9.782-8.833 0-4.88 4.379-8.834 9.782-8.834h97.154c5.405 0 9.783 3.955 9.783 8.834 0 2.439-1.094 4.648-2.865 6.246-1.77 1.6-4.216 2.587-6.918 2.587h-36.614c-5.403 0-9.788 3.954-9.788 8.834 0 4.879 4.385 8.832 9.788 8.832h12.73c5.404 0 9.784 3.955 9.784 8.833 0 2.44-1.094 4.648-2.866 6.248-1.771 1.6-4.216 2.588-6.917 2.588H141.36c-5.404 0-9.784-3.955-9.784-8.836M628.572 9.761a9.764 9.764 0 0 1-9.765 9.765h-96.96c-5.392 0-9.764-4.372-9.764-9.765a9.726 9.726 0 0 1 2.862-6.902A9.725 9.725 0 0 1 521.847 0h96.96c5.394 0 9.765 4.37 9.765 9.761m119.331 184.803a8.565 8.565 0 0 1-8.566 8.567h-85.084a8.566 8.566 0 1 1 0-17.132h85.084a8.565 8.565 0 0 1 8.566 8.565m-14.037-82.044c0 5.645-5.068 10.222-11.321 10.222h-35.588c-3.126 0-5.957 1.14-8.007 2.992-2.047 1.85-3.315 4.406-3.315 7.228 0 5.647 5.072 10.222 11.322 10.222h7.95c6.253 0 11.32 4.576 11.32 10.222s-5.067 10.222-11.32 10.222H582.48c-6.254 0-11.32-4.576-11.32-10.222 0-2.823 1.266-5.378 3.314-7.228 2.049-1.85 4.88-2.994 8.006-2.994h42.37c6.253 0 11.327-4.575 11.327-10.222 0-5.646-5.074-10.22-11.327-10.22h-14.732c-6.252 0-11.32-4.577-11.32-10.222 0-2.824 1.265-5.379 3.316-7.229 2.049-1.853 4.879-2.996 8.004-2.996h112.427c6.253 0 11.32 4.578 11.32 10.225" fill="#8ED2E7"/><path d="M520.938 190.57c0 64.082-51.944 116.035-116.033 116.035-64.086 0-116.037-51.953-116.037-116.035 0-64.087 51.951-116.038 116.037-116.038 64.09 0 116.033 51.951 116.033 116.038" fill="#F26C65"/><path fill="#61C090" d="M415.651 323.931l38.816-17.569 47.051 168.12z"/><path fill="#9AD4B9" d="M152.73 535.634l58.31-119.83 72.92-32.782-74.616 152.612z"/><path fill="#418768" d="M209.344 535.634L283.96 383.02l131.692-59.09 85.867 150.55 17.113 61.153z"/><path fill="#7C83BF" d="M211.039 415.803l107.62-104.214-34.7 71.432zm243.428-109.441l47.051 168.119 34.876 61.152h63.838l-68.397-142.174z"/><path fill="#F7A7A0" d="M318.66 311.59l86.245-176.763 126.93 258.632-77.367-87.097-38.817 17.57-39.095-68.546z"/><path fill="#B0B4D3" d="M531.836 393.459l68.396 142.175h57.897z"/><path fill="#595E7C" d="M501.518 474.481l17.113 61.152h17.763zm-217.558-91.46l34.7-71.432 57.896-56.204 39.095 68.546z"/><path d="M230.135 513.58l-2.586-1.244 23.745-49.621c5.07-10.555 18.713-19.137 30.418-19.137l246.07-.021c4.895 0 8.643-1.675 10.553-4.713 1.91-3.04 1.793-7.141-.325-11.552l-42.086-87.566c-4.638-9.652-17.129-17.516-27.838-17.528l-125.64-.146c-5.919-.007-10.519-2.16-12.95-6.054-2.429-3.897-2.336-8.978.263-14.294l45.443-92.957 2.578 1.259-45.445 92.958c-2.148 4.397-2.292 8.486-.405 11.514 1.891 3.03 5.622 4.7 10.517 4.707l125.641.143c11.707.016 25.354 8.61 30.423 19.157l42.083 87.563c2.565 5.333 2.625 10.422.171 14.322-2.455 3.905-7.066 6.055-12.983 6.056l-246.07.019c-10.709 0-23.195 7.856-27.832 17.513l-23.745 49.622z" fill="#FFF"/><path d="M236.202 511.48a6.553 6.553 0 0 1-13.104 0 6.556 6.556 0 0 1 6.553-6.554 6.555 6.555 0 0 1 6.55 6.553m35.201-60.729a6.554 6.554 0 0 1-6.553 6.55 6.552 6.552 0 1 1 6.553-6.55m276.029-11.852a6.553 6.553 0 0 1-6.55 6.553 6.554 6.554 0 0 1-6.554-6.553 6.551 6.551 0 0 1 6.553-6.548 6.55 6.55 0 0 1 6.551 6.548M382.568 210.499a6.552 6.552 0 1 1-13.104 0 6.552 6.552 0 0 1 13.104 0" fill="#595E7C"/><path fill="#FFF" d="M497.04 342.05l-64.328-130.828 2.572-1.266 64.33 130.827z"/><path d="M497.532 328.69a6.546 6.546 0 0 1-6.55 6.551 6.55 6.55 0 1 1 0-13.1 6.548 6.548 0 0 1 6.55 6.548m-57.078-118.198a6.553 6.553 0 1 1-13.102 0 6.553 6.553 0 0 1 13.102 0M139.176 449.62c.341 0 .512-.21.512-.633v-3.464c0-.227-.06-.385-.183-.475a.744.744 0 0 0-.45-.134h-1.587v4.707h1.708zm-4.707-7.34h5.024c.44 0 .853.045 1.244.134.39.09.727.236 1.012.439.284.204.512.48.682.83.171.349.257.792.257 1.329v4.194c0 .927-.248 1.67-.744 2.23-.497.563-1.256.843-2.28.843h-2.196v7.072h-2.999V442.28zm14.778 7.34c.342 0 .514-.21.514-.633v-3.464c0-.227-.049-.385-.147-.475-.097-.09-.262-.134-.488-.134h-1.586v4.707h1.707zm-4.706-7.34h5.024c.44 0 .854.045 1.244.134.39.09.727.236 1.012.439.283.204.512.48.682.83.172.349.256.792.256 1.329v4.194c0 .39-.057.736-.17 1.037a3.19 3.19 0 0 1-.414.78c-.164.22-.338.399-.526.536a2.047 2.047 0 0 1-.474.28l1.828 7.512h-2.998l-1.586-7.096h-.879v7.096h-2.999V442.28zm13.803 13.633c0 .34.086.594.256.756.17.163.484.244.939.244.472 0 .788-.081.95-.244.164-.162.246-.415.246-.756v-10.194c0-.341-.082-.593-.245-.756-.163-.162-.48-.244-.951-.244-.455 0-.768.082-.94.244-.17.163-.255.415-.255.756v10.194zm-3-10.487c0-.65.073-1.191.22-1.621.146-.431.386-.777.719-1.038.333-.26.764-.438 1.293-.536.528-.097 1.183-.146 1.963-.146s1.439.049 1.976.146c.536.098.97.277 1.305.536.333.26.573.607.718 1.038.147.43.22.97.22 1.62v10.757c0 .666-.073 1.214-.22 1.645a2.07 2.07 0 0 1-.718 1.024c-.334.252-.77.43-1.305.537-.537.106-1.195.159-1.976.159-.78 0-1.435-.053-1.963-.16-.53-.105-.96-.284-1.293-.536a2.077 2.077 0 0 1-.72-1.024c-.146-.431-.218-.98-.218-1.645v-10.756zm13.998 10.487c0 .34.086.594.256.756.17.163.484.244.939.244.472 0 .788-.081.95-.244.164-.162.246-.415.246-.756v-10.194c0-.341-.082-.593-.245-.756-.163-.162-.48-.244-.951-.244-.455 0-.768.082-.94.244-.17.163-.255.415-.255.756v10.194zm-3-10.487c0-.65.073-1.191.22-1.621.146-.431.386-.777.719-1.038.333-.26.764-.438 1.293-.536.528-.097 1.183-.146 1.963-.146s1.439.049 1.976.146c.536.098.97.277 1.305.536.333.26.573.607.718 1.038.147.43.22.97.22 1.62v10.757c0 .666-.073 1.214-.22 1.645a2.07 2.07 0 0 1-.718 1.024c-.334.252-.77.43-1.305.537-.537.106-1.195.159-1.976.159-.78 0-1.435-.053-1.963-.16-.53-.105-.96-.284-1.293-.536a2.077 2.077 0 0 1-.72-1.024c-.146-.431-.218-.98-.218-1.645v-10.756zm10.998-3.146h6.73v2.634h-3.73v4.267h3.585v2.634h-3.585v7.536h-3zm16.461 13.633c0 .34.086.594.256.756.171.163.484.244.94.244.471 0 .787-.081.95-.244.163-.162.245-.415.245-.756v-10.194c0-.341-.082-.593-.245-.756-.163-.162-.479-.244-.95-.244-.456 0-.769.082-.94.244-.17.163-.256.415-.256.756v10.194zm-2.999-10.487c0-.65.072-1.191.22-1.621a2.16 2.16 0 0 1 .718-1.038c.333-.26.764-.438 1.293-.536.528-.097 1.183-.146 1.963-.146.781 0 1.44.049 1.976.146.536.098.971.277 1.305.536.333.26.573.607.718 1.038.147.43.22.97.22 1.62v10.757c0 .666-.073 1.214-.22 1.645a2.07 2.07 0 0 1-.718 1.024c-.334.252-.769.43-1.305.537-.537.106-1.195.159-1.976.159-.78 0-1.435-.053-1.963-.16-.529-.105-.96-.284-1.293-.536a2.077 2.077 0 0 1-.719-1.024c-.147-.431-.219-.98-.219-1.645v-10.756zm10.998-3.146h6.73v2.634h-3.73v4.267h3.584v2.634H204.8v7.536h-3zm13.461 7.926v-7.926h3v17.072h-3zm10.34 6.511c.195 0 .325-.04.391-.121.064-.082.097-.212.097-.392v-10.803c0-.178-.033-.305-.097-.377-.066-.075-.196-.11-.39-.11h-1.757v11.803h1.756zm-4.755-14.438h5.268c.65 0 1.17.079 1.56.233.391.154.691.37.903.646.211.276.35.614.415 1.012.064.4.096.85.096 1.353v10.585c0 .488-.032.93-.096 1.33a2.323 2.323 0 0 1-.415 1.023c-.212.284-.512.505-.903.659-.39.154-.91.231-1.56.231h-5.268V442.28zm10.828.001h6.926v2.634h-3.927v4.267h3.805v2.634h-3.805v4.903h3.927v2.633h-6.926zm13.486 2.951h-.487l-.878 6.95h2.17l-.804-6.95zm1.17 9.584h-2.876l-.61 4.536h-3l2.34-17.07h5.39l2.39 17.07h-3.023l-.61-4.536zm207.148-249.632c0-.292-.085-.495-.256-.609-.17-.114-.419-.17-.744-.17-.309 0-.553.056-.73.17-.18.114-.27.317-.27.61v10.633c0 .292.09.496.27.61.177.113.421.17.73.17.325 0 .573-.057.744-.17.171-.114.256-.318.256-.61v-3.585h3v4.121c0 .455-.058.862-.17 1.22a1.913 1.913 0 0 1-.61.902c-.293.243-.699.431-1.22.561-.52.13-1.187.195-2 .195s-1.476-.066-1.987-.195c-.513-.13-.915-.318-1.207-.56a1.917 1.917 0 0 1-.61-.903 4.05 4.05 0 0 1-.17-1.22v-11.706c0-.455.056-.86.17-1.22.114-.357.317-.658.61-.902.292-.243.694-.43 1.207-.56.511-.13 1.174-.196 1.987-.196.813 0 1.48.065 2 .195.521.13.927.318 1.22.561.292.244.495.545.61.902.112.36.17.765.17 1.22v3.951h-3v-3.415zm9.974-.194c0-.391-.333-.586-1-.586-.698 0-1.048.195-1.048.586v1.585c0 .276.028.487.085.634.057.146.134.268.232.366l3.707 3.39c.325.276.586.593.78.951.195.357.293.862.293 1.512v2.804c0 1.073-.321 1.842-.963 2.305-.643.464-1.671.695-3.085.695-.732 0-1.362-.049-1.891-.146-.528-.098-.955-.264-1.28-.5a2.094 2.094 0 0 1-.72-.927c-.154-.382-.231-.857-.231-1.427v-3.829h2.975v3.487c0 .261.102.444.305.549.203.107.484.159.842.159.309 0 .56-.052.756-.159.194-.105.292-.288.292-.549v-2.17c0-.227-.025-.41-.073-.548a.9.9 0 0 0-.268-.378l-3.463-3a4.224 4.224 0 0 1-.951-1.17c-.23-.423-.342-1.017-.342-1.78v-2.074c0-1.089.318-1.861.95-2.317.635-.454 1.667-.683 3.099-.683 1.495 0 2.536.232 3.12.696.586.462.879 1.199.879 2.207v3.17h-3v-2.853zm5.146-3.024h6.926v2.634h-3.927v4.267h3.805v2.634h-3.805v4.903h3.927v2.633h-6.926zm18.95 0l1.78 13.242h.415l1.512-13.242h5.291v17.07h-2.78v-13.95h-.317l-1.975 13.95h-3.853l-2.024-13.95h-.318v13.95h-2.78v-17.07zm16.046 2.951h-.488l-.878 6.95h2.171l-.805-6.95zm1.17 9.584h-2.877l-.61 4.536h-2.999l2.34-17.071h5.39l2.39 17.07h-3.024l-.61-4.535zm6.269-9.902h-2.487v-2.634h7.999v2.634h-2.512v14.438h-3zm11.974.585c0-.292-.085-.495-.256-.609-.17-.114-.419-.17-.744-.17-.309 0-.553.056-.73.17-.18.114-.27.317-.27.61v10.633c0 .292.09.496.27.61.177.113.421.17.73.17.325 0 .573-.057.744-.17.171-.114.256-.318.256-.61v-3.585h3v4.121c0 .455-.058.862-.17 1.22a1.913 1.913 0 0 1-.61.902c-.293.243-.699.431-1.22.561-.52.13-1.187.195-2 .195s-1.476-.066-1.987-.195c-.513-.13-.915-.318-1.207-.56a1.917 1.917 0 0 1-.61-.903 4.05 4.05 0 0 1-.17-1.22v-11.706c0-.455.056-.86.17-1.22.114-.357.317-.658.61-.902.292-.243.694-.43 1.207-.56.511-.13 1.174-.196 1.987-.196.813 0 1.48.065 2 .195.521.13.927.318 1.22.561.292.244.495.545.61.902.112.36.17.765.17 1.22v3.951h-3v-3.415zm10.876-3.218h3v17.07h-3V211.5h-2.536v7.536h-2.999v-17.071h3v6.9h2.535zm10.463 0h3v13.633c0 .374.076.634.23.78.156.147.46.22.916.22.438 0 .731-.073.877-.22.147-.146.22-.406.22-.78v-13.633h3.024v13.9a5.43 5.43 0 0 1-.17 1.427 2.27 2.27 0 0 1-.635 1.062c-.309.292-.732.51-1.268.658-.537.146-1.219.22-2.048.22-.846 0-1.537-.074-2.074-.22-.536-.147-.959-.366-1.267-.658a2.254 2.254 0 0 1-.635-1.062 5.43 5.43 0 0 1-.17-1.426v-13.901zm15.559 7.34c.342 0 .513-.21.513-.634v-3.464c0-.227-.062-.385-.184-.475a.742.742 0 0 0-.451-.134h-1.585v4.707h1.707zm-4.706-7.34h5.023c.44 0 .854.044 1.245.133.389.09.727.236 1.01.44.285.203.513.48.684.83.17.348.256.791.256 1.328v4.194c0 .927-.248 1.671-.743 2.231-.497.562-1.256.842-2.281.842h-2.195v7.072h-3v-17.07zm-43.653 125.621c.343 0 .513-.211.513-.634v-3.464c0-.227-.061-.385-.183-.475a.742.742 0 0 0-.451-.134h-1.586v4.707h1.707zm-4.705-7.341h5.022c.44 0 .854.045 1.246.134.388.09.726.236 1.01.439.284.204.512.48.683.83.171.349.256.792.256 1.329v4.194c0 .927-.247 1.67-.742 2.23-.498.563-1.257.843-2.282.843h-2.195v7.072h-2.998v-17.071zm14.778 7.341c.342 0 .513-.211.513-.634v-3.464c0-.227-.05-.385-.147-.475-.097-.09-.261-.134-.488-.134h-1.585v4.707h1.707zm-4.706-7.341h5.023c.44 0 .854.045 1.245.134.389.09.727.236 1.01.439.285.204.513.48.684.83.17.349.256.792.256 1.329v4.194c0 .39-.057.736-.17 1.037a3.226 3.226 0 0 1-.415.78c-.163.22-.338.399-.525.536a2.05 2.05 0 0 1-.475.28l1.829 7.512h-3l-1.585-7.096h-.878v7.096h-3v-17.071zm13.803 13.633c0 .34.086.594.255.756.172.163.485.244.94.244.472 0 .788-.081.95-.244.163-.162.245-.415.245-.756v-10.194c0-.341-.082-.593-.245-.756-.163-.162-.478-.244-.95-.244-.455 0-.768.082-.94.244-.17.163-.255.415-.255.756v10.194zm-3-10.487c0-.65.072-1.191.22-1.621a2.16 2.16 0 0 1 .718-1.038c.333-.26.764-.438 1.293-.536.529-.097 1.183-.146 1.963-.146.782 0 1.44.049 1.976.146.537.098.971.277 1.306.536.332.26.572.607.717 1.038.148.43.22.97.22 1.62v10.757c0 .666-.072 1.214-.22 1.645a2.07 2.07 0 0 1-.717 1.024c-.335.252-.77.43-1.306.537-.536.106-1.194.159-1.976.159-.78 0-1.434-.053-1.962-.16-.53-.105-.96-.284-1.293-.536a2.077 2.077 0 0 1-.72-1.024c-.146-.431-.218-.98-.218-1.645V323.39zm13.997 10.487c0 .34.087.594.257.756.17.163.483.244.938.244.472 0 .788-.081.952-.244.163-.162.245-.415.245-.756v-10.194c0-.341-.082-.593-.245-.756-.163-.162-.48-.244-.952-.244-.455 0-.768.082-.938.244-.17.163-.257.415-.257.756v10.194zm-2.998-10.487c0-.65.072-1.191.218-1.621a2.17 2.17 0 0 1 .72-1.038c.332-.26.764-.438 1.293-.536.527-.097 1.183-.146 1.962-.146.781 0 1.44.049 1.976.146.536.098.971.277 1.305.536.334.26.574.607.719 1.038.146.43.22.97.22 1.62v10.757c0 .666-.074 1.214-.22 1.645a2.07 2.07 0 0 1-.719 1.024c-.333.252-.769.43-1.304.537-.538.106-1.196.159-1.976.159s-1.436-.053-1.963-.16c-.53-.105-.96-.284-1.293-.536a2.077 2.077 0 0 1-.72-1.024c-.146-.431-.218-.98-.218-1.645V323.39zm10.997-3.146h6.73v2.634h-3.73v4.267h3.585v2.634h-3.586v7.536h-2.999zm16.461 13.633c0 .34.086.594.255.756.172.163.485.244.94.244.471 0 .787-.081.95-.244.163-.162.245-.415.245-.756v-10.194c0-.341-.082-.593-.245-.756-.163-.162-.478-.244-.95-.244-.456 0-.769.082-.94.244-.17.163-.255.415-.255.756v10.194zm-3-10.487c0-.65.072-1.191.22-1.621a2.16 2.16 0 0 1 .718-1.038c.333-.26.764-.438 1.293-.536.529-.097 1.183-.146 1.963-.146.782 0 1.44.049 1.976.146.537.098.971.277 1.306.536.332.26.572.607.717 1.038.148.43.22.97.22 1.62v10.757c0 .666-.072 1.214-.22 1.645a2.07 2.07 0 0 1-.717 1.024c-.335.252-.77.43-1.306.537-.536.106-1.194.159-1.976.159-.78 0-1.434-.053-1.962-.16-.53-.105-.96-.284-1.293-.536a2.077 2.077 0 0 1-.72-1.024c-.147-.431-.219-.98-.219-1.645V323.39zm10.999-3.146h6.73v2.634h-3.732v4.267h3.586v2.634h-3.586v7.536h-2.998zm17.826 14.437a.862.862 0 0 0 .476-.134c.137-.09.207-.248.207-.475v-3.805c0-.179-.066-.305-.196-.378a.788.788 0 0 0-.39-.11h-1.463v4.902h1.366zm.098-7.536c.13 0 .247-.049.353-.147.106-.096.158-.259.158-.487v-3.024c0-.228-.07-.386-.207-.476a.777.777 0 0 0-.426-.134h-1.342v4.268h1.464zm-4.463-6.902h5.023c.44 0 .842.045 1.207.134.366.09.675.237.927.44s.45.48.598.83c.146.348.219.792.219 1.328v3.756c0 .471-.122.825-.366 1.06-.244.237-.472.403-.682.5v.171c.227.081.47.232.73.451.26.22.392.55.392.988v4.658c0 .52-.074.96-.22 1.317-.147.358-.35.642-.61.854a2.378 2.378 0 0 1-.951.451 5.385 5.385 0 0 1-1.244.134h-5.023v-17.072zm10.632.001h3v13.633c0 .374.076.634.23.78.156.147.46.22.916.22.438 0 .731-.073.877-.22.147-.146.22-.406.22-.78v-13.633h3.024v13.9a5.43 5.43 0 0 1-.17 1.427 2.27 2.27 0 0 1-.635 1.062c-.309.292-.732.51-1.268.658-.537.146-1.219.22-2.048.22-.846 0-1.537-.074-2.074-.22-.536-.147-.959-.366-1.267-.658a2.254 2.254 0 0 1-.635-1.062 5.43 5.43 0 0 1-.17-1.426v-13.901zm15.485 3.025c0-.392-.332-.587-.998-.587-.7 0-1.05.195-1.05.586v1.585c0 .276.029.487.086.634.057.146.134.268.232.366l3.707 3.39c.325.276.586.593.78.951.195.357.293.862.293 1.512v2.804c0 1.073-.321 1.842-.963 2.305-.643.464-1.671.695-3.085.695-.732 0-1.362-.049-1.891-.146-.528-.098-.955-.264-1.28-.5a2.094 2.094 0 0 1-.72-.927c-.154-.382-.231-.857-.231-1.427v-3.829h2.975v3.487c0 .261.102.444.305.55.203.106.484.158.842.158.309 0 .56-.052.756-.159.194-.105.292-.288.292-.549V332c0-.227-.025-.41-.073-.548a.9.9 0 0 0-.268-.378l-3.463-3a4.224 4.224 0 0 1-.951-1.17c-.23-.423-.342-1.017-.342-1.78v-2.074c0-1.089.318-1.86.95-2.317.635-.454 1.667-.683 3.099-.683 1.495 0 2.536.232 3.12.696.586.462.879 1.2.879 2.207v3.17h-3v-2.853zm5.147 4.9v-7.925h3v17.072h-3zm10.535-7.925l2.463 13.462h.268v-13.462h2.781v17.07h-4.707l-2.634-13.924h-.342v13.925h-2.779v-17.071zm8.097 0h6.926v2.634h-3.927v4.267h3.805v2.634h-3.805v4.903h3.927v2.633h-6.926zm13.656 3.025c0-.392-.333-.587-.999-.587-.699 0-1.049.195-1.049.586v1.585c0 .276.028.487.085.634.057.146.134.268.232.366l3.707 3.39c.325.276.586.593.78.951.195.357.293.862.293 1.512v2.804c0 1.073-.32 1.842-.963 2.305-.643.464-1.67.695-3.085.695-.732 0-1.362-.049-1.89-.146-.529-.098-.956-.264-1.28-.5a2.094 2.094 0 0 1-.72-.927c-.155-.382-.232-.857-.232-1.427v-3.829h2.975v3.487c0 .261.102.444.305.55.203.106.484.158.842.158.31 0 .561-.052.756-.159.194-.105.292-.288.292-.549V332c0-.227-.025-.41-.073-.548a.9.9 0 0 0-.268-.378l-3.463-3a4.224 4.224 0 0 1-.95-1.17c-.23-.423-.343-1.017-.343-1.78v-2.074c0-1.089.318-1.86.951-2.317.634-.454 1.666-.683 3.098-.683 1.495 0 2.536.232 3.121.696.585.462.878 1.2.878 2.207v3.17h-3v-2.853zm9.78 0c0-.392-.334-.587-1-.587-.699 0-1.048.195-1.048.586v1.585c0 .276.027.487.084.634.058.146.135.268.233.366l3.707 3.39c.324.276.586.593.78.951.194.357.293.862.293 1.512v2.804c0 1.073-.322 1.842-.963 2.305-.644.464-1.672.695-3.086.695-.731 0-1.361-.049-1.89-.146-.529-.098-.956-.264-1.28-.5a2.094 2.094 0 0 1-.72-.927c-.155-.382-.232-.857-.232-1.427v-3.829h2.976v3.487c0 .261.101.444.305.55.202.106.483.158.841.158.31 0 .562-.052.756-.159.194-.105.293-.288.293-.549V332c0-.227-.025-.41-.073-.548a.9.9 0 0 0-.269-.378l-3.462-3a4.224 4.224 0 0 1-.952-1.17c-.229-.423-.341-1.017-.341-1.78v-2.074c0-1.089.317-1.86.95-2.317.635-.454 1.667-.683 3.099-.683 1.495 0 2.535.232 3.12.696.586.462.879 1.2.879 2.207v3.17h-3v-2.853zM560.202 437.489c.342 0 .513-.211.513-.634v-3.464c0-.227-.062-.385-.184-.475a.742.742 0 0 0-.451-.134h-1.585v4.707h1.707zm-4.706-7.341h5.023c.44 0 .854.045 1.245.134.389.09.727.236 1.01.439.285.204.513.48.684.83.17.349.256.792.256 1.329v4.194c0 .927-.248 1.671-.743 2.231-.497.562-1.256.842-2.281.842h-2.195v7.072h-3v-17.071zm14.778 7.341c.342 0 .513-.211.513-.634v-3.464c0-.227-.049-.385-.147-.475-.097-.089-.261-.134-.488-.134h-1.585v4.707h1.707zm-4.706-7.341h5.023c.44 0 .854.045 1.245.134.389.09.727.236 1.011.439.284.204.512.48.683.83.171.349.256.792.256 1.329v4.194c0 .391-.057.736-.17 1.037a3.226 3.226 0 0 1-.415.78c-.163.22-.338.399-.525.536a2.05 2.05 0 0 1-.475.281l1.829 7.511h-2.999l-1.586-7.096h-.878v7.096h-2.999v-17.071zm13.802 13.633c0 .341.087.594.257.756.17.163.484.244.939.244.472 0 .788-.081.95-.244.164-.162.246-.415.246-.756v-10.194c0-.341-.082-.593-.245-.756-.163-.162-.48-.244-.951-.244-.455 0-.768.082-.94.244-.17.163-.255.415-.255.756v10.194zm-2.998-10.487c0-.65.072-1.191.219-1.621.146-.431.386-.777.719-1.038.333-.259.764-.438 1.293-.536.528-.097 1.183-.146 1.963-.146s1.439.049 1.976.146c.536.098.97.277 1.305.536.333.261.573.607.718 1.038.147.43.22.971.22 1.621v10.756c0 .666-.073 1.214-.22 1.645a2.07 2.07 0 0 1-.718 1.024c-.334.252-.77.431-1.305.537-.537.106-1.195.159-1.976.159-.78 0-1.435-.053-1.963-.159-.53-.106-.96-.285-1.293-.537a2.077 2.077 0 0 1-.72-1.024c-.146-.431-.218-.979-.218-1.645v-10.756zm13.998 10.487c0 .341.086.594.256.756.17.163.484.244.939.244.472 0 .788-.081.95-.244.164-.162.246-.415.246-.756v-10.194c0-.341-.082-.593-.245-.756-.163-.162-.48-.244-.951-.244-.455 0-.768.082-.94.244-.17.163-.255.415-.255.756v10.194zm-3-10.487c0-.65.073-1.191.22-1.621.146-.431.386-.777.719-1.038.333-.259.764-.438 1.293-.536.528-.097 1.183-.146 1.963-.146s1.439.049 1.976.146c.536.098.97.277 1.305.536.333.261.573.607.718 1.038.147.43.22.971.22 1.621v10.756c0 .666-.073 1.214-.22 1.645a2.07 2.07 0 0 1-.718 1.024c-.334.252-.77.431-1.305.537-.537.106-1.195.159-1.976.159-.78 0-1.435-.053-1.963-.159-.53-.106-.96-.285-1.293-.537a2.077 2.077 0 0 1-.72-1.024c-.146-.431-.218-.979-.218-1.645v-10.756zm10.999-3.146h6.73v2.634h-3.731v4.267h3.585v2.634h-3.585v7.536h-3zm16.46 13.633c0 .341.086.594.256.756.17.163.484.244.939.244.472 0 .788-.081.95-.244.164-.162.246-.415.246-.756v-10.194c0-.341-.082-.593-.245-.756-.163-.162-.48-.244-.951-.244-.455 0-.768.082-.94.244-.17.163-.255.415-.255.756v10.194zm-3-10.487c0-.65.073-1.191.22-1.621.146-.431.386-.777.719-1.038.333-.259.764-.438 1.293-.536.528-.097 1.183-.146 1.963-.146s1.439.049 1.976.146c.536.098.97.277 1.305.536.333.261.573.607.718 1.038.147.43.22.971.22 1.621v10.756c0 .666-.073 1.214-.22 1.645a2.07 2.07 0 0 1-.718 1.024c-.334.252-.77.431-1.305.537-.537.106-1.195.159-1.976.159-.78 0-1.435-.053-1.963-.159-.53-.106-.96-.285-1.293-.537a2.077 2.077 0 0 1-.72-1.024c-.146-.431-.218-.979-.218-1.645v-10.756zm10.999-3.146h6.73v2.634h-3.731v4.267h3.585v2.634h-3.585v7.536h-3zm18.435 3.219c0-.292-.085-.495-.256-.61-.17-.113-.419-.17-.744-.17-.309 0-.553.057-.73.17-.18.115-.27.318-.27.61V444c0 .292.09.496.27.609.177.114.421.17.73.17.325 0 .573-.056.744-.17.171-.113.256-.317.256-.61v-3.584h3v4.12c0 .456-.058.863-.17 1.22a1.913 1.913 0 0 1-.61.903c-.293.243-.699.43-1.22.56-.52.13-1.187.196-2 .196s-1.476-.066-1.987-.195c-.513-.13-.915-.318-1.207-.561a1.917 1.917 0 0 1-.61-.902 4.05 4.05 0 0 1-.17-1.22V432.83c0-.455.056-.861.17-1.22.114-.357.317-.658.61-.902.292-.243.694-.431 1.207-.561.511-.13 1.174-.195 1.987-.195.813 0 1.48.065 2 .195.521.13.927.318 1.22.56.292.245.495.546.61.903.112.359.17.765.17 1.22v3.95h-3v-3.414zm8.34 10.414c0 .341.086.594.256.756.171.163.484.244.94.244.471 0 .787-.081.95-.244.163-.162.245-.415.245-.756v-10.194c0-.341-.082-.593-.245-.756-.163-.162-.479-.244-.95-.244-.456 0-.769.082-.94.244-.17.163-.256.415-.256.756v10.194zm-2.999-10.487c0-.65.072-1.191.22-1.621a2.16 2.16 0 0 1 .718-1.038c.333-.259.764-.438 1.293-.536.528-.097 1.183-.146 1.963-.146.781 0 1.44.049 1.976.146.536.098.971.277 1.305.536.333.261.573.607.718 1.038.147.43.22.971.22 1.621v10.756c0 .666-.073 1.214-.22 1.645a2.07 2.07 0 0 1-.718 1.024c-.334.252-.769.431-1.305.537-.537.106-1.195.159-1.976.159-.78 0-1.435-.053-1.963-.159-.529-.106-.96-.285-1.293-.537a2.077 2.077 0 0 1-.719-1.024c-.147-.431-.219-.979-.219-1.645v-10.756zm15.949-3.146l2.463 13.462h.268v-13.462h2.781v17.071h-4.707l-2.634-13.925h-.342v13.925h-2.779v-17.07zm13.072 3.219c0-.292-.085-.495-.256-.61-.171-.113-.42-.17-.744-.17-.31 0-.553.057-.731.17-.18.115-.27.318-.27.61V444c0 .292.09.496.27.609.178.114.422.17.73.17.326 0 .574-.056.745-.17.17-.113.256-.317.256-.61v-3.584h3v4.12c0 .456-.058.863-.171 1.22a1.913 1.913 0 0 1-.61.903c-.292.243-.698.43-1.22.56-.52.13-1.186.196-2 .196-.812 0-1.475-.066-1.986-.195-.513-.13-.915-.318-1.207-.561a1.917 1.917 0 0 1-.611-.902 4.05 4.05 0 0 1-.17-1.22V432.83c0-.455.057-.861.17-1.22.115-.357.318-.658.61-.902.293-.243.695-.431 1.208-.561.51-.13 1.174-.195 1.987-.195.813 0 1.479.065 2 .195.52.13.927.318 1.22.56.292.245.495.546.609.903.113.359.17.765.17 1.22v3.95h-3v-3.414zm5.341-3.219h6.925v2.634h-3.926v4.267h3.804v2.634h-3.804v4.903h3.926v2.633h-6.925zm13.729 7.341c.342 0 .513-.211.513-.634v-3.464c0-.227-.062-.385-.184-.475a.742.742 0 0 0-.451-.134h-1.585v4.707h1.707zm-4.706-7.341h5.023c.44 0 .854.045 1.245.134.389.09.727.236 1.01.439.285.204.513.48.684.83.17.349.256.792.256 1.329v4.194c0 .927-.248 1.671-.743 2.231-.497.562-1.256.842-2.281.842h-2.195v7.072h-3v-17.071zm11.461 2.634h-2.486v-2.634h7.999v2.634h-2.512v14.438h-3z" fill="#595E7C"/><path fill="#FFF" d="M240.447 512.232v-7.926h2.999v17.072h-3zm10.34 6.512c.195 0 .325-.04.39-.122.065-.081.098-.211.098-.391v-10.803c0-.18-.033-.305-.097-.378-.066-.074-.196-.11-.391-.11h-1.756v11.804h1.756zm-4.755-14.438h5.268c.649 0 1.17.078 1.56.232.39.155.69.37.903.646.21.277.349.615.415 1.012.064.4.096.85.096 1.354v10.585c0 .487-.032.93-.096 1.329a2.323 2.323 0 0 1-.415 1.023c-.212.285-.512.505-.903.659-.39.155-.911.232-1.56.232h-5.268v-17.072zm10.828 0h6.926v2.634h-3.927v4.267h3.805v2.634h-3.805v4.903h3.927v2.633h-6.926zm13.486 2.952h-.488l-.878 6.95h2.171l-.805-6.95zm1.17 9.584h-2.877l-.61 4.536h-2.999l2.34-17.071h5.39l2.39 17.07h-3.024l-.61-4.535zm6.269-9.902h-2.487v-2.634h7.999v2.634h-2.512v14.438h-3zm7 5.292v-7.926h2.999v17.072h-3zm8.584 5.708c0 .34.086.593.256.755.17.163.484.244.939.244.472 0 .788-.08.95-.244.164-.162.246-.415.246-.756v-10.194c0-.34-.082-.593-.245-.756-.163-.162-.48-.244-.951-.244-.455 0-.768.082-.94.244-.17.163-.255.415-.255.756v10.194zm-3-10.488c0-.65.073-1.19.22-1.62.146-.432.386-.778.719-1.039.333-.259.764-.438 1.293-.536.528-.097 1.183-.146 1.963-.146s1.439.05 1.976.146c.536.098.97.277 1.305.536.333.261.573.607.718 1.038.147.43.22.971.22 1.621v10.756c0 .666-.073 1.214-.22 1.645a2.07 2.07 0 0 1-.718 1.024c-.334.252-.77.431-1.305.537-.537.106-1.195.16-1.976.16-.78 0-1.435-.054-1.963-.16-.53-.106-.96-.285-1.293-.537a2.077 2.077 0 0 1-.72-1.024c-.146-.43-.218-.979-.218-1.645v-10.756zm15.949-3.146l2.463 13.462h.268v-13.462h2.781v17.071h-4.707l-2.634-13.925h-.342v13.925h-2.779v-17.07z"/><path d="M289.71 196.308h3.999v9.413c-.472.131-1.053.24-1.743.33a16.52 16.52 0 0 1-2.134.134c-.96 0-1.72-.073-2.28-.22-.562-.146-.996-.366-1.305-.658a2.022 2.022 0 0 1-.598-1.085 7.484 7.484 0 0 1-.133-1.5v-10.779c0-.52.056-.98.17-1.378a2.03 2.03 0 0 1 .634-1c.309-.269.728-.468 1.256-.598.529-.13 1.207-.195 2.036-.195s1.508.065 2.036.195c.529.13.948.33 1.256.598.309.267.52.601.635 1 .113.398.17.857.17 1.378v2.756h-3v-2.562a.664.664 0 0 0-.23-.536c-.156-.13-.444-.195-.867-.195s-.711.065-.866.195a.664.664 0 0 0-.231.536v10.585c0 .341.114.565.34.67.229.106.505.16.83.16h.586c.163 0 .308-.009.439-.025v-4.56h-1v-2.659zm9.583 6.292c0 .341.087.594.257.756.17.163.483.244.938.244.473 0 .788-.08.952-.244.163-.162.245-.415.245-.756v-10.194c0-.34-.082-.593-.245-.756-.163-.162-.48-.244-.952-.244-.454 0-.767.082-.938.244-.17.163-.257.415-.257.756V202.6zm-2.998-10.487c0-.65.071-1.19.219-1.62.145-.432.385-.778.719-1.039.332-.259.764-.438 1.293-.536.527-.097 1.183-.146 1.962-.146.781 0 1.44.05 1.976.146.536.098.971.277 1.305.536.334.261.573.607.719 1.038.147.43.22.971.22 1.621v10.756c0 .666-.074 1.214-.22 1.645a2.07 2.07 0 0 1-.719 1.024c-.334.252-.769.431-1.305.537-.536.106-1.195.16-1.976.16-.78 0-1.435-.054-1.962-.16-.53-.106-.96-.285-1.293-.537a2.077 2.077 0 0 1-.72-1.024c-.147-.43-.218-.979-.218-1.645v-10.756zm20.069 4.195h3.999v9.413c-.472.131-1.053.24-1.743.33a16.52 16.52 0 0 1-2.134.134c-.96 0-1.72-.073-2.28-.22-.562-.146-.996-.366-1.305-.658a2.022 2.022 0 0 1-.598-1.085 7.484 7.484 0 0 1-.133-1.5v-10.779c0-.52.056-.98.17-1.378a2.03 2.03 0 0 1 .634-1c.309-.269.728-.468 1.256-.598.529-.13 1.207-.195 2.036-.195s1.508.065 2.036.195c.529.13.948.33 1.256.598.309.267.52.601.635 1 .113.398.17.857.17 1.378v2.756h-3v-2.562a.664.664 0 0 0-.23-.536c-.156-.13-.444-.195-.867-.195s-.711.065-.866.195a.664.664 0 0 0-.231.536v10.585c0 .341.114.565.34.67.229.106.505.16.83.16h.586c.163 0 .308-.009.439-.025v-4.56h-1v-2.659zm11.291 0c.342 0 .513-.21.513-.634v-3.464c0-.227-.05-.385-.147-.475-.097-.089-.261-.134-.488-.134h-1.585v4.707h1.707zm-4.706-7.34h5.023c.44 0 .854.044 1.245.133.389.09.727.236 1.01.44.285.203.513.48.684.83.17.348.256.791.256 1.328v4.194c0 .391-.057.736-.17 1.037a3.226 3.226 0 0 1-.415.78c-.163.22-.338.4-.525.536a2.05 2.05 0 0 1-.475.281l1.829 7.511h-3l-1.585-7.096h-.878v7.096h-3v-17.07zm13.803 13.632c0 .341.086.594.256.756.17.163.484.244.939.244.472 0 .788-.08.95-.244.164-.162.246-.415.246-.756v-10.194c0-.34-.082-.593-.245-.756-.163-.162-.48-.244-.951-.244-.455 0-.768.082-.94.244-.17.163-.255.415-.255.756V202.6zm-3-10.487c0-.65.073-1.19.22-1.62.146-.432.386-.778.719-1.039.333-.259.764-.438 1.293-.536.528-.097 1.183-.146 1.963-.146s1.439.05 1.976.146c.536.098.97.277 1.305.536.333.261.573.607.718 1.038.147.43.22.971.22 1.621v10.756c0 .666-.073 1.214-.22 1.645a2.07 2.07 0 0 1-.718 1.024c-.334.252-.77.431-1.305.537-.537.106-1.195.16-1.976.16-.78 0-1.435-.054-1.963-.16-.53-.106-.96-.285-1.293-.537a2.077 2.077 0 0 1-.72-1.024c-.146-.43-.218-.979-.218-1.645v-10.756zm13.169-3.145l1.488 13.193h.367l1.17-13.194h4.633l1.317 13.194h.293l1.365-13.194h3.025l-2.123 17.071h-4.413l-1.635-13.706h-.293l-1.438 13.707h-4.439l-2.34-17.071zm-159.443 41.437c.195 0 .325-.04.391-.122.064-.081.097-.211.097-.391v-10.803c0-.179-.033-.305-.097-.378-.066-.074-.196-.11-.39-.11h-1.757v11.804h1.756zm-4.755-14.438h5.268c.65 0 1.17.078 1.56.232.391.155.691.37.903.646.211.277.35.615.415 1.012.064.4.096.851.096 1.354v10.585c0 .487-.032.93-.096 1.329a2.323 2.323 0 0 1-.415 1.023c-.212.285-.512.505-.903.659-.39.155-.91.232-1.56.232h-5.268v-17.072zm10.828 7.926v-7.926h3v17.072h-3zm9.779-.585h4v9.413c-.472.131-1.053.24-1.743.33a16.52 16.52 0 0 1-2.134.134c-.96 0-1.72-.073-2.28-.22-.562-.146-.996-.366-1.305-.658a2.022 2.022 0 0 1-.598-1.085 7.484 7.484 0 0 1-.133-1.5v-10.779c0-.52.056-.98.17-1.378a2.03 2.03 0 0 1 .634-1c.309-.269.728-.468 1.256-.598.529-.13 1.207-.195 2.036-.195s1.508.065 2.036.195c.529.13.948.33 1.256.598.309.267.52.601.635 1 .113.398.17.857.17 1.378v2.756h-3v-2.562a.664.664 0 0 0-.23-.536c-.156-.13-.444-.195-.867-.195s-.711.065-.866.195a.664.664 0 0 0-.231.536v10.585c0 .341.114.565.34.67.229.106.505.16.83.16h.586c.163 0 .308-.009.439-.025v-4.56h-1v-2.659zm6.586.585v-7.926h2.999v17.072h-3zm6.974-5.292h-2.487v-2.634h8v2.634h-2.513v14.438h-3zm10.976.318h-.488l-.878 6.95h2.17l-.804-6.95zm1.17 9.584h-2.877l-.61 4.536h-3l2.34-17.071h5.39l2.39 17.07h-3.023l-.61-4.535zm5.365-12.535h2.999v14.438h4.049v2.632h-7.048zm17.485 7.34h4v9.413c-.473.131-1.054.24-1.744.33a16.52 16.52 0 0 1-2.134.134c-.96 0-1.72-.073-2.28-.22-.562-.146-.996-.366-1.305-.658a2.022 2.022 0 0 1-.598-1.085 7.484 7.484 0 0 1-.133-1.5v-10.779c0-.52.056-.98.17-1.378a2.03 2.03 0 0 1 .634-1c.31-.269.728-.468 1.256-.598.53-.13 1.207-.195 2.036-.195.83 0 1.508.065 2.036.195.53.13.948.33 1.256.598.31.267.521.601.635 1 .113.398.17.857.17 1.378v2.756h-2.999v-2.562a.664.664 0 0 0-.23-.536c-.157-.13-.445-.195-.868-.195s-.71.065-.866.195a.664.664 0 0 0-.23.536v10.585c0 .341.113.565.34.67.228.106.504.16.83.16h.585c.163 0 .308-.009.44-.025v-4.56h-1v-2.659zm11.291 0c.342 0 .513-.21.513-.634v-3.464c0-.227-.049-.385-.147-.475-.097-.089-.26-.134-.488-.134h-1.585v4.707h1.707zm-4.706-7.34h5.023c.44 0 .854.044 1.245.133.39.09.727.236 1.011.44.284.203.512.48.683.83.171.348.256.791.256 1.328v4.194c0 .391-.057.736-.17 1.037a3.226 3.226 0 0 1-.415.78c-.163.22-.338.4-.525.536a2.05 2.05 0 0 1-.475.281l1.83 7.511h-3l-1.586-7.096h-.878v7.096h-2.999v-17.07zm13.803 13.632c0 .341.086.594.256.756.171.163.484.244.939.244.472 0 .788-.08.951-.244.163-.162.245-.415.245-.756v-10.194c0-.34-.082-.593-.245-.756-.163-.162-.479-.244-.951-.244-.455 0-.768.082-.939.244-.17.163-.256.415-.256.756V229.6zm-2.999-10.487c0-.65.072-1.19.219-1.62.146-.432.386-.778.719-1.039.333-.259.764-.438 1.293-.536.528-.097 1.183-.146 1.963-.146.781 0 1.439.05 1.976.146.536.098.971.277 1.305.536.333.261.573.607.718 1.038.147.43.22.971.22 1.621v10.756c0 .666-.073 1.214-.22 1.645a2.07 2.07 0 0 1-.718 1.024c-.334.252-.769.431-1.305.537-.537.106-1.195.16-1.976.16-.78 0-1.435-.054-1.963-.16-.529-.106-.96-.285-1.293-.537a2.077 2.077 0 0 1-.719-1.024c-.147-.43-.219-.979-.219-1.645v-10.756zm13.169-3.145l1.488 13.193h.366l1.17-13.194h4.634l1.317 13.194h.293l1.365-13.194h3.024l-2.122 17.071h-4.414l-1.634-13.706h-.293L286.2 233.04h-4.44l-2.34-17.071zm16.778 2.633h-2.487v-2.634h8v2.634h-2.513v14.438h-3zm12.535-2.633h3v17.07h-3v-7.536h-2.536v7.536h-2.999v-17.07h3v6.9h2.535zm15.168 7.34c.342 0 .513-.21.513-.634v-3.464c0-.227-.062-.385-.184-.475a.742.742 0 0 0-.45-.134h-1.586v4.707h1.707zm-4.706-7.34h5.023c.44 0 .854.044 1.245.133.39.09.727.236 1.011.44.284.203.512.48.683.83.171.348.256.791.256 1.328v4.194c0 .927-.248 1.671-.743 2.231-.497.562-1.256.842-2.28.842h-2.196v7.072h-2.999v-17.07zm14.536 2.951h-.488l-.878 6.95h2.17l-.805-6.95zm1.17 9.584h-2.877l-.61 4.536h-3l2.34-17.071h5.39l2.39 17.07h-3.024l-.61-4.535zm6.267-9.902h-2.487v-2.634h7.999v2.634h-2.512v14.438h-3zm12.535-2.633h3v17.07h-3v-7.536h-2.536v7.536h-2.999v-17.07h3v6.9h2.535z" fill="#595E7C"/></g></svg>