<svg width="36" height="36" xmlns="http://www.w3.org/2000/svg"><g stroke="#4C62A7" fill="none" fill-rule="evenodd"><path stroke-width="2" d="M1 1h34v34H1z"/><path d="M6 25.207a13.864 13.864 0 0 0 7.512 2.204c9.096 0 14.236-7.687 13.927-14.578a9.96 9.96 0 0 0 2.445-2.536c-.878.387-1.825.648-2.813.771a4.92 4.92 0 0 0 2.153-2.71 9.874 9.874 0 0 1-3.111 1.187A4.892 4.892 0 0 0 22.536 8c-3.162 0-5.488 2.949-4.775 6.017A13.925 13.925 0 0 1 7.663 8.892a4.912 4.912 0 0 0 1.516 6.546 4.878 4.878 0 0 1-2.22-.615c-.051 2.275 1.574 4.391 3.931 4.865a4.868 4.868 0 0 1-2.212.086 4.9 4.9 0 0 0 4.576 3.404A9.855 9.855 0 0 1 6 25.207z" stroke-width="1.2"/></g></svg>