<svg width="94" height="170" xmlns="http://www.w3.org/2000/svg"><g fill="#FFF" fill-rule="evenodd"><path d="M17.409 119.329c0-1.023-.3-1.736-.897-2.131-.6-.4-1.467-.598-2.601-.598-1.082 0-1.935.199-2.56.598-.627.395-.941 1.108-.941 2.13v37.88c0 1.027.314 1.736.942 2.135.624.399 1.477.598 2.559.598 1.134 0 2.002-.2 2.6-.598.599-.4.898-1.108.898-2.135v-12.88h10.493v14.76c0 1.592-.2 3.014-.598 4.266a6.67 6.67 0 0 1-2.132 3.154c-1.023.853-2.448 1.51-4.265 1.965-1.821.454-4.155.683-6.996.683-2.847 0-5.163-.23-6.954-.683-1.792-.454-3.2-1.112-4.226-1.965a6.652 6.652 0 0 1-2.13-3.154c-.4-1.252-.6-2.674-.6-4.266v-41.635c0-1.592.2-3.014.6-4.266a6.664 6.664 0 0 1 2.13-3.158c1.027-.85 2.434-1.503 4.226-1.961 1.79-.454 4.107-.683 6.954-.683 2.84 0 5.175.229 6.996.683 1.817.458 3.242 1.112 4.265 1.96a6.682 6.682 0 0 1 2.132 3.159c.398 1.252.598 2.674.598 4.266v14.164H17.409v-12.288zm30.711 39.585c.624 0 1.181-.155 1.665-.469.48-.31.724-.864.724-1.662v-13.31c0-.62-.229-1.064-.684-1.323-.454-.255-.908-.384-1.363-.384h-5.119v17.148h4.776zm.342-26.359c.455 0 .865-.17 1.238-.514.37-.34.554-.908.554-1.706v-10.578c0-.794-.244-1.352-.728-1.666-.483-.31-.979-.465-1.492-.465h-4.69v14.93h5.118zm-15.615-24.148h17.577c1.536 0 2.943.16 4.221.473 1.282.314 2.36.824 3.243 1.537.883.71 1.577 1.677 2.091 2.9.513 1.221.768 2.773.768 4.65v13.136c0 1.651-.429 2.888-1.282 3.712-.853.823-1.647 1.407-2.386 1.751v.594c.794.288 1.647.81 2.56 1.581.908.764 1.363 1.921 1.363 3.453v16.295c0 1.821-.255 3.357-.769 4.61-.509 1.248-1.222 2.245-2.13 2.984-.913.74-2.02 1.267-3.328 1.577-1.308.314-2.759.47-4.35.47H32.846v-59.723zm50.422 10.243c0-1.367-1.167-2.05-3.498-2.05-2.445 0-3.667.683-3.667 2.05v5.883c0 .971.099 1.71.299 2.22.199.513.469.938.809 1.277l12.967 11.86a11.758 11.758 0 0 1 2.733 3.327c.68 1.252 1.023 3.014 1.023 5.293v10.15c0 3.755-1.123 6.444-3.372 8.066-2.245 1.617-5.842 2.43-10.792 2.43-2.559 0-4.764-.174-6.611-.513-1.85-.34-3.342-.924-4.48-1.747a7.303 7.303 0 0 1-2.515-3.243c-.543-1.337-.813-3.003-.813-4.994v-13.732H75.76v12.54c0 .908.358 1.551 1.067 1.92.713.37 1.692.554 2.944.554 1.082 0 1.961-.185 2.645-.554.683-.369 1.023-1.012 1.023-1.92v-7.938c0-.794-.085-1.433-.255-1.916-.17-.484-.484-.924-.938-1.323l-12.115-10.496c-1.421-1.249-2.533-2.615-3.327-4.093-.798-1.48-1.193-3.556-1.193-6.23v-7.594c0-3.808 1.108-6.508 3.324-8.103 2.219-1.592 5.832-2.39 10.836-2.39 5.234 0 8.875.813 10.922 2.434 2.046 1.618 3.073 4.196 3.073 7.72v11.434H83.269V118.65z" fill-rule="nonzero"/><path fill="none" d="M0 0h94v94H0z"/><path d="M11.235 17.644a278.1 278.1 0 0 0 12.558 8.026l-.032-.531L16.92 9.18C15.624 6.24 14.377 3.106 13.079 0H0v12.073a4.46 4.46 0 0 1 2.14-.914c4.743-.501 5.354 4.999 9.095 6.485m29.112 52.929l-5.22-14.931-6.676-16.99-1.446-3.525-3.388-2.151-15.288-8.802c-2.248-1.715-5.592-2.16-7.313-4.334C.714 19.325.353 18.799 0 18.264V93.78h47.858l-.187-.625-7.324-22.583M29.068 27.679c.773 3.276 4.227 4.01 6.408 5.948 8.744 6.03 17.694 12.469 26.232 18.945 0 0 .184.125.46.316l-.018-.173s0-7.482.265-12.477c-.342-9.774-1.108-23.177-2.833-31.585-.993-2.396-2.141-4.66-1.769-7.04.058-.52-.03-1.063-.166-1.613H19.82c.409 1.223.817 2.452 1.236 3.662 2.653 7.945 5.161 16.09 8.012 24.017m37.794-15.546c.386 8.387.721 16.793-.582 25.189-.467 5.623-.926 11.307-1.022 16.946 0 0 .026.336.063.932.363.296.64.546.742.684l.247-.185 4.348-13.324 5.385-17.976c1.626-6.742 4.194-13.575 4.485-20.432-.596-1.188-1.185-2.615-1.174-3.967H66.457c.077 1.123.077 2.249-.125 3.36 1.188 2.902.305 5.81.53 8.773zm-4.179 53.512l-.089-7.664c-.345-.243-.677-.517-.919-.808-7.81-5.819-16.355-11.006-24.632-16.17-.607.104-.485.878-.596 1.305 2.432 15.461 8.178 30.803 12.88 46.236.61 1.75 1.03 3.497 1.537 5.237h2.644c2.664-7.97 5.246-15.72 7.847-23.795a187.88 187.88 0 0 0 1.328-4.34M88.977 0c-.04.153-.066.309-.12.469-1.645 6.382-3.507 12.64-6.336 18.91-1.894 4.27-3.307 8.94-4.719 13.344-2.465 3.726-3.984 8.109-5.665 12.338L67.66 57.134c1.004.989 2.358 1.728 3.307 2.832 7.372 5.68 14.678 11.58 21.476 17.885.423.526.827 1.097 1.327 1.529V0h-4.793M60.74 78.583a508.902 508.902 0 0 0-4.892 15.198h6.195l.728-20.127-.007-.217-2.024 5.146zm11.003-14.295c-2.185-1.523-2.185-1.518-2.649-1.876-.08-.063-.036-.055-.136-.116-.206-.122-.408-.212-.595-.337-.045-.025-.089.06-.129.037-.173-.114-.4-.309-.655-.462-.099.138-.11.64-.214.823a7.28 7.28 0 0 1-.82 1.464c-.32.882-.574 1.51-.809 2.082.011.901.015 1.811.015 2.74-.022 5.726-.732 15.476-.552 16.22 0 0-.188 5.583-.33 8.918H93.77v-14.15l-.776.015c-7.118-5.117-14.093-10.276-21.25-15.358" fill-rule="nonzero"/></g></svg>