<svg width="96" height="62" xmlns="http://www.w3.org/2000/svg"><path d="M17.593 12.074c0-1.035-.302-1.753-.905-2.156-.604-.401-1.482-.603-2.63-.603-1.094 0-1.956.202-2.588.603-.634.403-.949 1.12-.949 2.156v37.6c0 1.035.315 1.755.95 2.157.631.403 1.493.604 2.586.604 1.15 0 2.027-.201 2.631-.604.603-.402.905-1.122.905-2.156V36.997H28.2v14.575c0 1.61-.202 3.048-.604 4.312a6.734 6.734 0 0 1-2.155 3.19c-1.035.864-2.473 1.525-4.312 1.985-1.84.459-4.198.689-7.072.689-2.876 0-5.217-.23-7.029-.69-1.81-.46-3.233-1.12-4.269-1.983a6.727 6.727 0 0 1-2.155-3.191C.2 54.62 0 53.182 0 51.572V10.177c0-1.61.2-3.047.604-4.312A6.727 6.727 0 0 1 2.76 2.674C3.795 1.812 5.217 1.15 7.03.69 8.84.23 11.18 0 14.056 0c2.874 0 5.231.23 7.072.69 1.84.46 3.277 1.122 4.312 1.984a6.734 6.734 0 0 1 2.155 3.19c.402 1.266.604 2.704.604 4.313v13.97H17.593V12.075zm35.271-.69c0-1.38-1.179-2.07-3.536-2.07-2.473 0-3.708.69-3.708 2.07v5.605c0 .979.1 1.725.301 2.243.202.517.475.949.82 1.293l13.11 11.988a11.86 11.86 0 0 1 2.758 3.363c.69 1.265 1.035 3.048 1.035 5.347v9.918c0 3.794-1.136 6.51-3.406 8.149-2.273 1.639-5.908 2.458-10.91 2.458-2.587 0-4.816-.172-6.684-.517-1.869-.345-3.378-.934-4.527-1.768-1.15-.833-1.998-1.926-2.544-3.277-.547-1.351-.819-3.032-.819-5.045V37.6h10.521v12.332c0 .92.36 1.568 1.078 1.94.72.375 1.71.562 2.975.562 1.092 0 1.984-.187 2.674-.561.69-.373 1.035-1.02 1.035-1.941v-7.675c0-.805-.087-1.451-.259-1.94-.173-.488-.489-.934-.949-1.337L39.583 28.373c-1.438-1.264-2.559-2.643-3.363-4.14-.806-1.494-1.207-3.592-1.207-6.295v-7.33c0-3.851 1.121-6.583 3.363-8.193C40.618.805 44.268 0 49.328 0c5.29 0 8.97.819 11.04 2.458 2.07 1.639 3.104 4.24 3.104 7.805v11.21H52.864v-10.09zM71.06.69h24.492v9.314H81.667v15.092H95.12v9.314H81.667v17.334h13.885v9.314H71.06z" fill="#FFF"/></svg>