<?xml version="1.0" encoding="UTF-8"?>
<svg width="70px" height="70px" viewBox="0 0 70 70" version="1.1" xmlns="http://www.w3.org/2000/svg" xmlns:xlink="http://www.w3.org/1999/xlink">
    <!-- Generator: Sketch 46 (44423) - http://www.bohemiancoding.com/sketch -->
    <title>Slice</title>
    <desc>Created with Sketch.</desc>
    <defs></defs>
    <g id="Page-1" stroke="none" stroke-width="1" fill="none" fill-rule="evenodd">
        <g id="cse-logo" fill="#FFFFFF">
            <polygon id="square" points="0 0 0 70 23.3281253 70 23.3281253 65.6268459 4.37347504 65.6268459 4.37347504 4.37807645 65.626739 4.37807645 65.626739 37.5668793 70 37.5668793 70 0"></polygon>
            <g id="cse" transform="translate(30.000000, 44.000000)">
                <path d="M7.46589247,10.2907567 L7.46589247,5.24350667 C7.46589247,4.81190667 7.34051613,4.51290667 7.09019355,4.34369 C6.83965591,4.17447333 6.47384946,4.09127333 5.99922581,4.09127333 C5.5443871,4.09127333 5.18847312,4.17447333 4.9248172,4.34369 C4.66116129,4.51290667 4.53255914,4.81190667 4.53255914,5.24350667 L4.53255914,20.9561733 C4.53255914,21.3877733 4.66116129,21.6900233 4.9248172,21.85599 C5.18847312,22.0254233 5.5443871,22.1084067 5.99922581,22.1084067 C6.47384946,22.1084067 6.83965591,22.0254233 7.09019355,21.85599 C7.34051613,21.6900233 7.46589247,21.3877733 7.46589247,20.9561733 L7.46589247,15.6599733 L11.8656774,15.6599733 L11.8656774,21.7498233 C11.8656774,21.88589 11.8622366,22.0187067 11.8523441,22.1515233 C11.8261075,22.6628567 11.7469677,23.1278233 11.6151398,23.5494567 C11.4471828,24.0807233 11.1471828,24.52229 10.7187957,24.88434 C10.2904086,25.2429233 9.69363441,25.5217733 8.93234409,25.71114 C8.16782796,25.9037567 7.18890323,25.9999567 5.99922581,25.9999567 C4.80610753,25.9999567 3.83384946,25.9037567 3.08245161,25.71114 C2.33105376,25.5217733 1.74116129,25.2429233 1.31255914,24.88434 C0.884172043,24.52229 0.584172043,24.0807233 0.41944086,23.5494567 C0.284172043,23.1278233 0.205247312,22.6628567 0.182236559,22.1515233 C0.172344086,22.0187067 0.168903226,21.88589 0.168903226,21.7498233 L0.168903226,4.44985667 C0.168903226,3.77927333 0.251268817,3.17824 0.41944086,2.65022333 C0.584172043,2.12220667 0.884172043,1.67739 1.31255914,1.31534 C1.74116129,0.956756667 2.33105376,0.681156667 3.08245161,0.48854 C3.83384946,0.29614 4.80610753,0.199723333 5.99922581,0.199723333 C7.18890323,0.199723333 8.16782796,0.29614 8.93234409,0.48854 C9.69363441,0.681156667 10.2904086,0.956756667 10.7187957,1.31534 C11.1471828,1.67739 11.4471828,2.12220667 11.6151398,2.65022333 C11.780086,3.17824 11.8656774,3.77927333 11.8656774,4.44985667 L11.8656774,10.2907567 L7.46589247,10.2907567 Z" id="Fill-2"></path>
                <path d="M26.5649247,17.4232067 L26.5649247,21.5671733 C26.5649247,21.7697567 26.5582581,21.9623733 26.541914,22.1515233 C26.4363226,23.4365733 25.9750323,24.3762567 25.1509462,24.97404 C24.2083656,25.6580567 22.702129,25.9999567 20.626,25.9999567 C19.5546022,25.9999567 18.6287957,25.92694 17.854172,25.7841567 C17.0797634,25.6413733 16.4533118,25.3956733 15.9754624,25.0470567 C15.5010538,24.69844 15.1483656,24.24019 14.9208387,23.6755567 C14.7496559,23.2472067 14.6408387,22.73934 14.6010538,22.1515233 C14.5881505,21.9656233 14.5812688,21.7697567 14.5812688,21.5671733 L14.5812688,15.9089233 L18.9449247,15.9089233 L18.9449247,21.06234 C18.9449247,21.4475733 19.0933118,21.7199233 19.3930968,21.8759233 C19.689871,22.0319233 20.1016989,22.1084067 20.626,22.1084067 C21.0806237,22.1084067 21.449871,22.0319233 21.7365376,21.8759233 C22.0232043,21.7199233 22.1649247,21.4475733 22.1649247,21.06234 L22.1649247,17.8580567 C22.1649247,17.5194067 22.1287957,17.2505233 22.0561075,17.04469 C21.9870753,16.8421067 21.8552473,16.65599 21.6640645,16.4867733 L16.5853548,12.05399 C15.9885806,11.5259733 15.5238495,10.95159 15.1911613,10.3239067 C14.8550323,9.69969 14.690086,8.82305667 14.690086,7.69422333 L14.690086,4.63250667 C14.690086,3.02224 15.1548172,1.87997333 16.0842796,1.20917333 C17.0137419,0.535123333 18.529871,0.199723333 20.626,0.199723333 C22.8208387,0.199723333 24.3468602,0.541623333 25.2036344,1.22585667 C26.0638495,1.90987333 26.4922366,2.99884 26.4922366,4.48647333 L26.4922366,9.17167333 L22.0924516,9.17167333 L22.0924516,4.95469 C22.0924516,4.38030667 21.6047097,4.09127333 20.626,4.09127333 C19.6008387,4.09127333 19.089871,4.38030667 19.089871,4.95469 L19.089871,7.29902333 C19.089871,7.70744 19.1296559,8.01944 19.2152473,8.23545667 C19.2976129,8.45125667 19.409871,8.63044 19.5546022,8.77669 L24.9894409,13.7838567 C25.4672903,14.1922733 25.8496559,14.66049 26.1365376,15.1917567 C26.4197634,15.7197733 26.5649247,16.46359 26.5649247,17.4232067" id="Fill-4"></path>
                <polygon id="Fill-6" points="34.0397204 4.38024167 34.0397204 10.6858917 39.6192903 10.6858917 39.6192903 14.5774417 34.0397204 14.5774417 34.0397204 21.819525 39.7973548 21.819525 39.7973548 25.711075 29.6397204 25.711075 29.6397204 0.488691667 39.7973548 0.488691667 39.7973548 4.38024167"></polygon>
            </g>
        </g>
    </g>
</svg>