<svg width="70" height="70" xmlns="http://www.w3.org/2000/svg"><g fill="#FFF" fill-rule="evenodd"><path d="M0 0v70h23.328v-4.373H4.373V4.378h61.254v33.189H70V0z"/><path d="M37.466 54.29v-5.046c0-.432-.125-.731-.376-.9-.25-.17-.616-.253-1.09-.253-.456 0-.812.083-1.075.253-.264.169-.392.468-.392.9v15.712c0 .432.128.734.392.9.263.17.62.252 1.074.252.475 0 .84-.083 1.091-.252.25-.166.376-.468.376-.9V59.66h4.4v6.09c0 .136-.004.269-.014.402a5.641 5.641 0 0 1-.237 1.397 2.833 2.833 0 0 1-.896 1.335c-.429.359-1.025.638-1.787.827-.764.193-1.743.289-2.933.289-1.193 0-2.165-.096-2.917-.289-.75-.19-1.34-.468-1.77-.827a2.804 2.804 0 0 1-.893-1.335 5.349 5.349 0 0 1-.237-1.397 5.39 5.39 0 0 1-.013-.402v-17.3c0-.67.082-1.272.25-1.8a2.82 2.82 0 0 1 .894-1.335c.428-.358 1.018-.634 1.77-.826.75-.193 1.723-.29 2.916-.29 1.19 0 2.169.097 2.933.29.762.192 1.358.468 1.787.826.428.362.728.807.896 1.335.165.528.25 1.13.25 1.8v5.84h-4.4zm19.099 7.133v4.144c0 .203-.007.395-.023.585-.106 1.285-.567 2.224-1.391 2.822-.943.684-2.449 1.026-4.525 1.026-1.071 0-1.997-.073-2.772-.216-.774-.143-1.4-.388-1.879-.737a3.109 3.109 0 0 1-1.054-1.371c-.171-.429-.28-.937-.32-1.524a8.465 8.465 0 0 1-.02-.585V59.91h4.364v5.153c0 .386.148.658.448.814.297.156.709.232 1.233.232.455 0 .824-.076 1.11-.232.287-.156.429-.428.429-.814v-3.204c0-.339-.036-.607-.109-.813a1.32 1.32 0 0 0-.392-.558l-5.079-4.433c-.596-.528-1.061-1.102-1.394-1.73-.336-.624-.5-1.5-.5-2.63v-3.061c0-1.61.464-2.753 1.393-3.424.93-.674 2.446-1.01 4.542-1.01 2.195 0 3.72.343 4.578 1.027.86.684 1.288 1.773 1.288 3.26v4.686h-4.4v-4.217c0-.575-.487-.864-1.466-.864-1.025 0-1.536.29-1.536.864V51.3c0 .408.04.72.125.936.083.216.195.395.34.542l5.434 5.007c.478.408.86.876 1.148 1.408.283.528.428 1.272.428 2.231M64.04 48.38v6.306h5.58v3.891h-5.58v7.243h5.757v3.891H59.64V44.49h10.157v3.891z"/></g></svg>