<?xml version="1.0" encoding="UTF-8"?>
<svg width="83px" height="86px" viewBox="0 0 83 86" version="1.1" xmlns="http://www.w3.org/2000/svg" xmlns:xlink="http://www.w3.org/1999/xlink">
    <!-- Generator: Sketch 46 (44423) - http://www.bohemiancoding.com/sketch -->
    <title>CSE</title>
    <desc>Created with Sketch.</desc>
    <defs></defs>
    <g id="Page-1" stroke="none" stroke-width="1" fill="none" fill-rule="evenodd">
        <g id="CSE">
            <path d="M0,78.9604 L78.961,78.9604 L78.961,-0.0006 L0,-0.0006 L0,78.9604 Z M4.937,74.0234 L74.023,74.0234 L74.023,4.9374 L4.937,4.9374 L4.937,74.0234 Z" id="Fill-1" fill="#FFFFFF"></path>
            <polygon id="Fill-2" fill="#4C62A7" points="27.256 85.7374 82.587 85.7374 82.587 43.8204 27.256 43.8204"></polygon>
            <g id="Group-9" transform="translate(34.000000, 49.737400)" fill="#FFFFFF">
                <path d="M8.3845,6.2779 C8.3845,5.7929 8.2425,5.4559 7.9595,5.2669 C7.6765,5.0779 7.2655,4.9839 6.7265,4.9839 C6.2135,4.9839 5.8095,5.0779 5.5125,5.2669 C5.2155,5.4559 5.0675,5.7929 5.0675,6.2779 L5.0675,23.9139 C5.0675,24.3989 5.2155,24.7369 5.5125,24.9249 C5.8095,25.1139 6.2135,25.2079 6.7265,25.2079 C7.2655,25.2079 7.6765,25.1139 7.9595,24.9249 C8.2425,24.7369 8.3845,24.3989 8.3845,23.9139 L8.3845,17.9679 L13.3595,17.9679 L13.3595,24.8039 C13.3595,25.5589 13.2645,26.2329 13.0765,26.8259 C12.8875,27.4199 12.5505,27.9179 12.0655,28.3229 C11.5795,28.7269 10.9055,29.0379 10.0425,29.2529 C9.1795,29.4689 8.0745,29.5769 6.7265,29.5769 C5.3775,29.5769 4.2785,29.4689 3.4295,29.2529 C2.5795,29.0379 1.9125,28.7269 1.4275,28.3229 C0.9415,27.9179 0.6045,27.4199 0.4165,26.8259 C0.2265,26.2329 0.1325,25.5589 0.1325,24.8039 L0.1325,5.3879 C0.1325,4.6339 0.2265,3.9589 0.4165,3.3659 C0.6045,2.7729 0.9415,2.2739 1.4275,1.8689 C1.9125,1.4649 2.5795,1.1549 3.4295,0.9389 C4.2785,0.7229 5.3775,0.6149 6.7265,0.6149 C8.0745,0.6149 9.1795,0.7229 10.0425,0.9389 C10.9055,1.1549 11.5795,1.4649 12.0655,1.8689 C12.5505,2.2739 12.8875,2.7729 13.0765,3.3659 C13.2645,3.9589 13.3595,4.6339 13.3595,5.3879 L13.3595,11.9409 L8.3845,11.9409 L8.3845,6.2779 Z" id="Fill-3"></path>
                <path d="M24.9276,5.9544 C24.9276,5.3074 24.3746,4.9834 23.2696,4.9834 C22.1096,4.9834 21.5296,5.3074 21.5296,5.9544 L21.5296,8.5834 C21.5296,9.0424 21.5766,9.3924 21.6716,9.6354 C21.7656,9.8784 21.8936,10.0804 22.0556,10.2424 L28.2046,15.8644 C28.7436,16.3234 29.1746,16.8494 29.4986,17.4424 C29.8216,18.0354 29.9836,18.8714 29.9836,19.9494 L29.9836,24.6014 C29.9836,26.3814 29.4506,27.6554 28.3856,28.4234 C27.3206,29.1924 25.6156,29.5764 23.2696,29.5764 C22.0556,29.5764 21.0106,29.4964 20.1346,29.3344 C19.2576,29.1724 18.5496,28.8964 18.0106,28.5044 C17.4716,28.1144 17.0736,27.6014 16.8176,26.9674 C16.5606,26.3344 16.4336,25.5454 16.4336,24.6014 L16.4336,18.2504 L21.3686,18.2504 L21.3686,24.0354 C21.3686,24.4664 21.5366,24.7704 21.8736,24.9454 C22.2106,25.1204 22.6756,25.2084 23.2696,25.2084 C23.7816,25.2084 24.1996,25.1204 24.5236,24.9454 C24.8466,24.7704 25.0086,24.4664 25.0086,24.0354 L25.0086,20.4354 C25.0086,20.0574 24.9676,19.7544 24.8876,19.5254 C24.8066,19.2964 24.6576,19.0874 24.4426,18.8984 L18.6986,13.9234 C18.0246,13.3304 17.4986,12.6834 17.1206,11.9814 C16.7426,11.2804 16.5546,10.2964 16.5546,9.0284 L16.5546,5.5904 C16.5546,3.7844 17.0806,2.5034 18.1326,1.7474 C19.1836,0.9934 20.8956,0.6154 23.2696,0.6154 C25.7496,0.6154 27.4756,0.9994 28.4466,1.7674 C29.4176,2.5364 29.9026,3.7564 29.9026,5.4284 L29.9026,10.6874 L24.9276,10.6874 L24.9276,5.9544 Z" id="Fill-5"></path>
                <polygon id="Fill-7" points="33.4619 0.9386 44.9489 0.9386 44.9489 5.3076 38.4369 5.3076 38.4369 12.3856 44.7469 12.3856 44.7469 16.7546 38.4369 16.7546 38.4369 24.8846 44.9489 24.8846 44.9489 29.2526 33.4619 29.2526"></polygon>
            </g>
        </g>
    </g>
</svg>