<?xml version="1.0" encoding="UTF-8"?>
<svg width="273px" height="165px" viewBox="0 0 273 165" version="1.1" xmlns="http://www.w3.org/2000/svg" xmlns:xlink="http://www.w3.org/1999/xlink">
    <!-- Generator: Sketch 46 (44423) - http://www.bohemiancoding.com/sketch -->
    <title>digital-growth-path</title>
    <desc>Created with Sketch.</desc>
    <defs>
        <polygon id="path-1" points="0.6472 0.231 118.0312 0.231 118.0312 117.6088 0.6472 117.6088"></polygon>
    </defs>
    <g id="Page-1" stroke="none" stroke-width="1" fill="none" fill-rule="evenodd">
        <g id="digital-growth-path" transform="translate(0.000000, -1.000000)">
            <path d="M8.4232,156.3523 C8.7682,156.3523 8.9982,156.2813 9.1132,156.1363 C9.2292,155.9923 9.2862,155.7623 9.2862,155.4453 L9.2862,136.3103 C9.2862,135.9943 9.2292,135.7703 9.1132,135.6403 C8.9982,135.5113 8.7682,135.4463 8.4232,135.4463 L5.3132,135.4463 L5.3132,156.3523 L8.4232,156.3523 Z M0.0002,130.7813 L9.3302,130.7813 C10.4812,130.7813 11.4032,130.9193 12.0942,131.1913 C12.7852,131.4663 13.3182,131.8473 13.6932,132.3363 C14.0662,132.8263 14.3112,133.4243 14.4272,134.1293 C14.5412,134.8353 14.5992,135.6343 14.5992,136.5263 L14.5992,155.2723 C14.5992,156.1363 14.5412,156.9213 14.4272,157.6263 C14.3112,158.3323 14.0662,158.9373 13.6932,159.4413 C13.3182,159.9453 12.7852,160.3333 12.0942,160.6073 C11.4032,160.8813 10.4812,161.0173 9.3302,161.0173 L0.0002,161.0173 L0.0002,130.7813 Z" id="Fill-1" fill="#504D8B"></path>
            <path d="M18.8319,148.837 L18.8319,138.125 L23.8859,138.125 L23.8859,149.312 L23.8859,161.017 L18.8319,161.017 L18.8319,148.837 Z M18.8319,135.533 L23.8859,135.533 L23.8859,132.077 L18.8319,132.077 L18.8319,135.533 Z" id="Fill-3" fill="#504D8B"></path>
            <path d="M32.8261,152.6812 C32.8261,153.5172 33.3731,153.9332 34.4681,153.9332 C34.8421,153.9332 35.1871,153.8402 35.5041,153.6522 C35.8211,153.4662 36.0941,153.2282 36.3251,152.9402 L36.3251,143.2222 C36.0941,142.9912 35.8281,142.7682 35.5261,142.5522 C35.2231,142.3352 34.8701,142.2282 34.4681,142.2282 C33.3731,142.2282 32.8261,142.6452 32.8261,143.4802 L32.8261,152.6812 Z M27.7721,143.0482 C27.7721,141.4072 28.1761,140.1402 28.9821,139.2482 C29.7881,138.3552 30.9691,137.9092 32.5241,137.9092 C33.4451,137.9092 34.2011,138.0452 34.7911,138.3192 C35.3821,138.5922 35.8061,138.8302 36.0661,139.0312 L36.4111,139.0312 L36.4111,138.1242 L41.3351,138.1242 L41.3351,159.6782 C41.3351,161.6652 40.7741,163.1772 39.6511,164.2142 C38.5281,165.2502 36.8281,165.7692 34.5541,165.7692 C32.3941,165.7692 30.7671,165.3802 29.6731,164.6022 C28.5781,163.8252 28.0321,162.7302 28.0321,161.3202 L28.0321,159.9372 L32.9991,159.9372 L32.9991,160.5852 C32.9991,161.0752 33.1571,161.4202 33.4741,161.6222 C33.7901,161.8232 34.1801,161.9242 34.6401,161.9242 C35.1591,161.9242 35.5691,161.8232 35.8711,161.6222 C36.1741,161.4202 36.3251,160.9892 36.3251,160.3262 L36.3251,157.2162 L36.0661,157.2162 C35.8641,157.3892 35.4681,157.6052 34.8781,157.8642 C34.2871,158.1232 33.5021,158.2532 32.5241,158.2532 C30.9691,158.2532 29.7881,157.8072 28.9821,156.9132 C28.1761,156.0222 27.7721,154.7542 27.7721,153.1132 L27.7721,143.0482 Z" id="Fill-5" fill="#504D8B"></path>
            <path d="M45.2226,148.837 L45.2226,138.125 L50.2766,138.125 L50.2766,149.312 L50.2766,161.017 L45.2226,161.017 L45.2226,148.837 Z M45.2226,135.533 L50.2766,135.533 L50.2766,132.077 L45.2226,132.077 L45.2226,135.533 Z" id="Fill-8" fill="#504D8B"></path>
            <path d="M52.6518,138.1246 L55.1568,138.1246 L55.1568,130.7816 L60.2108,130.7816 L60.2108,138.1246 L62.7158,138.1246 L62.7158,142.7036 L60.2108,142.7036 L60.2108,155.4456 C60.2108,156.1086 60.5268,156.4386 61.1608,156.4386 L62.7158,156.4386 L62.7158,161.0176 L60.8148,161.0176 C58.8858,161.0176 57.4608,160.5646 56.5388,159.6566 C55.6168,158.7496 55.1568,157.4756 55.1568,155.8336 L55.1568,142.7036 L52.6518,142.7036 L52.6518,138.1246 Z" id="Fill-10" fill="#504D8B"></path>
            <path d="M73.6005,150.0889 L71.3975,151.1259 C70.9075,151.3569 70.6125,151.5509 70.5125,151.7089 C70.4115,151.8679 70.3605,152.1919 70.3605,152.6809 L70.3605,155.6619 C70.3605,156.1519 70.4825,156.4819 70.7275,156.6549 C70.9725,156.8279 71.3255,156.9139 71.7865,156.9139 C72.1315,156.9139 72.4695,156.8279 72.8015,156.6549 C73.1315,156.4819 73.3985,156.2379 73.6005,155.9209 L73.6005,150.0889 Z M78.6115,161.0169 L73.6865,161.0169 L73.6865,160.1099 L73.3415,160.1099 C73.1105,160.2829 72.7285,160.5139 72.1965,160.8009 C71.6635,161.0889 70.9075,161.2329 69.9285,161.2329 C68.3735,161.2329 67.2145,160.7869 66.4515,159.8949 C65.6885,159.0019 65.3075,157.7349 65.3075,156.0929 L65.3075,152.1629 C65.3075,151.4719 65.3935,150.8739 65.5665,150.3699 C65.7395,149.8669 65.9905,149.4269 66.3225,149.0529 C66.6525,148.6789 67.0625,148.3479 67.5535,148.0589 C68.0425,147.7709 68.6045,147.4839 69.2375,147.1949 L73.6005,145.1649 L73.6005,143.1779 C73.6005,142.8909 73.5275,142.6239 73.3845,142.3789 C73.2395,142.1349 72.8365,142.0119 72.1755,142.0119 C71.3975,142.0119 70.9365,142.1349 70.7925,142.3789 C70.6485,142.6239 70.5775,142.8909 70.5775,143.1779 L70.5775,144.8189 L65.4795,144.8189 L65.4795,142.2709 C65.4795,141.5509 65.5875,140.9039 65.8035,140.3279 C66.0195,139.7509 66.3865,139.2689 66.9055,138.8799 C67.4235,138.4909 68.1155,138.1959 68.9785,137.9949 C69.8425,137.7939 70.9225,137.6929 72.2185,137.6929 C73.4275,137.6929 74.4425,137.7999 75.2635,138.0159 C76.0835,138.2329 76.7465,138.5419 77.2495,138.9449 C77.7535,139.3489 78.1065,139.8459 78.3085,140.4349 C78.5095,141.0259 78.6115,141.6949 78.6115,142.4439 L78.6115,161.0169 Z" id="Fill-12" fill="#504D8B"></path>
            <polygon id="Fill-14" fill="#504D8B" points="82.498 130.7813 87.509 130.7813 87.509 147.6273 87.509 161.0173 82.498 161.0173 82.498 148.0593"></polygon>
            <path d="M107.809,143.783 L114.893,143.783 L114.893,160.456 C114.058,160.687 113.028,160.881 111.805,161.039 C110.58,161.197 109.321,161.276 108.025,161.276 C106.326,161.276 104.98,161.147 103.987,160.887 C102.994,160.628 102.223,160.24 101.676,159.721 C101.128,159.203 100.775,158.563 100.618,157.8 C100.459,157.037 100.38,156.152 100.38,155.143 L100.38,136.051 C100.38,135.13 100.481,134.317 100.682,133.611 C100.883,132.906 101.258,132.315 101.805,131.84 C102.352,131.365 103.094,131.012 104.03,130.781 C104.965,130.551 106.168,130.436 107.637,130.436 C109.105,130.436 110.307,130.551 111.243,130.781 C112.179,131.012 112.92,131.365 113.468,131.84 C114.014,132.315 114.389,132.906 114.591,133.611 C114.792,134.317 114.893,135.13 114.893,136.051 L114.893,140.932 L109.58,140.932 L109.58,136.396 C109.58,135.994 109.443,135.677 109.17,135.446 C108.895,135.216 108.385,135.101 107.637,135.101 C106.887,135.101 106.376,135.216 106.103,135.446 C105.83,135.677 105.693,135.994 105.693,136.396 L105.693,155.143 C105.693,155.748 105.893,156.144 106.297,156.331 C106.701,156.518 107.19,156.612 107.766,156.612 L108.803,156.612 C109.09,156.612 109.35,156.597 109.58,156.568 L109.58,148.491 L107.809,148.491 L107.809,143.783 Z" id="Fill-16" fill="#504D8B"></path>
            <path d="M128.4555,138.1246 L128.4555,142.4436 L127.2885,142.4436 C126.1945,142.4436 125.1435,142.7756 124.1365,143.4376 L124.1365,161.0176 L119.1255,161.0176 L119.1255,138.1246 L124.0495,138.1246 L124.0495,139.2046 L124.3515,139.2046 C124.5825,139.0316 124.9705,138.8096 125.5185,138.5346 C126.0645,138.2616 126.7995,138.1246 127.7215,138.1246 L128.4555,138.1246 Z" id="Fill-18" fill="#504D8B"></path>
            <path d="M139.081,143.3079 C139.081,142.8189 138.951,142.4799 138.692,142.2929 C138.434,142.1059 138.029,142.0119 137.483,142.0119 C136.907,142.0119 136.49,142.1059 136.23,142.2929 C135.971,142.4799 135.841,142.8189 135.841,143.3079 L135.841,155.7909 C135.841,156.2809 135.971,156.6269 136.23,156.8279 C136.49,157.0289 136.907,157.1299 137.483,157.1299 C138.029,157.1299 138.434,157.0289 138.692,156.8279 C138.951,156.6269 139.081,156.2809 139.081,155.7909 L139.081,143.3079 Z M130.831,142.7889 C130.831,140.8029 131.414,139.4569 132.581,138.7509 C133.747,138.0459 135.38,137.6929 137.483,137.6929 C139.556,137.6929 141.183,138.0459 142.364,138.7509 C143.544,139.4569 144.135,140.8029 144.135,142.7889 L144.135,156.3089 C144.135,157.3179 143.984,158.1519 143.682,158.8149 C143.379,159.4769 142.939,160.0019 142.364,160.3909 C141.788,160.7799 141.09,161.0539 140.269,161.2119 C139.449,161.3699 138.519,161.4499 137.483,161.4499 C136.446,161.4499 135.51,161.3699 134.675,161.2119 C133.84,161.0539 133.142,160.7799 132.581,160.3909 C132.019,160.0019 131.587,159.4769 131.284,158.8149 C130.982,158.1519 130.831,157.3179 130.831,156.3089 L130.831,142.7889 Z" id="Fill-20" fill="#504D8B"></path>
            <polygon id="Fill-22" fill="#504D8B" points="160.289 144.2581 159.857 144.2581 157.871 161.0171 150.095 161.0171 146.51 138.1241 151.65 138.1241 153.983 156.3521 154.458 156.3521 156.488 138.1241 163.745 138.1241 165.688 156.3521 166.163 156.3521 168.582 138.1241 173.68 138.1241 170.137 161.0171 162.362 161.0171"></polygon>
            <path d="M174.5429,138.1246 L177.0479,138.1246 L177.0479,130.7816 L182.1019,130.7816 L182.1019,138.1246 L184.6069,138.1246 L184.6069,142.7036 L182.1019,142.7036 L182.1019,155.4456 C182.1019,156.1086 182.4179,156.4386 183.0519,156.4386 L184.6069,156.4386 L184.6069,161.0176 L182.7069,161.0176 C180.7769,161.0176 179.3519,160.5646 178.4299,159.6566 C177.5079,158.7496 177.0479,157.4756 177.0479,155.8336 L177.0479,142.7036 L174.5429,142.7036 L174.5429,138.1246 Z" id="Fill-24" fill="#504D8B"></path>
            <path d="M187.1982,130.7813 L192.2092,130.7813 L192.2092,139.1613 L192.4252,139.1613 C192.6262,138.9603 193.0142,138.7003 193.5912,138.3843 C194.1662,138.0663 194.9442,137.9083 195.9232,137.9083 C197.4782,137.9083 198.6452,138.3553 199.4222,139.2483 C200.1992,140.1403 200.5892,141.4073 200.5892,143.0483 L200.5892,161.0173 L195.5352,161.0173 L195.5352,143.4803 C195.5352,142.6453 195.0882,142.2283 194.1962,142.2283 C193.7922,142.2283 193.4182,142.3353 193.0732,142.5523 C192.7272,142.7683 192.4392,142.9913 192.2092,143.2213 L192.2092,161.0173 L187.1982,161.0173 L187.1982,130.7813 Z" id="Fill-26" fill="#504D8B"></path>
            <path d="M221.7968,143.783 C222.4008,143.783 222.7028,143.409 222.7028,142.66 L222.7028,136.526 C222.7028,136.124 222.5948,135.842 222.3798,135.684 C222.1638,135.526 221.8968,135.446 221.5798,135.446 L218.7728,135.446 L218.7728,143.783 L221.7968,143.783 Z M213.4598,130.781 L222.3578,130.781 C223.1348,130.781 223.8688,130.861 224.5608,131.019 C225.2518,131.177 225.8488,131.437 226.3528,131.796 C226.8568,132.157 227.2608,132.646 227.5628,133.265 C227.8648,133.885 228.0168,134.669 228.0168,135.619 L228.0168,143.049 C228.0168,144.69 227.5768,146.008 226.6988,147.001 C225.8198,147.994 224.4738,148.491 222.6598,148.491 L218.7728,148.491 L218.7728,161.017 L213.4598,161.017 L213.4598,130.781 Z" id="Fill-28" fill="#504D8B"></path>
            <path d="M239.2465,150.0889 L237.0435,151.1259 C236.5535,151.3569 236.2585,151.5509 236.1585,151.7089 C236.0565,151.8679 236.0065,152.1919 236.0065,152.6809 L236.0065,155.6619 C236.0065,156.1519 236.1285,156.4819 236.3735,156.6549 C236.6185,156.8279 236.9715,156.9139 237.4325,156.9139 C237.7775,156.9139 238.1165,156.8279 238.4475,156.6549 C238.7775,156.4819 239.0445,156.2379 239.2465,155.9209 L239.2465,150.0889 Z M244.2565,161.0169 L239.3325,161.0169 L239.3325,160.1099 L238.9875,160.1099 C238.7565,160.2829 238.3755,160.5139 237.8425,160.8009 C237.3095,161.0889 236.5535,161.2329 235.5745,161.2329 C234.0195,161.2329 232.8605,160.7869 232.0975,159.8949 C231.3335,159.0019 230.9535,157.7349 230.9535,156.0929 L230.9535,152.1629 C230.9535,151.4719 231.0395,150.8739 231.2125,150.3699 C231.3845,149.8669 231.6365,149.4269 231.9685,149.0529 C232.2985,148.6789 232.7085,148.3479 233.1995,148.0589 C233.6885,147.7709 234.2505,147.4839 234.8835,147.1949 L239.2465,145.1649 L239.2465,143.1779 C239.2465,142.8909 239.1735,142.6239 239.0305,142.3789 C238.8865,142.1349 238.4825,142.0119 237.8215,142.0119 C237.0435,142.0119 236.5825,142.1349 236.4385,142.3789 C236.2945,142.6239 236.2225,142.8909 236.2225,143.1779 L236.2225,144.8189 L231.1255,144.8189 L231.1255,142.2709 C231.1255,141.5509 231.2335,140.9039 231.4495,140.3279 C231.6655,139.7509 232.0335,139.2689 232.5515,138.8799 C233.0695,138.4909 233.7615,138.1959 234.6245,137.9949 C235.4885,137.7939 236.5685,137.6929 237.8635,137.6929 C239.0735,137.6929 240.0885,137.7999 240.9085,138.0159 C241.7305,138.2329 242.3925,138.5419 242.8965,138.9449 C243.3995,139.3489 243.7525,139.8459 243.9545,140.4349 C244.1555,141.0259 244.2565,141.6949 244.2565,142.4439 L244.2565,161.0169 Z" id="Fill-30" fill="#504D8B"></path>
            <path d="M259.2875,130.7813 L264.2985,130.7813 L264.2985,139.1613 L264.5145,139.1613 C264.7155,138.9603 265.1045,138.7003 265.6805,138.3843 C266.2555,138.0663 267.0345,137.9083 268.0135,137.9083 C269.5685,137.9083 270.7345,138.3553 271.5125,139.2483 C272.2895,140.1403 272.6785,141.4073 272.6785,143.0483 L272.6785,161.0173 L267.6245,161.0173 L267.6245,143.4803 C267.6245,142.6453 267.1775,142.2283 266.2855,142.2283 C265.8825,142.2283 265.5085,142.3353 265.1625,142.5523 C264.8165,142.7683 264.5285,142.9913 264.2985,143.2213 L264.2985,161.0173 L259.2875,161.0173 L259.2875,130.7813 Z" id="Fill-34" fill="#504D8B"></path>
            <path d="M246.6322,138.1246 L249.1372,138.1246 L249.1372,130.7816 L254.1912,130.7816 L254.1912,138.1246 L256.6962,138.1246 L256.6962,142.7036 L254.1912,142.7036 L254.1912,155.4456 C254.1912,156.1086 254.5072,156.4386 255.1412,156.4386 L256.6962,156.4386 L256.6962,161.0176 L254.7962,161.0176 C252.8662,161.0176 251.4412,160.5646 250.5202,159.6566 C249.5972,158.7496 249.1372,157.4756 249.1372,155.8336 L249.1372,142.7036 L246.6322,142.7036 L246.6322,138.1246 Z" id="Fill-32" fill="#504D8B"></path>
            <g id="Group-39" transform="translate(77.000000, 0.769000)">
                <mask id="mask-2" fill="white">
                    <use xlink:href="#path-1"></use>
                </mask>
                <g id="Clip-38"></g>
                <path d="M118.0312,58.9198 C118.0312,91.2838 91.7002,117.6088 59.3422,117.6088 C26.9782,117.6088 0.6472,91.2838 0.6472,58.9198 C0.6472,26.5558 26.9782,0.2308 59.3422,0.2308 C67.7762,0.2308 75.8012,2.0178 83.0522,5.2368 C85.5532,6.3408 87.9582,7.6188 90.2602,9.0558 L89.2372,3.7638 L94.1562,2.8128 L96.8702,16.8478 L82.8392,19.5628 L81.8852,14.6438 L87.9042,13.4798 C85.6492,12.0568 83.2852,10.7968 80.8212,9.7188 C74.2412,6.8318 66.9752,5.2318 59.3422,5.2318 C29.7332,5.2318 5.6492,29.3158 5.6492,58.9198 C5.6492,88.5238 29.7332,112.6078 59.3422,112.6078 C88.9452,112.6078 113.0302,88.5238 113.0302,58.9198 C113.0302,47.2208 109.2692,36.3858 102.8902,27.5558 L106.9462,24.6328 C113.9162,34.2858 118.0312,46.1298 118.0312,58.9198" id="Fill-37" fill="#504D8B" mask="url(#mask-2)"></path>
            </g>
            <path d="M161.5316,67.4085 C161.5316,69.0605 161.0626,70.1405 160.1336,70.6485 C159.2006,71.1575 158.1206,71.4055 156.8946,71.4055 L148.8126,71.4055 L148.8126,49.4075 L156.4106,49.4075 C157.0506,49.4075 157.6756,49.4465 158.2916,49.5295 C158.9036,49.6075 159.4486,49.7935 159.9326,50.0865 C160.4126,50.3795 160.7996,50.7805 161.0916,51.2885 C161.3856,51.7955 161.5316,52.4465 161.5316,53.2475 L161.5316,67.4085 Z M124.8246,82.2145 C124.8246,83.8715 124.4916,85.0155 123.8276,85.6555 C123.1586,86.2955 121.9706,86.6185 120.2656,86.6185 L111.1476,86.6185 L111.1476,39.2575 L120.2656,39.2575 C121.9706,39.2575 123.1586,39.5755 123.8276,40.2165 C124.4916,40.8565 124.8246,41.9755 124.8246,43.5785 L124.8246,82.2145 Z M165.8506,48.8055 C165.3186,47.8725 164.6146,47.1255 163.7306,46.5685 C162.8506,46.0055 161.8396,45.6205 160.6906,45.4045 C159.5426,45.1955 158.3606,45.0875 157.1346,45.0875 L143.6916,45.0875 L143.6916,45.0935 L138.1606,45.0935 L138.1606,49.4125 L143.9216,49.4125 L143.9216,70.1305 C143.8576,70.1745 143.7836,70.2185 143.6916,70.2625 C143.2466,70.4635 142.4696,70.6245 141.3596,70.7305 C140.0266,70.8635 138.6686,70.9315 137.2806,70.9315 C136.3226,70.9315 135.4036,70.8485 134.5236,70.6875 C133.6396,70.5305 132.8676,70.2525 132.2026,69.8525 C131.5336,69.4505 131.0006,68.8795 130.6006,68.1325 C130.1996,67.3845 129.9986,66.4505 129.9986,65.3325 L129.9986,27.8095 C129.9986,26.2645 130.5216,25.0095 131.5636,24.0525 C132.6036,23.0885 134.4016,22.6095 136.9626,22.6095 C139.5236,22.6095 141.3206,23.0885 142.3616,24.0525 C143.4026,25.0095 143.9216,26.2645 143.9216,27.8095 L143.9216,35.0125 L149.0416,35.0125 L149.0416,27.0905 C149.0416,24.2125 148.0006,22.0235 145.9246,20.5295 C143.8426,19.0395 140.8516,18.2905 136.9626,18.2905 C133.0676,18.2905 130.0826,19.0395 128.0006,20.5295 C125.9246,22.0235 124.8836,24.2125 124.8836,27.0905 L124.8836,35.3635 C123.8766,35.0755 122.6596,34.9385 121.2286,34.9385 L106.0266,34.9385 L106.0266,90.9385 L121.2286,90.9385 C122.9876,90.9385 124.4236,90.7225 125.5476,90.2975 C126.6666,89.8665 127.5466,89.2555 128.1866,88.4545 C128.8256,87.6585 129.2816,86.7105 129.5446,85.6165 C129.8136,84.5215 129.9456,83.2855 129.9456,81.8975 L129.9456,74.0005 C131.8906,74.8355 134.4946,75.2505 137.7596,75.2505 C139.9536,75.2505 141.9316,75.1295 143.6916,74.8795 L143.6916,101.0875 L148.8126,101.0875 L148.8126,75.7255 L157.7736,75.7255 C160.4906,75.7255 162.6506,74.9675 164.2526,73.4485 C165.8506,71.9285 166.6526,69.8865 166.6526,67.3255 L166.6526,52.2855 C166.6526,50.9015 166.3836,49.7395 165.8506,48.8055 L165.8506,48.8055 Z" id="Fill-40" fill="#504D8B"></path>
        </g>
    </g>
</svg>