<?xml version="1.0" encoding="UTF-8"?>
<svg width="96px" height="130px" viewBox="0 0 96 130" version="1.1" xmlns="http://www.w3.org/2000/svg" xmlns:xlink="http://www.w3.org/1999/xlink">
    <!-- Generator: Sketch 46 (44423) - http://www.bohemiancoding.com/sketch -->
    <title>go-grow-logo</title>
    <desc>Created with Sketch.</desc>
    <defs>
        <path d="M1,0.0123827372 C0.34459909,3.14968882 0,6.39982082 0,9.729 C0,13.0580519 0.34459909,16.3080891 1,19.4453265 L1,0.0123827372 L1,0.0123827372 Z" id="path-1"></path>
        <path d="M47.452,0.28 C21.287,0.28 0,21.563 0,47.729 L0,47.729 C0,73.894 21.287,95.178 47.452,95.178 L47.452,95.178 C73.614,95.178 94.901,73.894 94.901,47.729 L94.901,47.729 C94.901,37.388 91.575,27.812 85.939,20.009 L85.939,20.009 L82.661,22.373 C87.818,29.511 90.858,38.271 90.858,47.729 L90.858,47.729 C90.858,71.663 71.386,91.134 47.452,91.134 L47.452,91.134 C23.515,91.134 4.044,71.663 4.044,47.729 L4.044,47.729 C4.044,23.795 23.515,4.324 47.452,4.324 L47.452,4.324 C53.625,4.324 59.498,5.617 64.817,7.952 L64.817,7.952 C66.81,8.822 68.72,9.841 70.545,10.991 L70.545,10.991 L65.678,11.933 L66.449,15.911 L77.793,13.715 L75.599,2.368 L71.621,3.136 L72.448,7.415 C70.588,6.254 68.644,5.22 66.622,4.328 L66.622,4.328 C60.759,1.725 54.271,0.28 47.452,0.28 Z" id="path-3"></path>
    </defs>
    <g id="Page-1" stroke="none" stroke-width="1" fill="none" fill-rule="evenodd">
        <g id="go-grow-logo">
            <g id="Group-5" transform="translate(24.000000, 21.720000)">
                <path d="M11.8458,24.2385 L21.4888,24.2385 L21.4888,49.4105 C19.0778,50.4515 15.7448,50.9705 11.4908,50.9705 C7.3778,50.9705 4.4468,50.2265 2.6988,48.7375 C0.9498,47.2485 0.0748,45.0855 0.0748,42.2495 L0.0748,8.2865 C0.0748,5.7335 0.9968,3.7945 2.8408,2.4725 C4.6838,1.1495 7.3308,0.4875 10.7818,0.4875 C14.2318,0.4875 16.8798,1.1495 18.7228,2.4725 C20.5668,3.7945 21.4888,5.7335 21.4888,8.2865 L21.4888,15.3055 L16.9508,15.3055 L16.9508,8.9245 C16.9508,7.5545 16.4898,6.4425 15.5678,5.5925 C14.6458,4.7415 13.0508,4.3155 10.7818,4.3155 C8.5128,4.3155 6.9178,4.7415 5.9948,5.5925 C5.0738,6.4425 4.6128,7.5545 4.6128,8.9245 L4.6128,42.1785 C4.6128,43.1705 4.7908,43.9985 5.1448,44.6605 C5.4988,45.3225 5.9708,45.8295 6.5628,46.1855 C7.1528,46.5385 7.8388,46.7885 8.6188,46.9285 C9.3988,47.0715 10.2148,47.1405 11.0648,47.1405 C12.2938,47.1405 13.4988,47.0835 14.6818,46.9645 C15.8628,46.8465 16.6198,46.6695 16.9508,46.4335 L16.9508,28.0685 L11.8458,28.0685 L11.8458,24.2385 Z" id="Fill-1" fill="#69BB89"></path>
                <path d="M35.0564,27.2175 L25.4134,27.2175 L25.4134,2.0465 C27.8244,1.0055 31.1564,0.4875 35.4104,0.4875 C39.5234,0.4875 42.4554,1.2315 44.2034,2.7185 C45.9524,4.2085 46.8264,6.3705 46.8264,9.2065 L46.8264,43.1705 C46.8264,45.7235 45.9054,47.6615 44.0614,48.9855 C42.2174,50.3085 39.5714,50.9705 36.1194,50.9705 C32.6704,50.9705 30.0224,50.3085 28.1784,48.9855 C26.3344,47.6615 25.4134,45.7235 25.4134,43.1705 L25.4134,36.1515 L29.9504,36.1515 L29.9504,42.5335 C29.9504,43.9035 30.4124,45.0155 31.3334,45.8645 C32.2554,46.7175 33.8514,47.1415 36.1194,47.1415 C38.3884,47.1415 39.9834,46.7175 40.9064,45.8645 C41.8274,45.0155 42.2884,43.9035 42.2884,42.5335 L42.2884,9.2785 C42.2884,8.2855 42.1114,7.4585 41.7564,6.7965 C41.4024,6.1345 40.9304,5.6275 40.3394,5.2725 C39.7484,4.9185 39.0624,4.6705 38.2834,4.5275 C37.5034,4.3855 36.6864,4.3155 35.8364,4.3155 C34.6074,4.3155 33.4024,4.3735 32.2204,4.4925 C31.0384,4.6095 30.2824,4.7885 29.9504,5.0245 L29.9504,23.3885 L35.0564,23.3885 L35.0564,27.2175 Z" id="Fill-3" fill="#40778E"></path>
            </g>
            <g id="Group-111" transform="translate(0.000000, -0.280000)">
                <g id="Group-8" transform="translate(0.000000, 38.000000)">
                    <mask id="mask-2" fill="white">
                        <use xlink:href="#path-1"></use>
                    </mask>
                    <g id="Clip-7"></g>
                    <path d="M0,-37.7197 L0,57.1783 L0,-37.7197 Z" id="Fill-6" fill="#69BB89" mask="url(#mask-2)"></path>
                </g>
                <mask id="mask-4" fill="white">
                    <use xlink:href="#path-3"></use>
                </mask>
                <g id="Clip-10"></g>
                <polygon id="Fill-9" fill="#69BB89" mask="url(#mask-4)" points="0 95.178 0.949 95.178 0.949 0.28 0 0.28"></polygon>
                <polygon id="Fill-11" fill="#68BB8A" mask="url(#mask-4)" points="0.949 95.178 1.898 95.178 1.898 0.28 0.949 0.28"></polygon>
                <polygon id="Fill-12" fill="#68BA8A" mask="url(#mask-4)" points="1.898 95.178 2.847 95.178 2.847 0.28 1.898 0.28"></polygon>
                <polygon id="Fill-13" fill="#67B98A" mask="url(#mask-4)" points="2.847 95.178 3.796 95.178 3.796 0.28 2.847 0.28"></polygon>
                <polygon id="Fill-14" fill="#67B88A" mask="url(#mask-4)" points="3.796 95.178 4.745 95.178 4.745 0.28 3.796 0.28"></polygon>
                <polygon id="Fill-15" fill="#66B88B" mask="url(#mask-4)" points="4.745 95.178 5.694 95.178 5.694 0.28 4.745 0.28"></polygon>
                <polygon id="Fill-16" fill="#65B78B" mask="url(#mask-4)" points="5.694 95.178 6.643 95.178 6.643 0.28 5.694 0.28"></polygon>
                <polygon id="Fill-17" fill="#65B68B" mask="url(#mask-4)" points="6.643 95.178 7.592 95.178 7.592 0.28 6.643 0.28"></polygon>
                <polygon id="Fill-18" fill="#64B68B" mask="url(#mask-4)" points="7.592 95.178 8.541 95.178 8.541 0.28 7.592 0.28"></polygon>
                <polygon id="Fill-19" fill="#64B58C" mask="url(#mask-4)" points="8.541 95.178 9.49 95.178 9.49 0.28 8.541 0.28"></polygon>
                <polygon id="Fill-20" fill="#63B48C" mask="url(#mask-4)" points="9.49 95.178 10.439 95.178 10.439 0.28 9.49 0.28"></polygon>
                <polygon id="Fill-21" fill="#63B48C" mask="url(#mask-4)" points="10.439 95.178 11.388 95.178 11.388 0.28 10.439 0.28"></polygon>
                <polygon id="Fill-22" fill="#62B38C" mask="url(#mask-4)" points="11.388 95.178 12.337 95.178 12.337 0.28 11.388 0.28"></polygon>
                <polygon id="Fill-23" fill="#62B28D" mask="url(#mask-4)" points="12.337 95.178 13.286 95.178 13.286 0.28 12.337 0.28"></polygon>
                <polygon id="Fill-24" fill="#61B18D" mask="url(#mask-4)" points="13.286 95.178 14.235 95.178 14.235 0.28 13.286 0.28"></polygon>
                <polygon id="Fill-25" fill="#61B08D" mask="url(#mask-4)" points="14.235 95.178 15.184 95.178 15.184 0.28 14.235 0.28"></polygon>
                <polygon id="Fill-26" fill="#60B08D" mask="url(#mask-4)" points="15.184 95.178 16.133 95.178 16.133 0.28 15.184 0.28"></polygon>
                <polygon id="Fill-27" fill="#60AF8D" mask="url(#mask-4)" points="16.133 95.178 17.082 95.178 17.082 0.28 16.133 0.28"></polygon>
                <polygon id="Fill-28" fill="#5FAE8D" mask="url(#mask-4)" points="17.082 95.178 18.031 95.178 18.031 0.28 17.082 0.28"></polygon>
                <polygon id="Fill-29" fill="#5FAE8E" mask="url(#mask-4)" points="18.031 95.178 18.98 95.178 18.98 0.28 18.031 0.28"></polygon>
                <polygon id="Fill-30" fill="#5EAD8E" mask="url(#mask-4)" points="18.98 95.178 19.929 95.178 19.929 0.28 18.98 0.28"></polygon>
                <polygon id="Fill-31" fill="#5EAC8E" mask="url(#mask-4)" points="19.929 95.178 20.878 95.178 20.878 0.28 19.929 0.28"></polygon>
                <polygon id="Fill-32" fill="#5DAC8E" mask="url(#mask-4)" points="20.878 95.178 21.827 95.178 21.827 0.28 20.878 0.28"></polygon>
                <polygon id="Fill-33" fill="#5DAB8E" mask="url(#mask-4)" points="21.827 95.178 22.776 95.178 22.776 0.28 21.827 0.28"></polygon>
                <polygon id="Fill-34" fill="#5DAA8E" mask="url(#mask-4)" points="22.776 95.178 23.725 95.178 23.725 0.28 22.776 0.28"></polygon>
                <polygon id="Fill-35" fill="#5CA98E" mask="url(#mask-4)" points="23.725 95.178 24.674 95.178 24.674 0.28 23.725 0.28"></polygon>
                <polygon id="Fill-36" fill="#5CA98F" mask="url(#mask-4)" points="24.674 95.178 25.623 95.178 25.623 0.28 24.674 0.28"></polygon>
                <polygon id="Fill-37" fill="#5BA88F" mask="url(#mask-4)" points="25.623 95.178 26.572 95.178 26.572 0.28 25.623 0.28"></polygon>
                <polygon id="Fill-38" fill="#5BA78F" mask="url(#mask-4)" points="26.572 95.178 27.521 95.178 27.521 0.28 26.572 0.28"></polygon>
                <polygon id="Fill-39" fill="#5AA78F" mask="url(#mask-4)" points="27.521 95.178 28.47 95.178 28.47 0.28 27.521 0.28"></polygon>
                <polygon id="Fill-40" fill="#5AA68F" mask="url(#mask-4)" points="28.47 95.178 29.419 95.178 29.419 0.28 28.47 0.28"></polygon>
                <polygon id="Fill-41" fill="#59A58F" mask="url(#mask-4)" points="29.419 95.178 30.368 95.178 30.368 0.28 29.419 0.28"></polygon>
                <polygon id="Fill-42" fill="#59A48F" mask="url(#mask-4)" points="30.368 95.178 31.317 95.178 31.317 0.28 30.368 0.28"></polygon>
                <polygon id="Fill-43" fill="#58A48F" mask="url(#mask-4)" points="31.317 95.178 32.266 95.178 32.266 0.28 31.317 0.28"></polygon>
                <polygon id="Fill-44" fill="#58A38F" mask="url(#mask-4)" points="32.266 95.178 33.215 95.178 33.215 0.28 32.266 0.28"></polygon>
                <polygon id="Fill-45" fill="#57A28F" mask="url(#mask-4)" points="33.215 95.178 34.164 95.178 34.164 0.28 33.215 0.28"></polygon>
                <polygon id="Fill-46" fill="#57A290" mask="url(#mask-4)" points="34.164 95.178 35.113 95.178 35.113 0.28 34.164 0.28"></polygon>
                <polygon id="Fill-47" fill="#56A190" mask="url(#mask-4)" points="35.113 95.178 36.062 95.178 36.062 0.28 35.113 0.28"></polygon>
                <polygon id="Fill-48" fill="#56A090" mask="url(#mask-4)" points="36.062 95.178 37.011 95.178 37.011 0.28 36.062 0.28"></polygon>
                <polygon id="Fill-49" fill="#55A090" mask="url(#mask-4)" points="37.011 95.178 37.96 95.178 37.96 0.28 37.011 0.28"></polygon>
                <polygon id="Fill-50" fill="#559F90" mask="url(#mask-4)" points="37.96 95.178 38.909 95.178 38.909 0.28 37.96 0.28"></polygon>
                <polygon id="Fill-51" fill="#549E90" mask="url(#mask-4)" points="38.909 95.178 39.858 95.178 39.858 0.28 38.909 0.28"></polygon>
                <polygon id="Fill-52" fill="#549E90" mask="url(#mask-4)" points="39.858 95.178 40.807 95.178 40.807 0.28 39.858 0.28"></polygon>
                <polygon id="Fill-53" fill="#539D90" mask="url(#mask-4)" points="40.807 95.178 41.756 95.178 41.756 0.28 40.807 0.28"></polygon>
                <polygon id="Fill-54" fill="#539C90" mask="url(#mask-4)" points="41.756 95.178 42.705 95.178 42.705 0.28 41.756 0.28"></polygon>
                <polygon id="Fill-55" fill="#539C90" mask="url(#mask-4)" points="42.705 95.178 43.654 95.178 43.654 0.28 42.705 0.28"></polygon>
                <polygon id="Fill-56" fill="#529B90" mask="url(#mask-4)" points="43.655 95.178 44.604 95.178 44.604 0.28 43.655 0.28"></polygon>
                <polygon id="Fill-57" fill="#529A90" mask="url(#mask-4)" points="44.603 95.178 45.552 95.178 45.552 0.28 44.603 0.28"></polygon>
                <polygon id="Fill-58" fill="#519A90" mask="url(#mask-4)" points="45.552 95.178 46.501 95.178 46.501 0.28 45.552 0.28"></polygon>
                <polygon id="Fill-59" fill="#519990" mask="url(#mask-4)" points="46.501 95.178 47.45 95.178 47.45 0.28 46.501 0.28"></polygon>
                <polygon id="Fill-60" fill="#509890" mask="url(#mask-4)" points="47.451 95.178 48.4 95.178 48.4 0.28 47.451 0.28"></polygon>
                <polygon id="Fill-61" fill="#509790" mask="url(#mask-4)" points="48.399 95.178 49.348 95.178 49.348 0.28 48.399 0.28"></polygon>
                <polygon id="Fill-62" fill="#4F9790" mask="url(#mask-4)" points="49.348 95.178 50.297 95.178 50.297 0.28 49.348 0.28"></polygon>
                <polygon id="Fill-63" fill="#4F9690" mask="url(#mask-4)" points="50.297 95.178 51.246 95.178 51.246 0.28 50.297 0.28"></polygon>
                <polygon id="Fill-64" fill="#4F9590" mask="url(#mask-4)" points="51.247 95.178 52.196 95.178 52.196 0.28 51.247 0.28"></polygon>
                <polygon id="Fill-65" fill="#4E9590" mask="url(#mask-4)" points="52.196 95.178 53.145 95.178 53.145 0.28 52.196 0.28"></polygon>
                <polygon id="Fill-66" fill="#4E9491" mask="url(#mask-4)" points="53.144 95.178 54.093 95.178 54.093 0.28 53.144 0.28"></polygon>
                <polygon id="Fill-67" fill="#4D9391" mask="url(#mask-4)" points="54.094 95.178 55.043 95.178 55.043 0.28 54.094 0.28"></polygon>
                <polygon id="Fill-68" fill="#4D9391" mask="url(#mask-4)" points="55.043 95.178 55.992 95.178 55.992 0.28 55.043 0.28"></polygon>
                <polygon id="Fill-69" fill="#4D9291" mask="url(#mask-4)" points="55.992 95.178 56.941 95.178 56.941 0.28 55.992 0.28"></polygon>
                <polygon id="Fill-70" fill="#4C9191" mask="url(#mask-4)" points="56.941 95.178 57.89 95.178 57.89 0.28 56.941 0.28"></polygon>
                <polygon id="Fill-71" fill="#4C9191" mask="url(#mask-4)" points="57.89 95.178 58.839 95.178 58.839 0.28 57.89 0.28"></polygon>
                <polygon id="Fill-72" fill="#4B9091" mask="url(#mask-4)" points="58.839 95.178 59.788 95.178 59.788 0.28 58.839 0.28"></polygon>
                <polygon id="Fill-73" fill="#4B8F91" mask="url(#mask-4)" points="59.788 95.178 60.737 95.178 60.737 0.28 59.788 0.28"></polygon>
                <polygon id="Fill-74" fill="#4A8F91" mask="url(#mask-4)" points="60.737 95.178 61.686 95.178 61.686 0.28 60.737 0.28"></polygon>
                <polygon id="Fill-75" fill="#4A8E90" mask="url(#mask-4)" points="61.686 95.178 62.635 95.178 62.635 0.28 61.686 0.28"></polygon>
                <polygon id="Fill-76" fill="#4A8D90" mask="url(#mask-4)" points="62.635 95.178 63.584 95.178 63.584 0.28 62.635 0.28"></polygon>
                <polygon id="Fill-77" fill="#498D90" mask="url(#mask-4)" points="63.584 95.178 64.533 95.178 64.533 0.28 63.584 0.28"></polygon>
                <polygon id="Fill-78" fill="#498C90" mask="url(#mask-4)" points="64.533 95.178 65.482 95.178 65.482 0.28 64.533 0.28"></polygon>
                <polygon id="Fill-79" fill="#498B90" mask="url(#mask-4)" points="65.482 95.178 66.431 95.178 66.431 0.28 65.482 0.28"></polygon>
                <polygon id="Fill-80" fill="#488A90" mask="url(#mask-4)" points="66.431 95.178 67.38 95.178 67.38 0.28 66.431 0.28"></polygon>
                <polygon id="Fill-81" fill="#488A90" mask="url(#mask-4)" points="67.38 95.178 68.329 95.178 68.329 0.28 67.38 0.28"></polygon>
                <polygon id="Fill-82" fill="#488990" mask="url(#mask-4)" points="68.329 95.178 69.278 95.178 69.278 0.28 68.329 0.28"></polygon>
                <polygon id="Fill-83" fill="#478890" mask="url(#mask-4)" points="69.278 95.178 70.227 95.178 70.227 0.28 69.278 0.28"></polygon>
                <polygon id="Fill-84" fill="#478890" mask="url(#mask-4)" points="70.227 95.178 71.176 95.178 71.176 0.28 70.227 0.28"></polygon>
                <polygon id="Fill-85" fill="#478790" mask="url(#mask-4)" points="71.176 95.178 72.125 95.178 72.125 0.28 71.176 0.28"></polygon>
                <polygon id="Fill-86" fill="#468690" mask="url(#mask-4)" points="72.125 95.178 73.074 95.178 73.074 0.28 72.125 0.28"></polygon>
                <polygon id="Fill-87" fill="#468690" mask="url(#mask-4)" points="73.074 95.178 74.023 95.178 74.023 0.28 73.074 0.28"></polygon>
                <polygon id="Fill-88" fill="#468590" mask="url(#mask-4)" points="74.023 95.178 74.972 95.178 74.972 0.28 74.023 0.28"></polygon>
                <polygon id="Fill-89" fill="#458490" mask="url(#mask-4)" points="74.972 95.178 75.921 95.178 75.921 0.28 74.972 0.28"></polygon>
                <polygon id="Fill-90" fill="#458490" mask="url(#mask-4)" points="75.921 95.178 76.87 95.178 76.87 0.28 75.921 0.28"></polygon>
                <polygon id="Fill-91" fill="#458390" mask="url(#mask-4)" points="76.87 95.178 77.819 95.178 77.819 0.28 76.87 0.28"></polygon>
                <polygon id="Fill-92" fill="#448290" mask="url(#mask-4)" points="77.819 95.178 78.768 95.178 78.768 0.28 77.819 0.28"></polygon>
                <polygon id="Fill-93" fill="#44828F" mask="url(#mask-4)" points="78.768 95.178 79.717 95.178 79.717 0.28 78.768 0.28"></polygon>
                <polygon id="Fill-94" fill="#44818F" mask="url(#mask-4)" points="79.717 95.178 80.666 95.178 80.666 0.28 79.717 0.28"></polygon>
                <polygon id="Fill-95" fill="#43808F" mask="url(#mask-4)" points="80.666 95.178 81.615 95.178 81.615 0.28 80.666 0.28"></polygon>
                <polygon id="Fill-96" fill="#43808F" mask="url(#mask-4)" points="81.615 95.178 82.564 95.178 82.564 0.28 81.615 0.28"></polygon>
                <polygon id="Fill-97" fill="#437F8F" mask="url(#mask-4)" points="82.564 95.178 83.513 95.178 83.513 0.28 82.564 0.28"></polygon>
                <polygon id="Fill-98" fill="#437E8F" mask="url(#mask-4)" points="83.513 95.178 84.462 95.178 84.462 0.28 83.513 0.28"></polygon>
                <polygon id="Fill-99" fill="#427D8F" mask="url(#mask-4)" points="84.462 95.178 85.411 95.178 85.411 0.28 84.462 0.28"></polygon>
                <polygon id="Fill-100" fill="#427D8F" mask="url(#mask-4)" points="85.411 95.178 86.36 95.178 86.36 0.28 85.411 0.28"></polygon>
                <polygon id="Fill-101" fill="#427C8F" mask="url(#mask-4)" points="86.36 95.178 87.309 95.178 87.309 0.28 86.36 0.28"></polygon>
                <polygon id="Fill-102" fill="#427B8F" mask="url(#mask-4)" points="87.309 95.178 88.258 95.178 88.258 0.28 87.309 0.28"></polygon>
                <polygon id="Fill-103" fill="#417B8E" mask="url(#mask-4)" points="88.258 95.178 89.207 95.178 89.207 0.28 88.258 0.28"></polygon>
                <polygon id="Fill-104" fill="#417A8E" mask="url(#mask-4)" points="89.207 95.178 90.156 95.178 90.156 0.28 89.207 0.28"></polygon>
                <polygon id="Fill-105" fill="#41798E" mask="url(#mask-4)" points="90.156 95.178 91.105 95.178 91.105 0.28 90.156 0.28"></polygon>
                <polygon id="Fill-106" fill="#41798E" mask="url(#mask-4)" points="91.105 95.178 92.054 95.178 92.054 0.28 91.105 0.28"></polygon>
                <polygon id="Fill-107" fill="#40788E" mask="url(#mask-4)" points="92.054 95.178 93.003 95.178 93.003 0.28 92.054 0.28"></polygon>
                <polygon id="Fill-108" fill="#40778E" mask="url(#mask-4)" points="93.003 95.178 93.952 95.178 93.952 0.28 93.003 0.28"></polygon>
                <polygon id="Fill-109" fill="#40778E" mask="url(#mask-4)" points="93.952 95.178 94.901 95.178 94.901 0.28 93.952 0.28"></polygon>
                <path d="M94.901,95.178 L94.901,0.28 L94.901,95.178 Z" id="Fill-110" fill="#40778E" mask="url(#mask-4)"></path>
            </g>
            <g id="Group-124" transform="translate(0.000000, 103.720000)">
                <path d="M6.4192,11.717 L12.1462,11.717 L12.1462,25.196 C11.4702,25.383 10.6382,25.54 9.6492,25.668 C8.6592,25.795 7.6412,25.86 6.5942,25.86 C5.2192,25.86 4.1322,25.755 3.3282,25.545 C2.5252,25.336 1.9022,25.022 1.4602,24.603 C1.0182,24.184 0.7322,23.666 0.6042,23.049 C0.4762,22.432 0.4132,21.717 0.4132,20.901 L0.4132,5.466 C0.4132,4.721 0.4942,4.064 0.6572,3.493 C0.8202,2.923 1.1222,2.445 1.5652,2.061 C2.0072,1.677 2.6072,1.392 3.3632,1.206 C4.1192,1.019 5.0922,0.926 6.2792,0.926 C7.4662,0.926 8.4382,1.019 9.1952,1.206 C9.9512,1.392 10.5512,1.677 10.9942,2.061 C11.4352,2.445 11.7382,2.923 11.9012,3.493 C12.0642,4.064 12.1462,4.721 12.1462,5.466 L12.1462,9.412 L7.8512,9.412 L7.8512,5.745 C7.8512,5.42 7.7402,5.164 7.5192,4.977 C7.2972,4.791 6.8842,4.697 6.2792,4.697 C5.6742,4.697 5.2602,4.791 5.0392,4.977 C4.8182,5.164 4.7082,5.42 4.7082,5.745 L4.7082,20.901 C4.7082,21.39 4.8702,21.71 5.1962,21.862 C5.5222,22.013 5.9182,22.089 6.3842,22.089 L7.2222,22.089 C7.4542,22.089 7.6642,22.077 7.8512,22.053 L7.8512,15.524 L6.4192,15.524 L6.4192,11.717 Z" id="Fill-112" fill="#69BB89"></path>
                <path d="M22.2377,11.333 C22.2377,10.937 22.1327,10.664 21.9237,10.512 C21.7147,10.361 21.3877,10.285 20.9457,10.285 C20.4797,10.285 20.1427,10.361 19.9327,10.512 C19.7237,10.664 19.6187,10.937 19.6187,11.333 L19.6187,21.425 C19.6187,21.822 19.7237,22.101 19.9327,22.263 C20.1427,22.426 20.4797,22.508 20.9457,22.508 C21.3877,22.508 21.7147,22.426 21.9237,22.263 C22.1327,22.101 22.2377,21.822 22.2377,21.425 L22.2377,11.333 Z M15.5677,10.914 C15.5677,9.308 16.0397,8.219 16.9827,7.648 C17.9247,7.078 19.2457,6.793 20.9457,6.793 C22.6217,6.793 23.9367,7.078 24.8917,7.648 C25.8457,8.219 26.3237,9.308 26.3237,10.914 L26.3237,21.844 C26.3237,22.659 26.2017,23.334 25.9567,23.87 C25.7127,24.406 25.3577,24.83 24.8917,25.144 C24.4257,25.459 23.8617,25.68 23.1987,25.808 C22.5347,25.935 21.7837,26 20.9457,26 C20.1077,26 19.3507,25.935 18.6757,25.808 C18.0007,25.68 17.4357,25.459 16.9827,25.144 C16.5287,24.83 16.1787,24.406 15.9347,23.87 C15.6897,23.334 15.5677,22.659 15.5677,21.844 L15.5677,10.914 Z" id="Fill-114" fill="#69BB89"></path>
                <path d="M42.7359,11.717 L48.4629,11.717 L48.4629,25.196 C47.7879,25.383 46.9549,25.54 45.9669,25.668 C44.9769,25.795 43.9589,25.86 42.9109,25.86 C41.5369,25.86 40.4489,25.755 39.6459,25.545 C38.8429,25.336 38.2189,25.022 37.7769,24.603 C37.3349,24.184 37.0499,23.666 36.9219,23.049 C36.7929,22.432 36.7299,21.717 36.7299,20.901 L36.7299,5.466 C36.7299,4.721 36.8109,4.064 36.9739,3.493 C37.1369,2.923 37.4399,2.445 37.8819,2.061 C38.3239,1.677 38.9239,1.392 39.6799,1.206 C40.4369,1.019 41.4089,0.926 42.5969,0.926 C43.7839,0.926 44.7559,1.019 45.5119,1.206 C46.2689,1.392 46.8689,1.677 47.3109,2.061 C47.7529,2.445 48.0559,2.923 48.2189,3.493 C48.3809,4.064 48.4629,4.721 48.4629,5.466 L48.4629,9.412 L44.1679,9.412 L44.1679,5.745 C44.1679,5.42 44.0569,5.164 43.8369,4.977 C43.6149,4.791 43.2019,4.697 42.5969,4.697 C41.9909,4.697 41.5779,4.791 41.3569,4.977 C41.1359,5.164 41.0249,5.42 41.0249,5.745 L41.0249,20.901 C41.0249,21.39 41.1869,21.71 41.5139,21.862 C41.8399,22.013 42.2359,22.089 42.7019,22.089 L43.5389,22.089 C43.7719,22.089 43.9819,22.077 44.1679,22.053 L44.1679,15.524 L42.7359,15.524 L42.7359,11.717 Z" id="Fill-116" fill="#40778E"></path>
                <path d="M59.4283,7.1423 L59.4283,10.6343 L58.4853,10.6343 C57.6003,10.6343 56.7503,10.9023 55.9363,11.4373 L55.9363,25.6503 L51.8853,25.6503 L51.8853,7.1423 L55.8653,7.1423 L55.8653,8.0153 L56.1103,8.0153 C56.2963,7.8753 56.6113,7.6953 57.0533,7.4743 C57.4953,7.2533 58.0893,7.1423 58.8343,7.1423 L59.4283,7.1423 Z" id="Fill-118" fill="#40778E"></path>
                <path d="M68.0187,11.333 C68.0187,10.937 67.9137,10.664 67.7047,10.512 C67.4947,10.361 67.1687,10.285 66.7267,10.285 C66.2607,10.285 65.9237,10.361 65.7137,10.512 C65.5047,10.664 65.3997,10.937 65.3997,11.333 L65.3997,21.425 C65.3997,21.822 65.5047,22.101 65.7137,22.263 C65.9237,22.426 66.2607,22.508 66.7267,22.508 C67.1687,22.508 67.4947,22.426 67.7047,22.263 C67.9137,22.101 68.0187,21.822 68.0187,21.425 L68.0187,11.333 Z M61.3487,10.914 C61.3487,9.308 61.8197,8.219 62.7637,7.648 C63.7057,7.078 65.0267,6.793 66.7267,6.793 C68.4027,6.793 69.7177,7.078 70.6727,7.648 C71.6267,8.219 72.1047,9.308 72.1047,10.914 L72.1047,21.844 C72.1047,22.659 71.9827,23.334 71.7377,23.87 C71.4937,24.406 71.1387,24.83 70.6727,25.144 C70.2067,25.459 69.6427,25.68 68.9797,25.808 C68.3157,25.935 67.5647,26 66.7267,26 C65.8887,26 65.1317,25.935 64.4567,25.808 C63.7817,25.68 63.2167,25.459 62.7637,25.144 C62.3087,24.83 61.9597,24.406 61.7147,23.87 C61.4707,23.334 61.3487,22.659 61.3487,21.844 L61.3487,10.914 Z" id="Fill-120" fill="#40778E"></path>
                <polygon id="Fill-122" fill="#40778E" points="85.1648 12.1011 84.8158 12.1011 83.2088 25.6501 76.9238 25.6501 74.0248 7.1421 78.1808 7.1421 80.0658 21.8791 80.4508 21.8791 82.0918 7.1421 87.9588 7.1421 89.5298 21.8791 89.9138 21.8791 91.8698 7.1421 95.9898 7.1421 93.1268 25.6501 86.8408 25.6501"></polygon>
            </g>
        </g>
    </g>
</svg>