<?xml version="1.0" encoding="UTF-8"?>
<svg width="119px" height="161px" viewBox="0 0 119 161" version="1.1" xmlns="http://www.w3.org/2000/svg" xmlns:xlink="http://www.w3.org/1999/xlink">
    <!-- Generator: Sketch 46 (44423) - http://www.bohemiancoding.com/sketch -->
    <title>go-grow</title>
    <desc>Created with Sketch.</desc>
    <defs>
        <path d="M1,0.417901434 C0.343410894,3.92634729 0,7.54378508 0,11.24 C0,14.9359865 0.343410894,18.553235 1,22.0615248 L1,0.417901434 L1,0.417901434 Z" id="path-1"></path>
        <path d="M58.693,0.55 C26.33,0.55 0,26.875 0,59.24 L0,59.24 C0,91.603 26.33,117.929 58.693,117.929 L58.693,117.929 C91.053,117.929 117.383,91.603 117.383,59.24 L117.383,59.24 C117.383,46.449 113.269,34.604 106.298,24.952 L106.298,24.952 L102.243,27.876 C108.622,36.705 112.381,47.541 112.381,59.24 L112.381,59.24 C112.381,88.842 88.297,112.927 58.693,112.927 L58.693,112.927 C29.085,112.927 5.001,88.842 5.001,59.24 L5.001,59.24 C5.001,29.635 29.085,5.551 58.693,5.551 L58.693,5.551 C66.328,5.551 73.593,7.151 80.172,10.038 L80.172,10.038 C82.637,11.116 85.001,12.376 87.257,13.799 L87.257,13.799 L81.237,14.962 L82.191,19.883 L96.223,17.167 L93.508,3.133 L88.589,4.082 L89.611,9.375 C87.311,7.938 84.906,6.661 82.405,5.556 L82.405,5.556 C75.154,2.337 67.128,0.55 58.693,0.55 Z" id="path-3"></path>
        <polygon id="path-5" points="0.2559 24 13.5599 24 13.5599 0.2432 0.2559 0.2432 0.2559 24"></polygon>
        <polygon id="path-7" points="0.8824 24 14.1864 24 14.1864 0.2432 0.8824 0.2432 0.8824 24"></polygon>
        <polygon id="path-9" points="27.73 23.5674 27.73 0.6744 0.5614 0.6744 0.5614 23.5674 27.73 23.5674"></polygon>
    </defs>
    <g id="Page-1" stroke="none" stroke-width="1" fill="none" fill-rule="evenodd">
        <g id="go-grow">
            <g id="Group-5" transform="translate(29.000000, 27.450000)">
                <path d="M15.3374,29.3956 L27.2644,29.3956 L27.2644,60.5306 C24.2824,61.8176 20.1604,62.4596 14.8994,62.4596 C9.8114,62.4596 6.1854,61.5396 4.0234,59.6976 C1.8594,57.8566 0.7784,55.1816 0.7784,51.6726 L0.7784,9.6646 C0.7784,6.5066 1.9184,4.1086 4.1984,2.4736 C6.4794,0.8366 9.7524,0.0176 14.0214,0.0176 C18.2894,0.0176 21.5634,0.8366 23.8434,2.4736 C26.1244,4.1086 27.2644,6.5066 27.2644,9.6646 L27.2644,18.3466 L21.6514,18.3466 L21.6514,10.4526 C21.6514,8.7586 21.0824,7.3836 19.9414,6.3316 C18.8004,5.2806 16.8284,4.7526 14.0214,4.7526 C11.2144,4.7526 9.2424,5.2806 8.1014,6.3316 C6.9614,7.3836 6.3904,8.7586 6.3904,10.4526 L6.3904,51.5856 C6.3904,52.8126 6.6104,53.8366 7.0484,54.6546 C7.4874,55.4736 8.0704,56.1016 8.8034,56.5416 C9.5334,56.9786 10.3814,57.2876 11.3464,57.4606 C12.3114,57.6366 13.3194,57.7236 14.3714,57.7236 C15.8914,57.7236 17.3824,57.6526 18.8454,57.5056 C20.3064,57.3596 21.2424,57.1406 21.6514,56.8486 L21.6514,34.1336 L15.3374,34.1336 L15.3374,29.3956 Z" id="Fill-1" fill="#69BB89"></path>
                <path d="M44.0469,33.0802 L32.1189,33.0802 L32.1189,1.9462 C35.1019,0.6592 39.2229,0.0172 44.4839,0.0172 C49.5719,0.0172 53.1979,0.9382 55.3599,2.7782 C57.5249,4.6202 58.6059,7.2942 58.6059,10.8032 L58.6059,52.8132 C58.6059,55.9702 57.4659,58.3672 55.1859,60.0042 C52.9039,61.6412 49.6309,62.4602 45.3619,62.4602 C41.0949,62.4602 37.8199,61.6412 35.5399,60.0042 C33.2589,58.3672 32.1189,55.9702 32.1189,52.8132 L32.1189,44.1312 L37.7309,44.1312 L37.7309,52.0242 C37.7309,53.7192 38.3019,55.0942 39.4429,56.1452 C40.5829,57.2002 42.5559,57.7242 45.3619,57.7242 C48.1679,57.7242 50.1409,57.2002 51.2829,56.1452 C52.4219,55.0942 52.9919,53.7192 52.9919,52.0242 L52.9919,10.8922 C52.9919,9.6632 52.7739,8.6402 52.3339,7.8222 C51.8959,7.0022 51.3119,6.3752 50.5809,5.9362 C49.8499,5.4982 49.0019,5.1912 48.0379,5.0152 C47.0729,4.8402 46.0639,4.7532 45.0109,4.7532 C43.4909,4.7532 42.0009,4.8242 40.5389,4.9722 C39.0769,5.1172 38.1409,5.3382 37.7309,5.6302 L37.7309,28.3442 L44.0469,28.3442 L44.0469,33.0802 Z" id="Fill-3" fill="#40778E"></path>
            </g>
            <g id="Group-111" transform="translate(0.000000, -0.550000)">
                <g id="Group-8" transform="translate(0.000000, 48.000000)">
                    <mask id="mask-2" fill="white">
                        <use xlink:href="#path-1"></use>
                    </mask>
                    <g id="Clip-7"></g>
                    <path d="M0,-47.4501 L0,69.9289 L0,-47.4501 Z" id="Fill-6" fill="#69BB89" mask="url(#mask-2)"></path>
                </g>
                <mask id="mask-4" fill="white">
                    <use xlink:href="#path-3"></use>
                </mask>
                <g id="Clip-10"></g>
                <polygon id="Fill-9" fill="#69BB89" mask="url(#mask-4)" points="0 117.929 1.174 117.929 1.174 0.55 0 0.55"></polygon>
                <polygon id="Fill-11" fill="#68BB8A" mask="url(#mask-4)" points="1.174 117.929 2.348 117.929 2.348 0.55 1.174 0.55"></polygon>
                <polygon id="Fill-12" fill="#68BA8A" mask="url(#mask-4)" points="2.348 117.929 3.522 117.929 3.522 0.55 2.348 0.55"></polygon>
                <polygon id="Fill-13" fill="#67B98A" mask="url(#mask-4)" points="3.521 117.929 4.695 117.929 4.695 0.55 3.521 0.55"></polygon>
                <polygon id="Fill-14" fill="#67B88A" mask="url(#mask-4)" points="4.695 117.929 5.869 117.929 5.869 0.55 4.695 0.55"></polygon>
                <polygon id="Fill-15" fill="#66B88B" mask="url(#mask-4)" points="5.869 117.929 7.043 117.929 7.043 0.55 5.869 0.55"></polygon>
                <polygon id="Fill-16" fill="#65B78B" mask="url(#mask-4)" points="7.043 117.929 8.217 117.929 8.217 0.55 7.043 0.55"></polygon>
                <polygon id="Fill-17" fill="#65B68B" mask="url(#mask-4)" points="8.217 117.929 9.391 117.929 9.391 0.55 8.217 0.55"></polygon>
                <polygon id="Fill-18" fill="#64B68B" mask="url(#mask-4)" points="9.39 117.929 10.564 117.929 10.564 0.55 9.39 0.55"></polygon>
                <polygon id="Fill-19" fill="#64B58C" mask="url(#mask-4)" points="10.564 117.929 11.738 117.929 11.738 0.55 10.564 0.55"></polygon>
                <polygon id="Fill-20" fill="#63B48C" mask="url(#mask-4)" points="11.738 117.929 12.912 117.929 12.912 0.55 11.738 0.55"></polygon>
                <polygon id="Fill-21" fill="#63B48C" mask="url(#mask-4)" points="12.912 117.929 14.086 117.929 14.086 0.55 12.912 0.55"></polygon>
                <polygon id="Fill-22" fill="#62B38C" mask="url(#mask-4)" points="14.086 117.929 15.26 117.929 15.26 0.55 14.086 0.55"></polygon>
                <polygon id="Fill-23" fill="#62B28D" mask="url(#mask-4)" points="15.26 117.929 16.434 117.929 16.434 0.55 15.26 0.55"></polygon>
                <polygon id="Fill-24" fill="#61B18D" mask="url(#mask-4)" points="16.433 117.929 17.607 117.929 17.607 0.55 16.433 0.55"></polygon>
                <polygon id="Fill-25" fill="#61B08D" mask="url(#mask-4)" points="17.607 117.929 18.781 117.929 18.781 0.55 17.607 0.55"></polygon>
                <polygon id="Fill-26" fill="#60B08D" mask="url(#mask-4)" points="18.781 117.929 19.955 117.929 19.955 0.55 18.781 0.55"></polygon>
                <polygon id="Fill-27" fill="#60AF8D" mask="url(#mask-4)" points="19.955 117.929 21.129 117.929 21.129 0.55 19.955 0.55"></polygon>
                <polygon id="Fill-28" fill="#5FAE8D" mask="url(#mask-4)" points="21.129 117.929 22.303 117.929 22.303 0.55 21.129 0.55"></polygon>
                <polygon id="Fill-29" fill="#5FAE8E" mask="url(#mask-4)" points="22.303 117.929 23.477 117.929 23.477 0.55 22.303 0.55"></polygon>
                <polygon id="Fill-30" fill="#5EAD8E" mask="url(#mask-4)" points="23.476 117.929 24.65 117.929 24.65 0.55 23.476 0.55"></polygon>
                <polygon id="Fill-31" fill="#5EAC8E" mask="url(#mask-4)" points="24.65 117.929 25.824 117.929 25.824 0.55 24.65 0.55"></polygon>
                <polygon id="Fill-32" fill="#5DAC8E" mask="url(#mask-4)" points="25.824 117.929 26.998 117.929 26.998 0.55 25.824 0.55"></polygon>
                <polygon id="Fill-33" fill="#5DAB8E" mask="url(#mask-4)" points="26.998 117.929 28.172 117.929 28.172 0.55 26.998 0.55"></polygon>
                <polygon id="Fill-34" fill="#5DAA8E" mask="url(#mask-4)" points="28.172 117.929 29.346 117.929 29.346 0.55 28.172 0.55"></polygon>
                <polygon id="Fill-35" fill="#5CA98E" mask="url(#mask-4)" points="29.346 117.929 30.52 117.929 30.52 0.55 29.346 0.55"></polygon>
                <polygon id="Fill-36" fill="#5CA98F" mask="url(#mask-4)" points="30.519 117.929 31.693 117.929 31.693 0.55 30.519 0.55"></polygon>
                <polygon id="Fill-37" fill="#5BA88F" mask="url(#mask-4)" points="31.693 117.929 32.867 117.929 32.867 0.55 31.693 0.55"></polygon>
                <polygon id="Fill-38" fill="#5BA78F" mask="url(#mask-4)" points="32.867 117.929 34.041 117.929 34.041 0.55 32.867 0.55"></polygon>
                <polygon id="Fill-39" fill="#5AA78F" mask="url(#mask-4)" points="34.041 117.929 35.215 117.929 35.215 0.55 34.041 0.55"></polygon>
                <polygon id="Fill-40" fill="#5AA68F" mask="url(#mask-4)" points="35.215 117.929 36.389 117.929 36.389 0.55 35.215 0.55"></polygon>
                <polygon id="Fill-41" fill="#59A58F" mask="url(#mask-4)" points="36.389 117.929 37.563 117.929 37.563 0.55 36.389 0.55"></polygon>
                <polygon id="Fill-42" fill="#59A48F" mask="url(#mask-4)" points="37.562 117.929 38.736 117.929 38.736 0.55 37.562 0.55"></polygon>
                <polygon id="Fill-43" fill="#58A48F" mask="url(#mask-4)" points="38.736 117.929 39.91 117.929 39.91 0.55 38.736 0.55"></polygon>
                <polygon id="Fill-44" fill="#58A38F" mask="url(#mask-4)" points="39.91 117.929 41.084 117.929 41.084 0.55 39.91 0.55"></polygon>
                <polygon id="Fill-45" fill="#57A28F" mask="url(#mask-4)" points="41.084 117.929 42.258 117.929 42.258 0.55 41.084 0.55"></polygon>
                <polygon id="Fill-46" fill="#57A290" mask="url(#mask-4)" points="42.258 117.929 43.432 117.929 43.432 0.55 42.258 0.55"></polygon>
                <polygon id="Fill-47" fill="#56A190" mask="url(#mask-4)" points="43.432 117.929 44.606 117.929 44.606 0.55 43.432 0.55"></polygon>
                <polygon id="Fill-48" fill="#56A090" mask="url(#mask-4)" points="44.605 117.929 45.779 117.929 45.779 0.55 44.605 0.55"></polygon>
                <polygon id="Fill-49" fill="#55A090" mask="url(#mask-4)" points="45.779 117.929 46.953 117.929 46.953 0.55 45.779 0.55"></polygon>
                <polygon id="Fill-50" fill="#559F90" mask="url(#mask-4)" points="46.953 117.929 48.127 117.929 48.127 0.55 46.953 0.55"></polygon>
                <polygon id="Fill-51" fill="#549E90" mask="url(#mask-4)" points="48.127 117.929 49.301 117.929 49.301 0.55 48.127 0.55"></polygon>
                <polygon id="Fill-52" fill="#549E90" mask="url(#mask-4)" points="49.301 117.929 50.475 117.929 50.475 0.55 49.301 0.55"></polygon>
                <polygon id="Fill-53" fill="#539D90" mask="url(#mask-4)" points="50.474 117.929 51.648 117.929 51.648 0.55 50.474 0.55"></polygon>
                <polygon id="Fill-54" fill="#539C90" mask="url(#mask-4)" points="51.648 117.929 52.822 117.929 52.822 0.55 51.648 0.55"></polygon>
                <polygon id="Fill-55" fill="#539C90" mask="url(#mask-4)" points="52.822 117.929 53.996 117.929 53.996 0.55 52.822 0.55"></polygon>
                <polygon id="Fill-56" fill="#529B90" mask="url(#mask-4)" points="53.996 117.929 55.17 117.929 55.17 0.55 53.996 0.55"></polygon>
                <polygon id="Fill-57" fill="#529A90" mask="url(#mask-4)" points="55.17 117.929 56.344 117.929 56.344 0.55 55.17 0.55"></polygon>
                <polygon id="Fill-58" fill="#519A90" mask="url(#mask-4)" points="56.344 117.929 57.518 117.929 57.518 0.55 56.344 0.55"></polygon>
                <polygon id="Fill-59" fill="#519990" mask="url(#mask-4)" points="57.517 117.929 58.691 117.929 58.691 0.55 57.517 0.55"></polygon>
                <polygon id="Fill-60" fill="#509890" mask="url(#mask-4)" points="58.691 117.929 59.865 117.929 59.865 0.55 58.691 0.55"></polygon>
                <polygon id="Fill-61" fill="#509790" mask="url(#mask-4)" points="59.865 117.929 61.039 117.929 61.039 0.55 59.865 0.55"></polygon>
                <polygon id="Fill-62" fill="#4F9790" mask="url(#mask-4)" points="61.039 117.929 62.213 117.929 62.213 0.55 61.039 0.55"></polygon>
                <polygon id="Fill-63" fill="#4F9690" mask="url(#mask-4)" points="62.213 117.929 63.387 117.929 63.387 0.55 62.213 0.55"></polygon>
                <polygon id="Fill-64" fill="#4F9590" mask="url(#mask-4)" points="63.387 117.929 64.561 117.929 64.561 0.55 63.387 0.55"></polygon>
                <polygon id="Fill-65" fill="#4E9590" mask="url(#mask-4)" points="64.56 117.929 65.734 117.929 65.734 0.55 64.56 0.55"></polygon>
                <polygon id="Fill-66" fill="#4E9491" mask="url(#mask-4)" points="65.734 117.929 66.908 117.929 66.908 0.55 65.734 0.55"></polygon>
                <polygon id="Fill-67" fill="#4D9391" mask="url(#mask-4)" points="66.908 117.929 68.082 117.929 68.082 0.55 66.908 0.55"></polygon>
                <polygon id="Fill-68" fill="#4D9391" mask="url(#mask-4)" points="68.082 117.929 69.256 117.929 69.256 0.55 68.082 0.55"></polygon>
                <polygon id="Fill-69" fill="#4D9291" mask="url(#mask-4)" points="69.256 117.929 70.43 117.929 70.43 0.55 69.256 0.55"></polygon>
                <polygon id="Fill-70" fill="#4C9191" mask="url(#mask-4)" points="70.43 117.929 71.604 117.929 71.604 0.55 70.43 0.55"></polygon>
                <polygon id="Fill-71" fill="#4C9191" mask="url(#mask-4)" points="71.603 117.929 72.777 117.929 72.777 0.55 71.603 0.55"></polygon>
                <polygon id="Fill-72" fill="#4B9091" mask="url(#mask-4)" points="72.777 117.929 73.951 117.929 73.951 0.55 72.777 0.55"></polygon>
                <polygon id="Fill-73" fill="#4B8F91" mask="url(#mask-4)" points="73.951 117.929 75.125 117.929 75.125 0.55 73.951 0.55"></polygon>
                <polygon id="Fill-74" fill="#4A8F91" mask="url(#mask-4)" points="75.125 117.929 76.299 117.929 76.299 0.55 75.125 0.55"></polygon>
                <polygon id="Fill-75" fill="#4A8E90" mask="url(#mask-4)" points="76.299 117.929 77.473 117.929 77.473 0.55 76.299 0.55"></polygon>
                <polygon id="Fill-76" fill="#4A8D90" mask="url(#mask-4)" points="77.473 117.929 78.647 117.929 78.647 0.55 77.473 0.55"></polygon>
                <polygon id="Fill-77" fill="#498D90" mask="url(#mask-4)" points="78.646 117.929 79.82 117.929 79.82 0.55 78.646 0.55"></polygon>
                <polygon id="Fill-78" fill="#498C90" mask="url(#mask-4)" points="79.82 117.929 80.994 117.929 80.994 0.55 79.82 0.55"></polygon>
                <polygon id="Fill-79" fill="#498B90" mask="url(#mask-4)" points="80.994 117.929 82.168 117.929 82.168 0.55 80.994 0.55"></polygon>
                <polygon id="Fill-80" fill="#488A90" mask="url(#mask-4)" points="82.168 117.929 83.342 117.929 83.342 0.55 82.168 0.55"></polygon>
                <polygon id="Fill-81" fill="#488A90" mask="url(#mask-4)" points="83.342 117.929 84.516 117.929 84.516 0.55 83.342 0.55"></polygon>
                <polygon id="Fill-82" fill="#488990" mask="url(#mask-4)" points="84.515 117.929 85.689 117.929 85.689 0.55 84.515 0.55"></polygon>
                <polygon id="Fill-83" fill="#478890" mask="url(#mask-4)" points="85.689 117.929 86.863 117.929 86.863 0.55 85.689 0.55"></polygon>
                <polygon id="Fill-84" fill="#478890" mask="url(#mask-4)" points="86.863 117.929 88.037 117.929 88.037 0.55 86.863 0.55"></polygon>
                <polygon id="Fill-85" fill="#478790" mask="url(#mask-4)" points="88.037 117.929 89.211 117.929 89.211 0.55 88.037 0.55"></polygon>
                <polygon id="Fill-86" fill="#468690" mask="url(#mask-4)" points="89.211 117.929 90.385 117.929 90.385 0.55 89.211 0.55"></polygon>
                <polygon id="Fill-87" fill="#468690" mask="url(#mask-4)" points="90.385 117.929 91.559 117.929 91.559 0.55 90.385 0.55"></polygon>
                <polygon id="Fill-88" fill="#468590" mask="url(#mask-4)" points="91.558 117.929 92.732 117.929 92.732 0.55 91.558 0.55"></polygon>
                <polygon id="Fill-89" fill="#458490" mask="url(#mask-4)" points="92.732 117.929 93.906 117.929 93.906 0.55 92.732 0.55"></polygon>
                <polygon id="Fill-90" fill="#458490" mask="url(#mask-4)" points="93.906 117.929 95.08 117.929 95.08 0.55 93.906 0.55"></polygon>
                <polygon id="Fill-91" fill="#458390" mask="url(#mask-4)" points="95.08 117.929 96.254 117.929 96.254 0.55 95.08 0.55"></polygon>
                <polygon id="Fill-92" fill="#448290" mask="url(#mask-4)" points="96.254 117.929 97.428 117.929 97.428 0.55 96.254 0.55"></polygon>
                <polygon id="Fill-93" fill="#44828F" mask="url(#mask-4)" points="97.428 117.929 98.602 117.929 98.602 0.55 97.428 0.55"></polygon>
                <polygon id="Fill-94" fill="#44818F" mask="url(#mask-4)" points="98.601 117.929 99.775 117.929 99.775 0.55 98.601 0.55"></polygon>
                <polygon id="Fill-95" fill="#43808F" mask="url(#mask-4)" points="99.775 117.929 100.949 117.929 100.949 0.55 99.775 0.55"></polygon>
                <polygon id="Fill-96" fill="#43808F" mask="url(#mask-4)" points="100.949 117.929 102.123 117.929 102.123 0.55 100.949 0.55"></polygon>
                <polygon id="Fill-97" fill="#437F8F" mask="url(#mask-4)" points="102.123 117.929 103.297 117.929 103.297 0.55 102.123 0.55"></polygon>
                <polygon id="Fill-98" fill="#437E8F" mask="url(#mask-4)" points="103.297 117.929 104.471 117.929 104.471 0.55 103.297 0.55"></polygon>
                <polygon id="Fill-99" fill="#427D8F" mask="url(#mask-4)" points="104.471 117.929 105.645 117.929 105.645 0.55 104.471 0.55"></polygon>
                <polygon id="Fill-100" fill="#427D8F" mask="url(#mask-4)" points="105.644 117.929 106.818 117.929 106.818 0.55 105.644 0.55"></polygon>
                <polygon id="Fill-101" fill="#427C8F" mask="url(#mask-4)" points="106.818 117.929 107.992 117.929 107.992 0.55 106.818 0.55"></polygon>
                <polygon id="Fill-102" fill="#427B8F" mask="url(#mask-4)" points="107.992 117.929 109.166 117.929 109.166 0.55 107.992 0.55"></polygon>
                <polygon id="Fill-103" fill="#417B8E" mask="url(#mask-4)" points="109.166 117.929 110.34 117.929 110.34 0.55 109.166 0.55"></polygon>
                <polygon id="Fill-104" fill="#417A8E" mask="url(#mask-4)" points="110.34 117.929 111.514 117.929 111.514 0.55 110.34 0.55"></polygon>
                <polygon id="Fill-105" fill="#41798E" mask="url(#mask-4)" points="111.514 117.929 112.688 117.929 112.688 0.55 111.514 0.55"></polygon>
                <polygon id="Fill-106" fill="#41798E" mask="url(#mask-4)" points="112.687 117.929 113.861 117.929 113.861 0.55 112.687 0.55"></polygon>
                <polygon id="Fill-107" fill="#40788E" mask="url(#mask-4)" points="113.861 117.929 115.035 117.929 115.035 0.55 113.861 0.55"></polygon>
                <polygon id="Fill-108" fill="#40778E" mask="url(#mask-4)" points="115.035 117.929 116.209 117.929 116.209 0.55 115.035 0.55"></polygon>
                <polygon id="Fill-109" fill="#40778E" mask="url(#mask-4)" points="116.209 117.929 117.383 117.929 117.383 0.55 116.209 0.55"></polygon>
                <path d="M117.3829,117.9285 L117.3829,0.5495 L117.3829,117.9285 Z" id="Fill-110" fill="#40778E" mask="url(#mask-4)"></path>
            </g>
            <g id="Group-127" transform="translate(0.000000, 128.450000)">
                <path d="M7.94,14.3333 L15.023,14.3333 L15.023,31.0063 C14.188,31.2373 13.159,31.4313 11.935,31.5893 C10.711,31.7473 9.451,31.8263 8.156,31.8263 C6.456,31.8263 5.11,31.6973 4.117,31.4373 C3.124,31.1783 2.353,30.7903 1.806,30.2713 C1.259,29.7533 0.906,29.1133 0.748,28.3503 C0.589,27.5873 0.511,26.7023 0.511,25.6933 L0.511,6.6013 C0.511,5.6803 0.611,4.8673 0.813,4.1613 C1.014,3.4563 1.388,2.8653 1.936,2.3903 C2.482,1.9153 3.225,1.5623 4.16,1.3313 C5.096,1.1013 6.298,0.9863 7.767,0.9863 C9.235,0.9863 10.438,1.1013 11.374,1.3313 C12.309,1.5623 13.05,1.9153 13.598,2.3903 C14.145,2.8653 14.519,3.4563 14.721,4.1613 C14.922,4.8673 15.023,5.6803 15.023,6.6013 L15.023,11.4823 L9.711,11.4823 L9.711,6.9473 C9.711,6.5443 9.574,6.2273 9.3,5.9963 C9.026,5.7663 8.515,5.6513 7.767,5.6513 C7.018,5.6513 6.507,5.7663 6.233,5.9963 C5.96,6.2273 5.823,6.5443 5.823,6.9473 L5.823,25.6933 C5.823,26.2983 6.024,26.6943 6.428,26.8813 C6.831,27.0683 7.32,27.1623 7.897,27.1623 L8.933,27.1623 C9.22,27.1623 9.48,27.1473 9.711,27.1183 L9.711,19.0413 L7.94,19.0413 L7.94,14.3333 Z" id="Fill-112" fill="#69BB89"></path>
                <g id="Group-116" transform="translate(19.000000, 8.000000)">
                    <mask id="mask-6" fill="white">
                        <use xlink:href="#path-5"></use>
                    </mask>
                    <g id="Clip-115"></g>
                    <path d="M8.5059,5.8582 C8.5059,5.3692 8.3759,5.0302 8.1169,4.8432 C7.8589,4.6562 7.4539,4.5632 6.9069,4.5632 C6.3309,4.5632 5.9149,4.6562 5.6549,4.8432 C5.3959,5.0302 5.2659,5.3692 5.2659,5.8582 L5.2659,18.3412 C5.2659,18.8312 5.3959,19.1772 5.6549,19.3782 C5.9149,19.5792 6.3309,19.6802 6.9069,19.6802 C7.4539,19.6802 7.8589,19.5792 8.1169,19.3782 C8.3759,19.1772 8.5059,18.8312 8.5059,18.3412 L8.5059,5.8582 Z M0.2559,5.3392 C0.2559,3.3532 0.8389,2.0072 2.0059,1.3012 C3.1719,0.5962 4.8049,0.2432 6.9069,0.2432 C8.9809,0.2432 10.6079,0.5962 11.7889,1.3012 C12.9689,2.0072 13.5599,3.3532 13.5599,5.3392 L13.5599,18.8592 C13.5599,19.8682 13.4089,20.7022 13.1059,21.3652 C12.8039,22.0272 12.3639,22.5522 11.7889,22.9412 C11.2129,23.3302 10.5149,23.6042 9.6939,23.7622 C8.8739,23.9202 7.9439,24.0002 6.9069,24.0002 C5.8709,24.0002 4.9349,23.9202 4.0999,23.7622 C3.2649,23.6042 2.5669,23.3302 2.0059,22.9412 C1.4439,22.5522 1.0119,22.0272 0.7099,21.3652 C0.4069,20.7022 0.2559,19.8682 0.2559,18.8592 L0.2559,5.3392 Z" id="Fill-114" fill="#69BB89" mask="url(#mask-6)"></path>
                </g>
                <path d="M52.8599,14.3333 L59.9439,14.3333 L59.9439,31.0063 C59.1089,31.2373 58.0789,31.4313 56.8559,31.5893 C55.6309,31.7473 54.3729,31.8263 53.0769,31.8263 C51.3769,31.8263 50.0309,31.6973 49.0379,31.4373 C48.0439,31.1783 47.2739,30.7903 46.7269,30.2713 C46.1789,29.7533 45.8269,29.1133 45.6689,28.3503 C45.5099,27.5873 45.4309,26.7023 45.4309,25.6933 L45.4309,6.6013 C45.4309,5.6803 45.5319,4.8673 45.7339,4.1613 C45.9339,3.4563 46.3089,2.8653 46.8559,2.3903 C47.4029,1.9153 48.1449,1.5623 49.0809,1.3313 C50.0169,1.1013 51.2189,0.9863 52.6879,0.9863 C54.1569,0.9863 55.3579,1.1013 56.2939,1.3313 C57.2299,1.5623 57.9719,1.9153 58.5189,2.3903 C59.0659,2.8653 59.4409,3.4563 59.6419,4.1613 C59.8429,4.8673 59.9439,5.6803 59.9439,6.6013 L59.9439,11.4823 L54.6319,11.4823 L54.6319,6.9473 C54.6319,6.5443 54.4939,6.2273 54.2209,5.9963 C53.9469,5.7663 53.4369,5.6513 52.6879,5.6513 C51.9379,5.6513 51.4279,5.7663 51.1539,5.9963 C50.8809,6.2273 50.7439,6.5443 50.7439,6.9473 L50.7439,25.6933 C50.7439,26.2983 50.9439,26.6943 51.3489,26.8813 C51.7519,27.0683 52.2409,27.1623 52.8179,27.1623 L53.8539,27.1623 C54.1419,27.1623 54.4009,27.1473 54.6319,27.1183 L54.6319,19.0413 L52.8599,19.0413 L52.8599,14.3333 Z" id="Fill-117" fill="#40778E"></path>
                <path d="M73.5069,8.6749 L73.5069,12.9939 L72.3399,12.9939 C71.2459,12.9939 70.1939,13.3259 69.1879,13.9879 L69.1879,31.5679 L64.1759,31.5679 L64.1759,8.6749 L69.0999,8.6749 L69.0999,9.7549 L69.4029,9.7549 C69.6329,9.5819 70.0219,9.3599 70.5689,9.0849 C71.1159,8.8119 71.8509,8.6749 72.7729,8.6749 L73.5069,8.6749 Z" id="Fill-119" fill="#40778E"></path>
                <g id="Group-123" transform="translate(75.000000, 8.000000)">
                    <mask id="mask-8" fill="white">
                        <use xlink:href="#path-7"></use>
                    </mask>
                    <g id="Clip-122"></g>
                    <path d="M9.1324,5.8582 C9.1324,5.3692 9.0024,5.0302 8.7434,4.8432 C8.4844,4.6562 8.0804,4.5632 7.5334,4.5632 C6.9574,4.5632 6.5414,4.6562 6.2814,4.8432 C6.0224,5.0302 5.8924,5.3692 5.8924,5.8582 L5.8924,18.3412 C5.8924,18.8312 6.0224,19.1772 6.2814,19.3782 C6.5414,19.5792 6.9574,19.6802 7.5334,19.6802 C8.0804,19.6802 8.4844,19.5792 8.7434,19.3782 C9.0024,19.1772 9.1324,18.8312 9.1324,18.3412 L9.1324,5.8582 Z M0.8824,5.3392 C0.8824,3.3532 1.4654,2.0072 2.6324,1.3012 C3.7984,0.5962 5.4314,0.2432 7.5334,0.2432 C9.6074,0.2432 11.2344,0.5962 12.4154,1.3012 C13.5954,2.0072 14.1864,3.3532 14.1864,5.3392 L14.1864,18.8592 C14.1864,19.8682 14.0354,20.7022 13.7324,21.3652 C13.4304,22.0272 12.9904,22.5522 12.4154,22.9412 C11.8394,23.3302 11.1404,23.6042 10.3204,23.7622 C9.4994,23.9202 8.5704,24.0002 7.5334,24.0002 C6.4974,24.0002 5.5614,23.9202 4.7264,23.7622 C3.8914,23.6042 3.1934,23.3302 2.6324,22.9412 C2.0694,22.5522 1.6384,22.0272 1.3354,21.3652 C1.0334,20.7022 0.8824,19.8682 0.8824,18.8592 L0.8824,5.3392 Z" id="Fill-121" fill="#40778E" mask="url(#mask-8)"></path>
                </g>
                <g id="Group-126" transform="translate(91.000000, 8.000000)">
                    <mask id="mask-10" fill="white">
                        <use xlink:href="#path-9"></use>
                    </mask>
                    <g id="Clip-125"></g>
                    <polygon id="Fill-124" fill="#40778E" mask="url(#mask-10)" points="14.3404 6.8084 13.9084 6.8084 11.9214 23.5674 4.1464 23.5674 0.5614 0.6744 5.7014 0.6744 8.0334 18.9024 8.5094 18.9024 10.5394 0.6744 17.7954 0.6744 19.7394 18.9024 20.2144 18.9024 22.6334 0.6744 27.7304 0.6744 24.1884 23.5674 16.4134 23.5674"></polygon>
                </g>
            </g>
        </g>
    </g>
</svg>