<svg width="38" height="38" xmlns="http://www.w3.org/2000/svg"><g stroke="#4C62A7" fill="none" fill-rule="evenodd"><path stroke-width="2" d="M1 1h36v36H1z"/><g stroke-width="1.2"><path d="M13.191 7.6a5.598 5.598 0 0 0-5.59 5.59v12.113a5.597 5.597 0 0 0 5.59 5.59h12.111a5.598 5.598 0 0 0 5.592-5.59V13.19a5.6 5.6 0 0 0-5.592-5.59h-12.11z"/><path d="M19.246 13.652a5.603 5.603 0 0 0-5.595 5.595 5.599 5.599 0 0 0 5.595 5.593 5.6 5.6 0 0 0 5.597-5.594 5.603 5.603 0 0 0-5.597-5.594zm8.427-1.222a1.57 1.57 0 1 1-3.139-.003 1.57 1.57 0 0 1 3.14.003z"/></g></g></svg>