<svg width="209" height="130" xmlns="http://www.w3.org/2000/svg"><g fill="none" fill-rule="evenodd"><path d="M0 86.006h86.007V-.001H0v86.007zm5.378-5.377H80.63V5.377H5.378v75.252z" fill="#4B62A7"/><path fill="#FFF" d="M29.688 93.389h60.27V47.731h-60.27z"/><path fill="#F39663" d="M37.179 69.517V55.198h5.419V86.04h-5.42zm19.033-14.319l4.45 24.321h.484V55.2h5.023v30.84h-8.503l-4.758-25.157h-.617V86.04h-5.023V55.2zm17.138 4.758h-4.493v-4.758h14.451v4.758H78.77V86.04h-5.42zm12.645-4.758h12.513v4.758h-7.094v7.711h6.874v4.758h-6.874v8.856h7.094v4.758H85.995zM110.8 68.46c.617 0 .925-.381.925-1.146v-6.256c0-.411-.088-.697-.264-.86-.176-.16-.47-.241-.88-.241h-2.865v8.503h3.084zm-8.503-13.262h9.076c.793 0 1.542.082 2.247.242.705.163 1.314.427 1.828.794.514.367.925.866 1.234 1.498.308.632.462 1.432.462 2.4v7.579c0 .705-.103 1.329-.308 1.873a5.838 5.838 0 0 1-.749 1.409c-.294.397-.61.72-.947.97-.338.25-.625.418-.859.507l3.304 13.57h-5.419l-2.864-12.822h-1.586V86.04h-5.419V55.198zm28.462 0l4.45 24.321h.484V55.2h5.023v30.84h-8.503l-4.76-25.157h-.615V86.04h-5.023V55.2zm22.998 5.464c0-.705-.602-1.057-1.806-1.057-1.264 0-1.895.352-1.895 1.057v2.864c0 .5.051.88.154 1.144.103.266.243.486.419.662l6.697 6.124a6.075 6.075 0 0 1 1.41 1.718c.352.646.528 1.557.528 2.731v5.067c0 1.94-.58 3.327-1.74 4.165-1.161.836-3.018 1.254-5.573 1.254-1.322 0-2.461-.088-3.415-.264-.955-.175-1.726-.476-2.313-.902a3.764 3.764 0 0 1-1.3-1.674c-.279-.69-.418-1.55-.418-2.579v-6.916h5.375v6.3c0 .47.183.8.551.991.367.192.873.287 1.52.287.557 0 1.013-.096 1.366-.287.352-.19.528-.521.528-.991v-3.921c0-.412-.044-.742-.132-.992a1.634 1.634 0 0 0-.485-.682l-6.256-5.42c-.734-.645-1.307-1.35-1.718-2.114-.412-.765-.617-1.837-.617-3.218v-3.743c0-1.968.573-3.364 1.718-4.186 1.146-.822 3.011-1.234 5.596-1.234 2.702 0 4.582.419 5.639 1.256 1.058.837 1.586 2.166 1.586 3.987v5.728h-5.419v-5.155zm19.297-5.464h5.42V86.04h-5.42V72.425h-4.582V86.04h-5.419V55.2h5.42v12.468h4.581zm10.09 14.319V55.198h5.419V86.04h-5.42zm18.592-1.057c.617 0 .925-.381.925-1.146v-6.256c0-.411-.11-.697-.33-.86-.22-.16-.493-.241-.815-.241h-2.864v8.503h3.084zm-8.503-13.262h9.076c.793 0 1.542.082 2.247.242.705.163 1.314.427 1.828.794.514.367.925.866 1.234 1.498.308.632.462 1.432.462 2.4v7.579c0 1.674-.448 3.018-1.344 4.03-.896 1.015-2.268 1.52-4.119 1.52h-3.965V86.04h-5.419V55.198zM41.1 97.961l2.688 23.836h.661l2.114-23.836h8.372l2.379 23.836h.529l2.467-23.836h5.463l-3.833 30.841h-7.975l-2.952-24.76h-.528l-2.6 24.76h-8.019l-4.229-30.84zm27.8 14.319V97.961h5.42v30.841H68.9zm12.601-9.56h-4.494v-4.758H91.46v4.758h-4.54v26.083h-5.419zm22.646-4.759h5.42v30.841h-5.42v-13.614h-4.582v13.614h-5.419v-30.84h5.42v12.468h4.581zm18.901 0h12.513v4.758h-7.094v7.711h6.874v4.758h-6.874v8.856h7.094v4.758h-12.513zm25.29 5.816c0-.529-.154-.896-.463-1.102-.308-.205-.756-.308-1.343-.308-.56 0-1 .103-1.322.308-.324.206-.485.573-.485 1.102v19.21c0 .529.16.896.485 1.101.323.206.763.309 1.322.309.587 0 1.035-.103 1.343-.309.309-.205.463-.572.463-1.101v-6.477h5.419v7.446c0 .823-.103 1.557-.308 2.203a3.441 3.441 0 0 1-1.102 1.63c-.528.441-1.263.779-2.202 1.014-.941.234-2.145.352-3.613.352-1.47 0-2.666-.118-3.591-.352-.926-.235-1.652-.573-2.181-1.014a3.434 3.434 0 0 1-1.102-1.63c-.205-.646-.308-1.38-.308-2.203v-21.148c0-.822.103-1.557.308-2.203a3.434 3.434 0 0 1 1.102-1.63c.529-.441 1.255-.778 2.18-1.014.926-.235 2.122-.352 3.592-.352 1.468 0 2.672.117 3.613.352.939.236 1.674.573 2.202 1.014.529.44.896.984 1.102 1.63.205.646.308 1.381.308 2.203v7.137h-5.42v-6.168zm12.159-1.057h-4.494v-4.758h14.451v4.758h-4.538v26.083h-5.419zm21.016.705c0-.705-.602-1.057-1.807-1.057-1.263 0-1.894.352-1.894 1.057v2.864c0 .5.051.88.154 1.145.103.265.242.485.42.66l6.696 6.125a6.075 6.075 0 0 1 1.41 1.719c.352.646.528 1.557.528 2.73v5.068c0 1.939-.58 3.326-1.74 4.164-1.16.837-3.018 1.255-5.574 1.255-1.32 0-2.46-.088-3.414-.264-.955-.176-1.726-.477-2.313-.903a3.764 3.764 0 0 1-1.3-1.674c-.279-.69-.418-1.55-.418-2.578v-6.917h5.375v6.3c0 .47.183.8.551.992.367.19.873.286 1.52.286.557 0 1.013-.095 1.366-.286.352-.191.528-.522.528-.992v-3.921c0-.411-.044-.741-.132-.991a1.634 1.634 0 0 0-.485-.683l-6.256-5.42c-.735-.645-1.308-1.35-1.718-2.114-.412-.764-.617-1.836-.617-3.217v-3.744c0-1.968.573-3.364 1.718-4.187 1.146-.821 3.01-1.233 5.595-1.233 2.703 0 4.583.419 5.64 1.256 1.057.837 1.586 2.166 1.586 3.987v5.728h-5.419v-5.155z"/></g></svg>