<svg width="136" height="130" xmlns="http://www.w3.org/2000/svg"><g fill="none" fill-rule="evenodd"><path d="M0 86.17h86.171V-.001H0V86.17zm5.388-5.388h75.395V5.387H5.388v75.395z" fill="#4B62A7"/><path fill="#FFF" d="M29.744 93.567h60.385V47.822H29.744z"/><path fill="#F6B4AF" d="M46.387 55.303l3.222 23.97h.751l2.737-23.97h9.58v30.9h-5.034v-25.25h-.573l-3.576 25.25H46.52l-3.663-25.25h-.574v25.25H37.25v-30.9zm29.046 5.341h-.883l-1.589 12.581h3.929l-1.457-12.58zm2.119 17.348h-5.209l-1.104 8.211H65.81l4.238-30.9h9.755l4.326 30.9h-5.473l-1.104-8.21zM88.897 60.07h-4.503v-4.767h14.479v4.768h-4.546v26.133h-5.43zm21.673 1.06c0-.53-.154-.897-.463-1.104-.31-.205-.758-.308-1.346-.308-.56 0-1.001.103-1.324.308-.325.207-.486.574-.486 1.104v19.246c0 .53.16.898.486 1.104.323.206.765.309 1.324.309.588 0 1.037-.103 1.346-.31.309-.205.464-.573.464-1.103v-6.49H116v7.462c0 .824-.103 1.56-.31 2.207a3.45 3.45 0 0 1-1.102 1.633c-.53.442-1.266.78-2.207 1.015-.942.235-2.15.353-3.62.353-1.472 0-2.67-.118-3.598-.353-.927-.235-1.655-.573-2.185-1.015a3.442 3.442 0 0 1-1.103-1.633c-.207-.647-.31-1.383-.31-2.207v-21.19c0-.823.103-1.56.31-2.206a3.445 3.445 0 0 1 1.103-1.634c.53-.441 1.258-.78 2.185-1.015.928-.235 2.126-.353 3.598-.353 1.47 0 2.678.118 3.62.353.94.236 1.677.574 2.207 1.015.53.442.897.987 1.103 1.634.206.647.309 1.383.309 2.207v7.15h-5.43v-6.18zm19.688-5.827h5.429v30.9h-5.43v-13.64h-4.59v13.64h-5.43v-30.9h5.43v12.493h4.59zM37.25 98.148h5.429v24.676c0 .678.14 1.148.42 1.412.279.266.83.398 1.655.398.795 0 1.325-.132 1.589-.398.265-.264.398-.734.398-1.412V98.148h5.473v25.162c0 .97-.103 1.83-.308 2.582-.207.75-.59 1.39-1.148 1.92-.56.53-1.324.927-2.296 1.192-.971.265-2.207.397-3.708.397-1.53 0-2.781-.132-3.752-.397-.971-.265-1.737-.662-2.295-1.192a4.08 4.08 0 0 1-1.148-1.92c-.206-.751-.31-1.611-.31-2.582V98.148zm28.162 13.287c.618 0 .927-.382.927-1.148v-6.268c0-.412-.11-.7-.33-.861-.222-.161-.494-.243-.818-.243h-2.869v8.52h3.09zm-8.52-13.287h9.094c.794 0 1.545.08 2.251.243.706.162 1.317.427 1.832.794.515.369.927.868 1.236 1.5.31.634.464 1.436.464 2.407v7.593c0 1.677-.45 3.023-1.347 4.039-.898 1.015-2.273 1.523-4.127 1.523h-3.973v12.8h-5.43v-30.9z"/></g></svg>