<?xml version="1.0" encoding="UTF-8"?>
<svg width="748px" height="536px" viewBox="0 0 748 536" version="1.1" xmlns="http://www.w3.org/2000/svg" xmlns:xlink="http://www.w3.org/1999/xlink">
  <!-- Generator: Sketch 46 (44423) - http://www.bohemiancoding.com/sketch -->
  <title>mountain-chart</title>
  <desc>Created with Sketch.</desc>
  <defs>
    <polygon id="path-1" points="0 20.4461 0 0.9191 116.4899 0.9191 116.4899 20.4461"></polygon>
  </defs>
  <g id="Page-1" stroke="none" stroke-width="1" fill="none" fill-rule="evenodd">
    <g id="mountain-chart">
      <path
        d="M198.0631,215.2322 C198.0631,208.9362 204.6141,203.8332 212.6961,203.8332 L258.7051,203.8332 C262.7461,203.8332 266.4051,202.5602 269.0531,200.4942 C271.7001,198.4312 273.3401,195.5822 273.3401,192.4342 C273.3401,186.1382 266.7841,181.0372 258.7051,181.0372 L248.4261,181.0372 C240.3411,181.0372 233.7921,175.9352 233.7921,169.6372 C233.7921,163.3402 240.3411,158.2392 248.4261,158.2392 L393.7641,158.2392 C401.8471,158.2392 408.3971,163.3402 408.3971,169.6372 C408.3971,172.7852 406.7611,175.6352 404.1111,177.6972 C401.4641,179.7612 397.8041,181.0372 393.7641,181.0372 L338.9901,181.0372 C330.9051,181.0372 324.3501,186.1382 324.3501,192.4342 C324.3501,198.7322 330.9051,203.8332 338.9901,203.8332 L358.0341,203.8332 C366.1181,203.8332 372.6681,208.9362 372.6681,215.2322 C372.6681,218.3782 371.0351,221.2292 368.3831,223.2922 C365.7351,225.3562 362.0741,226.6302 358.0341,226.6302 L212.6961,226.6302 C204.6141,226.6302 198.0631,221.5282 198.0631,215.2322"
        id="Fill-1"
        fill="#8ED2E7"></path>
      <path
        d="M186.0421,116.9919 C186.0421,122.5389 181.5441,127.0329 175.9991,127.0329 L76.2781,127.0329 C70.7331,127.0329 66.2371,122.5389 66.2371,116.9919 C66.2371,114.2189 67.3621,111.7099 69.1791,109.8909 C70.9961,108.0739 73.5041,106.9499 76.2781,106.9499 L175.9991,106.9499 C181.5441,106.9499 186.0421,111.4459 186.0421,116.9919"
        id="Fill-3"
        fill="#8ED2E7"></path>
      <g id="Group-7" transform="translate(0.000000, 308.634000)">
        <mask id="mask-2" fill="white">
          <use xlink:href="#path-1"></use>
        </mask>
        <g id="Clip-6"></g>
        <path
          d="M116.4899,10.6821 C116.4899,16.0761 112.1179,20.4461 106.7259,20.4461 L9.7659,20.4461 C4.3719,20.4461 -0.0001,16.0761 -0.0001,10.6821 C-0.0001,7.9881 1.0939,5.5471 2.8619,3.7811 C4.6279,2.0111 7.0669,0.9191 9.7659,0.9191 L106.7259,0.9191 C112.1179,0.9191 116.4899,5.2901 116.4899,10.6821"
          id="Fill-5"
          fill="#8ED2E7"
          mask="url(#mask-2)"></path>
      </g>
      <path
        d="M131.5768,76.1277 C131.5768,71.2497 135.9568,67.2947 141.3608,67.2947 L172.1148,67.2947 C174.8158,67.2947 177.2628,66.3097 179.0338,64.7087 C180.8028,63.1097 181.8988,60.9007 181.8988,58.4627 C181.8988,53.5827 177.5148,49.6287 172.1148,49.6287 L165.2438,49.6287 C159.8408,49.6287 155.4618,45.6747 155.4618,40.7957 C155.4618,35.9167 159.8408,31.9617 165.2438,31.9617 L262.3978,31.9617 C267.8028,31.9617 272.1808,35.9167 272.1808,40.7957 C272.1808,43.2347 271.0868,45.4437 269.3158,47.0417 C267.5458,48.6427 265.0998,49.6287 262.3978,49.6287 L225.7838,49.6287 C220.3808,49.6287 215.9958,53.5827 215.9958,58.4627 C215.9958,63.3417 220.3808,67.2947 225.7838,67.2947 L238.5148,67.2947 C243.9178,67.2947 248.2978,71.2497 248.2978,76.1277 C248.2978,78.5677 247.2038,80.7757 245.4318,82.3757 C243.6608,83.9767 241.2158,84.9637 238.5148,84.9637 L141.3608,84.9637 C135.9568,84.9637 131.5768,81.0087 131.5768,76.1277"
        id="Fill-8"
        fill="#8ED2E7"></path>
      <path
        d="M628.5719,9.7614 C628.5719,15.1544 624.2009,19.5264 618.8069,19.5264 L521.8469,19.5264 C516.4549,19.5264 512.0829,15.1544 512.0829,9.7614 C512.0829,7.0664 513.1769,4.6254 514.9449,2.8594 C516.7129,1.0914 519.1509,0.0004 521.8469,0.0004 L618.8069,0.0004 C624.2009,0.0004 628.5719,4.3694 628.5719,9.7614"
        id="Fill-10"
        fill="#8ED2E7"></path>
      <path
        d="M747.903,194.5642 C747.903,199.2962 744.069,203.1312 739.337,203.1312 L654.253,203.1312 C649.521,203.1312 645.686,199.2962 645.686,194.5642 C645.686,192.2002 646.646,190.0582 648.196,188.5072 C649.746,186.9562 651.886,185.9992 654.253,185.9992 L739.337,185.9992 C744.069,185.9992 747.903,189.8342 747.903,194.5642"
        id="Fill-12"
        fill="#8ED2E7"></path>
      <path
        d="M733.8658,112.5203 C733.8658,118.1653 728.7978,122.7423 722.5448,122.7423 L686.9568,122.7423 C683.8308,122.7423 680.9998,123.8823 678.9498,125.7343 C676.9028,127.5843 675.6348,130.1403 675.6348,132.9623 C675.6348,138.6093 680.7068,143.1843 686.9568,143.1843 L694.9068,143.1843 C701.1598,143.1843 706.2268,147.7603 706.2268,153.4063 C706.2268,159.0523 701.1598,163.6283 694.9068,163.6283 L582.4798,163.6283 C576.2258,163.6283 571.1598,159.0523 571.1598,153.4063 C571.1598,150.5833 572.4258,148.0283 574.4738,146.1783 C576.5228,144.3273 579.3538,143.1843 582.4798,143.1843 L624.8498,143.1843 C631.1028,143.1843 636.1768,138.6093 636.1768,132.9623 C636.1768,127.3163 631.1028,122.7423 624.8498,122.7423 L610.1178,122.7423 C603.8658,122.7423 598.7978,118.1653 598.7978,112.5203 C598.7978,109.6963 600.0628,107.1413 602.1138,105.2913 C604.1628,103.4383 606.9928,102.2953 610.1178,102.2953 L722.5448,102.2953 C728.7978,102.2953 733.8658,106.8733 733.8658,112.5203"
        id="Fill-14"
        fill="#8ED2E7"></path>
      <path
        d="M520.9381,190.5701 C520.9381,254.6521 468.9941,306.6051 404.9051,306.6051 C340.8191,306.6051 288.8681,254.6521 288.8681,190.5701 C288.8681,126.4831 340.8191,74.5321 404.9051,74.5321 C468.9941,74.5321 520.9381,126.4831 520.9381,190.5701"
        id="Fill-16"
        fill="#F26C65"></path>
      <polygon id="Fill-18" fill="#61C090" points="415.651 323.9314 454.467 306.3624 501.518 474.4814"></polygon>
      <polygon id="Fill-20" fill="#9AD4B9" points="152.7301 535.6335 211.0391 415.8035 283.9591 383.0215 209.3441 535.6335"></polygon>
      <polygon id="Fill-22" fill="#418768" points="209.3443 535.6335 283.9593 383.0215 415.6513 323.9315 501.5183 474.4815 518.6313 535.6335"></polygon>
      <polygon id="Fill-24" fill="#7C83BF" points="211.0387 415.8034 318.6597 311.5894 283.9597 383.0214"></polygon>
      <polygon id="Fill-26" fill="#7C83BF" points="454.4674 306.362 501.5184 474.481 536.3944 535.633 600.2324 535.633 531.8354 393.459"></polygon>
      <polygon id="Fill-28" fill="#F7A7A0" points="318.6598 311.5896 404.9048 134.8266 531.8358 393.4586 454.4678 306.3616 415.6508 323.9316 376.5558 255.3856"></polygon>
      <polygon id="Fill-30" fill="#B0B4D3" points="531.8356 393.4587 600.2316 535.6337 658.1286 535.6337"></polygon>
      <polygon id="Fill-32" fill="#595E7C" points="501.5182 474.4812 518.6312 535.6332 536.3942 535.6332"></polygon>
      <polygon id="Fill-34" fill="#595E7C" points="283.9596 383.0212 318.6596 311.5892 376.5556 255.3852 415.6506 323.9312"></polygon>
      <path
        d="M230.1353,513.5798 L227.5493,512.3358 L251.2943,462.7148 C256.3643,452.1598 270.0073,443.5778 281.7123,443.5778 L527.7823,443.5568 C532.6773,443.5568 536.4253,441.8818 538.3353,438.8438 C540.2453,435.8048 540.1283,431.7028 538.0103,427.2918 L495.9243,339.7258 C491.2863,330.0738 478.7953,322.2098 468.0863,322.1978 L342.4453,322.0518 C336.5273,322.0448 331.9273,319.8928 329.4953,315.9978 C327.0673,312.1008 327.1603,307.0198 329.7593,301.7038 L375.2023,208.7468 L377.7803,210.0058 L332.3353,302.9638 C330.1873,307.3608 330.0433,311.4498 331.9303,314.4778 C333.8213,317.5078 337.5523,319.1788 342.4473,319.1848 L468.0883,319.3278 C479.7953,319.3438 493.4423,327.9388 498.5113,338.4848 L540.5943,426.0478 C543.1593,431.3808 543.2193,436.4698 540.7653,440.3698 C538.3103,444.2748 533.6993,446.4248 527.7823,446.4258 L281.7123,446.4448 C271.0033,446.4448 258.5173,454.3008 253.8803,463.9578 L230.1353,513.5798 Z"
        id="Fill-36"
        fill="#FFFFFF"></path>
      <path
        d="M236.2018,511.4792 C236.2018,515.0972 233.2688,518.0302 229.6508,518.0302 C226.0328,518.0302 223.0978,515.0972 223.0978,511.4792 C223.0978,507.8642 226.0328,504.9262 229.6508,504.9262 C233.2688,504.9262 236.2018,507.8642 236.2018,511.4792"
        id="Fill-38"
        fill="#595E7C"></path>
      <path
        d="M271.4019,450.7497 C271.4019,454.3667 268.4649,457.2997 264.8489,457.2997 C261.2289,457.2997 258.2969,454.3667 258.2969,450.7497 C258.2969,447.1297 261.2289,444.1957 264.8489,444.1957 C268.4649,444.1957 271.4019,447.1297 271.4019,450.7497"
        id="Fill-40"
        fill="#595E7C"></path>
      <path
        d="M547.4313,438.8982 C547.4313,442.5162 544.4973,445.4512 540.8803,445.4512 C537.2623,445.4512 534.3273,442.5162 534.3273,438.8982 C534.3273,435.2822 537.2623,432.3502 540.8803,432.3502 C544.4973,432.3502 547.4313,435.2822 547.4313,438.8982"
        id="Fill-42"
        fill="#595E7C"></path>
      <path
        d="M382.568,210.4988 C382.568,214.1168 379.635,217.0508 376.017,217.0508 C372.399,217.0508 369.466,214.1168 369.466,210.4988 C369.466,206.8848 372.399,203.9458 376.017,203.9458 C379.635,203.9458 382.568,206.8848 382.568,210.4988"
        id="Fill-44"
        fill="#595E7C"></path>
      <polygon id="Fill-46" fill="#FFFFFF" points="497.0406 342.0505 432.7116 211.2225 435.2836 209.9565 499.6136 340.7825"></polygon>
      <path
        d="M497.5318,328.6892 C497.5318,332.3132 494.6008,335.2412 490.9828,335.2412 C487.3628,335.2412 484.4278,332.3132 484.4278,328.6892 C484.4278,325.0712 487.3628,322.1402 490.9828,322.1402 C494.6008,322.1402 497.5318,325.0712 497.5318,328.6892"
        id="Fill-48"
        fill="#595E7C"></path>
      <path
        d="M440.4537,210.491 C440.4537,214.11 437.5167,217.044 433.9017,217.044 C430.2837,217.044 427.3497,214.11 427.3497,210.491 C427.3497,206.874 430.2837,203.937 433.9017,203.937 C437.5167,203.937 440.4537,206.874 440.4537,210.491"
        id="Fill-50"
        fill="#595E7C"></path>
      <path
        d="M139.1764,449.6208 C139.5174,449.6208 139.6884,449.4098 139.6884,448.9868 L139.6884,445.5228 C139.6884,445.2958 139.6274,445.1378 139.5054,445.0478 C139.3834,444.9588 139.2334,444.9138 139.0544,444.9138 L137.4684,444.9138 L137.4684,449.6208 L139.1764,449.6208 Z M134.4694,442.2798 L139.4934,442.2798 C139.9324,442.2798 140.3464,442.3248 140.7374,442.4138 C141.1274,442.5038 141.4644,442.6498 141.7494,442.8528 C142.0334,443.0568 142.2614,443.3328 142.4314,443.6828 C142.6024,444.0318 142.6884,444.4748 142.6884,445.0118 L142.6884,449.2058 C142.6884,450.1328 142.4404,450.8768 141.9444,451.4368 C141.4474,451.9988 140.6884,452.2788 139.6644,452.2788 L137.4684,452.2788 L137.4684,459.3508 L134.4694,459.3508 L134.4694,442.2798 Z"
        id="Fill-52"
        fill="#595E7C"></path>
      <path
        d="M149.2472,449.6208 C149.5892,449.6208 149.7612,449.4098 149.7612,448.9868 L149.7612,445.5228 C149.7612,445.2958 149.7122,445.1378 149.6142,445.0478 C149.5172,444.9588 149.3522,444.9138 149.1262,444.9138 L147.5402,444.9138 L147.5402,449.6208 L149.2472,449.6208 Z M144.5412,442.2798 L149.5652,442.2798 C150.0052,442.2798 150.4192,442.3248 150.8092,442.4138 C151.1982,442.5038 151.5362,442.6498 151.8212,442.8528 C152.1042,443.0568 152.3332,443.3328 152.5032,443.6828 C152.6752,444.0318 152.7592,444.4748 152.7592,445.0118 L152.7592,449.2058 C152.7592,449.5968 152.7022,449.9418 152.5892,450.2428 C152.4762,450.5438 152.3372,450.8038 152.1752,451.0228 C152.0112,451.2428 151.8372,451.4218 151.6492,451.5588 C151.4642,451.6978 151.3042,451.7908 151.1752,451.8398 L153.0032,459.3508 L150.0052,459.3508 L148.4192,452.2548 L147.5402,452.2548 L147.5402,459.3508 L144.5412,459.3508 L144.5412,442.2798 Z"
        id="Fill-54"
        fill="#595E7C"></path>
      <path
        d="M158.3438,455.9128 C158.3438,456.2538 158.4298,456.5068 158.5998,456.6688 C158.7708,456.8318 159.0838,456.9128 159.5388,456.9128 C160.0108,456.9128 160.3268,456.8318 160.4898,456.6688 C160.6528,456.5068 160.7348,456.2538 160.7348,455.9128 L160.7348,445.7188 C160.7348,445.3778 160.6528,445.1258 160.4898,444.9628 C160.3268,444.8008 160.0108,444.7188 159.5388,444.7188 C159.0838,444.7188 158.7708,444.8008 158.5998,444.9628 C158.4298,445.1258 158.3438,445.3778 158.3438,445.7188 L158.3438,455.9128 Z M155.3448,445.4258 C155.3448,444.7758 155.4168,444.2348 155.5638,443.8048 C155.7098,443.3738 155.9498,443.0278 156.2828,442.7668 C156.6158,442.5078 157.0468,442.3288 157.5758,442.2308 C158.1038,442.1338 158.7588,442.0848 159.5388,442.0848 C160.3198,442.0848 160.9778,442.1338 161.5148,442.2308 C162.0508,442.3288 162.4858,442.5078 162.8198,442.7668 C163.1528,443.0278 163.3928,443.3738 163.5378,443.8048 C163.6848,444.2348 163.7578,444.7758 163.7578,445.4258 L163.7578,456.1818 C163.7578,456.8478 163.6848,457.3958 163.5378,457.8268 C163.3928,458.2588 163.1528,458.5998 162.8198,458.8508 C162.4858,459.1028 162.0508,459.2818 161.5148,459.3878 C160.9778,459.4938 160.3198,459.5468 159.5388,459.5468 C158.7588,459.5468 158.1038,459.4938 157.5758,459.3878 C157.0468,459.2818 156.6158,459.1028 156.2828,458.8508 C155.9498,458.5998 155.7098,458.2588 155.5638,457.8268 C155.4168,457.3958 155.3448,456.8478 155.3448,456.1818 L155.3448,445.4258 Z"
        id="Fill-56"
        fill="#595E7C"></path>
      <path
        d="M169.3419,455.9128 C169.3419,456.2538 169.4279,456.5068 169.5979,456.6688 C169.7689,456.8318 170.0819,456.9128 170.5369,456.9128 C171.0089,456.9128 171.3249,456.8318 171.4879,456.6688 C171.6509,456.5068 171.7329,456.2538 171.7329,455.9128 L171.7329,445.7188 C171.7329,445.3778 171.6509,445.1258 171.4879,444.9628 C171.3249,444.8008 171.0089,444.7188 170.5369,444.7188 C170.0819,444.7188 169.7689,444.8008 169.5979,444.9628 C169.4279,445.1258 169.3419,445.3778 169.3419,445.7188 L169.3419,455.9128 Z M166.3429,445.4258 C166.3429,444.7758 166.4149,444.2348 166.5619,443.8048 C166.7079,443.3738 166.9479,443.0278 167.2809,442.7668 C167.6139,442.5078 168.0449,442.3288 168.5739,442.2308 C169.1019,442.1338 169.7569,442.0848 170.5369,442.0848 C171.3179,442.0848 171.9759,442.1338 172.5129,442.2308 C173.0489,442.3288 173.4839,442.5078 173.8179,442.7668 C174.1509,443.0278 174.3909,443.3738 174.5359,443.8048 C174.6829,444.2348 174.7559,444.7758 174.7559,445.4258 L174.7559,456.1818 C174.7559,456.8478 174.6829,457.3958 174.5359,457.8268 C174.3909,458.2588 174.1509,458.5998 173.8179,458.8508 C173.4839,459.1028 173.0489,459.2818 172.5129,459.3878 C171.9759,459.4938 171.3179,459.5468 170.5369,459.5468 C169.7569,459.5468 169.1019,459.4938 168.5739,459.3878 C168.0449,459.2818 167.6139,459.1028 167.2809,458.8508 C166.9479,458.5998 166.7079,458.2588 166.5619,457.8268 C166.4149,457.3958 166.3429,456.8478 166.3429,456.1818 L166.3429,445.4258 Z"
        id="Fill-58"
        fill="#595E7C"></path>
      <polygon id="Fill-60" fill="#595E7C" points="177.3409 442.28 184.0709 442.28 184.0709 444.914 180.3399 444.914 180.3399 449.181 183.9249 449.181 183.9249 451.815 180.3399 451.815 180.3399 459.351 177.3409 459.351"></polygon>
      <path
        d="M193.8014,455.9128 C193.8014,456.2538 193.8874,456.5068 194.0574,456.6688 C194.2284,456.8318 194.5414,456.9128 194.9964,456.9128 C195.4684,456.9128 195.7844,456.8318 195.9474,456.6688 C196.1104,456.5068 196.1924,456.2538 196.1924,455.9128 L196.1924,445.7188 C196.1924,445.3778 196.1104,445.1258 195.9474,444.9628 C195.7844,444.8008 195.4684,444.7188 194.9964,444.7188 C194.5414,444.7188 194.2284,444.8008 194.0574,444.9628 C193.8874,445.1258 193.8014,445.3778 193.8014,445.7188 L193.8014,455.9128 Z M190.8024,445.4258 C190.8024,444.7758 190.8744,444.2348 191.0214,443.8048 C191.1674,443.3738 191.4074,443.0278 191.7404,442.7668 C192.0734,442.5078 192.5044,442.3288 193.0334,442.2308 C193.5614,442.1338 194.2164,442.0848 194.9964,442.0848 C195.7774,442.0848 196.4354,442.1338 196.9724,442.2308 C197.5084,442.3288 197.9434,442.5078 198.2774,442.7668 C198.6104,443.0278 198.8504,443.3738 198.9954,443.8048 C199.1424,444.2348 199.2154,444.7758 199.2154,445.4258 L199.2154,456.1818 C199.2154,456.8478 199.1424,457.3958 198.9954,457.8268 C198.8504,458.2588 198.6104,458.5998 198.2774,458.8508 C197.9434,459.1028 197.5084,459.2818 196.9724,459.3878 C196.4354,459.4938 195.7774,459.5468 194.9964,459.5468 C194.2164,459.5468 193.5614,459.4938 193.0334,459.3878 C192.5044,459.2818 192.0734,459.1028 191.7404,458.8508 C191.4074,458.5998 191.1674,458.2588 191.0214,457.8268 C190.8744,457.3958 190.8024,456.8478 190.8024,456.1818 L190.8024,445.4258 Z"
        id="Fill-62"
        fill="#595E7C"></path>
      <polygon id="Fill-64" fill="#595E7C" points="201.8004 442.28 208.5304 442.28 208.5304 444.914 204.7994 444.914 204.7994 449.181 208.3844 449.181 208.3844 451.815 204.7994 451.815 204.7994 459.351 201.8004 459.351"></polygon>
      <polygon id="Fill-66" fill="#595E7C" points="215.2613 450.2058 215.2613 442.2798 218.2603 442.2798 218.2603 450.1568 218.2603 459.3518 215.2613 459.3518"></polygon>
      <path
        d="M225.6012,456.7175 C225.7962,456.7175 225.9262,456.6775 225.9922,456.5955 C226.0562,456.5145 226.0892,456.3845 226.0892,456.2045 L226.0892,445.4015 C226.0892,445.2225 226.0562,445.0965 225.9922,445.0235 C225.9262,444.9495 225.7962,444.9135 225.6012,444.9135 L223.8452,444.9135 L223.8452,456.7175 L225.6012,456.7175 Z M220.8462,442.2795 L226.1142,442.2795 C226.7632,442.2795 227.2842,442.3575 227.6742,442.5115 C228.0652,442.6665 228.3652,442.8815 228.5772,443.1575 C228.7882,443.4345 228.9262,443.7725 228.9922,444.1695 C229.0562,444.5695 229.0882,445.0205 229.0882,445.5235 L229.0882,456.1085 C229.0882,456.5955 229.0562,457.0385 228.9922,457.4375 C228.9262,457.8355 228.7882,458.1765 228.5772,458.4605 C228.3652,458.7455 228.0652,458.9655 227.6742,459.1195 C227.2842,459.2745 226.7632,459.3515 226.1142,459.3515 L220.8462,459.3515 L220.8462,442.2795 Z"
        id="Fill-68"
        fill="#595E7C"></path>
      <polygon id="Fill-70" fill="#595E7C" points="231.6744 442.28 238.6004 442.28 238.6004 444.914 234.6734 444.914 234.6734 449.181 238.4784 449.181 238.4784 451.815 234.6734 451.815 234.6734 456.718 238.6004 456.718 238.6004 459.351 231.6744 459.351"></polygon>
      <path
        d="M245.1607,445.2312 L244.6727,445.2312 L243.7947,452.1812 L245.9657,452.1812 L245.1607,445.2312 Z M246.3307,454.8152 L243.4537,454.8152 L242.8437,459.3512 L239.8447,459.3512 L242.1847,442.2802 L247.5747,442.2802 L249.9647,459.3512 L246.9407,459.3512 L246.3307,454.8152 Z"
        id="Fill-72"
        fill="#595E7C"></path>
      <path
        d="M453.4781,205.1833 C453.4781,204.8913 453.3931,204.6883 453.2221,204.5743 C453.0511,204.4603 452.8031,204.4033 452.4781,204.4033 C452.1691,204.4033 451.9251,204.4603 451.7471,204.5743 C451.5681,204.6883 451.4781,204.8913 451.4781,205.1833 L451.4781,215.8173 C451.4781,216.1093 451.5681,216.3133 451.7471,216.4263 C451.9251,216.5403 452.1691,216.5973 452.4781,216.5973 C452.8031,216.5973 453.0511,216.5403 453.2221,216.4263 C453.3931,216.3133 453.4781,216.1093 453.4781,215.8173 L453.4781,212.2323 L456.4781,212.2323 L456.4781,216.3533 C456.4781,216.8083 456.4201,217.2153 456.3071,217.5733 C456.1931,217.9303 455.9901,218.2313 455.6981,218.4753 C455.4051,218.7183 454.9991,218.9063 454.4781,219.0363 C453.9571,219.1653 453.2911,219.2313 452.4781,219.2313 C451.6651,219.2313 451.0021,219.1653 450.4911,219.0363 C449.9781,218.9063 449.5761,218.7183 449.2841,218.4753 C448.9911,218.2313 448.7881,217.9303 448.6731,217.5733 C448.5601,217.2153 448.5031,216.8083 448.5031,216.3533 L448.5031,204.6473 C448.5031,204.1923 448.5601,203.7863 448.6731,203.4273 C448.7881,203.0703 448.9911,202.7693 449.2841,202.5253 C449.5761,202.2823 449.9781,202.0943 450.4911,201.9643 C451.0021,201.8343 451.6651,201.7693 452.4781,201.7693 C453.2911,201.7693 453.9571,201.8343 454.4781,201.9643 C454.9991,202.0943 455.4051,202.2823 455.6981,202.5253 C455.9901,202.7693 456.1931,203.0703 456.3071,203.4273 C456.4201,203.7863 456.4781,204.1923 456.4781,204.6473 L456.4781,208.5983 L453.4781,208.5983 L453.4781,205.1833 Z"
        id="Fill-74"
        fill="#595E7C"></path>
      <path
        d="M463.4518,204.989 C463.4518,204.598 463.1188,204.403 462.4528,204.403 C461.7538,204.403 461.4038,204.598 461.4038,204.989 L461.4038,206.574 C461.4038,206.85 461.4318,207.061 461.4888,207.208 C461.5458,207.354 461.6228,207.476 461.7208,207.574 L465.4278,210.964 C465.7528,211.24 466.0138,211.557 466.2078,211.915 C466.4028,212.272 466.5008,212.777 466.5008,213.427 L466.5008,216.231 C466.5008,217.304 466.1798,218.073 465.5378,218.536 C464.8948,219 463.8668,219.231 462.4528,219.231 C461.7208,219.231 461.0908,219.182 460.5618,219.085 C460.0338,218.987 459.6068,218.821 459.2818,218.585 C458.9568,218.349 458.7168,218.04 458.5618,217.658 C458.4078,217.276 458.3308,216.801 458.3308,216.231 L458.3308,212.402 L461.3058,212.402 L461.3058,215.889 C461.3058,216.15 461.4078,216.333 461.6108,216.438 C461.8138,216.545 462.0948,216.597 462.4528,216.597 C462.7618,216.597 463.0138,216.545 463.2088,216.438 C463.4028,216.333 463.5008,216.15 463.5008,215.889 L463.5008,213.719 C463.5008,213.492 463.4758,213.309 463.4278,213.171 C463.3798,213.033 463.2898,212.907 463.1598,212.793 L459.6968,209.793 C459.2898,209.435 458.9728,209.046 458.7458,208.623 C458.5168,208.2 458.4038,207.606 458.4038,206.843 L458.4038,204.769 C458.4038,203.68 458.7218,202.908 459.3548,202.452 C459.9888,201.998 461.0208,201.769 462.4528,201.769 C463.9478,201.769 464.9888,202.001 465.5738,202.465 C466.1588,202.927 466.4518,203.664 466.4518,204.672 L466.4518,207.842 L463.4518,207.842 L463.4518,204.989 Z"
        id="Fill-76"
        fill="#595E7C"></path>
      <polygon
        id="Fill-78"
        fill="#595E7C"
        points="468.5982 201.9646 475.5242 201.9646 475.5242 204.5986 471.5972 204.5986 471.5972 208.8656 475.4022 208.8656 475.4022 211.4996 471.5972 211.4996 471.5972 216.4026 475.5242 216.4026 475.5242 219.0356 468.5982 219.0356"></polygon>
      <polygon
        id="Fill-80"
        fill="#595E7C"
        points="487.5475 201.9646 489.3275 215.2066 489.7425 215.2066 491.2545 201.9646 496.5465 201.9646 496.5465 219.0356 493.7665 219.0356 493.7665 205.0856 493.4485 205.0856 491.4745 219.0356 487.6205 219.0356 485.5965 205.0856 485.2785 205.0856 485.2785 219.0356 482.4995 219.0356 482.4995 201.9646"></polygon>
      <path
        d="M503.5943,204.9158 L503.1063,204.9158 L502.2283,211.8658 L504.3993,211.8658 L503.5943,204.9158 Z M504.7643,214.4998 L501.8873,214.4998 L501.2773,219.0358 L498.2783,219.0358 L500.6183,201.9648 L506.0083,201.9648 L508.3983,219.0358 L505.3743,219.0358 L504.7643,214.4998 Z"
        id="Fill-82"
        fill="#595E7C"></path>
      <polygon id="Fill-84" fill="#595E7C" points="511.0328 204.5984 508.5458 204.5984 508.5458 201.9644 516.5448 201.9644 516.5448 204.5984 514.0328 204.5984 514.0328 219.0364 511.0328 219.0364"></polygon>
      <path
        d="M523.0074,205.1833 C523.0074,204.8913 522.9224,204.6883 522.7514,204.5743 C522.5804,204.4603 522.3324,204.4033 522.0074,204.4033 C521.6984,204.4033 521.4544,204.4603 521.2764,204.5743 C521.0974,204.6883 521.0074,204.8913 521.0074,205.1833 L521.0074,215.8173 C521.0074,216.1093 521.0974,216.3133 521.2764,216.4263 C521.4544,216.5403 521.6984,216.5973 522.0074,216.5973 C522.3324,216.5973 522.5804,216.5403 522.7514,216.4263 C522.9224,216.3133 523.0074,216.1093 523.0074,215.8173 L523.0074,212.2323 L526.0074,212.2323 L526.0074,216.3533 C526.0074,216.8083 525.9494,217.2153 525.8364,217.5733 C525.7224,217.9303 525.5194,218.2313 525.2274,218.4753 C524.9344,218.7183 524.5284,218.9063 524.0074,219.0363 C523.4864,219.1653 522.8204,219.2313 522.0074,219.2313 C521.1944,219.2313 520.5314,219.1653 520.0204,219.0363 C519.5074,218.9063 519.1054,218.7183 518.8134,218.4753 C518.5204,218.2313 518.3174,217.9303 518.2024,217.5733 C518.0894,217.2153 518.0324,216.8083 518.0324,216.3533 L518.0324,204.6473 C518.0324,204.1923 518.0894,203.7863 518.2024,203.4273 C518.3174,203.0703 518.5204,202.7693 518.8134,202.5253 C519.1054,202.2823 519.5074,202.0943 520.0204,201.9643 C520.5314,201.8343 521.1944,201.7693 522.0074,201.7693 C522.8204,201.7693 523.4864,201.8343 524.0074,201.9643 C524.5284,202.0943 524.9344,202.2823 525.2274,202.5253 C525.5194,202.7693 525.7224,203.0703 525.8364,203.4273 C525.9494,203.7863 526.0074,204.1923 526.0074,204.6473 L526.0074,208.5983 L523.0074,208.5983 L523.0074,205.1833 Z"
        id="Fill-86"
        fill="#595E7C"></path>
      <polygon
        id="Fill-88"
        fill="#595E7C"
        points="533.8834 201.9646 536.8834 201.9646 536.8834 219.0356 533.8834 219.0356 533.8834 211.4996 531.3474 211.4996 531.3474 219.0356 528.3484 219.0356 528.3484 201.9646 531.3474 201.9646 531.3474 208.8656 533.8834 208.8656"></polygon>
      <path
        d="M544.3463,201.9646 L547.3453,201.9646 L547.3453,215.5976 C547.3453,215.9716 547.4223,216.2316 547.5763,216.3776 C547.7323,216.5246 548.0363,216.5976 548.4923,216.5976 C548.9303,216.5976 549.2233,216.5246 549.3693,216.3776 C549.5163,216.2316 549.5893,215.9716 549.5893,215.5976 L549.5893,201.9646 L552.6133,201.9646 L552.6133,215.8656 C552.6133,216.4026 552.5563,216.8776 552.4433,217.2916 C552.3283,217.7066 552.1173,218.0606 551.8083,218.3536 C551.4993,218.6456 551.0763,218.8646 550.5403,219.0116 C550.0033,219.1576 549.3213,219.2316 548.4923,219.2316 C547.6463,219.2316 546.9553,219.1576 546.4183,219.0116 C545.8823,218.8646 545.4593,218.6456 545.1513,218.3536 C544.8413,218.0606 544.6303,217.7066 544.5163,217.2916 C544.4033,216.8776 544.3463,216.4026 544.3463,215.8656 L544.3463,201.9646 Z"
        id="Fill-90"
        fill="#595E7C"></path>
      <path
        d="M559.9049,209.3054 C560.2469,209.3054 560.4179,209.0944 560.4179,208.6714 L560.4179,205.2074 C560.4179,204.9804 560.3559,204.8224 560.2339,204.7324 C560.1129,204.6434 559.9619,204.5984 559.7829,204.5984 L558.1979,204.5984 L558.1979,209.3054 L559.9049,209.3054 Z M555.1989,201.9644 L560.2219,201.9644 C560.6619,201.9644 561.0759,202.0094 561.4669,202.0984 C561.8559,202.1884 562.1939,202.3344 562.4779,202.5374 C562.7619,202.7414 562.9899,203.0174 563.1609,203.3674 C563.3319,203.7164 563.4169,204.1594 563.4169,204.6964 L563.4169,208.8904 C563.4169,209.8174 563.1689,210.5614 562.6739,211.1214 C562.1769,211.6834 561.4179,211.9634 560.3929,211.9634 L558.1979,211.9634 L558.1979,219.0354 L555.1989,219.0354 L555.1989,201.9644 Z"
        id="Fill-92"
        fill="#595E7C"></path>
      <path
        d="M511.5465,327.5857 C511.8885,327.5857 512.0595,327.3747 512.0595,326.9517 L512.0595,323.4877 C512.0595,323.2607 511.9975,323.1027 511.8755,323.0127 C511.7545,322.9237 511.6035,322.8787 511.4245,322.8787 L509.8395,322.8787 L509.8395,327.5857 L511.5465,327.5857 Z M506.8405,320.2447 L511.8635,320.2447 C512.3035,320.2447 512.7175,320.2897 513.1085,320.3787 C513.4975,320.4687 513.8355,320.6147 514.1195,320.8177 C514.4035,321.0217 514.6315,321.2977 514.8025,321.6477 C514.9735,321.9967 515.0585,322.4397 515.0585,322.9767 L515.0585,327.1707 C515.0585,328.0977 514.8105,328.8417 514.3155,329.4017 C513.8185,329.9637 513.0595,330.2437 512.0345,330.2437 L509.8395,330.2437 L509.8395,337.3157 L506.8405,337.3157 L506.8405,320.2447 Z"
        id="Fill-94"
        fill="#595E7C"></path>
      <path
        d="M521.6188,327.5857 C521.9608,327.5857 522.1318,327.3747 522.1318,326.9517 L522.1318,323.4877 C522.1318,323.2607 522.0828,323.1027 521.9848,323.0127 C521.8878,322.9237 521.7238,322.8787 521.4968,322.8787 L519.9118,322.8787 L519.9118,327.5857 L521.6188,327.5857 Z M516.9128,320.2447 L521.9358,320.2447 C522.3758,320.2447 522.7898,320.2897 523.1808,320.3787 C523.5698,320.4687 523.9078,320.6147 524.1918,320.8177 C524.4758,321.0217 524.7038,321.2977 524.8748,321.6477 C525.0458,321.9967 525.1308,322.4397 525.1308,322.9767 L525.1308,327.1707 C525.1308,327.5617 525.0738,327.9067 524.9608,328.2077 C524.8468,328.5087 524.7078,328.7687 524.5458,328.9877 C524.3828,329.2077 524.2078,329.3867 524.0208,329.5237 C523.8348,329.6627 523.6758,329.7557 523.5458,329.8047 L525.3748,337.3157 L522.3758,337.3157 L520.7898,330.2197 L519.9118,330.2197 L519.9118,337.3157 L516.9128,337.3157 L516.9128,320.2447 Z"
        id="Fill-96"
        fill="#595E7C"></path>
      <path
        d="M530.7155,333.8777 C530.7155,334.2187 530.8015,334.4717 530.9715,334.6337 C531.1425,334.7967 531.4555,334.8777 531.9105,334.8777 C532.3825,334.8777 532.6985,334.7967 532.8615,334.6337 C533.0245,334.4717 533.1065,334.2187 533.1065,333.8777 L533.1065,323.6837 C533.1065,323.3427 533.0245,323.0907 532.8615,322.9277 C532.6985,322.7657 532.3825,322.6837 531.9105,322.6837 C531.4555,322.6837 531.1425,322.7657 530.9715,322.9277 C530.8015,323.0907 530.7155,323.3427 530.7155,323.6837 L530.7155,333.8777 Z M527.7165,323.3907 C527.7165,322.7407 527.7885,322.1997 527.9355,321.7697 C528.0815,321.3387 528.3215,320.9927 528.6545,320.7317 C528.9875,320.4727 529.4185,320.2937 529.9475,320.1957 C530.4755,320.0987 531.1305,320.0497 531.9105,320.0497 C532.6915,320.0497 533.3495,320.0987 533.8865,320.1957 C534.4225,320.2937 534.8575,320.4727 535.1915,320.7317 C535.5245,320.9927 535.7645,321.3387 535.9095,321.7697 C536.0565,322.1997 536.1295,322.7407 536.1295,323.3907 L536.1295,334.1467 C536.1295,334.8127 536.0565,335.3607 535.9095,335.7917 C535.7645,336.2237 535.5245,336.5647 535.1915,336.8157 C534.8575,337.0677 534.4225,337.2467 533.8865,337.3527 C533.3495,337.4587 532.6915,337.5117 531.9105,337.5117 C531.1305,337.5117 530.4755,337.4587 529.9475,337.3527 C529.4185,337.2467 528.9875,337.0677 528.6545,336.8157 C528.3215,336.5647 528.0815,336.2237 527.9355,335.7917 C527.7885,335.3607 527.7165,334.8127 527.7165,334.1467 L527.7165,323.3907 Z"
        id="Fill-98"
        fill="#595E7C"></path>
      <path
        d="M541.7135,333.8777 C541.7135,334.2187 541.7995,334.4717 541.9695,334.6337 C542.1405,334.7967 542.4535,334.8777 542.9085,334.8777 C543.3805,334.8777 543.6965,334.7967 543.8595,334.6337 C544.0225,334.4717 544.1045,334.2187 544.1045,333.8777 L544.1045,323.6837 C544.1045,323.3427 544.0225,323.0907 543.8595,322.9277 C543.6965,322.7657 543.3805,322.6837 542.9085,322.6837 C542.4535,322.6837 542.1405,322.7657 541.9695,322.9277 C541.7995,323.0907 541.7135,323.3427 541.7135,323.6837 L541.7135,333.8777 Z M538.7145,323.3907 C538.7145,322.7407 538.7865,322.1997 538.9335,321.7697 C539.0795,321.3387 539.3195,320.9927 539.6525,320.7317 C539.9855,320.4727 540.4165,320.2937 540.9455,320.1957 C541.4735,320.0987 542.1285,320.0497 542.9085,320.0497 C543.6895,320.0497 544.3475,320.0987 544.8845,320.1957 C545.4205,320.2937 545.8555,320.4727 546.1895,320.7317 C546.5225,320.9927 546.7625,321.3387 546.9075,321.7697 C547.0545,322.1997 547.1275,322.7407 547.1275,323.3907 L547.1275,334.1467 C547.1275,334.8127 547.0545,335.3607 546.9075,335.7917 C546.7625,336.2237 546.5225,336.5647 546.1895,336.8157 C545.8555,337.0677 545.4205,337.2467 544.8845,337.3527 C544.3475,337.4587 543.6895,337.5117 542.9085,337.5117 C542.1285,337.5117 541.4735,337.4587 540.9455,337.3527 C540.4165,337.2467 539.9855,337.0677 539.6525,336.8157 C539.3195,336.5647 539.0795,336.2237 538.9335,335.7917 C538.7865,335.3607 538.7145,334.8127 538.7145,334.1467 L538.7145,323.3907 Z"
        id="Fill-100"
        fill="#595E7C"></path>
      <polygon id="Fill-102" fill="#595E7C" points="549.7125 320.2449 556.4425 320.2449 556.4425 322.8789 552.7115 322.8789 552.7115 327.1459 556.2965 327.1459 556.2965 329.7799 552.7115 329.7799 552.7115 337.3159 549.7125 337.3159"></polygon>
      <path
        d="M566.1725,333.8777 C566.1725,334.2187 566.2585,334.4717 566.4285,334.6337 C566.5995,334.7967 566.9125,334.8777 567.3675,334.8777 C567.8395,334.8777 568.1555,334.7967 568.3185,334.6337 C568.4815,334.4717 568.5635,334.2187 568.5635,333.8777 L568.5635,323.6837 C568.5635,323.3427 568.4815,323.0907 568.3185,322.9277 C568.1555,322.7657 567.8395,322.6837 567.3675,322.6837 C566.9125,322.6837 566.5995,322.7657 566.4285,322.9277 C566.2585,323.0907 566.1725,323.3427 566.1725,323.6837 L566.1725,333.8777 Z M563.1735,323.3907 C563.1735,322.7407 563.2455,322.1997 563.3925,321.7697 C563.5385,321.3387 563.7785,320.9927 564.1115,320.7317 C564.4445,320.4727 564.8755,320.2937 565.4045,320.1957 C565.9325,320.0987 566.5875,320.0497 567.3675,320.0497 C568.1485,320.0497 568.8065,320.0987 569.3435,320.1957 C569.8795,320.2937 570.3145,320.4727 570.6485,320.7317 C570.9815,320.9927 571.2215,321.3387 571.3665,321.7697 C571.5135,322.1997 571.5865,322.7407 571.5865,323.3907 L571.5865,334.1467 C571.5865,334.8127 571.5135,335.3607 571.3665,335.7917 C571.2215,336.2237 570.9815,336.5647 570.6485,336.8157 C570.3145,337.0677 569.8795,337.2467 569.3435,337.3527 C568.8065,337.4587 568.1485,337.5117 567.3675,337.5117 C566.5875,337.5117 565.9325,337.4587 565.4045,337.3527 C564.8755,337.2467 564.4445,337.0677 564.1115,336.8157 C563.7785,336.5647 563.5385,336.2237 563.3925,335.7917 C563.2455,335.3607 563.1735,334.8127 563.1735,334.1467 L563.1735,323.3907 Z"
        id="Fill-104"
        fill="#595E7C"></path>
      <polygon id="Fill-106" fill="#595E7C" points="574.1715 320.2449 580.9015 320.2449 580.9015 322.8789 577.1705 322.8789 577.1705 327.1459 580.7555 327.1459 580.7555 329.7799 577.1705 329.7799 577.1705 337.3159 574.1715 337.3159"></polygon>
      <path
        d="M591.9977,334.6824 C592.1767,334.6824 592.3347,334.6374 592.4737,334.5484 C592.6107,334.4584 592.6807,334.3004 592.6807,334.0734 L592.6807,330.2684 C592.6807,330.0894 592.6147,329.9634 592.4847,329.8904 C592.3547,329.8174 592.2257,329.7804 592.0957,329.7804 L590.6317,329.7804 L590.6317,334.6824 L591.9977,334.6824 Z M592.0957,327.1464 C592.2257,327.1464 592.3427,327.0974 592.4487,326.9994 C592.5547,326.9034 592.6067,326.7404 592.6067,326.5124 L592.6067,323.4884 C592.6067,323.2604 592.5377,323.1024 592.3997,323.0124 C592.2617,322.9234 592.1197,322.8784 591.9737,322.8784 L590.6317,322.8784 L590.6317,327.1464 L592.0957,327.1464 Z M587.6327,320.2444 L592.6557,320.2444 C593.0957,320.2444 593.4977,320.2894 593.8627,320.3784 C594.2287,320.4684 594.5377,320.6154 594.7897,320.8184 C595.0417,321.0214 595.2407,321.2974 595.3877,321.6474 C595.5337,321.9964 595.6067,322.4404 595.6067,322.9764 L595.6067,326.7324 C595.6067,327.2034 595.4847,327.5574 595.2407,327.7924 C594.9967,328.0294 594.7687,328.1954 594.5587,328.2924 L594.5587,328.4634 C594.7857,328.5444 595.0297,328.6954 595.2897,328.9144 C595.5497,329.1344 595.6807,329.4634 595.6807,329.9024 L595.6807,334.5604 C595.6807,335.0804 595.6067,335.5204 595.4607,335.8774 C595.3137,336.2354 595.1107,336.5194 594.8517,336.7314 C594.5907,336.9424 594.2727,337.0924 593.8997,337.1824 C593.5247,337.2714 593.1107,337.3164 592.6557,337.3164 L587.6327,337.3164 L587.6327,320.2444 Z"
        id="Fill-108"
        fill="#595E7C"></path>
      <path
        d="M598.2653,320.2449 L601.2643,320.2449 L601.2643,333.8779 C601.2643,334.2519 601.3413,334.5119 601.4953,334.6579 C601.6513,334.8049 601.9553,334.8779 602.4113,334.8779 C602.8493,334.8779 603.1423,334.8049 603.2883,334.6579 C603.4353,334.5119 603.5083,334.2519 603.5083,333.8779 L603.5083,320.2449 L606.5323,320.2449 L606.5323,334.1459 C606.5323,334.6829 606.4753,335.1579 606.3623,335.5719 C606.2473,335.9869 606.0363,336.3409 605.7273,336.6339 C605.4183,336.9259 604.9953,337.1449 604.4593,337.2919 C603.9223,337.4379 603.2403,337.5119 602.4113,337.5119 C601.5653,337.5119 600.8743,337.4379 600.3373,337.2919 C599.8013,337.1449 599.3783,336.9259 599.0703,336.6339 C598.7603,336.3409 598.5493,335.9869 598.4353,335.5719 C598.3223,335.1579 598.2653,334.6829 598.2653,334.1459 L598.2653,320.2449 Z"
        id="Fill-110"
        fill="#595E7C"></path>
      <path
        d="M613.7506,323.2693 C613.7506,322.8783 613.4176,322.6833 612.7516,322.6833 C612.0526,322.6833 611.7026,322.8783 611.7026,323.2693 L611.7026,324.8543 C611.7026,325.1303 611.7306,325.3413 611.7876,325.4883 C611.8446,325.6343 611.9216,325.7563 612.0196,325.8543 L615.7266,329.2443 C616.0516,329.5203 616.3126,329.8373 616.5066,330.1953 C616.7016,330.5523 616.7996,331.0573 616.7996,331.7073 L616.7996,334.5113 C616.7996,335.5843 616.4786,336.3533 615.8366,336.8163 C615.1936,337.2803 614.1656,337.5113 612.7516,337.5113 C612.0196,337.5113 611.3896,337.4623 610.8606,337.3653 C610.3326,337.2673 609.9056,337.1013 609.5806,336.8653 C609.2556,336.6293 609.0156,336.3203 608.8606,335.9383 C608.7066,335.5563 608.6296,335.0813 608.6296,334.5113 L608.6296,330.6823 L611.6046,330.6823 L611.6046,334.1693 C611.6046,334.4303 611.7066,334.6133 611.9096,334.7183 C612.1126,334.8253 612.3936,334.8773 612.7516,334.8773 C613.0606,334.8773 613.3126,334.8253 613.5076,334.7183 C613.7016,334.6133 613.7996,334.4303 613.7996,334.1693 L613.7996,331.9993 C613.7996,331.7723 613.7746,331.5893 613.7266,331.4513 C613.6786,331.3133 613.5886,331.1873 613.4586,331.0733 L609.9956,328.0733 C609.5886,327.7153 609.2716,327.3263 609.0446,326.9033 C608.8156,326.4803 608.7026,325.8863 608.7026,325.1233 L608.7026,323.0493 C608.7026,321.9603 609.0206,321.1883 609.6536,320.7323 C610.2876,320.2783 611.3196,320.0493 612.7516,320.0493 C614.2466,320.0493 615.2876,320.2813 615.8726,320.7453 C616.4576,321.2073 616.7506,321.9443 616.7506,322.9523 L616.7506,326.1223 L613.7506,326.1223 L613.7506,323.2693 Z"
        id="Fill-112"
        fill="#595E7C"></path>
      <polygon id="Fill-114" fill="#595E7C" points="618.8971 328.1706 618.8971 320.2446 621.8961 320.2446 621.8961 328.1216 621.8961 337.3166 618.8971 337.3166"></polygon>
      <polygon
        id="Fill-116"
        fill="#595E7C"
        points="629.4323 320.2449 631.8953 333.7069 632.1633 333.7069 632.1633 320.2449 634.9443 320.2449 634.9443 337.3159 630.2373 337.3159 627.6033 323.3909 627.2613 323.3909 627.2613 337.3159 624.4823 337.3159 624.4823 320.2449"></polygon>
      <polygon
        id="Fill-118"
        fill="#595E7C"
        points="637.5289 320.2449 644.4549 320.2449 644.4549 322.8789 640.5279 322.8789 640.5279 327.1459 644.3329 327.1459 644.3329 329.7799 640.5279 329.7799 640.5279 334.6829 644.4549 334.6829 644.4549 337.3159 637.5289 337.3159"></polygon>
      <path
        d="M651.1852,323.2693 C651.1852,322.8783 650.8522,322.6833 650.1862,322.6833 C649.4872,322.6833 649.1372,322.8783 649.1372,323.2693 L649.1372,324.8543 C649.1372,325.1303 649.1652,325.3413 649.2222,325.4883 C649.2792,325.6343 649.3562,325.7563 649.4542,325.8543 L653.1612,329.2443 C653.4862,329.5203 653.7472,329.8373 653.9412,330.1953 C654.1362,330.5523 654.2342,331.0573 654.2342,331.7073 L654.2342,334.5113 C654.2342,335.5843 653.9132,336.3533 653.2712,336.8163 C652.6282,337.2803 651.6002,337.5113 650.1862,337.5113 C649.4542,337.5113 648.8242,337.4623 648.2952,337.3653 C647.7672,337.2673 647.3402,337.1013 647.0152,336.8653 C646.6902,336.6293 646.4502,336.3203 646.2952,335.9383 C646.1412,335.5563 646.0642,335.0813 646.0642,334.5113 L646.0642,330.6823 L649.0392,330.6823 L649.0392,334.1693 C649.0392,334.4303 649.1412,334.6133 649.3442,334.7183 C649.5472,334.8253 649.8282,334.8773 650.1862,334.8773 C650.4952,334.8773 650.7472,334.8253 650.9422,334.7183 C651.1362,334.6133 651.2342,334.4303 651.2342,334.1693 L651.2342,331.9993 C651.2342,331.7723 651.2092,331.5893 651.1612,331.4513 C651.1132,331.3133 651.0232,331.1873 650.8932,331.0733 L647.4302,328.0733 C647.0232,327.7153 646.7062,327.3263 646.4792,326.9033 C646.2502,326.4803 646.1372,325.8863 646.1372,325.1233 L646.1372,323.0493 C646.1372,321.9603 646.4552,321.1883 647.0882,320.7323 C647.7222,320.2783 648.7542,320.0493 650.1862,320.0493 C651.6812,320.0493 652.7222,320.2813 653.3072,320.7453 C653.8922,321.2073 654.1852,321.9443 654.1852,322.9523 L654.1852,326.1223 L651.1852,326.1223 L651.1852,323.2693 Z"
        id="Fill-120"
        fill="#595E7C"></path>
      <path
        d="M660.9645,323.2693 C660.9645,322.8783 660.6315,322.6833 659.9655,322.6833 C659.2665,322.6833 658.9165,322.8783 658.9165,323.2693 L658.9165,324.8543 C658.9165,325.1303 658.9445,325.3413 659.0015,325.4883 C659.0585,325.6343 659.1355,325.7563 659.2335,325.8543 L662.9405,329.2443 C663.2655,329.5203 663.5265,329.8373 663.7205,330.1953 C663.9155,330.5523 664.0135,331.0573 664.0135,331.7073 L664.0135,334.5113 C664.0135,335.5843 663.6925,336.3533 663.0505,336.8163 C662.4075,337.2803 661.3795,337.5113 659.9655,337.5113 C659.2335,337.5113 658.6035,337.4623 658.0745,337.3653 C657.5465,337.2673 657.1195,337.1013 656.7945,336.8653 C656.4695,336.6293 656.2295,336.3203 656.0745,335.9383 C655.9205,335.5563 655.8435,335.0813 655.8435,334.5113 L655.8435,330.6823 L658.8185,330.6823 L658.8185,334.1693 C658.8185,334.4303 658.9205,334.6133 659.1235,334.7183 C659.3265,334.8253 659.6075,334.8773 659.9655,334.8773 C660.2745,334.8773 660.5265,334.8253 660.7215,334.7183 C660.9155,334.6133 661.0135,334.4303 661.0135,334.1693 L661.0135,331.9993 C661.0135,331.7723 660.9885,331.5893 660.9405,331.4513 C660.8925,331.3133 660.8025,331.1873 660.6725,331.0733 L657.2095,328.0733 C656.8025,327.7153 656.4855,327.3263 656.2585,326.9033 C656.0295,326.4803 655.9165,325.8863 655.9165,325.1233 L655.9165,323.0493 C655.9165,321.9603 656.2345,321.1883 656.8675,320.7323 C657.5015,320.2783 658.5335,320.0493 659.9655,320.0493 C661.4605,320.0493 662.5015,320.2813 663.0865,320.7453 C663.6715,321.2073 663.9645,321.9443 663.9645,322.9523 L663.9645,326.1223 L660.9645,326.1223 L660.9645,323.2693 Z"
        id="Fill-122"
        fill="#595E7C"></path>
      <path
        d="M560.2018,437.489 C560.5438,437.489 560.7148,437.278 560.7148,436.855 L560.7148,433.391 C560.7148,433.164 560.6528,433.006 560.5308,432.916 C560.4098,432.827 560.2588,432.782 560.0798,432.782 L558.4948,432.782 L558.4948,437.489 L560.2018,437.489 Z M555.4958,430.148 L560.5188,430.148 C560.9588,430.148 561.3728,430.193 561.7638,430.282 C562.1528,430.372 562.4908,430.518 562.7748,430.721 C563.0588,430.925 563.2868,431.201 563.4578,431.551 C563.6288,431.9 563.7138,432.343 563.7138,432.88 L563.7138,437.074 C563.7138,438.001 563.4658,438.745 562.9708,439.305 C562.4738,439.867 561.7148,440.147 560.6898,440.147 L558.4948,440.147 L558.4948,447.219 L555.4958,447.219 L555.4958,430.148 Z"
        id="Fill-124"
        fill="#595E7C"></path>
      <path
        d="M570.274,437.489 C570.616,437.489 570.787,437.278 570.787,436.855 L570.787,433.391 C570.787,433.164 570.738,433.006 570.64,432.916 C570.543,432.827 570.379,432.782 570.152,432.782 L568.567,432.782 L568.567,437.489 L570.274,437.489 Z M565.568,430.148 L570.591,430.148 C571.031,430.148 571.445,430.193 571.836,430.282 C572.225,430.372 572.563,430.518 572.847,430.721 C573.131,430.925 573.359,431.201 573.53,431.551 C573.701,431.9 573.786,432.343 573.786,432.88 L573.786,437.074 C573.786,437.465 573.729,437.81 573.616,438.111 C573.502,438.412 573.363,438.672 573.201,438.891 C573.038,439.111 572.863,439.29 572.676,439.427 C572.49,439.566 572.331,439.659 572.201,439.708 L574.03,447.219 L571.031,447.219 L569.445,440.123 L568.567,440.123 L568.567,447.219 L565.568,447.219 L565.568,430.148 Z"
        id="Fill-126"
        fill="#595E7C"></path>
      <path
        d="M579.3707,443.781 C579.3707,444.122 579.4567,444.375 579.6267,444.537 C579.7977,444.7 580.1107,444.781 580.5657,444.781 C581.0377,444.781 581.3537,444.7 581.5167,444.537 C581.6797,444.375 581.7617,444.122 581.7617,443.781 L581.7617,433.587 C581.7617,433.246 581.6797,432.994 581.5167,432.831 C581.3537,432.669 581.0377,432.587 580.5657,432.587 C580.1107,432.587 579.7977,432.669 579.6267,432.831 C579.4567,432.994 579.3707,433.246 579.3707,433.587 L579.3707,443.781 Z M576.3717,433.294 C576.3717,432.644 576.4437,432.103 576.5907,431.673 C576.7367,431.242 576.9767,430.896 577.3097,430.635 C577.6427,430.376 578.0737,430.197 578.6027,430.099 C579.1307,430.002 579.7857,429.953 580.5657,429.953 C581.3467,429.953 582.0047,430.002 582.5417,430.099 C583.0777,430.197 583.5127,430.376 583.8467,430.635 C584.1797,430.896 584.4197,431.242 584.5647,431.673 C584.7117,432.103 584.7847,432.644 584.7847,433.294 L584.7847,444.05 C584.7847,444.716 584.7117,445.264 584.5647,445.695 C584.4197,446.127 584.1797,446.468 583.8467,446.719 C583.5127,446.971 583.0777,447.15 582.5417,447.256 C582.0047,447.362 581.3467,447.415 580.5657,447.415 C579.7857,447.415 579.1307,447.362 578.6027,447.256 C578.0737,447.15 577.6427,446.971 577.3097,446.719 C576.9767,446.468 576.7367,446.127 576.5907,445.695 C576.4437,445.264 576.3717,444.716 576.3717,444.05 L576.3717,433.294 Z"
        id="Fill-128"
        fill="#595E7C"></path>
      <path
        d="M590.3698,443.781 C590.3698,444.122 590.4558,444.375 590.6258,444.537 C590.7968,444.7 591.1098,444.781 591.5648,444.781 C592.0368,444.781 592.3528,444.7 592.5158,444.537 C592.6788,444.375 592.7608,444.122 592.7608,443.781 L592.7608,433.587 C592.7608,433.246 592.6788,432.994 592.5158,432.831 C592.3528,432.669 592.0368,432.587 591.5648,432.587 C591.1098,432.587 590.7968,432.669 590.6258,432.831 C590.4558,432.994 590.3698,433.246 590.3698,433.587 L590.3698,443.781 Z M587.3708,433.294 C587.3708,432.644 587.4428,432.103 587.5898,431.673 C587.7358,431.242 587.9758,430.896 588.3088,430.635 C588.6418,430.376 589.0728,430.197 589.6018,430.099 C590.1298,430.002 590.7848,429.953 591.5648,429.953 C592.3458,429.953 593.0038,430.002 593.5408,430.099 C594.0768,430.197 594.5118,430.376 594.8458,430.635 C595.1788,430.896 595.4188,431.242 595.5638,431.673 C595.7108,432.103 595.7838,432.644 595.7838,433.294 L595.7838,444.05 C595.7838,444.716 595.7108,445.264 595.5638,445.695 C595.4188,446.127 595.1788,446.468 594.8458,446.719 C594.5118,446.971 594.0768,447.15 593.5408,447.256 C593.0038,447.362 592.3458,447.415 591.5648,447.415 C590.7848,447.415 590.1298,447.362 589.6018,447.256 C589.0728,447.15 588.6418,446.971 588.3088,446.719 C587.9758,446.468 587.7358,446.127 587.5898,445.695 C587.4428,445.264 587.3708,444.716 587.3708,444.05 L587.3708,433.294 Z"
        id="Fill-130"
        fill="#595E7C"></path>
      <polygon id="Fill-132" fill="#595E7C" points="598.3688 430.1482 605.0988 430.1482 605.0988 432.7822 601.3678 432.7822 601.3678 437.0492 604.9528 437.0492 604.9528 439.6832 601.3678 439.6832 601.3678 447.2192 598.3688 447.2192"></polygon>
      <path
        d="M614.8287,443.781 C614.8287,444.122 614.9147,444.375 615.0847,444.537 C615.2557,444.7 615.5687,444.781 616.0237,444.781 C616.4957,444.781 616.8117,444.7 616.9747,444.537 C617.1377,444.375 617.2197,444.122 617.2197,443.781 L617.2197,433.587 C617.2197,433.246 617.1377,432.994 616.9747,432.831 C616.8117,432.669 616.4957,432.587 616.0237,432.587 C615.5687,432.587 615.2557,432.669 615.0847,432.831 C614.9147,432.994 614.8287,433.246 614.8287,433.587 L614.8287,443.781 Z M611.8297,433.294 C611.8297,432.644 611.9017,432.103 612.0487,431.673 C612.1947,431.242 612.4347,430.896 612.7677,430.635 C613.1007,430.376 613.5317,430.197 614.0607,430.099 C614.5887,430.002 615.2437,429.953 616.0237,429.953 C616.8047,429.953 617.4627,430.002 617.9997,430.099 C618.5357,430.197 618.9707,430.376 619.3047,430.635 C619.6377,430.896 619.8777,431.242 620.0227,431.673 C620.1697,432.103 620.2427,432.644 620.2427,433.294 L620.2427,444.05 C620.2427,444.716 620.1697,445.264 620.0227,445.695 C619.8777,446.127 619.6377,446.468 619.3047,446.719 C618.9707,446.971 618.5357,447.15 617.9997,447.256 C617.4627,447.362 616.8047,447.415 616.0237,447.415 C615.2437,447.415 614.5887,447.362 614.0607,447.256 C613.5317,447.15 613.1007,446.971 612.7677,446.719 C612.4347,446.468 612.1947,446.127 612.0487,445.695 C611.9017,445.264 611.8297,444.716 611.8297,444.05 L611.8297,433.294 Z"
        id="Fill-134"
        fill="#595E7C"></path>
      <polygon id="Fill-136" fill="#595E7C" points="622.8278 430.1482 629.5578 430.1482 629.5578 432.7822 625.8268 432.7822 625.8268 437.0492 629.4118 437.0492 629.4118 439.6832 625.8268 439.6832 625.8268 447.2192 622.8278 447.2192"></polygon>
      <path
        d="M641.2633,433.3669 C641.2633,433.0749 641.1783,432.8719 641.0073,432.7579 C640.8363,432.6439 640.5883,432.5869 640.2633,432.5869 C639.9543,432.5869 639.7103,432.6439 639.5323,432.7579 C639.3533,432.8719 639.2633,433.0749 639.2633,433.3669 L639.2633,444.0009 C639.2633,444.2929 639.3533,444.4969 639.5323,444.6099 C639.7103,444.7239 639.9543,444.7809 640.2633,444.7809 C640.5883,444.7809 640.8363,444.7239 641.0073,444.6099 C641.1783,444.4969 641.2633,444.2929 641.2633,444.0009 L641.2633,440.4159 L644.2633,440.4159 L644.2633,444.5369 C644.2633,444.9919 644.2053,445.3989 644.0923,445.7569 C643.9783,446.1139 643.7753,446.4149 643.4833,446.6589 C643.1903,446.9019 642.7843,447.0899 642.2633,447.2199 C641.7423,447.3489 641.0763,447.4149 640.2633,447.4149 C639.4503,447.4149 638.7873,447.3489 638.2763,447.2199 C637.7633,447.0899 637.3613,446.9019 637.0693,446.6589 C636.7763,446.4149 636.5733,446.1139 636.4583,445.7569 C636.3453,445.3989 636.2883,444.9919 636.2883,444.5369 L636.2883,432.8309 C636.2883,432.3759 636.3453,431.9699 636.4583,431.6109 C636.5733,431.2539 636.7763,430.9529 637.0693,430.7089 C637.3613,430.4659 637.7633,430.2779 638.2763,430.1479 C638.7873,430.0179 639.4503,429.9529 640.2633,429.9529 C641.0763,429.9529 641.7423,430.0179 642.2633,430.1479 C642.7843,430.2779 643.1903,430.4659 643.4833,430.7089 C643.7753,430.9529 643.9783,431.2539 644.0923,431.6109 C644.2053,431.9699 644.2633,432.3759 644.2633,432.8309 L644.2633,436.7819 L641.2633,436.7819 L641.2633,433.3669 Z"
        id="Fill-138"
        fill="#595E7C"></path>
      <path
        d="M649.6031,443.781 C649.6031,444.122 649.6891,444.375 649.8591,444.537 C650.0301,444.7 650.3431,444.781 650.7981,444.781 C651.2701,444.781 651.5861,444.7 651.7491,444.537 C651.9121,444.375 651.9941,444.122 651.9941,443.781 L651.9941,433.587 C651.9941,433.246 651.9121,432.994 651.7491,432.831 C651.5861,432.669 651.2701,432.587 650.7981,432.587 C650.3431,432.587 650.0301,432.669 649.8591,432.831 C649.6891,432.994 649.6031,433.246 649.6031,433.587 L649.6031,443.781 Z M646.6041,433.294 C646.6041,432.644 646.6761,432.103 646.8231,431.673 C646.9691,431.242 647.2091,430.896 647.5421,430.635 C647.8751,430.376 648.3061,430.197 648.8351,430.099 C649.3631,430.002 650.0181,429.953 650.7981,429.953 C651.5791,429.953 652.2371,430.002 652.7741,430.099 C653.3101,430.197 653.7451,430.376 654.0791,430.635 C654.4121,430.896 654.6521,431.242 654.7971,431.673 C654.9441,432.103 655.0171,432.644 655.0171,433.294 L655.0171,444.05 C655.0171,444.716 654.9441,445.264 654.7971,445.695 C654.6521,446.127 654.4121,446.468 654.0791,446.719 C653.7451,446.971 653.3101,447.15 652.7741,447.256 C652.2371,447.362 651.5791,447.415 650.7981,447.415 C650.0181,447.415 649.3631,447.362 648.8351,447.256 C648.3061,447.15 647.8751,446.971 647.5421,446.719 C647.2091,446.468 646.9691,446.127 646.8231,445.695 C646.6761,445.264 646.6041,444.716 646.6041,444.05 L646.6041,433.294 Z"
        id="Fill-140"
        fill="#595E7C"></path>
      <polygon
        id="Fill-142"
        fill="#595E7C"
        points="662.5533 430.1482 665.0163 443.6102 665.2843 443.6102 665.2843 430.1482 668.0653 430.1482 668.0653 447.2192 663.3583 447.2192 660.7243 433.2942 660.3823 433.2942 660.3823 447.2192 657.6033 447.2192 657.6033 430.1482"></polygon>
      <path
        d="M675.6246,433.3669 C675.6246,433.0749 675.5396,432.8719 675.3686,432.7579 C675.1976,432.6439 674.9496,432.5869 674.6246,432.5869 C674.3156,432.5869 674.0716,432.6439 673.8936,432.7579 C673.7146,432.8719 673.6246,433.0749 673.6246,433.3669 L673.6246,444.0009 C673.6246,444.2929 673.7146,444.4969 673.8936,444.6099 C674.0716,444.7239 674.3156,444.7809 674.6246,444.7809 C674.9496,444.7809 675.1976,444.7239 675.3686,444.6099 C675.5396,444.4969 675.6246,444.2929 675.6246,444.0009 L675.6246,440.4159 L678.6246,440.4159 L678.6246,444.5369 C678.6246,444.9919 678.5666,445.3989 678.4536,445.7569 C678.3396,446.1139 678.1366,446.4149 677.8446,446.6589 C677.5516,446.9019 677.1456,447.0899 676.6246,447.2199 C676.1036,447.3489 675.4376,447.4149 674.6246,447.4149 C673.8116,447.4149 673.1486,447.3489 672.6376,447.2199 C672.1246,447.0899 671.7226,446.9019 671.4306,446.6589 C671.1376,446.4149 670.9346,446.1139 670.8196,445.7569 C670.7066,445.3989 670.6496,444.9919 670.6496,444.5369 L670.6496,432.8309 C670.6496,432.3759 670.7066,431.9699 670.8196,431.6109 C670.9346,431.2539 671.1376,430.9529 671.4306,430.7089 C671.7226,430.4659 672.1246,430.2779 672.6376,430.1479 C673.1486,430.0179 673.8116,429.9529 674.6246,429.9529 C675.4376,429.9529 676.1036,430.0179 676.6246,430.1479 C677.1456,430.2779 677.5516,430.4659 677.8446,430.7089 C678.1366,430.9529 678.3396,431.2539 678.4536,431.6109 C678.5666,431.9699 678.6246,432.3759 678.6246,432.8309 L678.6246,436.7819 L675.6246,436.7819 L675.6246,433.3669 Z"
        id="Fill-144"
        fill="#595E7C"></path>
      <polygon
        id="Fill-146"
        fill="#595E7C"
        points="680.9655 430.1482 687.8915 430.1482 687.8915 432.7822 683.9645 432.7822 683.9645 437.0492 687.7695 437.0492 687.7695 439.6832 683.9645 439.6832 683.9645 444.5862 687.8915 444.5862 687.8915 447.2192 680.9655 447.2192"></polygon>
      <path
        d="M694.6949,437.489 C695.0369,437.489 695.2079,437.278 695.2079,436.855 L695.2079,433.391 C695.2079,433.164 695.1459,433.006 695.0239,432.916 C694.9029,432.827 694.7519,432.782 694.5729,432.782 L692.9879,432.782 L692.9879,437.489 L694.6949,437.489 Z M689.9889,430.148 L695.0119,430.148 C695.4519,430.148 695.8659,430.193 696.2569,430.282 C696.6459,430.372 696.9839,430.518 697.2679,430.721 C697.5519,430.925 697.7799,431.201 697.9509,431.551 C698.1219,431.9 698.2069,432.343 698.2069,432.88 L698.2069,437.074 C698.2069,438.001 697.9589,438.745 697.4639,439.305 C696.9669,439.867 696.2079,440.147 695.1829,440.147 L692.9879,440.147 L692.9879,447.219 L689.9889,447.219 L689.9889,430.148 Z"
        id="Fill-148"
        fill="#595E7C"></path>
      <polygon id="Fill-150" fill="#595E7C" points="701.4508 432.782 698.9638 432.782 698.9638 430.148 706.9628 430.148 706.9628 432.782 704.4508 432.782 704.4508 447.22 701.4508 447.22"></polygon>
      <polygon id="Fill-152" fill="#FFFFFF" points="240.4469 512.2322 240.4469 504.3062 243.4459 504.3062 243.4459 512.1832 243.4459 521.3782 240.4469 521.3782"></polygon>
      <path
        d="M250.7867,518.7439 C250.9817,518.7439 251.1117,518.7039 251.1777,518.6219 C251.2417,518.5409 251.2747,518.4109 251.2747,518.2309 L251.2747,507.4279 C251.2747,507.2489 251.2417,507.1229 251.1777,507.0499 C251.1117,506.9759 250.9817,506.9399 250.7867,506.9399 L249.0307,506.9399 L249.0307,518.7439 L250.7867,518.7439 Z M246.0317,504.3059 L251.2997,504.3059 C251.9487,504.3059 252.4697,504.3839 252.8597,504.5379 C253.2507,504.6929 253.5507,504.9079 253.7627,505.1839 C253.9737,505.4609 254.1117,505.7989 254.1777,506.1959 C254.2417,506.5959 254.2737,507.0469 254.2737,507.5499 L254.2737,518.1349 C254.2737,518.6219 254.2417,519.0649 254.1777,519.4639 C254.1117,519.8619 253.9737,520.2029 253.7627,520.4869 C253.5507,520.7719 253.2507,520.9919 252.8597,521.1459 C252.4697,521.3009 251.9487,521.3779 251.2997,521.3779 L246.0317,521.3779 L246.0317,504.3059 Z"
        id="Fill-154"
        fill="#FFFFFF"></path>
      <polygon id="Fill-156" fill="#FFFFFF" points="256.86 504.3064 263.786 504.3064 263.786 506.9404 259.859 506.9404 259.859 511.2074 263.664 511.2074 263.664 513.8414 259.859 513.8414 259.859 518.7444 263.786 518.7444 263.786 521.3774 256.86 521.3774"></polygon>
      <path
        d="M270.3463,507.2576 L269.8583,507.2576 L268.9803,514.2076 L271.1513,514.2076 L270.3463,507.2576 Z M271.5163,516.8416 L268.6393,516.8416 L268.0293,521.3776 L265.0303,521.3776 L267.3703,504.3066 L272.7603,504.3066 L275.1503,521.3776 L272.1263,521.3776 L271.5163,516.8416 Z"
        id="Fill-158"
        fill="#FFFFFF"></path>
      <polygon id="Fill-160" fill="#FFFFFF" points="277.7848 506.9402 275.2978 506.9402 275.2978 504.3062 283.2968 504.3062 283.2968 506.9402 280.7848 506.9402 280.7848 521.3782 277.7848 521.3782"></polygon>
      <polygon id="Fill-162" fill="#FFFFFF" points="284.7848 512.2322 284.7848 504.3062 287.7838 504.3062 287.7838 512.1832 287.7838 521.3782 284.7848 521.3782"></polygon>
      <path
        d="M293.3687,517.9392 C293.3687,518.2802 293.4547,518.5332 293.6247,518.6952 C293.7957,518.8582 294.1087,518.9392 294.5637,518.9392 C295.0357,518.9392 295.3517,518.8582 295.5147,518.6952 C295.6777,518.5332 295.7597,518.2802 295.7597,517.9392 L295.7597,507.7452 C295.7597,507.4042 295.6777,507.1522 295.5147,506.9892 C295.3517,506.8272 295.0357,506.7452 294.5637,506.7452 C294.1087,506.7452 293.7957,506.8272 293.6247,506.9892 C293.4547,507.1522 293.3687,507.4042 293.3687,507.7452 L293.3687,517.9392 Z M290.3697,507.4522 C290.3697,506.8022 290.4417,506.2612 290.5887,505.8312 C290.7347,505.4002 290.9747,505.0542 291.3077,504.7932 C291.6407,504.5342 292.0717,504.3552 292.6007,504.2572 C293.1287,504.1602 293.7837,504.1112 294.5637,504.1112 C295.3447,504.1112 296.0027,504.1602 296.5397,504.2572 C297.0757,504.3552 297.5107,504.5342 297.8447,504.7932 C298.1777,505.0542 298.4177,505.4002 298.5627,505.8312 C298.7097,506.2612 298.7827,506.8022 298.7827,507.4522 L298.7827,518.2082 C298.7827,518.8742 298.7097,519.4222 298.5627,519.8532 C298.4177,520.2852 298.1777,520.6262 297.8447,520.8772 C297.5107,521.1292 297.0757,521.3082 296.5397,521.4142 C296.0027,521.5202 295.3447,521.5732 294.5637,521.5732 C293.7837,521.5732 293.1287,521.5202 292.6007,521.4142 C292.0717,521.3082 291.6407,521.1292 291.3077,520.8772 C290.9747,520.6262 290.7347,520.2852 290.5887,519.8532 C290.4417,519.4222 290.3697,518.8742 290.3697,518.2082 L290.3697,507.4522 Z"
        id="Fill-164"
        fill="#FFFFFF"></path>
      <polygon id="Fill-166" fill="#FFFFFF" points="306.318 504.3064 308.781 517.7684 309.049 517.7684 309.049 504.3064 311.83 504.3064 311.83 521.3774 307.123 521.3774 304.489 507.4524 304.147 507.4524 304.147 521.3774 301.368 521.3774 301.368 504.3064"></polygon>
      <path
        d="M289.7096,196.3083 L293.7086,196.3083 L293.7086,205.7213 C293.2366,205.8523 292.6556,205.9613 291.9656,206.0503 C291.2736,206.1403 290.5636,206.1853 289.8316,206.1853 C288.8716,206.1853 288.1116,206.1123 287.5516,205.9653 C286.9896,205.8193 286.5556,205.5993 286.2466,205.3073 C285.9376,205.0143 285.7376,204.6533 285.6486,204.2223 C285.5596,203.7913 285.5156,203.2913 285.5156,202.7223 L285.5156,191.9433 C285.5156,191.4223 285.5716,190.9633 285.6856,190.5653 C285.7996,190.1663 286.0106,189.8323 286.3196,189.5653 C286.6286,189.2963 287.0476,189.0973 287.5756,188.9673 C288.1046,188.8373 288.7826,188.7723 289.6116,188.7723 C290.4406,188.7723 291.1196,188.8373 291.6476,188.9673 C292.1766,189.0973 292.5956,189.2963 292.9036,189.5653 C293.2126,189.8323 293.4246,190.1663 293.5386,190.5653 C293.6516,190.9633 293.7086,191.4223 293.7086,191.9433 L293.7086,194.6993 L290.7096,194.6993 L290.7096,192.1373 C290.7096,191.9103 290.6326,191.7313 290.4786,191.6013 C290.3226,191.4713 290.0346,191.4063 289.6116,191.4063 C289.1886,191.4063 288.9006,191.4713 288.7456,191.6013 C288.5916,191.7313 288.5146,191.9103 288.5146,192.1373 L288.5146,202.7223 C288.5146,203.0633 288.6286,203.2873 288.8556,203.3923 C289.0836,203.4983 289.3596,203.5513 289.6856,203.5513 L290.2706,203.5513 C290.4336,203.5513 290.5786,203.5433 290.7096,203.5273 L290.7096,198.9663 L289.7096,198.9663 L289.7096,196.3083 Z"
        id="Fill-168"
        fill="#595E7C"></path>
      <path
        d="M299.2935,202.6003 C299.2935,202.9413 299.3795,203.1943 299.5495,203.3563 C299.7205,203.5193 300.0335,203.6003 300.4885,203.6003 C300.9605,203.6003 301.2765,203.5193 301.4395,203.3563 C301.6025,203.1943 301.6845,202.9413 301.6845,202.6003 L301.6845,192.4063 C301.6845,192.0653 301.6025,191.8133 301.4395,191.6503 C301.2765,191.4883 300.9605,191.4063 300.4885,191.4063 C300.0335,191.4063 299.7205,191.4883 299.5495,191.6503 C299.3795,191.8133 299.2935,192.0653 299.2935,192.4063 L299.2935,202.6003 Z M296.2945,192.1133 C296.2945,191.4633 296.3665,190.9223 296.5135,190.4923 C296.6595,190.0613 296.8995,189.7153 297.2325,189.4543 C297.5655,189.1953 297.9965,189.0163 298.5255,188.9183 C299.0535,188.8213 299.7085,188.7723 300.4885,188.7723 C301.2695,188.7723 301.9275,188.8213 302.4645,188.9183 C303.0005,189.0163 303.4355,189.1953 303.7695,189.4543 C304.1025,189.7153 304.3425,190.0613 304.4875,190.4923 C304.6345,190.9223 304.7075,191.4633 304.7075,192.1133 L304.7075,202.8693 C304.7075,203.5353 304.6345,204.0833 304.4875,204.5143 C304.3425,204.9463 304.1025,205.2873 303.7695,205.5383 C303.4355,205.7903 303.0005,205.9693 302.4645,206.0753 C301.9275,206.1813 301.2695,206.2343 300.4885,206.2343 C299.7085,206.2343 299.0535,206.1813 298.5255,206.0753 C297.9965,205.9693 297.5655,205.7903 297.2325,205.5383 C296.8995,205.2873 296.6595,204.9463 296.5135,204.5143 C296.3665,204.0833 296.2945,203.5353 296.2945,202.8693 L296.2945,192.1133 Z"
        id="Fill-170"
        fill="#595E7C"></path>
      <path
        d="M316.3639,196.3083 L320.3629,196.3083 L320.3629,205.7213 C319.8909,205.8523 319.3099,205.9613 318.6199,206.0503 C317.9279,206.1403 317.2179,206.1853 316.4859,206.1853 C315.5259,206.1853 314.7659,206.1123 314.2059,205.9653 C313.6439,205.8193 313.2099,205.5993 312.9009,205.3073 C312.5919,205.0143 312.3919,204.6533 312.3029,204.2223 C312.2139,203.7913 312.1699,203.2913 312.1699,202.7223 L312.1699,191.9433 C312.1699,191.4223 312.2259,190.9633 312.3399,190.5653 C312.4539,190.1663 312.6649,189.8323 312.9739,189.5653 C313.2829,189.2963 313.7019,189.0973 314.2299,188.9673 C314.7589,188.8373 315.4369,188.7723 316.2659,188.7723 C317.0949,188.7723 317.7739,188.8373 318.3019,188.9673 C318.8309,189.0973 319.2499,189.2963 319.5579,189.5653 C319.8669,189.8323 320.0789,190.1663 320.1929,190.5653 C320.3059,190.9633 320.3629,191.4223 320.3629,191.9433 L320.3629,194.6993 L317.3639,194.6993 L317.3639,192.1373 C317.3639,191.9103 317.2869,191.7313 317.1329,191.6013 C316.9769,191.4713 316.6889,191.4063 316.2659,191.4063 C315.8429,191.4063 315.5549,191.4713 315.3999,191.6013 C315.2459,191.7313 315.1689,191.9103 315.1689,192.1373 L315.1689,202.7223 C315.1689,203.0633 315.2829,203.2873 315.5099,203.3923 C315.7379,203.4983 316.0139,203.5513 316.3399,203.5513 L316.9249,203.5513 C317.0879,203.5513 317.2329,203.5433 317.3639,203.5273 L317.3639,198.9663 L316.3639,198.9663 L316.3639,196.3083 Z"
        id="Fill-172"
        fill="#595E7C"></path>
      <path
        d="M327.6549,196.3083 C327.9969,196.3083 328.1679,196.0973 328.1679,195.6743 L328.1679,192.2103 C328.1679,191.9833 328.1189,191.8253 328.0209,191.7353 C327.9239,191.6463 327.7599,191.6013 327.5329,191.6013 L325.9479,191.6013 L325.9479,196.3083 L327.6549,196.3083 Z M322.9489,188.9673 L327.9719,188.9673 C328.4119,188.9673 328.8259,189.0123 329.2169,189.1013 C329.6059,189.1913 329.9439,189.3373 330.2279,189.5403 C330.5119,189.7443 330.7399,190.0203 330.9109,190.3703 C331.0819,190.7193 331.1669,191.1623 331.1669,191.6993 L331.1669,195.8933 C331.1669,196.2843 331.1099,196.6293 330.9969,196.9303 C330.8829,197.2313 330.7439,197.4913 330.5819,197.7103 C330.4189,197.9303 330.2439,198.1093 330.0569,198.2463 C329.8709,198.3853 329.7119,198.4783 329.5819,198.5273 L331.4109,206.0383 L328.4119,206.0383 L326.8259,198.9423 L325.9479,198.9423 L325.9479,206.0383 L322.9489,206.0383 L322.9489,188.9673 Z"
        id="Fill-174"
        fill="#595E7C"></path>
      <path
        d="M336.7516,202.6003 C336.7516,202.9413 336.8376,203.1943 337.0076,203.3563 C337.1786,203.5193 337.4916,203.6003 337.9466,203.6003 C338.4186,203.6003 338.7346,203.5193 338.8976,203.3563 C339.0606,203.1943 339.1426,202.9413 339.1426,202.6003 L339.1426,192.4063 C339.1426,192.0653 339.0606,191.8133 338.8976,191.6503 C338.7346,191.4883 338.4186,191.4063 337.9466,191.4063 C337.4916,191.4063 337.1786,191.4883 337.0076,191.6503 C336.8376,191.8133 336.7516,192.0653 336.7516,192.4063 L336.7516,202.6003 Z M333.7526,192.1133 C333.7526,191.4633 333.8246,190.9223 333.9716,190.4923 C334.1176,190.0613 334.3576,189.7153 334.6906,189.4543 C335.0236,189.1953 335.4546,189.0163 335.9836,188.9183 C336.5116,188.8213 337.1666,188.7723 337.9466,188.7723 C338.7276,188.7723 339.3856,188.8213 339.9226,188.9183 C340.4586,189.0163 340.8936,189.1953 341.2276,189.4543 C341.5606,189.7153 341.8006,190.0613 341.9456,190.4923 C342.0926,190.9223 342.1656,191.4633 342.1656,192.1133 L342.1656,202.8693 C342.1656,203.5353 342.0926,204.0833 341.9456,204.5143 C341.8006,204.9463 341.5606,205.2873 341.2276,205.5383 C340.8936,205.7903 340.4586,205.9693 339.9226,206.0753 C339.3856,206.1813 338.7276,206.2343 337.9466,206.2343 C337.1666,206.2343 336.5116,206.1813 335.9836,206.0753 C335.4546,205.9693 335.0236,205.7903 334.6906,205.5383 C334.3576,205.2873 334.1176,204.9463 333.9716,204.5143 C333.8246,204.0833 333.7526,203.5353 333.7526,202.8693 L333.7526,192.1133 Z"
        id="Fill-176"
        fill="#595E7C"></path>
      <polygon
        id="Fill-178"
        fill="#595E7C"
        points="346.9215 188.9675 348.4095 202.1605 348.7755 202.1605 349.9455 188.9675 354.5795 188.9675 355.8965 202.1605 356.1895 202.1605 357.5545 188.9675 360.5785 188.9675 358.4565 206.0385 354.0425 206.0385 352.4085 192.3325 352.1155 192.3325 350.6775 206.0385 346.2385 206.0385 343.8985 188.9675"></polygon>
      <path
        d="M187.4781,230.405 C187.6731,230.405 187.8031,230.365 187.8691,230.283 C187.9331,230.202 187.9661,230.072 187.9661,229.892 L187.9661,219.089 C187.9661,218.91 187.9331,218.784 187.8691,218.711 C187.8031,218.637 187.6731,218.601 187.4781,218.601 L185.7221,218.601 L185.7221,230.405 L187.4781,230.405 Z M182.7231,215.967 L187.9911,215.967 C188.6401,215.967 189.1611,216.045 189.5511,216.199 C189.9421,216.354 190.2421,216.569 190.4541,216.845 C190.6651,217.122 190.8031,217.46 190.8691,217.857 C190.9331,218.257 190.9651,218.708 190.9651,219.211 L190.9651,229.796 C190.9651,230.283 190.9331,230.726 190.8691,231.125 C190.8031,231.523 190.6651,231.864 190.4541,232.148 C190.2421,232.433 189.9421,232.653 189.5511,232.807 C189.1611,232.962 188.6401,233.039 187.9911,233.039 L182.7231,233.039 L182.7231,215.967 Z"
        id="Fill-180"
        fill="#595E7C"></path>
      <polygon id="Fill-182" fill="#595E7C" points="193.5514 223.8933 193.5514 215.9673 196.5504 215.9673 196.5504 223.8443 196.5504 233.0393 193.5514 233.0393"></polygon>
      <path
        d="M203.3307,223.3083 L207.3297,223.3083 L207.3297,232.7213 C206.8577,232.8523 206.2767,232.9613 205.5867,233.0503 C204.8947,233.1403 204.1847,233.1853 203.4527,233.1853 C202.4927,233.1853 201.7327,233.1123 201.1727,232.9653 C200.6107,232.8193 200.1767,232.5993 199.8677,232.3073 C199.5587,232.0143 199.3587,231.6533 199.2697,231.2223 C199.1807,230.7913 199.1367,230.2913 199.1367,229.7223 L199.1367,218.9433 C199.1367,218.4223 199.1927,217.9633 199.3067,217.5653 C199.4207,217.1663 199.6317,216.8323 199.9407,216.5653 C200.2497,216.2963 200.6687,216.0973 201.1967,215.9673 C201.7257,215.8373 202.4037,215.7723 203.2327,215.7723 C204.0617,215.7723 204.7407,215.8373 205.2687,215.9673 C205.7977,216.0973 206.2167,216.2963 206.5247,216.5653 C206.8337,216.8323 207.0457,217.1663 207.1597,217.5653 C207.2727,217.9633 207.3297,218.4223 207.3297,218.9433 L207.3297,221.6993 L204.3307,221.6993 L204.3307,219.1373 C204.3307,218.9103 204.2537,218.7313 204.0997,218.6013 C203.9437,218.4713 203.6557,218.4063 203.2327,218.4063 C202.8097,218.4063 202.5217,218.4713 202.3667,218.6013 C202.2127,218.7313 202.1357,218.9103 202.1357,219.1373 L202.1357,229.7223 C202.1357,230.0633 202.2497,230.2873 202.4767,230.3923 C202.7047,230.4983 202.9807,230.5513 203.3067,230.5513 L203.8917,230.5513 C204.0547,230.5513 204.1997,230.5433 204.3307,230.5273 L204.3307,225.9663 L203.3307,225.9663 L203.3307,223.3083 Z"
        id="Fill-184"
        fill="#595E7C"></path>
      <polygon id="Fill-186" fill="#595E7C" points="209.9156 223.8933 209.9156 215.9673 212.9146 215.9673 212.9146 223.8443 212.9146 233.0393 209.9156 233.0393"></polygon>
      <polygon id="Fill-188" fill="#595E7C" points="216.8902 218.6013 214.4032 218.6013 214.4032 215.9673 222.4022 215.9673 222.4022 218.6013 219.8902 218.6013 219.8902 233.0393 216.8902 233.0393"></polygon>
      <path
        d="M227.8658,218.9187 L227.3778,218.9187 L226.4998,225.8687 L228.6708,225.8687 L227.8658,218.9187 Z M229.0358,228.5027 L226.1588,228.5027 L225.5488,233.0387 L222.5498,233.0387 L224.8898,215.9677 L230.2798,215.9677 L232.6698,233.0387 L229.6458,233.0387 L229.0358,228.5027 Z"
        id="Fill-190"
        fill="#595E7C"></path>
      <polygon id="Fill-192" fill="#595E7C" points="234.401 215.9675 237.4 215.9675 237.4 230.4055 241.449 230.4055 241.449 233.0385 234.401 233.0385"></polygon>
      <path
        d="M251.8863,223.3083 L255.8853,223.3083 L255.8853,232.7213 C255.4133,232.8523 254.8323,232.9613 254.1423,233.0503 C253.4503,233.1403 252.7403,233.1853 252.0083,233.1853 C251.0483,233.1853 250.2883,233.1123 249.7283,232.9653 C249.1663,232.8193 248.7323,232.5993 248.4233,232.3073 C248.1143,232.0143 247.9143,231.6533 247.8253,231.2223 C247.7363,230.7913 247.6923,230.2913 247.6923,229.7223 L247.6923,218.9433 C247.6923,218.4223 247.7483,217.9633 247.8623,217.5653 C247.9763,217.1663 248.1873,216.8323 248.4963,216.5653 C248.8053,216.2963 249.2243,216.0973 249.7523,215.9673 C250.2813,215.8373 250.9593,215.7723 251.7883,215.7723 C252.6173,215.7723 253.2963,215.8373 253.8243,215.9673 C254.3533,216.0973 254.7723,216.2963 255.0803,216.5653 C255.3893,216.8323 255.6013,217.1663 255.7153,217.5653 C255.8283,217.9633 255.8853,218.4223 255.8853,218.9433 L255.8853,221.6993 L252.8863,221.6993 L252.8863,219.1373 C252.8863,218.9103 252.8093,218.7313 252.6553,218.6013 C252.4993,218.4713 252.2113,218.4063 251.7883,218.4063 C251.3653,218.4063 251.0773,218.4713 250.9223,218.6013 C250.7683,218.7313 250.6913,218.9103 250.6913,219.1373 L250.6913,229.7223 C250.6913,230.0633 250.8053,230.2873 251.0323,230.3923 C251.2603,230.4983 251.5363,230.5513 251.8623,230.5513 L252.4473,230.5513 C252.6103,230.5513 252.7553,230.5433 252.8863,230.5273 L252.8863,225.9663 L251.8863,225.9663 L251.8863,223.3083 Z"
        id="Fill-194"
        fill="#595E7C"></path>
      <path
        d="M263.1773,223.3083 C263.5193,223.3083 263.6903,223.0973 263.6903,222.6743 L263.6903,219.2103 C263.6903,218.9833 263.6413,218.8253 263.5433,218.7353 C263.4463,218.6463 263.2823,218.6013 263.0553,218.6013 L261.4703,218.6013 L261.4703,223.3083 L263.1773,223.3083 Z M258.4713,215.9673 L263.4943,215.9673 C263.9343,215.9673 264.3483,216.0123 264.7393,216.1013 C265.1283,216.1913 265.4663,216.3373 265.7503,216.5403 C266.0343,216.7443 266.2623,217.0203 266.4333,217.3703 C266.6043,217.7193 266.6893,218.1623 266.6893,218.6993 L266.6893,222.8933 C266.6893,223.2843 266.6323,223.6293 266.5193,223.9303 C266.4053,224.2313 266.2663,224.4913 266.1043,224.7103 C265.9413,224.9303 265.7663,225.1093 265.5793,225.2463 C265.3933,225.3853 265.2343,225.4783 265.1043,225.5273 L266.9333,233.0383 L263.9343,233.0383 L262.3483,225.9423 L261.4703,225.9423 L261.4703,233.0383 L258.4713,233.0383 L258.4713,215.9673 Z"
        id="Fill-196"
        fill="#595E7C"></path>
      <path
        d="M272.274,229.6003 C272.274,229.9413 272.36,230.1943 272.53,230.3563 C272.701,230.5193 273.014,230.6003 273.469,230.6003 C273.941,230.6003 274.257,230.5193 274.42,230.3563 C274.583,230.1943 274.665,229.9413 274.665,229.6003 L274.665,219.4063 C274.665,219.0653 274.583,218.8133 274.42,218.6503 C274.257,218.4883 273.941,218.4063 273.469,218.4063 C273.014,218.4063 272.701,218.4883 272.53,218.6503 C272.36,218.8133 272.274,219.0653 272.274,219.4063 L272.274,229.6003 Z M269.275,219.1133 C269.275,218.4633 269.347,217.9223 269.494,217.4923 C269.64,217.0613 269.88,216.7153 270.213,216.4543 C270.546,216.1953 270.977,216.0163 271.506,215.9183 C272.034,215.8213 272.689,215.7723 273.469,215.7723 C274.25,215.7723 274.908,215.8213 275.445,215.9183 C275.981,216.0163 276.416,216.1953 276.75,216.4543 C277.083,216.7153 277.323,217.0613 277.468,217.4923 C277.615,217.9223 277.688,218.4633 277.688,219.1133 L277.688,229.8693 C277.688,230.5353 277.615,231.0833 277.468,231.5143 C277.323,231.9463 277.083,232.2873 276.75,232.5383 C276.416,232.7903 275.981,232.9693 275.445,233.0753 C274.908,233.1813 274.25,233.2343 273.469,233.2343 C272.689,233.2343 272.034,233.1813 271.506,233.0753 C270.977,232.9693 270.546,232.7903 270.213,232.5383 C269.88,232.2873 269.64,231.9463 269.494,231.5143 C269.347,231.0833 269.275,230.5353 269.275,229.8693 L269.275,219.1133 Z"
        id="Fill-198"
        fill="#595E7C"></path>
      <polygon
        id="Fill-200"
        fill="#595E7C"
        points="282.4439 215.9675 283.9319 229.1605 284.2979 229.1605 285.4679 215.9675 290.1019 215.9675 291.4189 229.1605 291.7119 229.1605 293.0769 215.9675 296.1009 215.9675 293.9789 233.0385 289.5649 233.0385 287.9309 219.3325 287.6379 219.3325 286.1999 233.0385 281.7609 233.0385 279.4209 215.9675"></polygon>
      <polygon id="Fill-202" fill="#595E7C" points="299.2223 218.6013 296.7353 218.6013 296.7353 215.9673 304.7343 215.9673 304.7343 218.6013 302.2223 218.6013 302.2223 233.0393 299.2223 233.0393"></polygon>
      <polygon
        id="Fill-204"
        fill="#595E7C"
        points="311.7574 215.9675 314.7574 215.9675 314.7574 233.0385 311.7574 233.0385 311.7574 225.5025 309.2214 225.5025 309.2214 233.0385 306.2224 233.0385 306.2224 215.9675 309.2214 215.9675 309.2214 222.8685 311.7574 222.8685"></polygon>
      <path
        d="M326.9254,223.3083 C327.2674,223.3083 327.4384,223.0973 327.4384,222.6743 L327.4384,219.2103 C327.4384,218.9833 327.3764,218.8253 327.2544,218.7353 C327.1334,218.6463 326.9824,218.6013 326.8034,218.6013 L325.2184,218.6013 L325.2184,223.3083 L326.9254,223.3083 Z M322.2194,215.9673 L327.2424,215.9673 C327.6824,215.9673 328.0964,216.0123 328.4874,216.1013 C328.8764,216.1913 329.2144,216.3373 329.4984,216.5403 C329.7824,216.7443 330.0104,217.0203 330.1814,217.3703 C330.3524,217.7193 330.4374,218.1623 330.4374,218.6993 L330.4374,222.8933 C330.4374,223.8203 330.1894,224.5643 329.6944,225.1243 C329.1974,225.6863 328.4384,225.9663 327.4134,225.9663 L325.2184,225.9663 L325.2184,233.0383 L322.2194,233.0383 L322.2194,215.9673 Z"
        id="Fill-206"
        fill="#595E7C"></path>
      <path
        d="M336.7545,218.9187 L336.2665,218.9187 L335.3885,225.8687 L337.5595,225.8687 L336.7545,218.9187 Z M337.9245,228.5027 L335.0475,228.5027 L334.4375,233.0387 L331.4385,233.0387 L333.7785,215.9677 L339.1685,215.9677 L341.5585,233.0387 L338.5345,233.0387 L337.9245,228.5027 Z"
        id="Fill-208"
        fill="#595E7C"></path>
      <polygon id="Fill-210" fill="#595E7C" points="344.192 218.6013 341.705 218.6013 341.705 215.9673 349.704 215.9673 349.704 218.6013 347.192 218.6013 347.192 233.0393 344.192 233.0393"></polygon>
      <polygon
        id="Fill-212"
        fill="#595E7C"
        points="356.7271 215.9675 359.7271 215.9675 359.7271 233.0385 356.7271 233.0385 356.7271 225.5025 354.1911 225.5025 354.1911 233.0385 351.1921 233.0385 351.1921 215.9675 354.1911 215.9675 354.1911 222.8685 356.7271 222.8685"></polygon>
    </g>
  </g>
</svg>
