<?xml version="1.0" encoding="UTF-8"?>
<svg width="180px" height="130px" viewBox="0 0 180 130" version="1.1" xmlns="http://www.w3.org/2000/svg" xmlns:xlink="http://www.w3.org/1999/xlink">
    <!-- Generator: Sketch 46 (44423) - http://www.bohemiancoding.com/sketch -->
    <title>proof-program</title>
    <desc>Created with Sketch.</desc>
    <defs></defs>
    <g id="Page-1" stroke="none" stroke-width="1" fill="none" fill-rule="evenodd">
        <g id="proof-program">
            <path d="M0,86.17 L86.171,86.17 L86.171,-0.001 L0,-0.001 L0,86.17 Z M5.388,80.782 L80.783,80.782 L80.783,5.387 L5.388,5.387 L5.388,80.782 Z" id="Fill-1" fill="#4B62A7"></path>
            <polygon id="Fill-2" fill="#FFFFFF" points="29.744 93.567 90.129 93.567 90.129 47.822 29.744 47.822"></polygon>
            <g id="Group-27" transform="translate(37.000000, 54.401000)" fill="#EB5F5A">
                <path d="M8.7696,14.1891 C9.3876,14.1891 9.6966,13.8071 9.6966,13.0411 L9.6966,6.7731 C9.6966,6.3611 9.5866,6.0741 9.3656,5.9121 C9.1446,5.7511 8.8726,5.6691 8.5486,5.6691 L5.6796,5.6691 L5.6796,14.1891 L8.7696,14.1891 Z M0.2496,0.9021 L9.3436,0.9021 C10.1376,0.9021 10.8886,0.9831 11.5946,1.1451 C12.3006,1.3071 12.9116,1.5721 13.4266,1.9391 C13.9416,2.3081 14.3536,2.8081 14.6626,3.4401 C14.9716,4.0731 15.1266,4.8751 15.1266,5.8461 L15.1266,13.4391 C15.1266,15.1161 14.6766,16.4621 13.7796,17.4781 C12.8816,18.4931 11.5066,19.0011 9.6526,19.0011 L5.6796,19.0011 L5.6796,31.8021 L0.2496,31.8021 L0.2496,0.9021 Z" id="Fill-3"></path>
                <path d="M27.0004,14.1891 C27.6184,14.1891 27.9274,13.8071 27.9274,13.0411 L27.9274,6.7731 C27.9274,6.3611 27.8394,6.0741 27.6624,5.9121 C27.4864,5.7511 27.1914,5.6691 26.7794,5.6691 L23.9104,5.6691 L23.9104,14.1891 L27.0004,14.1891 Z M18.4804,0.9021 L27.5744,0.9021 C28.3684,0.9021 29.1194,0.9831 29.8254,1.1451 C30.5314,1.3071 31.1424,1.5721 31.6574,1.9391 C32.1724,2.3081 32.5844,2.8081 32.8934,3.4401 C33.2024,4.0731 33.3574,4.8751 33.3574,5.8461 L33.3574,13.4391 C33.3574,14.1451 33.2534,14.7711 33.0484,15.3151 C32.8414,15.8601 32.5914,16.3301 32.2974,16.7271 C32.0034,17.1251 31.6864,17.4491 31.3484,17.6981 C31.0094,17.9491 30.7234,18.1181 30.4874,18.2061 L33.7984,31.8021 L28.3684,31.8021 L25.4994,18.9561 L23.9104,18.9561 L23.9104,31.8021 L18.4804,31.8021 L18.4804,0.9021 Z" id="Fill-5"></path>
                <path d="M43.4653,25.578 C43.4653,26.196 43.6203,26.653 43.9293,26.946 C44.2383,27.241 44.8043,27.388 45.6283,27.388 C46.4813,27.388 47.0553,27.241 47.3503,26.946 C47.6443,26.653 47.7913,26.196 47.7913,25.578 L47.7913,7.126 C47.7913,6.508 47.6443,6.052 47.3503,5.758 C47.0553,5.464 46.4813,5.317 45.6283,5.317 C44.8043,5.317 44.2383,5.464 43.9293,5.758 C43.6203,6.052 43.4653,6.508 43.4653,7.126 L43.4653,25.578 Z M38.0363,6.596 C38.0363,5.42 38.1683,4.441 38.4333,3.661 C38.6983,2.881 39.1323,2.256 39.7353,1.785 C40.3383,1.314 41.1183,0.99 42.0753,0.814 C43.0313,0.637 44.2163,0.549 45.6283,0.549 C47.0413,0.549 48.2333,0.637 49.2043,0.814 C50.1753,0.99 50.9623,1.314 51.5653,1.785 C52.1683,2.256 52.6033,2.881 52.8683,3.661 C53.1323,4.441 53.2653,5.42 53.2653,6.596 L53.2653,26.064 C53.2653,27.271 53.1323,28.264 52.8683,29.043 C52.6033,29.823 52.1683,30.441 51.5653,30.897 C50.9623,31.354 50.1753,31.677 49.2043,31.868 C48.2333,32.059 47.0413,32.155 45.6283,32.155 C44.2163,32.155 43.0313,32.059 42.0753,31.868 C41.1183,31.677 40.3383,31.354 39.7353,30.897 C39.1323,30.441 38.6983,29.823 38.4333,29.043 C38.1683,28.264 38.0363,27.271 38.0363,26.064 L38.0363,6.596 Z" id="Fill-7"></path>
                <path d="M63.3731,25.578 C63.3731,26.196 63.5281,26.653 63.8371,26.946 C64.1461,27.241 64.7121,27.388 65.5361,27.388 C66.3891,27.388 66.9631,27.241 67.2581,26.946 C67.5521,26.653 67.6991,26.196 67.6991,25.578 L67.6991,7.126 C67.6991,6.508 67.5521,6.052 67.2581,5.758 C66.9631,5.464 66.3891,5.317 65.5361,5.317 C64.7121,5.317 64.1461,5.464 63.8371,5.758 C63.5281,6.052 63.3731,6.508 63.3731,7.126 L63.3731,25.578 Z M57.9441,6.596 C57.9441,5.42 58.0761,4.441 58.3411,3.661 C58.6061,2.881 59.0401,2.256 59.6431,1.785 C60.2461,1.314 61.0261,0.99 61.9831,0.814 C62.9391,0.637 64.1241,0.549 65.5361,0.549 C66.9491,0.549 68.1411,0.637 69.1121,0.814 C70.0831,0.99 70.8701,1.314 71.4731,1.785 C72.0761,2.256 72.5111,2.881 72.7761,3.661 C73.0401,4.441 73.1731,5.42 73.1731,6.596 L73.1731,26.064 C73.1731,27.271 73.0401,28.264 72.7761,29.043 C72.5111,29.823 72.0761,30.441 71.4731,30.897 C70.8701,31.354 70.0831,31.677 69.1121,31.868 C68.1411,32.059 66.9491,32.155 65.5361,32.155 C64.1241,32.155 62.9391,32.059 61.9831,31.868 C61.0261,31.677 60.2461,31.354 59.6431,30.897 C59.0401,30.441 58.6061,29.823 58.3411,29.043 C58.0761,28.264 57.9441,27.271 57.9441,26.064 L57.9441,6.596 Z" id="Fill-9"></path>
                <polygon id="Fill-11" points="77.8515 0.902 90.0355 0.902 90.0355 5.67 83.2805 5.67 83.2805 13.395 89.7705 13.395 89.7705 18.162 83.2805 18.162 83.2805 31.802 77.8515 31.802"></polygon>
                <path d="M8.7696,57.0339 C9.3876,57.0339 9.6966,56.6519 9.6966,55.8859 L9.6966,49.6179 C9.6966,49.2059 9.5866,48.9189 9.3656,48.7569 C9.1446,48.5959 8.8726,48.5139 8.5486,48.5139 L5.6796,48.5139 L5.6796,57.0339 L8.7696,57.0339 Z M0.2496,43.7469 L9.3436,43.7469 C10.1376,43.7469 10.8886,43.8279 11.5946,43.9899 C12.3006,44.1519 12.9116,44.4169 13.4266,44.7839 C13.9416,45.1529 14.3536,45.6519 14.6626,46.2849 C14.9716,46.9179 15.1266,47.7199 15.1266,48.6909 L15.1266,56.2839 C15.1266,57.9609 14.6766,59.3069 13.7796,60.3229 C12.8816,61.3379 11.5066,61.8459 9.6526,61.8459 L5.6796,61.8459 L5.6796,74.6469 L0.2496,74.6469 L0.2496,43.7469 Z" id="Fill-13"></path>
                <path d="M27.0004,57.0339 C27.6184,57.0339 27.9274,56.6519 27.9274,55.8859 L27.9274,49.6179 C27.9274,49.2059 27.8394,48.9189 27.6624,48.7569 C27.4864,48.5959 27.1914,48.5139 26.7794,48.5139 L23.9104,48.5139 L23.9104,57.0339 L27.0004,57.0339 Z M18.4804,43.7469 L27.5744,43.7469 C28.3684,43.7469 29.1194,43.8279 29.8254,43.9899 C30.5314,44.1519 31.1424,44.4169 31.6574,44.7839 C32.1724,45.1529 32.5844,45.6519 32.8934,46.2849 C33.2024,46.9179 33.3574,47.7199 33.3574,48.6909 L33.3574,56.2839 C33.3574,56.9899 33.2534,57.6149 33.0484,58.1599 C32.8414,58.7039 32.5914,59.1749 32.2974,59.5719 C32.0034,59.9699 31.6864,60.2939 31.3484,60.5429 C31.0094,60.7939 30.7234,60.9629 30.4874,61.0509 L33.7984,74.6469 L28.3684,74.6469 L25.4994,61.8009 L23.9104,61.8009 L23.9104,74.6469 L18.4804,74.6469 L18.4804,43.7469 Z" id="Fill-15"></path>
                <path d="M43.4653,68.4228 C43.4653,69.0408 43.6203,69.4968 43.9293,69.7908 C44.2383,70.0858 44.8043,70.2328 45.6283,70.2328 C46.4813,70.2328 47.0553,70.0858 47.3503,69.7908 C47.6443,69.4968 47.7913,69.0408 47.7913,68.4228 L47.7913,49.9708 C47.7913,49.3528 47.6443,48.8968 47.3503,48.6028 C47.0553,48.3088 46.4813,48.1618 45.6283,48.1618 C44.8043,48.1618 44.2383,48.3088 43.9293,48.6028 C43.6203,48.8968 43.4653,49.3528 43.4653,49.9708 L43.4653,68.4228 Z M38.0363,49.4408 C38.0363,48.2648 38.1683,47.2858 38.4333,46.5058 C38.6983,45.7258 39.1323,45.1008 39.7353,44.6298 C40.3383,44.1588 41.1183,43.8348 42.0753,43.6588 C43.0313,43.4818 44.2163,43.3938 45.6283,43.3938 C47.0413,43.3938 48.2333,43.4818 49.2043,43.6588 C50.1753,43.8348 50.9623,44.1588 51.5653,44.6298 C52.1683,45.1008 52.6033,45.7258 52.8683,46.5058 C53.1323,47.2858 53.2653,48.2648 53.2653,49.4408 L53.2653,68.9088 C53.2653,70.1158 53.1323,71.1088 52.8683,71.8878 C52.6033,72.6678 52.1683,73.2858 51.5653,73.7418 C50.9623,74.1988 50.1753,74.5218 49.2043,74.7128 C48.2333,74.9038 47.0413,74.9998 45.6283,74.9998 C44.2163,74.9998 43.0313,74.9038 42.0753,74.7128 C41.1183,74.5218 40.3383,74.1988 39.7353,73.7418 C39.1323,73.2858 38.6983,72.6678 38.4333,71.8878 C38.1683,71.1088 38.0363,70.1158 38.0363,68.9088 L38.0363,49.4408 Z" id="Fill-17"></path>
                <path d="M65.5361,57.0339 L72.7761,57.0339 L72.7761,74.0729 C71.9221,74.3089 70.8701,74.5079 69.6191,74.6689 C68.3681,74.8309 67.0811,74.9119 65.7571,74.9119 C64.0201,74.9119 62.6451,74.7799 61.6301,74.5139 C60.6141,74.2499 59.8261,73.8519 59.2681,73.3229 C58.7081,72.7929 58.3481,72.1379 58.1861,71.3579 C58.0241,70.5789 57.9441,69.6739 57.9441,68.6439 L57.9441,49.1319 C57.9441,48.1909 58.0461,47.3599 58.2531,46.6379 C58.4581,45.9179 58.8411,45.3139 59.4001,44.8279 C59.9591,44.3429 60.7171,43.9829 61.6741,43.7469 C62.6301,43.5119 63.8591,43.3939 65.3591,43.3939 C66.8601,43.3939 68.0891,43.5119 69.0461,43.7469 C70.0021,43.9829 70.7591,44.3429 71.3191,44.8279 C71.8781,45.3139 72.2601,45.9179 72.4671,46.6379 C72.6721,47.3599 72.7761,48.1909 72.7761,49.1319 L72.7761,54.1199 L67.3461,54.1199 L67.3461,49.4859 C67.3461,49.0739 67.2061,48.7499 66.9271,48.5139 C66.6471,48.2789 66.1251,48.1609 65.3591,48.1609 C64.5941,48.1609 64.0721,48.2789 63.7921,48.5139 C63.5121,48.7499 63.3731,49.0739 63.3731,49.4859 L63.3731,68.6439 C63.3731,69.2619 63.5791,69.6659 63.9911,69.8569 C64.4031,70.0489 64.9031,70.1439 65.4921,70.1439 L66.5511,70.1439 C66.8451,70.1439 67.1101,70.1299 67.3461,70.0999 L67.3461,61.8459 L65.5361,61.8459 L65.5361,57.0339 Z" id="Fill-19"></path>
                <path d="M85.9739,57.0339 C86.5919,57.0339 86.9009,56.6519 86.9009,55.8859 L86.9009,49.6179 C86.9009,49.2059 86.8129,48.9189 86.6359,48.7569 C86.4599,48.5959 86.1649,48.5139 85.7529,48.5139 L82.8839,48.5139 L82.8839,57.0339 L85.9739,57.0339 Z M77.4539,43.7469 L86.5479,43.7469 C87.3419,43.7469 88.0929,43.8279 88.7989,43.9899 C89.5049,44.1519 90.1159,44.4169 90.6309,44.7839 C91.1459,45.1529 91.5579,45.6519 91.8669,46.2849 C92.1759,46.9179 92.3309,47.7199 92.3309,48.6909 L92.3309,56.2839 C92.3309,56.9899 92.2269,57.6149 92.0219,58.1599 C91.8149,58.7039 91.5649,59.1749 91.2709,59.5719 C90.9769,59.9699 90.6599,60.2939 90.3219,60.5429 C89.9829,60.7939 89.6969,60.9629 89.4609,61.0509 L92.7719,74.6469 L87.3419,74.6469 L84.4729,61.8009 L82.8839,61.8009 L82.8839,74.6469 L77.4539,74.6469 L77.4539,43.7469 Z" id="Fill-21"></path>
                <path d="M105.0874,49.0881 L104.2044,49.0881 L102.6154,61.6691 L106.5444,61.6691 L105.0874,49.0881 Z M107.2064,66.4361 L101.9974,66.4361 L100.8934,74.6471 L95.4644,74.6471 L99.7024,43.7471 L109.4574,43.7471 L113.7834,74.6471 L108.3104,74.6471 L107.2064,66.4361 Z" id="Fill-23"></path>
                <polygon id="Fill-25" points="126.0549 43.7467 129.2769 67.7167 130.0279 67.7167 132.7649 43.7467 142.3439 43.7467 142.3439 74.6467 137.3109 74.6467 137.3109 49.3967 136.7379 49.3967 133.1619 74.6467 126.1869 74.6467 122.5239 49.3967 121.9499 49.3967 121.9499 74.6467 116.9169 74.6467 116.9169 43.7467"></polygon>
            </g>
        </g>
    </g>
</svg>