<svg width="180" height="130" xmlns="http://www.w3.org/2000/svg"><g fill="none" fill-rule="evenodd"><path d="M0 86.17h86.171V-.001H0V86.17zm5.388-5.388h75.395V5.387H5.388v75.395z" fill="#4B62A7"/><path fill="#FFF" d="M29.744 93.567h60.385V47.822H29.744z"/><path d="M45.77 68.59c.618 0 .927-.382.927-1.148v-6.268c0-.412-.11-.699-.331-.86-.221-.162-.493-.244-.817-.244h-2.87v8.52h3.09zm-8.52-13.287h9.094c.794 0 1.545.081 2.25.243.707.162 1.318.427 1.833.794.515.37.927.87 1.236 1.501.309.633.464 1.435.464 2.406v7.593c0 1.677-.45 3.023-1.347 4.04-.898 1.014-2.273 1.522-4.127 1.522H42.68v12.801h-5.43v-30.9zM64 68.59c.618 0 .927-.382.927-1.148v-6.268c0-.412-.088-.699-.265-.86-.176-.162-.47-.244-.883-.244H60.91v8.52H64zm-8.52-13.287h9.094c.794 0 1.545.081 2.251.243.706.162 1.317.427 1.832.794.515.37.927.87 1.236 1.501.31.633.464 1.435.464 2.406v7.593c0 .706-.104 1.332-.309 1.876a5.844 5.844 0 0 1-.75 1.412 4.549 4.549 0 0 1-.95.971c-.339.251-.625.42-.86.508l3.31 13.596h-5.43L62.5 73.357h-1.59v12.846h-5.43v-30.9zm24.985 24.676c0 .618.155 1.075.464 1.368.31.295.875.442 1.7.442.852 0 1.426-.147 1.721-.442.294-.293.441-.75.441-1.368V61.527c0-.618-.147-1.074-.44-1.368-.296-.294-.87-.441-1.723-.441-.824 0-1.39.147-1.699.441-.309.294-.464.75-.464 1.368v18.452zm-5.429-18.982c0-1.176.132-2.155.397-2.935.265-.78.7-1.405 1.302-1.876.603-.471 1.383-.795 2.34-.971.956-.177 2.141-.265 3.553-.265 1.413 0 2.605.088 3.576.265.971.176 1.758.5 2.361.971.603.471 1.038 1.096 1.303 1.876.264.78.397 1.759.397 2.935v19.468c0 1.207-.133 2.2-.397 2.979-.265.78-.7 1.398-1.303 1.854-.603.457-1.39.78-2.36.971-.972.191-2.164.287-3.577.287-1.412 0-2.597-.096-3.553-.287-.957-.191-1.737-.514-2.34-.971-.603-.456-1.037-1.074-1.302-1.854-.265-.779-.397-1.772-.397-2.979V60.997zm25.337 18.982c0 .618.155 1.075.464 1.368.31.295.875.442 1.7.442.852 0 1.426-.147 1.721-.442.294-.293.441-.75.441-1.368V61.527c0-.618-.147-1.074-.44-1.368-.296-.294-.87-.441-1.723-.441-.824 0-1.39.147-1.699.441-.309.294-.464.75-.464 1.368v18.452zm-5.429-18.982c0-1.176.132-2.155.397-2.935.265-.78.7-1.405 1.302-1.876.603-.471 1.383-.795 2.34-.971.956-.177 2.141-.265 3.553-.265 1.413 0 2.605.088 3.576.265.971.176 1.758.5 2.361.971.603.471 1.038 1.096 1.303 1.876.264.78.397 1.759.397 2.935v19.468c0 1.207-.133 2.2-.397 2.979-.265.78-.7 1.398-1.303 1.854-.603.457-1.39.78-2.36.971-.972.191-2.164.287-3.577.287-1.412 0-2.597-.096-3.553-.287-.957-.191-1.737-.514-2.34-.971-.603-.456-1.037-1.074-1.302-1.854-.265-.779-.397-1.772-.397-2.979V60.997zm19.908-5.694h12.183v4.768h-6.754v7.725h6.49v4.767h-6.49v13.64h-5.43zM45.77 111.435c.618 0 .927-.382.927-1.148v-6.268c0-.412-.11-.7-.331-.861-.221-.161-.493-.243-.817-.243h-2.87v8.52h3.09zm-8.52-13.287h9.094c.794 0 1.545.08 2.25.243.707.162 1.318.427 1.833.794.515.369.927.868 1.236 1.5.309.634.464 1.436.464 2.407v7.593c0 1.677-.45 3.023-1.347 4.039-.898 1.015-2.273 1.523-4.127 1.523H42.68v12.8h-5.43v-30.9zM64 111.435c.618 0 .927-.382.927-1.148v-6.268c0-.412-.088-.7-.265-.861-.176-.161-.47-.243-.883-.243H60.91v8.52H64zm-8.52-13.287h9.094c.794 0 1.545.08 2.251.243.706.162 1.317.427 1.832.794.515.369.927.868 1.236 1.5.31.634.464 1.436.464 2.407v7.593c0 .706-.104 1.33-.309 1.876a5.863 5.863 0 0 1-.75 1.412 4.549 4.549 0 0 1-.95.97c-.339.252-.625.42-.86.509l3.31 13.596h-5.43L62.5 116.202h-1.59v12.846h-5.43v-30.9zm24.985 24.676c0 .618.155 1.074.464 1.368.31.295.875.442 1.7.442.852 0 1.426-.147 1.721-.442.294-.294.441-.75.441-1.368v-18.452c0-.618-.147-1.074-.44-1.368-.296-.294-.87-.441-1.723-.441-.824 0-1.39.147-1.699.44-.309.295-.464.75-.464 1.369v18.452zm-5.429-18.982c0-1.176.132-2.155.397-2.935.265-.78.7-1.405 1.302-1.876.603-.471 1.383-.795 2.34-.971.956-.177 2.141-.265 3.553-.265 1.413 0 2.605.088 3.576.265.971.176 1.758.5 2.361.97.603.472 1.038 1.097 1.303 1.877.264.78.397 1.759.397 2.935v19.468c0 1.207-.133 2.2-.397 2.979-.265.78-.7 1.398-1.303 1.854-.603.457-1.39.78-2.36.97-.972.192-2.164.288-3.577.288-1.412 0-2.597-.096-3.553-.287-.957-.191-1.737-.514-2.34-.971-.603-.456-1.037-1.074-1.302-1.854-.265-.78-.397-1.772-.397-2.98v-19.467zm27.5 7.593h7.24v17.039c-.854.236-1.906.435-3.157.596a30.047 30.047 0 0 1-3.862.243c-1.737 0-3.112-.132-4.127-.398-1.016-.264-1.804-.662-2.362-1.191a3.662 3.662 0 0 1-1.082-1.965c-.162-.78-.242-1.684-.242-2.714v-19.512c0-.941.102-1.772.31-2.494a3.687 3.687 0 0 1 1.146-1.81c.56-.485 1.317-.845 2.274-1.081.956-.235 2.185-.353 3.685-.353 1.501 0 2.73.118 3.687.353.956.236 1.713.596 2.273 1.08a3.7 3.7 0 0 1 1.148 1.81c.205.723.31 1.554.31 2.495v4.988h-5.43v-4.634c0-.412-.14-.736-.42-.972-.28-.235-.802-.353-1.568-.353-.765 0-1.287.118-1.567.353-.28.236-.419.56-.419.972v19.158c0 .618.206 1.022.618 1.213.412.192.912.287 1.501.287h1.06c.293 0 .558-.014.794-.044v-8.254h-1.81v-4.812zm20.438 0c.618 0 .927-.382.927-1.148v-6.268c0-.412-.088-.7-.265-.861-.176-.161-.471-.243-.883-.243h-2.87v8.52h3.09zm-8.52-13.287h9.094c.794 0 1.545.08 2.25.243.707.162 1.318.427 1.833.794.515.369.927.868 1.236 1.5.309.634.464 1.436.464 2.407v7.593c0 .706-.104 1.33-.31 1.876a5.863 5.863 0 0 1-.75 1.412 4.549 4.549 0 0 1-.95.97c-.338.252-.624.42-.86.509l3.31 13.596h-5.43l-2.868-12.846h-1.59v12.846h-5.43v-30.9zm27.633 5.342h-.883l-1.589 12.58h3.93l-1.458-12.58zm2.12 17.347h-5.21l-1.104 8.211h-5.429l4.238-30.9h9.755l4.326 30.9h-5.473l-1.104-8.21zm18.848-22.689l3.222 23.97h.75l2.738-23.97h9.579v30.9h-5.033v-25.25h-.573l-3.576 25.25h-6.975l-3.663-25.25h-.574v25.25h-5.033v-30.9z" fill="#EB5F5A"/></g></svg>