<?xml version="1.0" encoding="UTF-8"?>
<svg width="29px" height="22px" viewBox="0 0 29 22" version="1.1" xmlns="http://www.w3.org/2000/svg" xmlns:xlink="http://www.w3.org/1999/xlink">
    <!-- Generator: Sketch 46 (44423) - http://www.bohemiancoding.com/sketch -->
    <title>twitter</title>
    <desc>Created with Sketch.</desc>
    <defs></defs>
    <g id="Page-1" stroke="none" stroke-width="1" fill="none" fill-rule="evenodd">
        <path d="M3,18.7609 C5.168,20.1519 7.744,20.9649 10.512,20.9649 C19.608,20.9649 24.748,13.2779 24.439,6.3869 C25.396,5.6969 26.227,4.8329 26.884,3.8509 C26.006,4.2379 25.059,4.4989 24.071,4.6219 C25.081,4.0139 25.858,3.0569 26.224,1.9119 C25.277,2.4689 24.229,2.8809 23.113,3.0989 C22.218,2.1459 20.945,1.5539 19.536,1.5539 C16.374,1.5539 14.048,4.5029 14.761,7.5709 C10.691,7.3629 7.08,5.4119 4.663,2.4459 C3.38,4.6509 3.998,7.5319 6.179,8.9919 C5.376,8.9659 4.619,8.7449 3.959,8.3769 C3.908,10.6519 5.533,12.7679 7.89,13.2419 C7.201,13.4309 6.446,13.4759 5.678,13.3279 C6.3,15.2739 8.11,16.6949 10.254,16.7319 C8.195,18.3449 5.6,19.0679 3,18.7609 Z" id="twitter" stroke="#4C62A7" stroke-width="1.2"></path>
    </g>
</svg>