<svg version="1" xmlns="http://www.w3.org/2000/svg" width="933.333" height="933.333" viewBox="0 0 700.000000 700.000000"><path d="M0 350v350h116.5c110.3 0 116.5-.1 116.6-1.8.1-2.5.1-34 0-38.3l-.1-3.6-93.6.1c-51.5.1-94.1-.2-94.7-.6-.7-.4-1-91.5-1-306.3V43.7l306.1-.1c271.5-.1 306.2.1 306.3 1.4 0 .8.2 75.1.3 165 .2 89.9.3 164 .4 164.6.1.7 7.2 1 21.7 1H700V0H0v350z"/><path d="M345.7 442.6c-.1.1-2.4.4-5.2.8-17.6 2.1-30.1 9.2-35 19.8-1.8 3.9-1.8 3.9-3 11.3-1 6-1.1 185.9-.1 192.8 3.3 23.5 21 32.9 60.5 32.2 27.7-.5 41.9-5.3 49.8-17 5.2-7.7 5.8-13.1 5.8-53v-32.9l-20.5-.1c-11.3 0-21.2.1-22 .3-1.3.3-1.5 4.1-1.4 28 .1 22-.2 28.3-1.3 30.5-3.8 7.6-22.8 7.5-26.6-.1-2-3.9-1.9-165.5.1-169 2.6-4.6 14.6-6.7 21.7-3.8 5.9 2.5 6.3 4.5 6.1 34.4l-.1 26.2h44.2l-.2-34.3c-.2-28-.6-35.3-1.9-40.1-3.1-11-9.6-17.6-21.3-21.7-6.1-2.1-7.6-2.4-17.5-3.8-5.3-.8-31.3-1.2-32.1-.5zM486 443.6c-16.3 2.6-24.4 6.3-30.6 13.9-6.8 8.4-7.7 12.7-8.2 40.7-.4 27.9.4 35.2 4.9 44.8 2.8 5.9 11.9 16.1 23.4 26 8.5 7.4 19.1 16.6 22.5 19.6 18.7 16.5 22.1 19.8 22.7 22.2.4 1.5.8 12 .8 23.3 0 23.7 0 23.9-8.6 25.9-9.2 2.2-20.9-.5-22.5-5.2-.5-1.2-.8-14.2-.9-28.8v-26.5h-43.7l.1 31.6c.1 33.5.6 39 4.7 47.8 6.5 14.3 20.1 19.9 50.4 20.6 35.6.8 52.7-5.7 60.6-23 3.4-7.5 3.9-12.4 3.8-44 0-41.3.3-40.6-30.5-68.5-4.5-4.1-8.7-8-9.3-8.5-.6-.6-6.9-6.4-14.1-13-21.8-20-20.5-17.6-20.5-39.4 0-17.2.4-18.5 6-20.8 6.5-2.6 20.2-.8 22.7 2.9.4.7 1 11.4 1.3 23.8l.5 22.5 21.8.1 21.8.1-.2-26.7c-.1-28-1-35.4-4.9-42.9-5.1-9.8-13.8-15.1-30-18.2-8-1.6-35.2-1.8-44-.3zM596.5 571v126H698v-38.9h-28.1c-15.5-.1-28.5-.3-28.8-.7-.3-.3-.6-16.5-.6-36l-.1-35.4 3.1-.1c1.6 0 14.1 0 27.8-.1 18 0 24.7-.3 24.8-1.1.3-4.7.1-36.9-.3-37.2-.2-.2-12.7-.6-27.8-.7l-27.5-.3v-31.3c-.1-20.8.3-31.2 1-31.3.5 0 13.5 0 28.8-.1H698V445H596.5v126z"/></svg>