<svg version="1" xmlns="http://www.w3.org/2000/svg" width="933.333" height="933.333" viewBox="0 0 700.000000 700.000000"><path d="M0 350v350h234v-44H44V44h612v332h44V0H0v350z"/><path d="M336.5 443.5c-18.9 3.6-28.2 10.3-32.9 23.8-2.1 6.2-2.1 6.8-2.1 102.7 0 91.4.1 96.9 1.9 103.3 3.9 14.2 14.4 22 33.9 25.3 12.1 2 40.4 1.5 51-.9 12.8-3 21.8-9 26.2-17.7 3.8-7.6 4.5-15.5 4.5-50.8V596h-45v28.9c0 28.7 0 29-2.3 31.6-4.6 5.4-19.4 5.2-23.7-.2-2-2.5-2-4-2-85.3s0-82.8 2-85.3c4.3-5.4 19.1-5.6 23.7-.2 2.3 2.6 2.3 3 2.3 30.1V543h45v-32.8c-.1-34.5-.7-40.9-4.7-48.7-5-9.5-14.6-15-31.8-18.1-9.9-1.7-36.3-1.7-46 .1zM485 443.1c-19.4 3.3-29.8 10.2-35.6 23.9-1.6 4-1.9 7.8-2.2 32-.6 46.1-1.4 44.5 43.4 83.7 19.2 16.7 28.7 25.7 29.4 27.7.5 1.6 1 12 1 23.6 0 20.3 0 20.7-2.3 22.8-5.3 5-22 4.8-26.4-.3-2.3-2.6-2.3-3-2.3-30.1V599h-45.2l.5 33.8c.3 25.5.8 34.9 1.9 38.7 6.2 21 21.4 28.5 57.8 28.5 31.7 0 48.3-6.3 55.9-21.2 4.6-9.2 5.3-15.9 4.9-48.5-.4-31.6-.8-34.1-7-43.1-1.6-2.4-16.8-17.1-33.7-32.7-16.9-15.6-31.3-29.6-32.1-31.2-1.9-3.9-2.7-32.2-1-36.3 1.5-3.5 6.1-5.3 14-5.4 8 0 12.6 1.8 13.9 5.6.7 1.8 1.1 11.6 1.1 23.9V532h44v-28.1c0-25.3-.2-28.9-2-34.9-4.6-15.4-14.4-22.5-36-25.9-7.8-1.3-34.3-1.2-42 0zM596.5 445.2c-.3.7-.4 57.8-.3 126.8l.3 125.5 50.8.3 50.7.2v-40h-57v-72h56l-.2-19.8-.3-19.7-27.7-.3-27.8-.2v-62h57v-40h-50.5c-39.5 0-50.7.3-51 1.2z"/></svg>